<svg width="12" height="12" viewBox="0 0 12 12" fill="none" xmlns="http://www.w3.org/2000/svg">
<g clip-path="url(#clip0_14246_450637)">
<path d="M7.27539 5.625C7.27539 4.92084 6.70416 4.34961 6 4.34961C5.29584 4.34961 4.72461 4.92084 4.72461 5.625C4.72461 6.32165 5.28375 6.88644 5.97754 6.89844H6.02148C6.71573 6.88696 7.27539 6.32198 7.27539 5.625ZM6 8.09961C5.99576 8.09961 5.99154 8.09865 5.9873 8.09863C5.47947 8.10096 4.98184 8.24217 4.54883 8.50781C4.25036 8.69101 3.99087 8.92934 3.78223 9.20703C4.41201 9.64337 5.17581 9.90039 6 9.90039C6.8239 9.90039 7.58714 9.64309 8.2168 9.20703C8.00821 8.92954 7.74947 8.69091 7.45117 8.50781C7.01789 8.242 6.5199 8.10078 6.01172 8.09863C6.00781 8.09865 6.00391 8.09961 6 8.09961ZM11.0996 6C11.0996 8.81665 8.81665 11.0996 6 11.0996C3.18335 11.0996 0.900391 8.81665 0.900391 6C0.900391 3.18335 3.18335 0.900391 6 0.900391C8.81665 0.900391 11.0996 3.18335 11.0996 6ZM8.47461 5.625C8.47461 6.28507 8.21412 6.88244 7.79297 7.32617C7.89019 7.37531 7.98581 7.4281 8.0791 7.48535C8.46628 7.723 8.80778 8.02483 9.09082 8.375C9.59713 7.71707 9.90039 6.89438 9.90039 6C9.90039 3.84609 8.15391 2.09961 6 2.09961C3.84609 2.09961 2.09961 3.84609 2.09961 6C2.09961 6.89417 2.40211 7.71714 2.9082 8.375C3.19132 8.02463 3.53354 7.72311 3.9209 7.48535C4.01395 7.42825 4.10911 7.3752 4.20605 7.32617C3.78517 6.88248 3.52539 6.28483 3.52539 5.625C3.52539 4.2581 4.6331 3.15039 6 3.15039C7.3669 3.15039 8.47461 4.2581 8.47461 5.625Z" fill="black"/>
</g>
<defs>
<clipPath id="clip0_14246_450637">
<rect width="12" height="12" fill="white"/>
</clipPath>
</defs>
</svg>
