<svg width="12" height="12" viewBox="0 0 12 12" fill="none" xmlns="http://www.w3.org/2000/svg">
<path d="M2.47461 8.77539H9.52539V5.09961H2.47461V8.77539ZM7.125 5.77539C7.45637 5.77539 7.72461 6.04363 7.72461 6.375C7.72461 6.70637 7.45637 6.97461 7.125 6.97461H4.875C4.54363 6.97461 4.27539 6.70637 4.27539 6.375C4.27539 6.04363 4.54363 5.77539 4.875 5.77539H7.125ZM1.72461 3.90039H10.2754V3.22461H1.72461V3.90039ZM11.4746 4.125C11.4746 4.58604 11.1546 4.97069 10.7246 5.07227V9C10.7246 9.25858 10.6223 9.5066 10.4395 9.68945C10.2566 9.8723 10.0086 9.97461 9.75 9.97461H2.25C1.99141 9.97461 1.7434 9.8723 1.56055 9.68945C1.3777 9.50661 1.27539 9.25859 1.27539 9V5.07227C0.845385 4.97069 0.525391 4.58604 0.525391 4.125V3C0.525391 2.46152 0.961522 2.02539 1.5 2.02539H10.5C11.0385 2.02539 11.4746 2.46152 11.4746 3V4.125Z" fill="black"/>
</svg>
