<svg width="12" height="12" viewBox="0 0 12 12" fill="none" xmlns="http://www.w3.org/2000/svg">
<g clip-path="url(#clip0_13996_98798)">
<path d="M9.90039 6C9.90039 3.84609 8.15391 2.09961 6 2.09961C3.84609 2.09961 2.09961 3.84609 2.09961 6C2.09961 8.15391 3.84609 9.90039 6 9.90039C8.15391 9.90039 9.90039 8.15391 9.90039 6ZM5.40039 4.125C5.40039 3.79363 5.66863 3.52539 6 3.52539C6.33137 3.52539 6.59961 3.79363 6.59961 4.125V6.42773L7.07617 5.95117C7.31049 5.71686 7.68951 5.71686 7.92383 5.95117C8.15814 6.18549 8.15814 6.56451 7.92383 6.79883L6.42383 8.29883C6.18951 8.53314 5.81049 8.53314 5.57617 8.29883L4.07617 6.79883C3.84186 6.56451 3.84186 6.18549 4.07617 5.95117C4.31049 5.71686 4.68951 5.71686 4.92383 5.95117L5.40039 6.42773V4.125ZM11.0996 6C11.0996 8.81665 8.81665 11.0996 6 11.0996C3.18335 11.0996 0.900391 8.81665 0.900391 6C0.900391 3.18335 3.18335 0.900391 6 0.900391C8.81665 0.900391 11.0996 3.18335 11.0996 6Z" fill="black"/>
</g>
<defs>
<clipPath id="clip0_13996_98798">
<rect width="12" height="12" fill="white"/>
</clipPath>
</defs>
</svg>
