<svg width="12" height="12" viewBox="0 0 12 12" fill="none" xmlns="http://www.w3.org/2000/svg">
<path d="M9.15041 2.99982C9.15037 2.76116 9.05549 2.53187 8.88674 2.3631C8.71799 2.19434 8.48867 2.0995 8.25002 2.09943C8.01139 2.09943 7.7821 2.19442 7.61331 2.3631L2.96096 7.07892C2.65569 7.3892 2.48556 7.80868 2.48733 8.24396C2.48915 8.67916 2.66299 9.09637 2.97073 9.40411C3.27848 9.71185 3.69567 9.88473 4.13088 9.88654C4.5118 9.88809 4.87994 9.75844 5.17385 9.5213L5.29495 9.4129L9.1387 5.57501C9.37312 5.34135 9.75232 5.3419 9.98635 5.57599C10.2205 5.81046 10.2208 6.19048 9.98635 6.42462L6.13674 10.2684C5.60079 10.7957 4.87784 11.0898 4.126 11.0867C3.37422 11.0836 2.6537 10.7843 2.12209 10.2527C1.59051 9.72116 1.29122 9.00061 1.28811 8.24884C1.28505 7.497 1.57918 6.77405 2.10647 6.2381L6.76174 1.5174L6.76467 1.51447C7.15851 1.12074 7.69313 0.900208 8.25002 0.900208C8.80672 0.900277 9.34064 1.12095 9.7344 1.51447C10.1282 1.90828 10.3496 2.44288 10.3496 2.99982C10.3496 3.55556 10.1285 4.08766 9.73635 4.48126L9.73733 4.48224L5.08303 9.20197L5.07327 9.21075C4.81895 9.45772 4.47757 9.5951 4.12307 9.59259C3.76859 9.59005 3.4295 9.44763 3.17873 9.19708C2.928 8.94646 2.78599 8.60723 2.78323 8.25275C2.78056 7.89813 2.91708 7.55603 3.16409 7.30157L3.16702 7.29865L7.07229 3.32892C7.3047 3.09297 7.68479 3.08979 7.92092 3.32208C8.15699 3.55443 8.15995 3.93451 7.92776 4.17072L4.02444 8.13654L4.02541 8.13751C3.99806 8.16569 3.98225 8.20372 3.98245 8.24298C3.98274 8.28234 3.99858 8.3206 4.02639 8.34845C4.05426 8.37631 4.09246 8.39212 4.13186 8.3924C4.15142 8.39251 4.17067 8.38878 4.1885 8.38165L4.23733 8.34943L8.88381 3.63947L8.88674 3.63654C9.05542 3.46774 9.15041 3.23846 9.15041 2.99982Z" fill="black"/>
</svg>
