<svg width="12" height="12" viewBox="0 0 12 12" fill="none" xmlns="http://www.w3.org/2000/svg">
<g clip-path="url(#clip0_14236_425085)">
<path d="M7.13184 1.02641C7.31271 0.885815 7.55786 0.860326 7.76367 0.960983C7.96952 1.06167 8.09961 1.27089 8.09961 1.50005V10.5C8.09961 10.7292 7.96952 10.9384 7.76367 11.0391C7.55787 11.1398 7.31271 11.1143 7.13184 10.9737L3.91895 8.47466H1.875C1.61641 8.47466 1.3684 8.37235 1.18555 8.1895C1.0027 8.00665 0.900391 7.75863 0.900391 7.50005V4.50005C0.900391 4.24146 1.0027 3.99344 1.18555 3.81059L1.25684 3.74614C1.43038 3.60383 1.64861 3.52544 1.875 3.52544H3.91895L7.13184 1.02641ZM4.49316 4.59868C4.38787 4.68053 4.25837 4.72466 4.125 4.72466H2.09961V7.27544H4.125L4.22363 7.28325C4.3214 7.29954 4.4141 7.33995 4.49316 7.40141L6.90039 9.27348V2.72563L4.49316 4.59868ZM10.2754 7.87505V4.12505C10.2754 3.79367 10.5436 3.52544 10.875 3.52544C11.2064 3.52544 11.4746 3.79367 11.4746 4.12505V7.87505C11.4746 8.20642 11.2064 8.47466 10.875 8.47466C10.5436 8.47466 10.2754 8.20642 10.2754 7.87505ZM8.77539 7.12505V4.87505C8.77539 4.54367 9.04363 4.27544 9.375 4.27544C9.70637 4.27544 9.97461 4.54367 9.97461 4.87505V7.12505C9.97461 7.45642 9.70637 7.72466 9.375 7.72466C9.04363 7.72466 8.77539 7.45642 8.77539 7.12505Z" fill="black"/>
</g>
<defs>
<clipPath id="clip0_14236_425085">
<rect width="12" height="12" fill="white"/>
</clipPath>
</defs>
</svg>
