<svg width="12" height="12" viewBox="0 0 12 12" fill="none" xmlns="http://www.w3.org/2000/svg">
<path d="M1.84619 1.43122C2.09129 1.2084 2.47091 1.22634 2.69385 1.47126L10.1938 9.72126C10.4167 9.96642 10.3989 10.346 10.1538 10.5689C9.90863 10.7918 9.52906 10.774 9.30615 10.5289L8.46143 9.60016H8.01221C7.91343 9.93133 7.73366 10.2361 7.48486 10.4849C7.09112 10.8786 6.5573 11.1001 6.00049 11.1002C5.44353 11.1002 4.90896 10.8788 4.51514 10.4849C4.26638 10.2361 4.08655 9.93132 3.98779 9.60016H2.24658C2.07597 9.59914 1.90861 9.55331 1.76123 9.46735C1.61383 9.38136 1.49162 9.25797 1.40674 9.10993C1.32188 8.96189 1.27757 8.79423 1.27783 8.6236C1.2781 8.45296 1.32337 8.28505 1.40869 8.13727C1.63297 7.74908 1.97859 6.63924 2.021 5.17341L2.0249 4.87555C2.02393 4.22762 2.18393 3.59281 2.48389 3.02399L1.80615 2.27887C1.58332 2.03376 1.60123 1.65415 1.84619 1.43122ZM5.36377 9.6363C5.53255 9.80508 5.76179 9.89997 6.00049 9.89997C6.23904 9.89989 6.46753 9.80497 6.63623 9.6363C6.64782 9.62471 6.65855 9.6123 6.66943 9.60016H5.33057C5.34146 9.61232 5.35217 9.62469 5.36377 9.6363ZM8.7749 4.87555C8.7749 4.39036 8.6475 3.91245 8.40576 3.49176C8.16396 3.07113 7.8162 2.72136 7.39697 2.47712C6.97761 2.2328 6.50145 2.102 6.01611 2.09919C5.53093 2.0964 5.05341 2.22119 4.63135 2.46051C4.34311 2.62399 3.97647 2.52317 3.81299 2.23493C3.64958 1.9467 3.75134 1.58003 4.03955 1.41657C4.64409 1.07381 5.32801 0.895988 6.02295 0.899968C6.71816 0.904001 7.40075 1.09004 8.00147 1.44001C8.60207 1.78997 9.10044 2.2914 9.44678 2.89411C9.79314 3.49689 9.97521 4.18035 9.9751 4.87555C9.97515 6.17208 10.2209 7.24294 10.4526 7.83356C10.5737 8.14191 10.422 8.49068 10.1138 8.61188C9.80531 8.73297 9.45654 8.58049 9.33545 8.27204C9.04333 7.52768 8.77496 6.30622 8.7749 4.87555ZM3.36768 3.99665C3.27379 4.278 3.22461 4.57452 3.2251 4.87458C3.22504 6.36385 2.93166 7.64868 2.61084 8.39997H7.37061L3.36768 3.99665Z" fill="black"/>
</svg>
