<svg width="12" height="12" viewBox="0 0 12 12" fill="none" xmlns="http://www.w3.org/2000/svg">
<path d="M8.7749 4.875C8.7749 4.1391 8.48272 3.43349 7.9624 2.91309C7.44206 2.39274 6.73636 2.09969 6.00049 2.09961C5.26451 2.09961 4.55801 2.39267 4.0376 2.91309C3.5174 3.43347 3.2251 4.13918 3.2251 4.875C3.2251 6.36476 2.93176 7.64909 2.61084 8.40039H9.39014C9.06878 7.64904 8.7749 6.365 8.7749 4.875ZM5.36377 9.63672C5.53254 9.80541 5.76187 9.90039 6.00049 9.90039C6.23892 9.90031 6.46755 9.80522 6.63623 9.63672C6.64805 9.6249 6.65933 9.612 6.67041 9.59961H5.33057C5.34157 9.61189 5.35205 9.625 5.36377 9.63672ZM9.9751 4.875C9.9751 6.2869 10.2647 7.40883 10.4976 7.94434L10.5933 8.13672C10.6573 8.24772 10.6986 8.37083 10.7153 8.49707L10.7241 8.62402L10.7153 8.75098C10.6989 8.87738 10.6582 9.00011 10.5942 9.11133C10.5091 9.25927 10.3863 9.38199 10.2388 9.46777C10.0911 9.55357 9.92325 9.59898 9.75244 9.59961H8.01221C7.91346 9.93093 7.73376 10.2365 7.48486 10.4854C7.09114 10.8789 6.55718 11.0995 6.00049 11.0996C5.44361 11.0996 4.90895 10.8791 4.51514 10.4854C4.26622 10.2364 4.08654 9.93097 3.98779 9.59961H2.24658C2.07594 9.59858 1.90864 9.55279 1.76123 9.4668C1.61399 9.38088 1.49159 9.25821 1.40674 9.11035C1.32186 8.9623 1.27757 8.7937 1.27783 8.62305C1.27818 8.45256 1.32344 8.28535 1.40869 8.1377C1.64794 7.72383 2.0249 6.48803 2.0249 4.875C2.0249 3.82092 2.44372 2.80988 3.18897 2.06445C3.93442 1.319 4.94625 0.900391 6.00049 0.900391C7.05462 0.900471 8.06565 1.31907 8.81104 2.06445C9.5564 2.8099 9.9751 3.82084 9.9751 4.875Z" fill="black"/>
</svg>
