<svg width="12" height="12" viewBox="0 0 12 12" fill="none" xmlns="http://www.w3.org/2000/svg">
<path d="M10.0241 5.88092L4.77407 11.5059C4.71843 11.5653 4.645 11.605 4.56484 11.6189C4.48468 11.6329 4.40215 11.6204 4.32971 11.5834C4.25726 11.5463 4.19883 11.4867 4.16323 11.4136C4.12763 11.3404 4.11679 11.2577 4.13235 11.1778L4.81954 7.74045L2.11813 6.72607C2.06011 6.70437 2.00838 6.66864 1.96754 6.62206C1.92671 6.57549 1.89804 6.51952 1.88412 6.45916C1.87019 6.39881 1.87143 6.33594 1.88772 6.27618C1.90402 6.21642 1.93487 6.16163 1.97751 6.1167L7.22751 0.491698C7.28314 0.432324 7.35658 0.392657 7.43674 0.378681C7.51689 0.364706 7.59942 0.377181 7.67187 0.414224C7.74431 0.451267 7.80275 0.510868 7.83835 0.584033C7.87395 0.657199 7.88479 0.739958 7.86922 0.819823L7.18016 4.26092L9.88157 5.27389C9.93916 5.29573 9.99048 5.33143 10.031 5.37782C10.0715 5.42421 10.1 5.47987 10.1139 5.53987C10.1278 5.59988 10.1267 5.66238 10.1107 5.72186C10.0947 5.78134 10.0643 5.83597 10.0222 5.88092H10.0241Z" fill="black"/>
</svg>
