<svg width="12" height="12" viewBox="0 0 12 12" fill="none" xmlns="http://www.w3.org/2000/svg">
<path d="M9.90039 3.75C9.90039 3.71022 9.88458 3.67169 9.85645 3.64355C9.82831 3.61542 9.78978 3.59961 9.75 3.59961H8.25C8.04948 3.59961 7.86227 3.49979 7.75098 3.33301L7.17871 2.47461H4.82129L4.24902 3.33301C4.13773 3.49979 3.95052 3.59961 3.75 3.59961H2.25C2.21022 3.59961 2.17169 3.61542 2.14355 3.64355C2.11542 3.67169 2.09961 3.71022 2.09961 3.75V9C2.09961 9.03978 2.11542 9.07831 2.14355 9.10645C2.17169 9.13458 2.21022 9.15039 2.25 9.15039H9.75C9.78978 9.15039 9.82831 9.13458 9.85645 9.10645C9.88458 9.07831 9.90039 9.03978 9.90039 9V3.75ZM7.08789 6.1875C7.08789 5.58689 6.60061 5.09961 6 5.09961C5.39939 5.09961 4.91211 5.58689 4.91211 6.1875C4.91211 6.78811 5.39939 7.27539 6 7.27539C6.60061 7.27539 7.08789 6.78811 7.08789 6.1875ZM8.28711 6.1875C8.28711 7.45085 7.26335 8.47461 6 8.47461C4.73665 8.47461 3.71289 7.45085 3.71289 6.1875C3.71289 4.92415 4.73665 3.90039 6 3.90039C7.26335 3.90039 8.28711 4.92415 8.28711 6.1875ZM11.0996 9C11.0996 9.35804 10.9583 9.7019 10.7051 9.95508C10.4519 10.2083 10.108 10.3496 9.75 10.3496H2.25C1.89196 10.3496 1.5481 10.2083 1.29492 9.95508C1.04175 9.7019 0.900391 9.35804 0.900391 9V3.75C0.900391 3.39196 1.04175 3.0481 1.29492 2.79492C1.5481 2.54175 1.89196 2.40039 2.25 2.40039H3.42871L4.00098 1.54199L4.0459 1.48242C4.15904 1.35152 4.32455 1.27539 4.5 1.27539H7.5C7.70052 1.27539 7.88773 1.37521 7.99902 1.54199L8.57129 2.40039H9.75C10.108 2.40039 10.4519 2.54175 10.7051 2.79492C10.9583 3.0481 11.0996 3.39196 11.0996 3.75V9Z" fill="black"/>
</svg>
