<svg width="12" height="12" viewBox="0 0 12 12" fill="none" xmlns="http://www.w3.org/2000/svg">
<path d="M7.44675 3.17804C7.68304 2.94597 8.06315 2.94884 8.29538 3.18487C8.52758 3.42129 8.52399 3.80131 8.28757 4.0335L3.41062 8.82452C3.17726 9.05352 2.80316 9.05352 2.5698 8.82452L0.479954 6.77179C0.243525 6.5396 0.239961 6.15958 0.472141 5.92315C0.704265 5.68685 1.08338 5.68337 1.3198 5.91534L2.98972 7.55499L7.44675 3.17804ZM10.6792 3.17804C10.9155 2.94594 11.2956 2.94876 11.5278 3.18487C11.76 3.42128 11.7564 3.80131 11.52 4.0335L6.64304 8.82452C6.40665 9.05658 6.02658 9.05298 5.79441 8.81671C5.56221 8.58029 5.5658 8.20027 5.80222 7.96807L10.6792 3.17804Z" fill="black"/>
</svg>
