<svg width="12" height="12" viewBox="0 0 12 12" fill="none" xmlns="http://www.w3.org/2000/svg">
<g clip-path="url(#clip0_14190_420792)">
<path d="M9.90039 6C9.90039 3.84609 8.15391 2.09961 6 2.09961C3.84609 2.09961 2.09961 3.84609 2.09961 6C2.09961 8.15391 3.84609 9.90039 6 9.90039C8.15391 9.90039 9.90039 8.15391 9.90039 6ZM5.40039 3.375C5.40039 3.04363 5.66863 2.77539 6 2.77539C6.33137 2.77539 6.59961 3.04363 6.59961 3.375V5.40039H8.625C8.95637 5.40039 9.22461 5.66863 9.22461 6C9.22461 6.33137 8.95637 6.59961 8.625 6.59961H6C5.66863 6.59961 5.40039 6.33137 5.40039 6V3.375ZM11.0996 6C11.0996 8.81665 8.81665 11.0996 6 11.0996C3.18335 11.0996 0.900391 8.81665 0.900391 6C0.900391 3.18335 3.18335 0.900391 6 0.900391C8.81665 0.900391 11.0996 3.18335 11.0996 6Z" fill="black"/>
</g>
<defs>
<clipPath id="clip0_14190_420792">
<rect width="12" height="12" fill="white"/>
</clipPath>
</defs>
</svg>
