<svg width="12" height="12" viewBox="0 0 12 12" fill="none" xmlns="http://www.w3.org/2000/svg">
<path d="M2.09961 9.15039H9.90039V2.84961H2.09961V9.15039ZM8.25 6.90039C8.58137 6.90039 8.84961 7.16863 8.84961 7.5C8.84961 7.83137 8.58137 8.09961 8.25 8.09961H6.375C6.04363 8.09961 5.77539 7.83137 5.77539 7.5C5.77539 7.16863 6.04363 6.90039 6.375 6.90039H8.25ZM3.28125 4.125C3.48826 3.86624 3.86624 3.82424 4.125 4.03125L6 5.53125C6.14233 5.64511 6.22461 5.81773 6.22461 6C6.22461 6.18227 6.14233 6.35489 6 6.46875L4.125 7.96875C3.86624 8.17576 3.48826 8.13376 3.28125 7.875C3.07424 7.61624 3.11624 7.23826 3.375 7.03125L4.66406 6L3.375 4.96875C3.11624 4.76174 3.07424 4.38376 3.28125 4.125ZM11.0996 9.375C11.0996 9.91348 10.6635 10.3496 10.125 10.3496H1.875C1.33652 10.3496 0.900391 9.91348 0.900391 9.375V2.625C0.900391 2.08652 1.33652 1.65039 1.875 1.65039H10.125C10.6635 1.65039 11.0996 2.08652 11.0996 2.625V9.375Z" fill="black"/>
</svg>
