<svg width="12" height="12" viewBox="0 0 12 12" fill="none" xmlns="http://www.w3.org/2000/svg">
<path d="M10.125 1.27539C10.4564 1.27539 10.7246 1.54363 10.7246 1.875V7.875C10.7246 8.20637 10.4564 8.47461 10.125 8.47461H8.47461V10.125C8.47461 10.4564 8.20637 10.7246 7.875 10.7246H1.875C1.54363 10.7246 1.27539 10.4564 1.27539 10.125V4.125C1.27539 3.79363 1.54363 3.52539 1.875 3.52539H3.52539V1.875C3.52539 1.54363 3.79363 1.27539 4.125 1.27539H10.125ZM2.47461 9.52539H7.27539V4.72461H2.47461V9.52539ZM4.72461 3.52539H7.875C8.20637 3.52539 8.47461 3.79363 8.47461 4.125V7.27539H9.52539V2.47461H4.72461V3.52539Z" fill="black"/>
</svg>
