<svg width="12" height="12" viewBox="0 0 12 12" fill="none" xmlns="http://www.w3.org/2000/svg">
<path d="M3.22461 9.52539H8.77539V3.22461H3.22461V9.52539ZM4.27539 7.875V4.875C4.27539 4.54363 4.54363 4.27539 4.875 4.27539C5.20637 4.27539 5.47461 4.54363 5.47461 4.875V7.875C5.47461 8.20637 5.20637 8.47461 4.875 8.47461C4.54363 8.47461 4.27539 8.20637 4.27539 7.875ZM6.52539 7.875V4.875C6.52539 4.54363 6.79363 4.27539 7.125 4.27539C7.45637 4.27539 7.72461 4.54363 7.72461 4.875V7.875C7.72461 8.20637 7.45637 8.47461 7.125 8.47461C6.79363 8.47461 6.52539 8.20637 6.52539 7.875ZM7.27539 1.875C7.27539 1.83522 7.25958 1.79669 7.23145 1.76855C7.20331 1.74042 7.16478 1.72461 7.125 1.72461H4.875C4.83522 1.72461 4.79668 1.74042 4.76855 1.76855C4.74042 1.79669 4.72461 1.83522 4.72461 1.875V2.02539H7.27539V1.875ZM8.47461 2.02539H10.125C10.4564 2.02539 10.7246 2.29363 10.7246 2.625C10.7246 2.95637 10.4564 3.22461 10.125 3.22461H9.97461V9.75C9.97461 10.0086 9.8723 10.2566 9.68945 10.4395C9.5066 10.6223 9.25858 10.7246 9 10.7246H3C2.74141 10.7246 2.4934 10.6223 2.31055 10.4395C2.1277 10.2566 2.02539 10.0086 2.02539 9.75V3.22461H1.875C1.54363 3.22461 1.27539 2.95637 1.27539 2.625C1.27539 2.29363 1.54363 2.02539 1.875 2.02539H3.52539V1.875C3.52539 1.51696 3.66675 1.1731 3.91992 0.919922C4.1731 0.666748 4.51696 0.525391 4.875 0.525391H7.125C7.48304 0.525391 7.8269 0.666748 8.08008 0.919922C8.33325 1.1731 8.47461 1.51696 8.47461 1.875V2.02539Z" fill="black"/>
</svg>
