<svg width="12" height="12" viewBox="0 0 12 12" fill="none" xmlns="http://www.w3.org/2000/svg">
<path d="M2.47461 7.74902V9.52539H4.25098L8.15039 5.62402L6.375 3.84863L2.47461 7.74902ZM7.22266 3L8.99902 4.77637L9.80566 3.96875L8.03027 2.19238L7.22266 3ZM11.0996 3.96875C11.0995 4.22705 10.997 4.47451 10.8145 4.65723L9.42969 6.04102C9.42743 6.04334 9.42613 6.0475 9.42383 6.0498C9.42137 6.05226 9.41753 6.05326 9.41504 6.05566L5.03418 10.4395C4.85147 10.622 4.60297 10.7245 4.34473 10.7246H2.25C1.99141 10.7246 1.7434 10.6223 1.56055 10.4395C1.37772 10.2566 1.27539 10.0086 1.27539 9.75V7.65527C1.27551 7.39703 1.37804 7.14853 1.56055 6.96582L7.34082 1.18555C7.52362 1.00287 7.77184 0.900422 8.03027 0.900391C8.25663 0.900391 8.4749 0.978821 8.64844 1.12109L8.71973 1.18555L10.8145 3.27832C10.9972 3.46115 11.0996 3.71028 11.0996 3.96875Z" fill="black"/>
</svg>
