<svg width="12" height="12" viewBox="0 0 12 12" fill="none" xmlns="http://www.w3.org/2000/svg">
<g clip-path="url(#clip0_14246_498266)">
<path d="M0.900391 6.00005C0.900391 3.1834 3.18335 0.900439 6 0.900439C6.33137 0.900439 6.59961 1.16868 6.59961 1.50005C6.59961 1.83142 6.33137 2.09966 6 2.09966C3.84609 2.09966 2.09961 3.84614 2.09961 6.00005C2.09961 8.15396 3.84609 9.90044 6 9.90044C8.15391 9.90044 9.90039 8.15396 9.90039 6.00005C9.90039 5.66868 10.1686 5.40044 10.5 5.40044C10.8314 5.40044 11.0996 5.66868 11.0996 6.00005C11.0996 8.8167 8.81665 11.0997 6 11.0997C3.18335 11.0997 0.900391 8.8167 0.900391 6.00005Z" fill="black"/>
<path d="M4.3125 5.62505C4.62316 5.62505 4.875 5.37321 4.875 5.06255C4.875 4.75189 4.62316 4.50005 4.3125 4.50005C4.00184 4.50005 3.75 4.75189 3.75 5.06255C3.75 5.37321 4.00184 5.62505 4.3125 5.62505Z" fill="black"/>
<path d="M7.6875 5.62505C7.99816 5.62505 8.25 5.37321 8.25 5.06255C8.25 4.75189 7.99816 4.50005 7.6875 4.50005C7.37684 4.50005 7.125 4.75189 7.125 5.06255C7.125 5.37321 7.37684 5.62505 7.6875 5.62505Z" fill="black"/>
<path d="M7.35547 6.82427C7.52144 6.53759 7.88901 6.43965 8.17578 6.60552C8.46246 6.77149 8.5604 7.13906 8.39453 7.42583C7.9147 8.25526 7.07809 8.84966 6 8.84966C4.92191 8.84966 4.0853 8.25526 3.60547 7.42583C3.4396 7.13906 3.53754 6.77149 3.82422 6.60552C4.11099 6.43965 4.47856 6.53759 4.64453 6.82427C4.94285 7.34003 5.41225 7.65044 6 7.65044C6.58775 7.65044 7.05715 7.34003 7.35547 6.82427Z" fill="black"/>
<path d="M8.90039 4.125V3.09961H7.875C7.54363 3.09961 7.27539 2.83137 7.27539 2.5C7.27539 2.16863 7.54363 1.90039 7.875 1.90039H8.90039V0.875C8.90039 0.543629 9.16863 0.275391 9.5 0.275391C9.83137 0.275391 10.0996 0.543629 10.0996 0.875V1.90039H11.125C11.4564 1.90039 11.7246 2.16863 11.7246 2.5C11.7246 2.83137 11.4564 3.09961 11.125 3.09961H10.0996V4.125C10.0996 4.45637 9.83137 4.72461 9.5 4.72461C9.16863 4.72461 8.90039 4.45637 8.90039 4.125Z" fill="black"/>
</g>
<defs>
<clipPath id="clip0_14246_498266">
<rect width="12" height="12" fill="white"/>
</clipPath>
</defs>
</svg>
