<svg width="12" height="12" viewBox="0 0 12 12" fill="none" xmlns="http://www.w3.org/2000/svg">
<g clip-path="url(#clip0_14246_434568)">
<path d="M9.90039 6C9.90039 3.84609 8.15391 2.09961 6 2.09961C3.84609 2.09961 2.09961 3.84609 2.09961 6C2.09961 8.15391 3.84609 9.90039 6 9.90039C8.15391 9.90039 9.90039 8.15391 9.90039 6ZM11.0996 6C11.0996 8.81665 8.81665 11.0996 6 11.0996C3.18335 11.0996 0.900391 8.81665 0.900391 6C0.900391 3.18335 3.18335 0.900391 6 0.900391C8.81665 0.900391 11.0996 3.18335 11.0996 6Z" fill="black"/>
<path d="M4.3125 5.625C4.62316 5.625 4.875 5.37316 4.875 5.0625C4.875 4.75184 4.62316 4.5 4.3125 4.5C4.00184 4.5 3.75 4.75184 3.75 5.0625C3.75 5.37316 4.00184 5.625 4.3125 5.625Z" fill="black"/>
<path d="M7.6875 5.625C7.99816 5.625 8.25 5.37316 8.25 5.0625C8.25 4.75184 7.99816 4.5 7.6875 4.5C7.37684 4.5 7.125 4.75184 7.125 5.0625C7.125 5.37316 7.37684 5.625 7.6875 5.625Z" fill="black"/>
<path d="M7.35547 6.82422C7.52144 6.53754 7.88901 6.4396 8.17578 6.60547C8.46246 6.77144 8.5604 7.13901 8.39453 7.42578C7.9147 8.25522 7.07809 8.84961 6 8.84961C4.92191 8.84961 4.0853 8.25522 3.60547 7.42578C3.4396 7.13901 3.53754 6.77144 3.82422 6.60547C4.11099 6.4396 4.47856 6.53754 4.64453 6.82422C4.94285 7.33999 5.41225 7.65039 6 7.65039C6.58775 7.65039 7.05715 7.33999 7.35547 6.82422Z" fill="black"/>
</g>
<defs>
<clipPath id="clip0_14246_434568">
<rect width="12" height="12" fill="white"/>
</clipPath>
</defs>
</svg>
