<svg width="12" height="12" viewBox="0 0 12 12" fill="none" xmlns="http://www.w3.org/2000/svg">
<path d="M11.1 8.81675L7.0008 1.69784C6.89836 1.52343 6.75212 1.37882 6.57658 1.27834C6.40104 1.17786 6.20228 1.125 6.00001 1.125C5.79775 1.125 5.59899 1.17786 5.42345 1.27834C5.24791 1.37882 5.10167 1.52343 4.99923 1.69784L0.900015 8.81675C0.801453 8.98544 0.749512 9.17731 0.749512 9.37269C0.749512 9.56806 0.801453 9.75993 0.900015 9.92862C1.00114 10.1041 1.14713 10.2495 1.323 10.3499C1.49887 10.4503 1.69829 10.5021 1.9008 10.5H10.0992C10.3016 10.502 10.5008 10.4501 10.6765 10.3497C10.8522 10.2493 10.998 10.1039 11.0991 9.92862C11.1978 9.76001 11.2499 9.56819 11.25 9.37281C11.2502 9.17744 11.1984 8.98553 11.1 8.81675ZM5.62501 4.87503C5.62501 4.77557 5.66452 4.68019 5.73485 4.60987C5.80518 4.53954 5.90056 4.50003 6.00001 4.50003C6.09947 4.50003 6.19485 4.53954 6.26518 4.60987C6.33551 4.68019 6.37501 4.77557 6.37501 4.87503V6.75003C6.37501 6.84949 6.33551 6.94487 6.26518 7.0152C6.19485 7.08552 6.09947 7.12503 6.00001 7.12503C5.90056 7.12503 5.80518 7.08552 5.73485 7.0152C5.66452 6.94487 5.62501 6.84949 5.62501 6.75003V4.87503ZM6.00001 9.00003C5.88876 9.00003 5.78001 8.96704 5.68751 8.90523C5.595 8.84342 5.52291 8.75557 5.48033 8.65279C5.43776 8.55001 5.42662 8.43691 5.44832 8.32779C5.47003 8.21868 5.5236 8.11845 5.60227 8.03978C5.68093 7.96112 5.78116 7.90754 5.89028 7.88584C5.99939 7.86413 6.11249 7.87527 6.21527 7.91785C6.31806 7.96042 6.40591 8.03252 6.46772 8.12502C6.52952 8.21753 6.56251 8.32628 6.56251 8.43753C6.56251 8.58672 6.50325 8.72979 6.39776 8.83528C6.29227 8.94077 6.1492 9.00003 6.00001 9.00003Z" fill="black"/>
</svg>
