<svg width="12" height="12" viewBox="0 0 12 12" fill="none" xmlns="http://www.w3.org/2000/svg">
<g clip-path="url(#clip0_14093_477084)">
<path d="M9.90039 6C9.90039 3.84609 8.15391 2.09961 6 2.09961C3.84609 2.09961 2.09961 3.84609 2.09961 6C2.09961 8.15391 3.84609 9.90039 6 9.90039C8.15391 9.90039 9.90039 8.15391 9.90039 6ZM11.0996 6C11.0996 8.81665 8.81665 11.0996 6 11.0996C3.18335 11.0996 0.900391 8.81665 0.900391 6C0.900391 3.18335 3.18335 0.900391 6 0.900391C8.81665 0.900391 11.0996 3.18335 11.0996 6Z" fill="black"/>
<path d="M5.40039 6.375V3.75C5.40039 3.41863 5.66863 3.15039 6 3.15039C6.33137 3.15039 6.59961 3.41863 6.59961 3.75V6.375C6.59961 6.70637 6.33137 6.97461 6 6.97461C5.66863 6.97461 5.40039 6.70637 5.40039 6.375Z" fill="black"/>
<path d="M6 8.625C6.31066 8.625 6.5625 8.37316 6.5625 8.0625C6.5625 7.75184 6.31066 7.5 6 7.5C5.68934 7.5 5.4375 7.75184 5.4375 8.0625C5.4375 8.37316 5.68934 8.625 6 8.625Z" fill="black"/>
</g>
<defs>
<clipPath id="clip0_14093_477084">
<rect width="12" height="12" fill="white"/>
</clipPath>
</defs>
</svg>
