<svg width="12" height="12" viewBox="0 0 12 12" fill="none" xmlns="http://www.w3.org/2000/svg">
<path d="M5.40039 6.37501V2.57227L4.54883 3.42384C4.31451 3.65815 3.93549 3.65815 3.70117 3.42384C3.46686 3.18952 3.46686 2.81049 3.70117 2.57618L5.57617 0.701179L5.66992 0.62403C5.90282 0.470235 6.21879 0.496143 6.42383 0.701179L8.29883 2.57618C8.53314 2.81049 8.53314 3.18952 8.29883 3.42384C8.06451 3.65815 7.68549 3.65815 7.45117 3.42384L6.59961 2.57227V6.37501C6.59961 6.70638 6.33137 6.97462 6 6.97462C5.66863 6.97462 5.40039 6.70638 5.40039 6.37501ZM10.3496 9.75001C10.3496 10.0086 10.2473 10.2566 10.0645 10.4395C9.8816 10.6223 9.63358 10.7246 9.375 10.7246H2.625C2.36641 10.7246 2.1184 10.6223 1.93555 10.4395C1.7527 10.2566 1.65039 10.0086 1.65039 9.75001V5.25001C1.65039 4.99142 1.7527 4.7434 1.93555 4.56055L2.00684 4.4961C2.18038 4.35379 2.39861 4.2754 2.625 4.2754H3.75C4.08137 4.2754 4.34961 4.54364 4.34961 4.87501C4.34961 5.20638 4.08137 5.47462 3.75 5.47462H2.84961V9.5254H9.15039V5.47462H8.25C7.91863 5.47462 7.65039 5.20638 7.65039 4.87501C7.65039 4.54364 7.91863 4.2754 8.25 4.2754H9.375C9.60139 4.2754 9.81962 4.35379 9.99316 4.4961L10.0645 4.56055L10.1289 4.63184C10.2712 4.80539 10.3496 5.02362 10.3496 5.25001V9.75001Z" fill="black"/>
</svg>
