<svg width="12" height="12" viewBox="0 0 12 12" fill="none" xmlns="http://www.w3.org/2000/svg">
<path d="M1.65039 10.5001V2.62506C1.65041 2.45102 1.72588 2.28589 1.85742 2.17194C2.73003 1.41617 3.60002 1.19686 4.4541 1.29889C5.25504 1.39461 6.00672 1.77276 6.6416 2.08697C7.31908 2.42227 7.88015 2.69313 8.43848 2.75983C8.94373 2.82017 9.48009 2.71525 10.1074 2.17194C10.2849 2.01824 10.5355 1.98175 10.749 2.07916C10.9626 2.17675 11.0996 2.39021 11.0996 2.62506V8.25006C11.0996 8.42409 11.0241 8.58922 10.8926 8.70319C10.02 9.45895 9.14998 9.67826 8.2959 9.57623C7.49497 9.48051 6.74328 9.10236 6.1084 8.78815C5.43094 8.45287 4.86983 8.18199 4.31152 8.11529C3.86261 8.06169 3.38958 8.13915 2.84961 8.53815V10.5001C2.84961 10.8314 2.58137 11.0997 2.25 11.0997C1.91863 11.0997 1.65039 10.8314 1.65039 10.5001ZM4.31152 2.4903C3.86261 2.43669 3.38958 2.51415 2.84961 2.91315V7.15533C3.38835 6.92017 3.92446 6.86062 4.4541 6.92389C5.25504 7.01961 6.00672 7.39776 6.6416 7.71197C7.31908 8.04727 7.88015 8.31813 8.43848 8.38483C8.88754 8.43846 9.36019 8.36033 9.90039 7.961V3.71881C9.36151 3.95412 8.82567 4.01452 8.2959 3.95123C7.49497 3.85551 6.74328 3.47736 6.1084 3.16315C5.43094 2.82787 4.86983 2.55699 4.31152 2.4903Z" fill="black"/>
</svg>
