<svg width="12" height="12" viewBox="0 0 12 12" fill="none" xmlns="http://www.w3.org/2000/svg">
<path d="M2.09961 9.15039H9.90039V4.34961H6C5.87019 4.34961 5.7435 4.30835 5.63965 4.23047L4.2998 3.22461H2.09961V9.15039ZM11.0996 9.41699C11.0995 9.66442 11.0011 9.90121 10.8262 10.0762C10.6512 10.2511 10.4144 10.3495 10.167 10.3496H1.875C1.61641 10.3496 1.3684 10.2473 1.18555 10.0645C1.0027 9.88161 0.900391 9.63359 0.900391 9.375V3C0.900391 2.74141 1.0027 2.49339 1.18555 2.31055L1.25684 2.24609C1.43038 2.10379 1.64861 2.02539 1.875 2.02539H4.375C4.53318 2.02542 4.68837 2.06311 4.82715 2.13574L4.95996 2.21973L6.20117 3.15039H10.125C10.3514 3.15039 10.5696 3.22879 10.7432 3.37109L10.8145 3.43555L10.8789 3.50684C11.0212 3.68038 11.0996 3.89861 11.0996 4.125V9.41699Z" fill="black"/>
</svg>
