<svg width="12" height="12" viewBox="0 0 12 12" fill="none" xmlns="http://www.w3.org/2000/svg">
<path d="M7.34961 9.15039H9.15039V7.34961H7.34961V9.15039ZM2.84961 9.15039H4.65039V7.34961H2.84961V9.15039ZM7.34961 4.65039H9.15039V2.84961H7.34961V4.65039ZM2.84961 4.65039H4.65039V2.84961H2.84961V4.65039ZM5.84961 9.375C5.84961 9.91348 5.41348 10.3496 4.875 10.3496H2.625C2.08652 10.3496 1.65039 9.91348 1.65039 9.375V7.125C1.65039 6.58652 2.08652 6.15039 2.625 6.15039H4.875C5.41348 6.15039 5.84961 6.58652 5.84961 7.125V9.375ZM10.3496 9.375C10.3496 9.91348 9.91348 10.3496 9.375 10.3496H7.125C6.58652 10.3496 6.15039 9.91348 6.15039 9.375V7.125C6.15039 6.58652 6.58652 6.15039 7.125 6.15039H9.375C9.91348 6.15039 10.3496 6.58652 10.3496 7.125V9.375ZM5.84961 4.875C5.84961 5.41348 5.41348 5.84961 4.875 5.84961H2.625C2.08652 5.84961 1.65039 5.41348 1.65039 4.875V2.625C1.65039 2.08652 2.08652 1.65039 2.625 1.65039H4.875C5.41348 1.65039 5.84961 2.08652 5.84961 2.625V4.875ZM10.3496 4.875C10.3496 5.41348 9.91348 5.84961 9.375 5.84961H7.125C6.58652 5.84961 6.15039 5.41348 6.15039 4.875V2.625C6.15039 2.08652 6.58652 1.65039 7.125 1.65039H9.375C9.91348 1.65039 10.3496 2.08652 10.3496 2.625V4.875Z" fill="black"/>
</svg>
