<svg width="12" height="12" viewBox="0 0 12 12" fill="none" xmlns="http://www.w3.org/2000/svg">
<path d="M4.10547 9.52539H9.52539V7.03125L8.06152 5.56836L4.10547 9.52539ZM2.47461 9.45898L7.37305 4.56055L7.44336 4.49609C7.51738 4.43528 7.60063 4.38545 7.68945 4.34863L7.7793 4.31641C7.87092 4.2886 7.9664 4.27441 8.0625 4.27441C8.19048 4.27441 8.3173 4.29968 8.43555 4.34863C8.55381 4.39766 8.66145 4.47 8.75195 4.56055L9.52539 5.33398V2.47461H2.47461V9.45898ZM4.65039 4.5C4.65039 4.41716 4.58284 4.34961 4.5 4.34961C4.41716 4.34961 4.34961 4.41716 4.34961 4.5C4.34961 4.58284 4.41716 4.65039 4.5 4.65039C4.58284 4.65039 4.65039 4.58284 4.65039 4.5ZM5.84961 4.5C5.84961 5.24558 5.24558 5.84961 4.5 5.84961C3.75442 5.84961 3.15039 5.24558 3.15039 4.5C3.15039 3.75442 3.75442 3.15039 4.5 3.15039C5.24558 3.15039 5.84961 3.75442 5.84961 4.5ZM10.7246 9.75C10.7246 10.2885 10.2885 10.7246 9.75 10.7246H2.25C1.71152 10.7246 1.27539 10.2885 1.27539 9.75V2.25C1.27539 1.71152 1.71152 1.27539 2.25 1.27539H9.75C10.2885 1.27539 10.7246 1.71152 10.7246 2.25V9.75Z" fill="black"/>
</svg>
