<svg width="12" height="12" viewBox="0 0 12 12" fill="none" xmlns="http://www.w3.org/2000/svg">
<rect width="12" height="12" rx="6" fill="black"/>
<path d="M6.68052 8.52635C6.68052 8.85773 6.62527 9.10296 6.51491 9.26175C6.40471 9.42053 6.23506 9.5 6.00597 9.5C5.77408 9.5 5.60164 9.41975 5.48849 9.25973C5.37534 9.09955 5.31885 8.85509 5.31885 8.52635V5.83762C5.31885 5.50888 5.37472 5.26535 5.48648 5.10641C5.59807 4.94748 5.77114 4.86816 6.00597 4.86816C6.23506 4.86816 6.40471 4.94748 6.51507 5.10641C6.62542 5.26535 6.68052 5.50888 6.68052 5.83762V8.52635Z" fill="white"/>
<path d="M5.21338 3.27466C5.21338 3.06202 5.29098 2.8798 5.44651 2.72785C5.60203 2.5759 5.78875 2.5 6.00651 2.5C6.22132 2.5 6.40541 2.57605 6.55782 2.72785C6.71071 2.8798 6.78692 3.06202 6.78692 3.27466C6.78692 3.4901 6.71117 3.67247 6.56 3.82163C6.40867 3.97063 6.22427 4.04513 6.00651 4.04513C5.78316 4.04513 5.5952 3.97063 5.44247 3.82163C5.28974 3.67232 5.21338 3.4901 5.21338 3.27466Z" fill="#5BBF8C"/>
</svg>
