<svg width="12" height="12" viewBox="0 0 12 12" fill="none" xmlns="http://www.w3.org/2000/svg">
<g clip-path="url(#clip0_14229_423185)">
<path d="M9.90039 6C9.90039 3.84609 8.15391 2.09961 6 2.09961C3.84609 2.09961 2.09961 3.84609 2.09961 6C2.09961 8.15391 3.84609 9.90039 6 9.90039C8.15391 9.90039 9.90039 8.15391 9.90039 6ZM11.0996 6C11.0996 8.81665 8.81665 11.0996 6 11.0996C3.18335 11.0996 0.900391 8.81665 0.900391 6C0.900391 3.18335 3.18335 0.900391 6 0.900391C8.81665 0.900391 11.0996 3.18335 11.0996 6Z" fill="black"/>
<path d="M5.625 5.02539C5.85139 5.02539 6.06962 5.10379 6.24316 5.24609L6.31445 5.31055L6.37891 5.38184C6.52121 5.55538 6.59961 5.77361 6.59961 6V7.69434C6.81954 7.78332 6.97461 7.99816 6.97461 8.25C6.97461 8.58137 6.70637 8.84961 6.375 8.84961C6.11642 8.84961 5.8684 8.7473 5.68555 8.56445C5.5027 8.3816 5.40039 8.13358 5.40039 7.875V6.17969C5.18064 6.09062 5.02539 5.87671 5.02539 5.625C5.02539 5.29363 5.29363 5.02539 5.625 5.02539Z" fill="black"/>
<path d="M5.8125 4.5C6.12316 4.5 6.375 4.24816 6.375 3.9375C6.375 3.62684 6.12316 3.375 5.8125 3.375C5.50184 3.375 5.25 3.62684 5.25 3.9375C5.25 4.24816 5.50184 4.5 5.8125 4.5Z" fill="black"/>
</g>
<defs>
<clipPath id="clip0_14229_423185">
<rect width="12" height="12" fill="white"/>
</clipPath>
</defs>
</svg>
