<svg width="12" height="12" viewBox="0 0 12 12" fill="none" xmlns="http://www.w3.org/2000/svg">
<path d="M5.25 1.27539C5.58137 1.27539 5.84961 1.54363 5.84961 1.875C5.84961 2.20637 5.58137 2.47461 5.25 2.47461H2.84961V9.52539H5.25C5.58137 9.52539 5.84961 9.79363 5.84961 10.125C5.84961 10.4564 5.58137 10.7246 5.25 10.7246H2.25C1.91863 10.7246 1.65039 10.4564 1.65039 10.125V1.875C1.65039 1.54363 1.91863 1.27539 2.25 1.27539H5.25ZM8.20117 3.70117C8.43549 3.46686 8.81451 3.46686 9.04883 3.70117L10.9238 5.57617C11.1581 5.81049 11.1581 6.18951 10.9238 6.42383L9.04883 8.29883C8.81451 8.53314 8.43549 8.53314 8.20117 8.29883C7.96686 8.06451 7.96686 7.68549 8.20117 7.45117L9.05273 6.59961H5.25C4.91863 6.59961 4.65039 6.33137 4.65039 6C4.65039 5.66863 4.91863 5.40039 5.25 5.40039H9.05273L8.20117 4.54883C7.96686 4.31451 7.96686 3.93549 8.20117 3.70117Z" fill="black"/>
</svg>
