<svg width="12" height="12" viewBox="0 0 12 12" fill="none" xmlns="http://www.w3.org/2000/svg">
<g clip-path="url(#clip0_14111_499984)">
<path d="M3.14309 4.82571C3.37718 4.59146 3.75727 4.59078 3.99172 4.82473C4.22627 5.05881 4.2258 5.43882 3.99172 5.67336L2.5884 7.07864L2.58938 7.07961C2.28411 7.3899 2.113 7.8084 2.11477 8.24368C2.11656 8.67892 2.29041 9.09606 2.59817 9.40383C2.90593 9.71159 3.32309 9.88543 3.75832 9.88723C4.1936 9.889 4.6121 9.71789 4.92239 9.41262L6.32571 8.00735C6.55984 7.77334 6.939 7.77347 7.17336 8.00735C7.40787 8.24147 7.40846 8.62147 7.17434 8.85598L5.76809 10.2652L5.76418 10.2681C5.22824 10.7954 4.50528 11.0895 3.75344 11.0864C3.00164 11.0834 2.28114 10.7841 1.74954 10.2525C1.21793 9.72085 0.918626 9.00037 0.915551 8.24856C0.91249 7.49672 1.20662 6.77376 1.73391 6.23782L1.73684 6.23489L3.14309 4.82571ZM7.07571 4.07571C7.31002 3.84139 7.69003 3.84139 7.92434 4.07571C8.15849 4.31004 8.1586 4.69008 7.92434 4.92434L4.92434 7.92434C4.69008 8.1586 4.31004 8.15849 4.07571 7.92434C3.84139 7.69003 3.84139 7.31002 4.07571 7.07571L7.07571 4.07571ZM8.24856 0.915551C9.00037 0.918626 9.72085 1.21793 10.2525 1.74954C10.7841 2.28114 11.0834 3.00164 11.0864 3.75344C11.0895 4.50528 10.7954 5.22824 10.2681 5.76418L10.2652 5.76809L8.85598 7.17434C8.62147 7.40846 8.24147 7.40787 8.00735 7.17336C7.77347 6.939 7.77334 6.55984 8.00735 6.32571L9.41653 4.91848C9.71953 4.60857 9.889 4.19188 9.88723 3.75832C9.88543 3.32309 9.71159 2.90593 9.40383 2.59817C9.09606 2.29041 8.67892 2.11656 8.24368 2.11477C7.8084 2.113 7.3899 2.28411 7.07961 2.58938L7.07864 2.5884L5.67336 3.99172C5.43882 4.2258 5.05881 4.22627 4.82473 3.99172C4.59078 3.75727 4.59146 3.37718 4.82571 3.14309L6.23489 1.73684L6.23782 1.73391C6.77376 1.20662 7.49672 0.91249 8.24856 0.915551Z" fill="black"/>
</g>
<defs>
<clipPath id="clip0_14111_499984">
<rect width="12" height="12" fill="white"/>
</clipPath>
</defs>
</svg>
