<svg width="12" height="12" viewBox="0 0 12 12" fill="none" xmlns="http://www.w3.org/2000/svg">
<g clip-path="url(#clip0_14093_477014)">
<path d="M9.5 6C9.5 4.067 7.93301 2.5 6 2.5C4.067 2.5 2.5 4.067 2.5 6C2.5 7.93301 4.067 9.5 6 9.5C7.93302 9.5 9.5 7.93302 9.5 6ZM11.5 6C11.5 9.03758 9.03758 11.5 6 11.5C2.96244 11.5 0.5 9.03759 0.5 6C0.5 2.96244 2.96244 0.5 6 0.5C9.03759 0.5 11.5 2.96244 11.5 6Z" fill="black"/>
<path d="M10.5823 5.50585C11.1312 5.56654 11.5277 6.0614 11.467 6.61034C11.1848 9.16108 9.16133 11.1846 6.61059 11.4668C6.06165 11.5275 5.56678 11.131 5.5061 10.582C5.44567 10.0334 5.84132 9.5394 6.38988 9.47851C8.0104 9.29935 9.29959 8.01016 9.47875 6.38964C9.53964 5.84107 10.0336 5.44543 10.5823 5.50585Z" fill="black"/>
</g>
<defs>
<clipPath id="clip0_14093_477014">
<rect width="12" height="12" fill="white"/>
</clipPath>
</defs>
</svg>
