<svg width="12" height="12" viewBox="0 0 12 12" fill="none" xmlns="http://www.w3.org/2000/svg">
<path d="M6.42969 11.4893C6.17154 11.6698 5.82846 11.6698 5.57031 11.4893L6 10.875L6.42969 11.4893ZM9 4.875C9 4.07935 8.6837 3.31652 8.12109 2.75391C7.55848 2.1913 6.79565 1.875 6 1.875C5.20435 1.875 4.44152 2.1913 3.87891 2.75391C3.3163 3.31652 3 4.07935 3 4.875C3 6.29246 3.79684 7.61968 4.69141 8.64844C5.12941 9.15212 5.5688 9.55979 5.89941 9.84082C5.9336 9.86988 5.96839 9.89564 6 9.92188C6.03161 9.89564 6.0664 9.86988 6.10059 9.84082C6.4312 9.55979 6.87059 9.15212 7.30859 8.64844C8.20316 7.61968 9 6.29246 9 4.875ZM6.75 4.875C6.75 4.46079 6.41421 4.125 6 4.125C5.58579 4.125 5.25 4.46079 5.25 4.875C5.25 5.28921 5.58579 5.625 6 5.625C6.41421 5.625 6.75 5.28921 6.75 4.875ZM8.25 4.875C8.25 6.11764 7.24264 7.125 6 7.125C4.75736 7.125 3.75 6.11764 3.75 4.875C3.75 3.63236 4.75736 2.625 6 2.625C7.24264 2.625 8.25 3.63236 8.25 4.875ZM10.5 4.875C10.5 6.83243 9.42179 8.50532 8.44141 9.63281C7.94203 10.2071 7.44374 10.6668 7.07129 10.9834C6.8846 11.1421 6.72784 11.2662 6.61621 11.3516C6.56056 11.3941 6.51599 11.4271 6.48438 11.4502C6.46874 11.4616 6.45635 11.471 6.44727 11.4775C6.44271 11.4808 6.43834 11.4834 6.43555 11.4854C6.43423 11.4863 6.43352 11.4876 6.43262 11.4883L6.42969 11.4893C6.42948 11.4894 6.4301 11.4894 6 10.875L5.57031 11.4893L5.56738 11.4883C5.56648 11.4876 5.56577 11.4863 5.56445 11.4854C5.56166 11.4834 5.55729 11.4808 5.55273 11.4775C5.54365 11.471 5.53126 11.4616 5.51562 11.4502C5.48401 11.4271 5.43944 11.3941 5.38379 11.3516C5.27216 11.2662 5.1154 11.1421 4.92871 10.9834C4.55626 10.6668 4.05797 10.2071 3.55859 9.63281C2.57821 8.50532 1.5 6.83243 1.5 4.875C1.5 3.68153 1.97445 2.53727 2.81836 1.69336C3.66227 0.849446 4.80653 0.375 6 0.375C7.19347 0.375 8.33773 0.849446 9.18164 1.69336C10.0256 2.53727 10.5 3.68153 10.5 4.875Z" fill="black"/>
</svg>
