<svg width="12" height="12" viewBox="0 0 12 12" fill="none" xmlns="http://www.w3.org/2000/svg">
<g clip-path="url(#clip0_13996_193154)">
<path d="M7.27529 5.9999C7.27529 5.29574 6.70406 4.72451 5.9999 4.72451C5.29574 4.72451 4.72451 5.29574 4.72451 5.9999C4.72451 6.70406 5.29574 7.27529 5.9999 7.27529C6.70406 7.27529 7.27529 6.70406 7.27529 5.9999ZM8.47451 5.9999C8.47451 6.46035 8.56099 6.80215 8.68935 7.00869C8.79538 7.17925 8.93458 7.27529 9.1874 7.27529C9.44023 7.27529 9.57942 7.17925 9.68545 7.00869C9.81381 6.80215 9.90029 6.46035 9.90029 5.9999C9.90029 5.22856 9.6716 4.47426 9.24306 3.83291C8.81453 3.19156 8.20472 2.69157 7.49209 2.39638C6.7796 2.10135 5.99551 2.02428 5.23916 2.1747C4.48263 2.32519 3.78751 2.69666 3.24209 3.24209C2.69666 3.78751 2.32519 4.48263 2.1747 5.23916C2.02428 5.99551 2.10135 6.7796 2.39638 7.49209C2.69157 8.20472 3.19156 8.81453 3.83291 9.24306C4.47426 9.6716 5.22856 9.90029 5.9999 9.90029C6.81638 9.90029 7.68974 9.6508 8.29287 9.2499C8.56881 9.06665 8.94151 9.14197 9.1249 9.41787C9.30815 9.69381 9.23283 10.0665 8.95693 10.2499C8.13414 10.7967 7.02364 11.0995 5.9999 11.0995C4.99128 11.0995 4.00555 10.8005 3.16689 10.2401C2.32831 9.67981 1.67401 8.8838 1.28799 7.95205C0.901978 7.02014 0.801162 5.99409 0.997946 5.00478C1.19475 4.01554 1.68025 3.10666 2.39345 2.39345C3.10666 1.68025 4.01554 1.19475 5.00478 0.997946C5.99409 0.801162 7.02014 0.901978 7.95205 1.28799C8.8838 1.67401 9.67981 2.32831 10.2401 3.16689C10.8005 4.00555 11.0995 4.99128 11.0995 5.9999C11.0995 6.57482 10.9984 7.17039 10.705 7.64248C10.3891 8.15055 9.87208 8.47451 9.1874 8.47451C8.55408 8.47451 8.06684 8.19559 7.74697 7.75185C7.29928 8.19831 6.68211 8.47451 5.9999 8.47451C4.633 8.47451 3.52529 7.3668 3.52529 5.9999C3.52529 4.633 4.633 3.52529 5.9999 3.52529C6.48444 3.52529 6.93561 3.6655 7.31728 3.90615C7.40482 3.68318 7.62088 3.52529 7.8749 3.52529C8.20627 3.52529 8.47451 3.79353 8.47451 4.1249V5.9999Z" fill="black"/>
</g>
<defs>
<clipPath id="clip0_13996_193154">
<rect width="12" height="12" fill="white"/>
</clipPath>
</defs>
</svg>
