<svg width="12" height="12" viewBox="0 0 12 12" fill="none" xmlns="http://www.w3.org/2000/svg">
<path d="M10.875 5.99995C10.8752 6.84161 10.6575 7.66898 10.243 8.40152C9.82858 9.13407 9.23154 9.74684 8.51002 10.1802C7.78849 10.6135 6.96707 10.8527 6.12569 10.8744C5.28431 10.8961 4.45165 10.6996 3.70875 10.304L2.11266 10.836C1.98051 10.8801 1.8387 10.8865 1.70312 10.8545C1.56754 10.8225 1.44356 10.7534 1.34506 10.6549C1.24655 10.5564 1.17743 10.4324 1.14544 10.2968C1.11344 10.1613 1.11984 10.0194 1.16391 9.8873L1.69594 8.2912C1.34819 7.63741 1.15397 6.91298 1.128 6.17291C1.10203 5.43284 1.245 4.69658 1.54606 4.02002C1.84712 3.34345 2.29836 2.74437 2.86552 2.26823C3.43269 1.7921 4.10087 1.45143 4.81934 1.27208C5.53782 1.09274 6.28772 1.07943 7.01211 1.23317C7.7365 1.38691 8.41634 1.70366 9.00004 2.15938C9.58374 2.61509 10.0559 3.19779 10.3808 3.86325C10.7057 4.52871 10.8747 5.25943 10.875 5.99995Z" fill="black"/>
</svg>
