<svg width="12" height="12" viewBox="0 0 12 12" fill="none" xmlns="http://www.w3.org/2000/svg">
<g clip-path="url(#clip0_14229_36067)">
<path d="M2.13005 1.68361C2.89564 1.11545 3.84038 0.842128 4.79118 0.912122C5.74191 0.982154 6.63564 1.39135 7.30973 2.06544C7.6405 2.39621 7.90725 2.77992 8.10173 3.19728C8.6324 3.27835 9.14262 3.4651 9.60075 3.75001C10.1686 4.10318 10.6381 4.59391 10.966 5.17677C11.2938 5.75955 11.4698 6.4154 11.4767 7.084C11.4827 7.66729 11.3593 8.24351 11.1183 8.77247L11.4347 9.8506C11.4841 10.0186 11.4878 10.1976 11.4445 10.3672C11.4012 10.5367 11.3124 10.6917 11.1886 10.8154C11.0649 10.9391 10.9099 11.0271 10.7404 11.0703C10.5708 11.1136 10.3927 11.1108 10.2248 11.0615L10.2238 11.0606L9.14762 10.7422C8.7045 10.9438 8.22778 11.0644 7.7404 11.0938C7.16816 11.1282 6.59507 11.0387 6.06071 10.8311C5.52624 10.6234 5.04262 10.3025 4.64372 9.89064C4.33515 9.572 4.0833 9.2041 3.89665 8.80372C3.53744 8.74862 3.1859 8.64445 2.85173 8.4922L1.77458 8.80958C1.60658 8.85892 1.42763 8.86265 1.25798 8.81935C1.08846 8.77602 0.933459 8.68721 0.809734 8.56349C0.686072 8.43973 0.598117 8.28477 0.554851 8.11525C0.511594 7.94569 0.514375 7.76753 0.563641 7.59962L0.564617 7.59864L0.882976 6.5215C0.525485 5.73591 0.430553 4.85359 0.620281 4.00685C0.828751 3.07656 1.36447 2.25176 2.13005 1.68361ZM8.46305 4.584C8.53305 5.5348 8.25972 6.47954 7.69157 7.24513C7.12342 8.01071 6.29862 8.54642 5.36833 8.75489C5.33527 8.7623 5.30188 8.76788 5.26872 8.77443C5.34153 8.87288 5.42041 8.96727 5.50602 9.05568C5.78453 9.34325 6.12213 9.56692 6.49528 9.71193C6.86842 9.85691 7.26854 9.91958 7.66813 9.89552C8.06777 9.87142 8.45765 9.76106 8.81071 9.57228C8.94973 9.49793 9.11264 9.48173 9.26384 9.52638L10.1662 9.79298L9.90153 8.88771C9.85718 8.73672 9.8732 8.57432 9.94743 8.43556C10.1678 8.02406 10.2813 7.56347 10.2765 7.09669C10.2717 6.62986 10.149 6.17157 9.92009 5.76466C9.69122 5.35782 9.36335 5.01509 8.96696 4.76857C8.80516 4.66797 8.63375 4.58558 8.45622 4.52052C8.45812 4.5417 8.46149 4.56276 8.46305 4.584ZM4.70329 2.10841C4.03965 2.05956 3.38028 2.25099 2.84587 2.64747C2.3114 3.04411 1.93672 3.62009 1.79118 4.26954C1.64576 4.91889 1.73887 5.59888 2.0529 6.18556C2.12729 6.3246 2.14346 6.48745 2.0988 6.63868L1.83122 7.54103L2.73747 7.2754L2.85173 7.25392C2.96775 7.24329 3.08541 7.26652 3.18962 7.32228C3.55032 7.51535 3.94636 7.62366 4.3488 7.64552C4.35206 7.6457 4.3553 7.64626 4.35856 7.6465C4.60748 7.65914 4.85876 7.63928 5.10563 7.584C5.75509 7.43846 6.33107 7.06378 6.7277 6.52931C7.12418 5.9949 7.31562 5.33553 7.26677 4.67189C7.21782 4.00826 6.93164 3.38461 6.4611 2.91407C5.99056 2.44354 5.36692 2.15735 4.70329 2.10841Z" fill="black"/>
</g>
<defs>
<clipPath id="clip0_14229_36067">
<rect width="12" height="12" fill="white"/>
</clipPath>
</defs>
</svg>
