<svg width="12" height="12" viewBox="0 0 12 12" fill="none" xmlns="http://www.w3.org/2000/svg">
<g clip-path="url(#clip0_13919_387753)">
<path d="M9.90039 6C9.90039 3.84609 8.15391 2.09961 6 2.09961C3.84609 2.09961 2.09961 3.84609 2.09961 6C2.09961 8.15391 3.84609 9.90039 6 9.90039C8.15391 9.90039 9.90039 8.15391 9.90039 6ZM7.875 5.40039C8.20637 5.40039 8.47461 5.66863 8.47461 6C8.47461 6.33137 8.20637 6.59961 7.875 6.59961H4.125C3.79363 6.59961 3.52539 6.33137 3.52539 6C3.52539 5.66863 3.79363 5.40039 4.125 5.40039H7.875ZM11.0996 6C11.0996 8.81665 8.81665 11.0996 6 11.0996C3.18335 11.0996 0.900391 8.81665 0.900391 6C0.900391 3.18335 3.18335 0.900391 6 0.900391C8.81665 0.900391 11.0996 3.18335 11.0996 6Z" fill="black"/>
</g>
<defs>
<clipPath id="clip0_13919_387753">
<rect width="12" height="12" fill="white"/>
</clipPath>
</defs>
</svg>
