<svg width="12" height="12" viewBox="0 0 12 12" fill="none" xmlns="http://www.w3.org/2000/svg">
<path d="M6 6.75C6.41421 6.75 6.75 6.41421 6.75 6C6.75 5.58579 6.41421 5.25 6 5.25C5.58579 5.25 5.25 5.58579 5.25 6C5.25 6.41421 5.58579 6.75 6 6.75Z" fill="black"/>
<path d="M2.8125 6.75C3.22671 6.75 3.5625 6.41421 3.5625 6C3.5625 5.58579 3.22671 5.25 2.8125 5.25C2.39829 5.25 2.0625 5.58579 2.0625 6C2.0625 6.41421 2.39829 6.75 2.8125 6.75Z" fill="black"/>
<path d="M9.1875 6.75C9.60171 6.75 9.9375 6.41421 9.9375 6C9.9375 5.58579 9.60171 5.25 9.1875 5.25C8.77329 5.25 8.4375 5.58579 8.4375 6C8.4375 6.41421 8.77329 6.75 9.1875 6.75Z" fill="black"/>
</svg>
