<svg width="12" height="12" viewBox="0 0 12 12" fill="none" xmlns="http://www.w3.org/2000/svg">
<g clip-path="url(#clip0_14190_420865)">
<path d="M2.22168 1.43072C2.46688 1.20814 2.84653 1.22665 3.06934 1.47173L10.5693 9.72173C10.7919 9.96694 10.7734 10.3466 10.5283 10.5694C10.2831 10.792 9.90347 10.7735 9.68066 10.5284L8.09961 8.78911V10.5001C8.09961 10.7292 7.96952 10.9384 7.76367 11.0391C7.55787 11.1398 7.31271 11.1143 7.13184 10.9737L3.91895 8.47466H1.875C1.61641 8.47466 1.3684 8.37235 1.18555 8.1895C1.0027 8.00666 0.900391 7.75864 0.900391 7.50005V4.50005C0.900391 4.24147 1.0027 3.99345 1.18555 3.8106L1.25684 3.74615C1.43038 3.60384 1.64861 3.52544 1.875 3.52544H3.31445L2.18066 2.27837C1.95809 2.03317 1.9766 1.65352 2.22168 1.43072ZM2.09961 7.27544H4.125L4.22363 7.28325C4.3214 7.29955 4.4141 7.33996 4.49316 7.40142L6.90039 9.27349V7.46978L4.4043 4.72466H2.09961V7.27544ZM10.2754 7.87505V4.12505C10.2754 3.79368 10.5436 3.52544 10.875 3.52544C11.2064 3.52544 11.4746 3.79368 11.4746 4.12505V7.87505C11.4746 8.20642 11.2064 8.47466 10.875 8.47466C10.5436 8.47466 10.2754 8.20642 10.2754 7.87505ZM8.77539 7.12505V4.87505C8.77539 4.54368 9.04363 4.27544 9.375 4.27544C9.70637 4.27544 9.97461 4.54368 9.97461 4.87505V7.12505C9.97461 7.45642 9.70637 7.72466 9.375 7.72466C9.04363 7.72466 8.77539 7.45642 8.77539 7.12505ZM6.90039 5.00786V2.72564L6 3.42681C5.73847 3.6298 5.36153 3.58269 5.1582 3.32134C4.95484 3.05984 5.00231 2.68301 5.26367 2.47954L7.13184 1.02642C7.31272 0.885815 7.55786 0.860322 7.76367 0.960989C7.96952 1.06168 8.09961 1.2709 8.09961 1.50005V5.00786C8.09952 5.33916 7.83132 5.60747 7.5 5.60747C7.16868 5.60747 6.90048 5.33916 6.90039 5.00786Z" fill="black"/>
</g>
<defs>
<clipPath id="clip0_14190_420865">
<rect width="12" height="12" fill="white"/>
</clipPath>
</defs>
</svg>
