<svg width="12" height="12" viewBox="0 0 12 12" fill="none" xmlns="http://www.w3.org/2000/svg">
<g clip-path="url(#clip0_14111_500724)">
<path d="M9.90039 6C9.90039 3.84609 8.15391 2.09961 6 2.09961C5.13956 2.09961 4.34418 2.37861 3.69922 2.85059L9.14844 8.2998C9.62034 7.65487 9.90039 6.86036 9.90039 6ZM2.09961 6C2.09961 8.15391 3.84609 9.90039 6 9.90039C6.86036 9.90039 7.65487 9.62034 8.2998 9.14844L2.85059 3.69922C2.37861 4.34418 2.09961 5.13956 2.09961 6ZM11.0996 6C11.0996 8.81665 8.81665 11.0996 6 11.0996C3.18335 11.0996 0.900391 8.81665 0.900391 6C0.900391 3.18335 3.18335 0.900391 6 0.900391C8.81665 0.900391 11.0996 3.18335 11.0996 6Z" fill="black"/>
</g>
<defs>
<clipPath id="clip0_14111_500724">
<rect width="12" height="12" fill="white"/>
</clipPath>
</defs>
</svg>
