<svg width="12" height="12" viewBox="0 0 12 12" fill="none" xmlns="http://www.w3.org/2000/svg">
<path d="M9.90039 2.8125C9.90039 2.419 9.581 2.09961 9.1875 2.09961C8.794 2.09961 8.47461 2.419 8.47461 2.8125C8.47461 3.206 8.794 3.52539 9.1875 3.52539C9.581 3.52539 9.90039 3.206 9.90039 2.8125ZM10.3496 9.75C10.3496 10.0086 10.2473 10.2566 10.0645 10.4395C9.8816 10.6223 9.63358 10.7246 9.375 10.7246H2.25C1.99141 10.7246 1.7434 10.6223 1.56055 10.4395C1.3777 10.2566 1.27539 10.0086 1.27539 9.75V2.625C1.27539 2.36641 1.3777 2.11839 1.56055 1.93555L1.63184 1.87109C1.80538 1.72879 2.02361 1.65039 2.25 1.65039H6C6.33137 1.65039 6.59961 1.91863 6.59961 2.25C6.59961 2.58137 6.33137 2.84961 6 2.84961H2.47461V9.52539H9.15039V6C9.15039 5.66863 9.41863 5.40039 9.75 5.40039C10.0814 5.40039 10.3496 5.66863 10.3496 6V9.75ZM11.0996 2.8125C11.0996 3.86874 10.2437 4.72461 9.1875 4.72461C8.13126 4.72461 7.27539 3.86874 7.27539 2.8125C7.27539 1.75626 8.13126 0.900391 9.1875 0.900391C10.2437 0.900391 11.0996 1.75626 11.0996 2.8125Z" fill="black"/>
</svg>
