<svg width="12" height="12" viewBox="0 0 12 12" fill="none" xmlns="http://www.w3.org/2000/svg">
<path d="M5.13083 4.3515C4.94846 4.53438 4.66956 4.57992 4.43845 4.46478L4.43942 4.46576L4.44333 4.46771C4.44043 4.46639 4.43221 4.46256 4.42087 4.45795C4.39814 4.4487 4.35973 4.43368 4.30759 4.41791C4.20235 4.38609 4.04531 4.35128 3.85446 4.34271C3.52757 4.32811 3.0824 4.39035 2.59372 4.71771L7.27536 9.39935C7.59969 8.89667 7.86176 8.20957 7.54294 7.5722C7.42769 7.34165 7.47241 7.06345 7.65427 6.8808L10.1816 4.34467L7.65622 1.8183L5.13083 4.3515ZM11.4746 4.34467C11.4746 4.6028 11.3727 4.85039 11.1904 5.03314L8.77829 7.45111C9.15987 8.7078 8.44969 9.85167 8.08493 10.3369L8.08298 10.3398C7.9989 10.4501 7.89163 10.5415 7.7695 10.6074C7.64746 10.6731 7.51227 10.7121 7.37399 10.7216C7.2357 10.7311 7.09668 10.7104 6.96677 10.662C6.83686 10.6136 6.71848 10.538 6.62009 10.4404L4.51364 8.33392L2.6738 10.1747C2.43959 10.4084 2.06033 10.4085 1.82614 10.1747C1.59183 9.94043 1.59183 9.56042 1.82614 9.32611L3.66501 7.48627L1.56052 5.38177C1.46373 5.28504 1.38881 5.16873 1.33981 5.04095C1.29069 4.91284 1.26886 4.77562 1.27634 4.63861L1.28708 4.53705C1.30337 4.43583 1.3357 4.33758 1.38278 4.24603L1.43454 4.15717C1.49074 4.07148 1.56026 3.9949 1.64059 3.9306C2.46188 3.26884 3.28242 3.11551 3.90817 3.14349C4.1587 3.15473 4.37504 3.1951 4.54489 3.2392L6.96677 0.811462L6.96774 0.810486C7.15057 0.627775 7.39872 0.52533 7.6572 0.52533L7.7529 0.529236C7.97608 0.551323 8.18564 0.650588 8.34567 0.810486L11.1894 3.65521C11.3721 3.83804 11.4746 4.08619 11.4746 4.34467Z" fill="black"/>
</svg>
