<svg width="12" height="12" viewBox="0 0 12 12" fill="none" xmlns="http://www.w3.org/2000/svg">
<path d="M5.40039 10.125V6.59961H1.875C1.54363 6.59961 1.27539 6.33137 1.27539 6C1.27539 5.66863 1.54363 5.40039 1.875 5.40039H5.40039V1.875C5.40039 1.54363 5.66863 1.27539 6 1.27539C6.33137 1.27539 6.59961 1.54363 6.59961 1.875V5.40039H10.125C10.4564 5.40039 10.7246 5.66863 10.7246 6C10.7246 6.33137 10.4564 6.59961 10.125 6.59961H6.59961V10.125C6.59961 10.4564 6.33137 10.7246 6 10.7246C5.66863 10.7246 5.40039 10.4564 5.40039 10.125Z" fill="black"/>
</svg>
