<svg width="12" height="12" viewBox="0 0 12 12" fill="none" xmlns="http://www.w3.org/2000/svg">
<path d="M9.75 1.27539C10.0814 1.27539 10.3496 1.54363 10.3496 1.875V9.15039H10.5C10.8314 9.15039 11.0996 9.41863 11.0996 9.75C11.0996 10.0814 10.8314 10.3496 10.5 10.3496H1.5C1.16863 10.3496 0.900391 10.0814 0.900391 9.75C0.900391 9.41863 1.16863 9.15039 1.5 9.15039H1.65039V6.375C1.65039 6.04363 1.91863 5.77539 2.25 5.77539H3.90039V4.125C3.90039 3.79363 4.16863 3.52539 4.5 3.52539H6.52539V1.875C6.52539 1.54363 6.79363 1.27539 7.125 1.27539H9.75ZM7.72461 9.15039H9.15039V2.47461H7.72461V9.15039ZM5.09961 9.15039H6.52539V4.72461H5.09961V9.15039ZM2.84961 9.15039H3.90039V6.97461H2.84961V9.15039Z" fill="black"/>
</svg>
