<svg width="12" height="12" viewBox="0 0 12 12" fill="none" xmlns="http://www.w3.org/2000/svg">
<path d="M7.53711 6.15039H9.90039V3.59961H7.53711V6.15039ZM2.09961 6.15039H4.46289V3.59961H2.09961V6.15039ZM5.66211 7.5C5.66211 8.15641 5.40165 8.78585 4.9375 9.25C4.47335 9.71415 3.84391 9.97461 3.1875 9.97461C2.85613 9.97461 2.58789 9.70637 2.58789 9.375C2.58789 9.04363 2.85613 8.77539 3.1875 8.77539C3.52565 8.77539 3.84976 8.64048 4.08887 8.40137C4.32798 8.16226 4.46289 7.83815 4.46289 7.5V7.34961H1.875C1.61641 7.34961 1.3684 7.2473 1.18555 7.06445C1.0027 6.88161 0.900391 6.63359 0.900391 6.375V3.375C0.900391 3.11641 1.0027 2.86839 1.18555 2.68555L1.25684 2.62109C1.43038 2.47879 1.64861 2.40039 1.875 2.40039H4.6875C4.91389 2.40039 5.13212 2.47879 5.30566 2.62109L5.37695 2.68555L5.44141 2.75684C5.58371 2.93038 5.66211 3.14861 5.66211 3.375V7.5ZM11.0996 7.5C11.0996 8.15641 10.8392 8.78585 10.375 9.25C9.91085 9.71415 9.28141 9.97461 8.625 9.97461C8.29363 9.97461 8.02539 9.70637 8.02539 9.375C8.02539 9.04363 8.29363 8.77539 8.625 8.77539C8.96315 8.77539 9.28726 8.64048 9.52637 8.40137C9.76548 8.16226 9.90039 7.83815 9.90039 7.5V7.34961H7.3125C7.05392 7.34961 6.8059 7.2473 6.62305 7.06445C6.4402 6.8816 6.33789 6.63358 6.33789 6.375V3.375C6.33789 3.11641 6.4402 2.8684 6.62305 2.68555L6.69434 2.62109C6.86788 2.47879 7.08611 2.40039 7.3125 2.40039H10.125C10.3514 2.40039 10.5696 2.47879 10.7432 2.62109L10.8145 2.68555L10.8789 2.75684C11.0212 2.93038 11.0996 3.14861 11.0996 3.375V7.5Z" fill="black"/>
</svg>
