<svg width="16" height="16" viewBox="0 0 16 16" fill="none" xmlns="http://www.w3.org/2000/svg">
<path d="M1.90039 12.9996V9.99961C1.90061 9.66843 2.16877 9.40001 2.5 9.40001H5.5C5.83123 9.40001 6.09939 9.66843 6.09961 9.99961C6.09961 10.331 5.83137 10.6002 5.5 10.6002H3.94824L4.69141 11.3434C5.60333 12.2553 6.83833 12.7704 8.12793 12.7779C9.41756 12.7854 10.6586 12.2846 11.5811 11.3834C11.818 11.1521 12.1972 11.1565 12.4287 11.3932C12.6603 11.6302 12.656 12.0102 12.4189 12.2418C11.2706 13.3636 9.72642 13.9875 8.12109 13.9781C6.51564 13.9688 4.97804 13.3272 3.84277 12.192L3.09961 11.4479V12.9996C3.09961 13.331 2.83137 13.6002 2.5 13.6002C2.16863 13.6002 1.90039 13.331 1.90039 12.9996ZM7.87891 2.02208C9.48436 2.03142 11.022 2.67298 12.1572 3.80821L12.9004 4.55137V2.99961C12.9006 2.66843 13.1688 2.40001 13.5 2.40001C13.8312 2.40001 14.0994 2.66843 14.0996 2.99961V5.99961C14.0996 6.33099 13.8314 6.6002 13.5 6.6002H10.5C10.1686 6.6002 9.90039 6.33099 9.90039 5.99961C9.90061 5.66843 10.1688 5.40001 10.5 5.40001H12.0518L11.3086 4.65684C10.3967 3.74495 9.16167 3.22882 7.87207 3.22129C6.58244 3.21379 5.34143 3.71557 4.41895 4.6168C4.18202 4.84803 3.80281 4.84365 3.57129 4.60704C3.33972 4.37001 3.34402 3.98997 3.58105 3.7584C4.72943 2.63657 6.27355 2.01275 7.87891 2.02208Z" fill="black"/>
</svg>
