<svg width="12" height="12" viewBox="0 0 12 12" fill="none" xmlns="http://www.w3.org/2000/svg">
<path d="M5.47461 9.1875C5.47461 9.82953 4.95453 10.3496 4.3125 10.3496C3.67047 10.3496 3.15039 9.82953 3.15039 9.1875C3.15039 8.54547 3.67047 8.02539 4.3125 8.02539L4.43164 8.03125C5.01769 8.09092 5.47461 8.5857 5.47461 9.1875ZM8.84961 9.1875C8.84961 9.82953 8.32953 10.3496 7.6875 10.3496C7.0857 10.3496 6.59092 9.89269 6.53125 9.30664L6.52539 9.1875L6.53125 9.06836C6.59092 8.48231 7.0857 8.02539 7.6875 8.02539L7.80664 8.03125C8.39269 8.09092 8.84961 8.5857 8.84961 9.1875ZM5.47461 6C5.47461 6.64203 4.95453 7.16211 4.3125 7.16211C3.67047 7.16211 3.15039 6.64203 3.15039 6C3.15039 5.35797 3.67047 4.83789 4.3125 4.83789L4.43164 4.84375C5.01769 4.90342 5.47461 5.3982 5.47461 6ZM8.84961 6C8.84961 6.64203 8.32953 7.16211 7.6875 7.16211C7.0857 7.16211 6.59092 6.70519 6.53125 6.11914L6.52539 6L6.53125 5.88086C6.59092 5.29481 7.0857 4.83789 7.6875 4.83789L7.80664 4.84375C8.39269 4.90342 8.84961 5.3982 8.84961 6ZM5.47461 2.8125C5.47461 3.45453 4.95453 3.97461 4.3125 3.97461C3.67047 3.97461 3.15039 3.45453 3.15039 2.8125C3.15039 2.17047 3.67047 1.65039 4.3125 1.65039C4.95453 1.65039 5.47461 2.17047 5.47461 2.8125ZM8.84961 2.8125C8.84961 3.45453 8.32953 3.97461 7.6875 3.97461C7.0857 3.97461 6.59092 3.51769 6.53125 2.93164L6.52539 2.8125L6.53125 2.69336C6.59092 2.10731 7.0857 1.65039 7.6875 1.65039C8.32953 1.65039 8.84961 2.17047 8.84961 2.8125Z" fill="black"/>
</svg>
