<svg width="12" height="12" viewBox="0 0 12 12" fill="none" xmlns="http://www.w3.org/2000/svg">
<path d="M5.10369 0.945389C4.87948 0.85252 4.62099 0.904649 4.44939 1.07625L0.69939 4.82625C0.465438 5.06049 0.465438 5.43966 0.69939 5.6739L4.44939 9.4239C4.62099 9.5955 4.87948 9.64763 5.10369 9.55476C5.32781 9.46186 5.4738 9.2427 5.4738 9.00008V7.37898C7.79277 7.59513 9.44203 9.0127 10.1115 9.72566C10.2232 9.84554 10.3698 9.9282 10.5304 9.96101C10.6941 9.99434 10.864 9.974 11.0158 9.90437C11.1678 9.83464 11.2937 9.71835 11.3752 9.57234C11.4559 9.42757 11.4883 9.26131 11.4689 9.09676C11.2712 7.38478 10.2901 5.90176 9.05779 4.85652C8.00253 3.96143 6.71256 3.34494 5.4738 3.18953V1.50008C5.4738 1.25745 5.32781 1.03829 5.10369 0.945389ZM4.27361 3.75008C4.27361 4.08145 4.54282 4.34969 4.87419 4.34969C5.93673 4.34983 7.21555 4.86751 8.28142 5.77156C8.99233 6.37457 9.57669 7.12379 9.93181 7.95515C8.8171 7.09502 7.08364 6.15059 4.87419 6.15047C4.54282 6.15047 4.27361 6.41871 4.27361 6.75008V7.55183L1.97185 5.25008L4.27361 2.94832V3.75008Z" fill="black"/>
</svg>
