<svg width="12" height="12" viewBox="0 0 12 12" fill="none" xmlns="http://www.w3.org/2000/svg">
<path d="M4.22413 1.62187C5.08464 1.27271 6.02882 1.18449 6.93897 1.36894C7.84036 1.55163 8.66803 1.99408 9.32178 2.64042L10.2749 3.51152V2.6248C10.275 2.29351 10.5442 2.02519 10.8755 2.02519C11.2067 2.02533 11.475 2.2936 11.4751 2.6248V4.8748C11.4751 5.20609 11.2067 5.47525 10.8755 5.47539H8.62549C8.29412 5.47539 8.02491 5.20617 8.02491 4.8748C8.02501 4.54351 8.29418 4.27519 8.62549 4.27519H9.33155L8.51221 3.52519C8.50576 3.51928 8.49887 3.5138 8.49268 3.50761C8.00278 3.01772 7.37971 2.68234 6.70069 2.54472C6.02176 2.40713 5.31722 2.47279 4.6753 2.7332C4.03339 2.99366 3.48246 3.43782 3.09131 4.00956C2.70016 4.58141 2.48612 5.25627 2.47608 5.94902C2.4661 6.64166 2.66032 7.32222 3.03467 7.90507C3.409 8.48776 3.94667 8.9474 4.58057 9.22636C5.2147 9.50533 5.91742 9.59128 6.6001 9.47343C7.28283 9.35556 7.91554 9.03876 8.41944 8.56328C8.66045 8.33587 9.04066 8.34766 9.26807 8.58867C9.49509 8.82962 9.48434 9.20899 9.24366 9.43632C8.56822 10.0737 7.71934 10.498 6.80421 10.656C5.88927 10.814 4.94804 10.6988 4.09815 10.325C3.24817 9.95106 2.52677 9.3348 2.02491 8.55351C1.52306 7.77216 1.26245 6.85998 1.27589 5.93144C1.28935 5.00286 1.5758 4.09835 2.1001 3.33183C2.62441 2.56533 3.3636 1.97103 4.22413 1.62187Z" fill="black"/>
</svg>
