<svg width="12" height="12" viewBox="0 0 12 12" fill="none" xmlns="http://www.w3.org/2000/svg">
<path d="M3.59961 9.41699L5.68164 8.11621L5.75684 8.07617C5.93715 7.99624 6.14803 8.00976 6.31836 8.11621L8.40039 9.41699V2.47461H3.59961V9.41699ZM9.59961 10.5C9.59961 10.718 9.48163 10.9186 9.29102 11.0244C9.10024 11.1301 8.8666 11.1244 8.68164 11.0088L6 9.33203L3.31836 11.0088C3.1334 11.1244 2.89976 11.1301 2.70898 11.0244C2.51837 10.9186 2.40039 10.718 2.40039 10.5V2.25C2.40039 1.99141 2.5027 1.74339 2.68555 1.56055L2.75684 1.49609C2.93038 1.35379 3.14861 1.27539 3.375 1.27539H8.625C8.85139 1.27539 9.06962 1.35379 9.24316 1.49609L9.31445 1.56055L9.37891 1.63184C9.52121 1.80538 9.59961 2.02361 9.59961 2.25V10.5Z" fill="black"/>
</svg>
