<svg width="12" height="12" viewBox="0 0 12 12" fill="none" xmlns="http://www.w3.org/2000/svg">
<g clip-path="url(#clip0_14233_424442)">
<path d="M8.40039 5.25C8.40039 3.5103 6.9897 2.09961 5.25 2.09961C3.5103 2.09961 2.09961 3.5103 2.09961 5.25C2.09961 6.9897 3.5103 8.40039 5.25 8.40039C6.9897 8.40039 8.40039 6.9897 8.40039 5.25ZM9.59961 5.25C9.59961 6.23475 9.27136 7.142 8.71973 7.87109L10.9238 10.0762C11.1581 10.3105 11.1581 10.6895 10.9238 10.9238C10.6895 11.1581 10.3105 11.1581 10.0762 10.9238L7.87109 8.71973C7.142 9.27136 6.23475 9.59961 5.25 9.59961C2.84756 9.59961 0.900391 7.65244 0.900391 5.25C0.900391 2.84756 2.84756 0.900391 5.25 0.900391C7.65244 0.900391 9.59961 2.84756 9.59961 5.25Z" fill="black"/>
</g>
<defs>
<clipPath id="clip0_14233_424442">
<rect width="12" height="12" fill="white"/>
</clipPath>
</defs>
</svg>
