<svg width="12" height="12" viewBox="0 0 12 12" fill="none" xmlns="http://www.w3.org/2000/svg">
<path d="M4.18101 5.40042H6.75035C7.08167 5.40048 7.34996 5.66869 7.34996 6.00003C7.34994 6.33136 7.08166 6.59958 6.75035 6.59964H4.18101L3.02769 10.0117L10.0482 5.99515L3.02867 1.99026L4.18101 5.40042ZM11.4779 5.99612C11.4778 6.17017 11.4315 6.34131 11.3431 6.49124C11.2561 6.6388 11.1309 6.75959 10.9818 6.84378L3.10777 11.3487L3.10386 11.3506C2.93024 11.4485 2.73096 11.4907 2.53257 11.4717C2.33415 11.4527 2.14641 11.3732 1.99449 11.2442C1.84258 11.1151 1.73381 10.9428 1.68296 10.75C1.63342 10.5621 1.64152 10.364 1.70542 10.1807L3.11656 6.00003L1.70445 1.82034L1.7064 1.81937C1.64285 1.63515 1.63418 1.43638 1.68492 1.24808L1.73374 1.10843C1.79324 0.973481 1.8838 0.85388 1.99742 0.757843C2.14883 0.629855 2.33524 0.550357 2.53257 0.531281L2.68101 0.528351C2.82823 0.536608 2.97208 0.57882 3.10191 0.651398L3.10679 0.653351L10.9818 5.14651C11.0937 5.20948 11.1911 5.29322 11.2699 5.39359L11.3431 5.50101L11.4017 5.61722C11.452 5.73661 11.4779 5.8657 11.4779 5.99612Z" fill="black"/>
</svg>
