<svg width="12" height="12" viewBox="0 0 12 12" fill="none" xmlns="http://www.w3.org/2000/svg">
<path d="M9.15039 9.375C9.15039 8.87794 8.74706 8.47461 8.25 8.47461C7.75294 8.47461 7.34961 8.87794 7.34961 9.375C7.34961 9.87206 7.75294 10.2754 8.25 10.2754C8.74706 10.2754 9.15039 9.87206 9.15039 9.375ZM3.90039 6C3.90039 5.50294 3.49706 5.09961 3 5.09961C2.50294 5.09961 2.09961 5.50294 2.09961 6C2.09961 6.49706 2.50294 6.90039 3 6.90039C3.49706 6.90039 3.90039 6.49706 3.90039 6ZM9.15039 2.625C9.15039 2.12794 8.74706 1.72461 8.25 1.72461C7.75294 1.72461 7.34961 2.12794 7.34961 2.625C7.34961 3.12206 7.75294 3.52539 8.25 3.52539C8.74706 3.52539 9.15039 3.12206 9.15039 2.625ZM10.3496 2.625C10.3496 3.7848 9.4098 4.72461 8.25 4.72461C7.72731 4.72461 7.25034 4.53275 6.88281 4.2168L5.01562 5.41602C5.06929 5.60158 5.09961 5.79715 5.09961 6C5.09961 6.20252 5.06913 6.39771 5.01562 6.58301L6.88281 7.78223C7.25027 7.46652 7.72754 7.27539 8.25 7.27539C9.4098 7.27539 10.3496 8.2152 10.3496 9.375C10.3496 10.5348 9.4098 11.4746 8.25 11.4746C7.0902 11.4746 6.15039 10.5348 6.15039 9.375C6.15039 9.17224 6.17978 8.9765 6.2334 8.79102L4.36621 7.5918C3.99876 7.90746 3.52242 8.09961 3 8.09961C1.8402 8.09961 0.900391 7.1598 0.900391 6C0.900391 4.8402 1.8402 3.90039 3 3.90039C3.52219 3.90039 3.99882 4.09181 4.36621 4.40723L6.2334 3.20801C6.17995 3.02279 6.15039 2.82743 6.15039 2.625C6.15039 1.4652 7.0902 0.525391 8.25 0.525391C9.4098 0.525391 10.3496 1.4652 10.3496 2.625Z" fill="black"/>
</svg>
