<svg width="12" height="12" viewBox="0 0 12 12" fill="none" xmlns="http://www.w3.org/2000/svg">
<path d="M6.1875 1.125C4.94472 1.12636 3.75323 1.62066 2.87444 2.49944C1.99566 3.37823 1.50136 4.56972 1.5 5.8125V9.75C1.5 9.94891 1.57902 10.1397 1.71967 10.2803C1.86032 10.421 2.05109 10.5 2.25 10.5H6.1875C7.4307 10.5 8.62299 10.0061 9.50206 9.12706C10.3811 8.24799 10.875 7.0557 10.875 5.8125C10.875 4.5693 10.3811 3.37701 9.50206 2.49794C8.62299 1.61886 7.4307 1.125 6.1875 1.125ZM7.6875 7.125H4.5C4.40054 7.125 4.30516 7.08549 4.23484 7.01517C4.16451 6.94484 4.125 6.84946 4.125 6.75C4.125 6.65054 4.16451 6.55516 4.23484 6.48483C4.30516 6.41451 4.40054 6.375 4.5 6.375H7.6875C7.78696 6.375 7.88234 6.41451 7.95267 6.48483C8.02299 6.55516 8.0625 6.65054 8.0625 6.75C8.0625 6.84946 8.02299 6.94484 7.95267 7.01517C7.88234 7.08549 7.78696 7.125 7.6875 7.125ZM7.6875 5.625H4.5C4.40054 5.625 4.30516 5.58549 4.23484 5.51516C4.16451 5.44484 4.125 5.34946 4.125 5.25C4.125 5.15054 4.16451 5.05516 4.23484 4.98484C4.30516 4.91451 4.40054 4.875 4.5 4.875H7.6875C7.78696 4.875 7.88234 4.91451 7.95267 4.98484C8.02299 5.05516 8.0625 5.15054 8.0625 5.25C8.0625 5.34946 8.02299 5.44484 7.95267 5.51516C7.88234 5.58549 7.78696 5.625 7.6875 5.625Z" fill="black"/>
</svg>
