<svg width="12" height="12" viewBox="0 0 12 12" fill="none" xmlns="http://www.w3.org/2000/svg">
<g clip-path="url(#clip0_14229_424111)">
<path d="M2.89404 1.95616C3.8756 1.20225 5.09845 0.831597 6.3335 0.912219C7.56839 0.99293 8.73182 1.51963 9.60693 2.39464C10.4822 3.26987 11.0097 4.43392 11.0903 5.66905C11.1709 6.90402 10.7993 8.12604 10.0454 9.10753C9.29139 10.0891 8.20587 10.7635 6.9917 11.004C5.86843 11.2265 4.70595 11.0635 3.68994 10.547L2.18408 11.0499C2.01237 11.1072 1.82803 11.1149 1.65186 11.0734C1.47561 11.0318 1.31409 10.9416 1.18604 10.8136C1.05814 10.6856 0.967849 10.5248 0.92627 10.3487C0.884699 10.1726 0.893477 9.98823 0.950684 9.81652L1.45557 8.31066C0.939354 7.29479 0.776078 6.13289 0.998536 5.00988C1.2391 3.79582 1.91253 2.71013 2.89404 1.95616ZM6.25537 2.10948C5.31095 2.04783 4.37608 2.33183 3.62549 2.90831C2.87486 3.48492 2.35922 4.31479 2.17529 5.24327C1.99139 6.17164 2.1515 7.13506 2.62549 7.95421C2.71166 8.1031 2.72982 8.28228 2.67529 8.44542L2.23096 9.76769L3.55713 9.32628L3.68115 9.29894C3.80715 9.28509 3.93576 9.31154 4.04736 9.37609C4.86649 9.85016 5.82991 10.0101 6.7583 9.82628C7.68665 9.64239 8.51667 9.12751 9.09326 8.37706C9.66984 7.62648 9.95468 6.69164 9.89307 5.74718C9.83141 4.80266 9.4276 3.91257 8.7583 3.24327C8.08913 2.5742 7.19963 2.17123 6.25537 2.10948ZM7.50049 6.1505C7.83166 6.15073 8.1001 6.41888 8.1001 6.75011C8.10006 7.08131 7.83164 7.34949 7.50049 7.34972H4.50049C4.16914 7.34972 3.89994 7.08145 3.8999 6.75011C3.8999 6.41874 4.16912 6.1505 4.50049 6.1505H7.50049ZM7.50049 4.6505C7.83166 4.65073 8.1001 4.91888 8.1001 5.25011C8.10006 5.58131 7.83164 5.84949 7.50049 5.84972H4.50049C4.16914 5.84972 3.89994 5.58145 3.8999 5.25011C3.8999 4.91874 4.16912 4.6505 4.50049 4.6505H7.50049Z" fill="black"/>
</g>
<defs>
<clipPath id="clip0_14229_424111">
<rect width="12" height="12" fill="white"/>
</clipPath>
</defs>
</svg>
