<svg width="12" height="12" viewBox="0 0 12 12" fill="none" xmlns="http://www.w3.org/2000/svg">
<path d="M3.90039 1.5C3.90039 1.16863 4.16863 0.900391 4.5 0.900391C4.83137 0.900391 5.09961 1.16863 5.09961 1.5V2.02539H7.5C7.83137 2.02539 8.09961 2.29363 8.09961 2.625C8.09961 2.95637 7.83137 3.22461 7.5 3.22461H6.56348C6.44652 4.2125 6.04255 5.14538 5.40039 5.9082C5.92484 6.24345 6.51965 6.44832 7.1377 6.50586L8.08789 4.60645C8.18953 4.40318 8.39774 4.27539 8.625 4.27539C8.85226 4.27539 9.06047 4.40318 9.16211 4.60645L11.7871 9.85645C11.9353 10.1528 11.8149 10.5139 11.5186 10.6621C11.2222 10.8103 10.8611 10.6899 10.7129 10.3936L10.1289 9.22461H7.12109L6.53711 10.3936C6.38892 10.6899 6.02783 10.8103 5.73145 10.6621C5.43506 10.5139 5.3147 10.1528 5.46289 9.85645L6.57129 7.63867C5.84925 7.50506 5.16027 7.21718 4.55469 6.78906C4.53586 6.77575 4.51765 6.7616 4.49902 6.74805C3.63276 7.37815 2.58467 7.72461 1.5 7.72461C1.16863 7.72461 0.900391 7.45637 0.900391 7.125C0.900391 6.79363 1.16863 6.52539 1.5 6.52539C2.25103 6.52539 2.97874 6.30685 3.60156 5.9082C3.20823 5.44128 2.8963 4.90744 2.69043 4.3252C2.57997 4.01278 2.74422 3.67003 3.05664 3.55957C3.36899 3.44922 3.71178 3.61251 3.82227 3.9248C3.9765 4.36105 4.20788 4.76231 4.5 5.11426C4.95041 4.57147 5.24552 3.91868 5.35352 3.22461H1.5C1.16863 3.22461 0.900391 2.95637 0.900391 2.625C0.900391 2.29363 1.16863 2.02539 1.5 2.02539H3.90039V1.5ZM7.7207 8.02539H9.5293L8.625 6.21777L7.7207 8.02539Z" fill="black"/>
</svg>
