<svg width="12" height="12" viewBox="0 0 12 12" fill="none" xmlns="http://www.w3.org/2000/svg">
<path d="M2.47461 9.52539H9.52539V4.72461H2.47461V9.52539ZM10.7246 9.75C10.7246 10.2885 10.2885 10.7246 9.75 10.7246H2.25C1.71152 10.7246 1.27539 10.2885 1.27539 9.75V4.5C1.27539 3.96152 1.71152 3.52539 2.25 3.52539H9.75C10.2885 3.52539 10.7246 3.96152 10.7246 4.5V9.75Z" fill="black"/>
<path d="M6 7.6875C6.31066 7.6875 6.5625 7.43566 6.5625 7.125C6.5625 6.81434 6.31066 6.5625 6 6.5625C5.68934 6.5625 5.4375 6.81434 5.4375 7.125C5.4375 7.43566 5.68934 7.6875 6 7.6875Z" fill="black"/>
<path d="M3.52539 4.125V2.625C3.52539 1.96859 3.78585 1.33915 4.25 0.875C4.71415 0.410847 5.34359 0.150391 6 0.150391C7.1836 0.150391 8.23045 0.98683 8.46289 2.13086C8.52868 2.45549 8.31878 2.77193 7.99414 2.83789C7.66951 2.90368 7.35307 2.69378 7.28711 2.36914C7.17161 1.80143 6.63035 1.34961 6 1.34961C5.66185 1.34961 5.33774 1.48452 5.09863 1.72363C4.85952 1.96274 4.72461 2.28685 4.72461 2.625V4.125C4.72461 4.45637 4.45637 4.72461 4.125 4.72461C3.79363 4.72461 3.52539 4.45637 3.52539 4.125Z" fill="black"/>
</svg>
