<svg width="12" height="12" viewBox="0 0 12 12" fill="none" xmlns="http://www.w3.org/2000/svg">
<path d="M1.84665 1.4306C2.09186 1.20804 2.47151 1.22654 2.69431 1.47162L10.1943 9.72162C10.4169 9.96682 10.3984 10.3465 10.1533 10.5693C9.90809 10.7919 9.52844 10.7733 9.30563 10.5283L8.51071 9.65326C8.36902 9.93295 8.21278 10.1668 8.08493 10.3369L8.08298 10.3398C7.9989 10.4501 7.89163 10.5415 7.7695 10.6074C7.64746 10.6731 7.51227 10.7121 7.37399 10.7216C7.2357 10.7311 7.09668 10.7104 6.96677 10.662C6.83686 10.6136 6.71848 10.538 6.62009 10.4404L4.51364 8.33392L2.6738 10.1747C2.43959 10.4084 2.06033 10.4085 1.82614 10.1747C1.59183 9.94043 1.59183 9.56042 1.82614 9.32611L3.66501 7.48627L1.56052 5.38177C1.46373 5.28504 1.38881 5.16873 1.33981 5.04095C1.29069 4.91284 1.26886 4.77562 1.27634 4.63861L1.28708 4.53705C1.30337 4.43583 1.3357 4.33758 1.38278 4.24603L1.43454 4.15717C1.49074 4.07148 1.56026 3.9949 1.64059 3.9306C2.01501 3.62898 2.38961 3.43244 2.74509 3.31146L1.80563 2.27826C1.5831 2.03305 1.60159 1.65339 1.84665 1.4306ZM3.68454 4.34564C3.38046 4.35758 3.00218 4.4442 2.59372 4.71771L7.27438 9.39838C7.4086 9.18974 7.53804 8.93875 7.6152 8.66888L3.68454 4.34564ZM11.4746 4.34467C11.4746 4.60312 11.3721 4.8513 11.1894 5.03412L11.1884 5.03314L9.09665 7.13275C8.86273 7.36746 8.48272 7.36863 8.24802 7.1347C8.01344 6.90077 8.01316 6.52073 8.24704 6.28607L10.1816 4.34467L7.65622 1.8183L5.88278 3.5976C5.64885 3.83206 5.26876 3.83229 5.03415 3.59857C4.79955 3.36454 4.79914 2.98454 5.03317 2.74994L6.96677 0.810486C7.1496 0.627776 7.39872 0.52533 7.6572 0.52533L7.7529 0.529236C7.97608 0.551323 8.18564 0.650588 8.34567 0.810486L11.1894 3.65521C11.3721 3.83804 11.4746 4.08619 11.4746 4.34467Z" fill="black"/>
</svg>
