<svg width="12" height="12" viewBox="0 0 12 12" fill="none" xmlns="http://www.w3.org/2000/svg">
<path d="M2.39986 3.894C2.40002 3.56277 2.66917 3.29439 3.00044 3.29439C3.33153 3.2946 3.59989 3.5629 3.60005 3.894V9.41646L5.68208 8.11568L5.75728 8.07661C5.93745 7.99679 6.14759 8.00944 6.31783 8.11568L8.42622 9.43306C8.49872 9.18321 8.72721 8.99947 9.00044 8.99947C9.33163 8.99968 9.60005 9.26881 9.60005 9.60005V10.4995C9.60005 10.7176 9.48125 10.9191 9.29048 11.0249C9.09979 11.1304 8.86691 11.1238 8.68208 11.0083L5.99947 9.3315L3.31783 11.0083C3.13295 11.1238 2.90015 11.1304 2.70943 11.0249C2.51865 10.9191 2.39986 10.7176 2.39986 10.4995V3.894ZM8.39986 6.35103V2.47505H4.52388L8.39986 6.35103ZM9.60005 7.55122L10.9243 8.87544C11.1586 9.10976 11.1586 9.48976 10.9243 9.72408C10.69 9.95839 10.31 9.95839 10.0756 9.72408L1.67622 1.32369C1.44191 1.08937 1.44191 0.710343 1.67622 0.476029C1.91054 0.241714 2.28957 0.241714 2.52388 0.476029L3.32369 1.27486H8.62544C8.85146 1.27495 9.06927 1.35362 9.24263 1.49556L9.3149 1.56001L9.37935 1.63228C9.52129 1.80564 9.59996 2.02345 9.60005 2.24947V7.55122Z" fill="black"/>
</svg>
