<svg width="12" height="12" viewBox="0 0 12 12" fill="none" xmlns="http://www.w3.org/2000/svg">
<path d="M2.84961 9.90039H9.15039V4.72461H7.125C6.79363 4.72461 6.52539 4.45637 6.52539 4.125V2.09961H2.84961V9.90039ZM5.40039 8.625V7.07227L5.29883 7.17383C5.06451 7.40814 4.68549 7.40814 4.45117 7.17383C4.21686 6.93951 4.21686 6.56049 4.45117 6.32617L5.57617 5.20117L5.66992 5.12402C5.90282 4.97023 6.21879 4.99614 6.42383 5.20117L7.54883 6.32617C7.78314 6.56049 7.78314 6.93951 7.54883 7.17383C7.31451 7.40814 6.93549 7.40814 6.70117 7.17383L6.59961 7.07227V8.625C6.59961 8.95637 6.33137 9.22461 6 9.22461C5.66863 9.22461 5.40039 8.95637 5.40039 8.625ZM7.72461 3.52539H8.30273L7.72461 2.94727V3.52539ZM10.3496 10.125C10.3496 10.3836 10.2473 10.6316 10.0645 10.8145C9.8816 10.9973 9.63358 11.0996 9.375 11.0996H2.625C2.36641 11.0996 2.1184 10.9973 1.93555 10.8145C1.7527 10.6316 1.65039 10.3836 1.65039 10.125V1.875C1.65039 1.61641 1.7527 1.36839 1.93555 1.18555L2.00684 1.12109C2.18038 0.978787 2.39861 0.900391 2.625 0.900391H7.125C7.28413 0.900391 7.43631 0.96365 7.54883 1.07617L10.1738 3.70117C10.2863 3.81369 10.3496 3.96587 10.3496 4.125V10.125Z" fill="black"/>
</svg>
