<svg width="12" height="12" viewBox="0 0 12 12" fill="none" xmlns="http://www.w3.org/2000/svg">
<path d="M8.4006 4.5C8.4006 3.17452 7.32569 2.09961 6.00021 2.09961C4.67473 2.09961 3.59982 3.17452 3.59982 4.5C3.59982 5.74274 4.54475 6.76492 5.75509 6.8877L6.00021 6.90039L6.24533 6.8877C7.45567 6.76492 8.4006 5.74274 8.4006 4.5ZM9.59982 4.5C9.59982 5.65444 9.05611 6.68106 8.21115 7.33984C9.39841 7.83471 10.3782 8.71569 11.0197 9.82422C11.1857 10.111 11.0877 10.4785 10.801 10.6445C10.5142 10.8105 10.1467 10.7125 9.98068 10.4258C9.17231 9.02897 7.71417 8.09961 6.00021 8.09961C4.28625 8.09961 2.82812 9.02897 2.01974 10.4258C1.85374 10.7125 1.48621 10.8105 1.19943 10.6445C0.912691 10.4785 0.814715 10.111 0.98068 9.82422C1.62209 8.71595 2.60141 7.83478 3.7883 7.33984C2.94368 6.68104 2.4006 5.65416 2.4006 4.5C2.4006 2.51177 4.01199 0.900391 6.00021 0.900391C7.98844 0.900391 9.59982 2.51177 9.59982 4.5Z" fill="black"/>
</svg>
