<svg width="12" height="12" viewBox="0 0 12 12" fill="none" xmlns="http://www.w3.org/2000/svg">
<g clip-path="url(#clip0_14236_431468)">
<path d="M5.77532 5.06255C5.77532 4.04774 4.95224 3.22468 3.93743 3.22466C2.92261 3.22466 2.09954 4.04773 2.09954 5.06255C2.09954 6.07315 2.91574 6.89265 3.92474 6.89946H3.94915C4.95856 6.89314 5.77532 6.07345 5.77532 5.06255ZM8.24407 2.03032C8.6904 2.05738 9.12519 2.18299 9.51751 2.39751C9.90997 2.61219 10.251 2.91111 10.5146 3.27251C10.7781 3.63386 10.9583 4.04914 11.0429 4.48833C11.1275 4.92756 11.1144 5.38012 11.0038 5.81353C10.8932 6.24697 10.688 6.6511 10.4033 6.99614C10.2996 7.12171 10.1851 7.23698 10.0634 7.3438C10.1485 7.38355 10.2325 7.42585 10.3154 7.47075C11.0072 7.84587 11.5944 8.38814 12.0234 9.0479C12.204 9.32566 12.1253 9.69731 11.8476 9.87798C11.5698 10.0586 11.1982 9.97989 11.0175 9.7022C10.6976 9.21009 10.2591 8.80523 9.7431 8.52544C9.22722 8.24582 8.64923 8.09931 8.06243 8.09966C7.73124 8.09968 7.46307 7.83128 7.46282 7.50005C7.46282 7.16905 7.73046 6.90095 8.06146 6.90044C8.33207 6.9002 8.59993 6.84014 8.84466 6.72466C9.08923 6.60924 9.30531 6.44103 9.47747 6.23247C9.6497 6.02374 9.77385 5.77886 9.84075 5.51665C9.90761 5.25451 9.91534 4.98055 9.86419 4.71489C9.81301 4.44929 9.70426 4.19807 9.54486 3.97954C9.3854 3.76096 9.17968 3.5801 8.94232 3.45024C8.70503 3.32045 8.44177 3.24499 8.17181 3.22856C7.90182 3.21221 7.63107 3.25537 7.37982 3.35552C7.07202 3.47828 6.7223 3.32835 6.59954 3.02056C6.47707 2.71298 6.6271 2.36413 6.9345 2.24126C7.35001 2.07554 7.79756 2.00327 8.24407 2.03032ZM6.97454 5.06255C6.97454 5.97298 6.57192 6.78708 5.93743 7.3438C6.02278 7.38368 6.10728 7.42569 6.19036 7.47075C6.88208 7.84601 7.46932 8.38821 7.89837 9.0479C8.07902 9.32566 8.0003 9.69729 7.72259 9.87798C7.44483 10.0586 7.0732 9.97993 6.89251 9.7022C6.57242 9.21004 6.13414 8.8054 5.6181 8.52544C5.107 8.24822 4.5353 8.10142 3.95404 8.09868C3.9485 8.09871 3.94297 8.09966 3.93743 8.09966C3.93158 8.09966 3.9257 8.09871 3.91986 8.09868C3.33892 8.10157 2.76759 8.24838 2.25677 8.52544C1.74073 8.8054 1.30245 9.21004 0.982356 9.7022C0.801679 9.97996 0.430053 10.0586 0.152278 9.87798C-0.12548 9.6973 -0.204164 9.32568 -0.0235032 9.0479C0.405551 8.38822 0.992805 7.84601 1.6845 7.47075C1.76733 7.42583 1.85138 7.38357 1.93646 7.3438C1.30227 6.78709 0.900325 5.97273 0.900325 5.06255C0.900325 3.38498 2.25987 2.02544 3.93743 2.02544C5.61498 2.02546 6.97454 3.385 6.97454 5.06255Z" fill="black"/>
</g>
<defs>
<clipPath id="clip0_14236_431468">
<rect width="12" height="12" fill="white"/>
</clipPath>
</defs>
</svg>
