<svg width="12" height="12" viewBox="0 0 12 12" fill="none" xmlns="http://www.w3.org/2000/svg">
<g clip-path="url(#clip0_14236_425150)">
<path d="M7.27547 4.6875C7.27547 3.46557 6.28451 2.47461 5.06258 2.47461C3.84065 2.47461 2.84969 3.46557 2.84969 4.6875C2.84969 5.83294 3.72051 6.77522 4.83601 6.88867L5.06258 6.90039L5.28914 6.88867C6.40465 6.77522 7.27547 5.83294 7.27547 4.6875ZM11.2012 5.57617C11.4356 5.34186 11.8146 5.34186 12.0489 5.57617C12.2832 5.81049 12.2832 6.18951 12.0489 6.42383L10.5489 7.92383C10.3146 8.15814 9.93556 8.15814 9.70125 7.92383L8.95125 7.17383C8.71693 6.93951 8.71693 6.56049 8.95125 6.32617C9.18556 6.09186 9.56459 6.09186 9.79891 6.32617L10.1251 6.65234L11.2012 5.57617ZM8.47469 4.6875C8.47469 5.75124 7.98757 6.70034 7.22469 7.32617C8.09707 7.68934 8.8521 8.2671 9.45906 8.98926C9.67225 9.24293 9.63948 9.62078 9.38582 9.83398C9.13215 10.0472 8.7543 10.0144 8.54109 9.76074C7.67966 8.73583 6.4817 8.09961 5.06258 8.09961C3.64346 8.09961 2.4455 8.73583 1.58406 9.76074C1.37086 10.0144 0.993006 10.0472 0.739335 9.83398C0.48567 9.62078 0.452901 9.24293 0.666093 8.98926C1.27287 8.26733 2.02746 7.68936 2.89949 7.32617C2.13695 6.70033 1.65047 5.75097 1.65047 4.6875C1.65047 2.80283 3.17791 1.27539 5.06258 1.27539C6.94725 1.27539 8.47469 2.80283 8.47469 4.6875Z" fill="black"/>
</g>
<defs>
<clipPath id="clip0_14236_425150">
<rect width="12" height="12" fill="white"/>
</clipPath>
</defs>
</svg>
