<svg width="12" height="12" viewBox="0 0 12 12" fill="none" xmlns="http://www.w3.org/2000/svg">
<g clip-path="url(#clip0_14111_491493)">
<path d="M1.72461 8.40039H8.77539V3.59961H1.72461V8.40039ZM9.97461 5.57129V6.42871L11.0254 7.12891V4.87012L9.97461 5.57129ZM9.97461 4.12891L11.292 3.25098C11.4761 3.12825 11.7131 3.11632 11.9082 3.2207C12.1033 3.32511 12.2246 3.52872 12.2246 3.75V8.25C12.2246 8.47128 12.1033 8.67489 11.9082 8.7793C11.7131 8.88368 11.4761 8.87175 11.292 8.74902L9.97461 7.87012V8.625C9.97461 9.16348 9.53848 9.59961 9 9.59961H1.5C0.961522 9.59961 0.525391 9.16348 0.525391 8.625V3.375C0.525391 2.83652 0.961522 2.40039 1.5 2.40039H9C9.53848 2.40039 9.97461 2.83652 9.97461 3.375V4.12891Z" fill="black"/>
</g>
<defs>
<clipPath id="clip0_14111_491493">
<rect width="12" height="12" fill="white"/>
</clipPath>
</defs>
</svg>
