<svg width="12" height="12" viewBox="0 0 12 12" fill="none" xmlns="http://www.w3.org/2000/svg">
<g clip-path="url(#clip0_14064_467307)">
<path d="M9 3.375V8.625C9 8.82391 8.92098 9.01468 8.78033 9.15533C8.63968 9.29598 8.44891 9.375 8.25 9.375H1.5C1.30109 9.375 1.11032 9.29598 0.96967 9.15533C0.829018 9.01468 0.75 8.82391 0.75 8.625V3.375C0.75 3.17609 0.829018 2.98532 0.96967 2.84467C1.11032 2.70402 1.30109 2.625 1.5 2.625H8.25C8.44891 2.625 8.63968 2.70402 8.78033 2.84467C8.92098 2.98532 9 3.17609 9 3.375ZM11.7188 3.38672C11.6658 3.37377 11.6108 3.37218 11.5572 3.38203C11.5037 3.39189 11.4528 3.41298 11.408 3.44391L9.83344 4.49344C9.80775 4.51057 9.7867 4.53379 9.77214 4.56102C9.75759 4.58825 9.74998 4.61865 9.75 4.64953V7.35047C9.74998 7.38135 9.75759 7.41175 9.77214 7.43898C9.7867 7.46621 9.80775 7.48943 9.83344 7.50656L11.4169 8.56219C11.4761 8.60172 11.5454 8.62356 11.6167 8.62514C11.6879 8.62671 11.7581 8.60797 11.8191 8.57109C11.8755 8.53524 11.9217 8.48551 11.9534 8.42666C11.9851 8.36782 12.0011 8.30182 12 8.235V3.75C12 3.66683 11.9724 3.58601 11.9215 3.52025C11.8706 3.45448 11.7993 3.40751 11.7188 3.38672Z" fill="black"/>
</g>
<defs>
<clipPath id="clip0_14064_467307">
<rect width="12" height="12" fill="white"/>
</clipPath>
</defs>
</svg>
