<svg width="12" height="12" viewBox="0 0 12 12" fill="none" xmlns="http://www.w3.org/2000/svg">
<path d="M3.75 6V3C3.75 2.40326 3.98705 1.83097 4.40901 1.40901C4.83097 0.987053 5.40326 0.75 6 0.75C6.59674 0.75 7.16903 0.987053 7.59099 1.40901C8.01295 1.83097 8.25 2.40326 8.25 3V6C8.25 6.59674 8.01295 7.16903 7.59099 7.59099C7.16903 8.01295 6.59674 8.25 6 8.25C5.40326 8.25 4.83097 8.01295 4.40901 7.59099C3.98705 7.16903 3.75 6.59674 3.75 6ZM9.75 6C9.75 5.90054 9.71049 5.80516 9.64017 5.73484C9.56984 5.66451 9.47446 5.625 9.375 5.625C9.27554 5.625 9.18016 5.66451 9.10983 5.73484C9.03951 5.80516 9 5.90054 9 6C9 6.79565 8.68393 7.55871 8.12132 8.12132C7.55871 8.68393 6.79565 9 6 9C5.20435 9 4.44129 8.68393 3.87868 8.12132C3.31607 7.55871 3 6.79565 3 6C3 5.90054 2.96049 5.80516 2.89016 5.73484C2.81984 5.66451 2.72446 5.625 2.625 5.625C2.52554 5.625 2.43016 5.66451 2.35984 5.73484C2.28951 5.80516 2.25 5.90054 2.25 6C2.25114 6.92932 2.59684 7.8252 3.22024 8.5144C3.84364 9.20361 4.70046 9.63717 5.625 9.73125V11.25C5.625 11.3495 5.66451 11.4448 5.73484 11.5152C5.80516 11.5855 5.90054 11.625 6 11.625C6.09946 11.625 6.19484 11.5855 6.26517 11.5152C6.33549 11.4448 6.375 11.3495 6.375 11.25V9.73125C7.29954 9.63717 8.15636 9.20361 8.77976 8.5144C9.40316 7.8252 9.74886 6.92932 9.75 6Z" fill="black"/>
</svg>
