<svg width="12" height="12" viewBox="0 0 12 12" fill="none" xmlns="http://www.w3.org/2000/svg">
<path d="M5.40039 11.25V9.92871C4.56815 9.8017 3.79206 9.41316 3.18945 8.81055C2.444 8.06509 2.02539 7.05424 2.02539 6C2.02539 5.66863 2.29363 5.40039 2.625 5.40039C2.95637 5.40039 3.22461 5.66863 3.22461 6C3.22461 6.73598 3.51767 7.4415 4.03809 7.96191C4.5585 8.48233 5.26402 8.77539 6 8.77539C6.73598 8.77539 7.4415 8.48233 7.96191 7.96191C8.48233 7.4415 8.77539 6.73598 8.77539 6C8.77539 5.66863 9.04363 5.40039 9.375 5.40039C9.70637 5.40039 9.97461 5.66863 9.97461 6C9.97461 7.05424 9.556 8.06509 8.81055 8.81055C8.20794 9.41316 7.43185 9.8017 6.59961 9.92871V11.25C6.59961 11.5814 6.33137 11.8496 6 11.8496C5.66863 11.8496 5.40039 11.5814 5.40039 11.25ZM7.27539 3C7.27539 2.29584 6.70416 1.72461 6 1.72461C5.29584 1.72461 4.72461 2.29584 4.72461 3V6C4.72461 6.70416 5.29584 7.27539 6 7.27539C6.70416 7.27539 7.27539 6.70416 7.27539 6V3ZM8.47461 6C8.47461 7.3669 7.3669 8.47461 6 8.47461C4.6331 8.47461 3.52539 7.3669 3.52539 6V3C3.52539 1.6331 4.6331 0.525391 6 0.525391C7.3669 0.525391 8.47461 1.6331 8.47461 3V6Z" fill="black"/>
</svg>
