<svg width="12" height="12" viewBox="0 0 12 12" fill="none" xmlns="http://www.w3.org/2000/svg">
<g clip-path="url(#clip0_14229_228558)">
<path d="M9.90039 6C9.90039 3.84609 8.15391 2.09961 6 2.09961C3.84609 2.09961 2.09961 3.84609 2.09961 6C2.09961 8.15391 3.84609 9.90039 6 9.90039C8.15391 9.90039 9.90039 8.15391 9.90039 6ZM7.07617 4.07617C7.31049 3.84186 7.68951 3.84186 7.92383 4.07617C8.15814 4.31049 8.15814 4.68951 7.92383 4.92383L6.84766 6L7.92383 7.07617C8.15814 7.31049 8.15814 7.68951 7.92383 7.92383C7.68951 8.15814 7.31049 8.15814 7.07617 7.92383L6 6.84766L4.92383 7.92383C4.68951 8.15814 4.31049 8.15814 4.07617 7.92383C3.84186 7.68951 3.84186 7.31049 4.07617 7.07617L5.15234 6L4.07617 4.92383C3.84186 4.68951 3.84186 4.31049 4.07617 4.07617C4.31049 3.84186 4.68951 3.84186 4.92383 4.07617L6 5.15234L7.07617 4.07617ZM11.0996 6C11.0996 8.81665 8.81665 11.0996 6 11.0996C3.18335 11.0996 0.900391 8.81665 0.900391 6C0.900391 3.18335 3.18335 0.900391 6 0.900391C8.81665 0.900391 11.0996 3.18335 11.0996 6Z" fill="black"/>
</g>
<defs>
<clipPath id="clip0_14229_228558">
<rect width="12" height="12" fill="white"/>
</clipPath>
</defs>
</svg>
