<svg width="12" height="12" viewBox="0 0 12 12" fill="none" xmlns="http://www.w3.org/2000/svg">
<path d="M8.95113 2.20113C9.18544 1.96681 9.56447 1.96681 9.79878 2.20113C10.0331 2.43544 10.0331 2.81447 9.79878 3.04878L6.84761 5.99995L9.79878 8.95113C10.0331 9.18544 10.0331 9.56447 9.79878 9.79878C9.56447 10.0331 9.18544 10.0331 8.95113 9.79878L5.99995 6.84761L3.04878 9.79878C2.81447 10.0331 2.43544 10.0331 2.20113 9.79878C1.96681 9.56447 1.96681 9.18544 2.20113 8.95113L5.1523 5.99995L2.20113 3.04878C1.96681 2.81447 1.96681 2.43544 2.20113 2.20113C2.43544 1.96681 2.81447 1.96681 3.04878 2.20113L5.99995 5.1523L8.95113 2.20113Z" fill="black"/>
</svg>
