<svg width="16" height="16" viewBox="0 0 16 16" fill="none" xmlns="http://www.w3.org/2000/svg">
<path d="M9.75 7.5C9.75 6.5335 8.9665 5.75 8 5.75C7.0335 5.75 6.25 6.5335 6.25 7.5C6.25 8.45867 7.02088 9.23549 7.97656 9.24805H8.02246C8.9786 9.23601 9.75 8.45899 9.75 7.5ZM8 10.75C7.98859 10.75 7.9772 10.7491 7.96582 10.749C7.28517 10.7552 6.61857 10.9455 6.03809 11.3018C5.61995 11.5584 5.25965 11.8949 4.97266 12.2881C5.82831 12.8933 6.87223 13.25 8 13.25C9.12748 13.25 10.1708 12.893 11.0264 12.2881C10.7394 11.8951 10.3799 11.5583 9.96191 11.3018C9.38115 10.9453 8.7142 10.7551 8.0332 10.749C8.02215 10.7491 8.01108 10.75 8 10.75ZM14.75 8C14.75 11.7279 11.7279 14.75 8 14.75C4.27208 14.75 1.25 11.7279 1.25 8C1.25 4.27208 4.27208 1.25 8 1.25C11.7279 1.25 14.75 4.27208 14.75 8ZM11.25 7.5C11.25 8.39175 10.8892 9.19793 10.3076 9.78516C10.4567 9.85817 10.6038 9.93611 10.7461 10.0234C11.276 10.3487 11.7405 10.7649 12.1221 11.249C12.8276 10.3551 13.25 9.22723 13.25 8C13.25 5.10051 10.8995 2.75 8 2.75C5.10051 2.75 2.75 5.10051 2.75 8C2.75 9.22701 3.17161 10.3552 3.87695 11.249C4.25856 10.7647 4.72382 10.3488 5.25391 10.0234C5.39594 9.93627 5.54256 9.85807 5.69141 9.78516C5.11015 9.19797 4.75 8.3915 4.75 7.5C4.75 5.70507 6.20507 4.25 8 4.25C9.79493 4.25 11.25 5.70507 11.25 7.5Z" fill="black"/>
</svg>
