<svg width="16" height="16" viewBox="0 0 16 16" fill="none" xmlns="http://www.w3.org/2000/svg">
<path d="M3.25 11.75H12.75V6.75H3.25V11.75ZM9.5 7.75C9.91421 7.75 10.25 8.08579 10.25 8.5C10.25 8.91421 9.91421 9.25 9.5 9.25H6.5C6.08579 9.25 5.75 8.91421 5.75 8.5C5.75 8.08579 6.08579 7.75 6.5 7.75H9.5ZM2.25 5.25H13.75V4.25H2.25V5.25ZM15.25 5.5C15.25 6.10471 14.8205 6.60876 14.25 6.72461V12C14.25 12.3315 14.1182 12.6494 13.8838 12.8838C13.6494 13.1182 13.3315 13.25 13 13.25H3C2.66848 13.25 2.35063 13.1182 2.11621 12.8838C1.88179 12.6494 1.75 12.3315 1.75 12V6.72461C1.17948 6.60876 0.75 6.10471 0.75 5.5V4C0.75 3.30964 1.30964 2.75 2 2.75H14C14.6904 2.75 15.25 3.30964 15.25 4V5.5Z" fill="black"/>
</svg>
