<svg width="16" height="16" viewBox="0 0 16 16" fill="none" xmlns="http://www.w3.org/2000/svg">
<path d="M13.25 8C13.25 5.10051 10.8995 2.75 8 2.75C5.10051 2.75 2.75 5.10051 2.75 8C2.75 10.8995 5.10051 13.25 8 13.25C10.8995 13.25 13.25 10.8995 13.25 8ZM7.25 5.5C7.25 5.08579 7.58579 4.75 8 4.75C8.41421 4.75 8.75 5.08579 8.75 5.5V8.68945L9.46973 7.96973C9.76262 7.67683 10.2374 7.67683 10.5303 7.96973C10.8232 8.26262 10.8232 8.73738 10.5303 9.03027L8.53027 11.0303C8.23738 11.3232 7.76262 11.3232 7.46973 11.0303L5.46973 9.03027C5.17683 8.73738 5.17683 8.26262 5.46973 7.96973C5.76262 7.67683 6.23738 7.67683 6.53027 7.96973L7.25 8.68945V5.5ZM14.75 8C14.75 11.7279 11.7279 14.75 8 14.75C4.27208 14.75 1.25 11.7279 1.25 8C1.25 4.27208 4.27208 1.25 8 1.25C11.7279 1.25 14.75 4.27208 14.75 8Z" fill="black"/>
</svg>
