<svg width="16" height="16" viewBox="0 0 16 16" fill="none" xmlns="http://www.w3.org/2000/svg">
<path d="M12.2505 3.99976C12.2505 3.66836 12.1186 3.35035 11.8843 3.11597C11.6498 2.8815 11.3311 2.74976 10.9995 2.74976C10.6681 2.74984 10.3501 2.88158 10.1158 3.11597L3.91263 9.40405C3.49635 9.82717 3.2647 10.3984 3.26712 10.9919C3.26956 11.5855 3.5066 12.1543 3.9263 12.574C4.34599 12.9935 4.91488 13.2307 5.50833 13.2332C6.10176 13.2355 6.67222 13.0029 7.09525 12.5867L12.2202 7.46948C12.5134 7.17687 12.9881 7.17737 13.2808 7.47046C13.5731 7.76359 13.5728 8.23843 13.2798 8.53101L8.147 13.656C7.44182 14.3497 6.49071 14.7372 5.5015 14.7332C4.51246 14.729 3.56517 14.3338 2.86575 13.6345C2.16623 12.935 1.77115 11.9871 1.76712 10.9978C1.76314 10.0086 2.15051 9.05745 2.84427 8.35229L9.0513 2.05933L9.05521 2.05542C9.5709 1.53972 10.2702 1.24984 10.9995 1.24976C11.7289 1.24976 12.4291 1.53965 12.9449 2.05542C13.4604 2.57111 13.7505 3.27054 13.7505 3.99976C13.7505 4.72916 13.4606 5.4293 12.9449 5.94507L12.9439 5.94409L6.74173 12.2332C6.738 12.2369 6.73382 12.2412 6.73001 12.2449C6.40043 12.5651 5.95806 12.7431 5.49857 12.74C5.03888 12.7367 4.59811 12.5523 4.27298 12.2273C3.94798 11.9023 3.76374 11.4623 3.76028 11.0027C3.75686 10.543 3.93426 10.1001 4.25442 9.77026L4.25833 9.76733L9.46536 4.47437C9.75584 4.17908 10.2306 4.1751 10.5259 4.46558C10.821 4.75607 10.8251 5.2309 10.5347 5.52612L5.3306 10.8142L5.33157 10.8152C5.28583 10.8623 5.25979 10.9263 5.26028 10.9919C5.26089 11.0575 5.28718 11.1204 5.33353 11.1667C5.37988 11.2131 5.44281 11.2394 5.50833 11.24C5.574 11.2405 5.63799 11.2145 5.68509 11.1687L11.8804 4.88745L11.8843 4.88354C12.1185 4.64913 12.2505 4.33113 12.2505 3.99976Z" fill="black"/>
</svg>
