<svg width="16" height="16" viewBox="0 0 16 16" fill="none" xmlns="http://www.w3.org/2000/svg">
<path d="M9.53906 1.4082C9.76506 1.23242 10.0719 1.20052 10.3291 1.32616C10.5864 1.45202 10.75 1.71354 10.75 1.99999V14C10.75 14.2864 10.5864 14.548 10.3291 14.6738C10.0719 14.7995 9.76506 14.7676 9.53906 14.5918L5.24219 11.25H2.5C2.16848 11.25 1.85063 11.1182 1.61621 10.8838C1.38179 10.6494 1.25 10.3315 1.25 9.99999V5.99999C1.25 5.66847 1.38179 5.35062 1.61621 5.1162L1.70801 5.0332C1.93043 4.85098 2.20995 4.74999 2.5 4.74999H5.24219L9.53906 1.4082ZM5.96094 6.09179C5.82929 6.19418 5.66678 6.24999 5.5 6.24999H2.75V9.74999H5.5C5.66678 9.74999 5.82929 9.8058 5.96094 9.9082L9.25 12.4658V3.5332L5.96094 6.09179ZM13.75 10.5V5.49999C13.75 5.08578 14.0858 4.74999 14.5 4.74999C14.9142 4.74999 15.25 5.08578 15.25 5.49999V10.5C15.25 10.9142 14.9142 11.25 14.5 11.25C14.0858 11.25 13.75 10.9142 13.75 10.5ZM11.75 9.49999V6.49999C11.75 6.08578 12.0858 5.74999 12.5 5.74999C12.9142 5.74999 13.25 6.08578 13.25 6.49999V9.49999C13.25 9.91421 12.9142 10.25 12.5 10.25C12.0858 10.25 11.75 9.91421 11.75 9.49999Z" fill="black"/>
</svg>
