<svg width="16" height="16" viewBox="0 0 16 16" fill="none" xmlns="http://www.w3.org/2000/svg">
<path d="M2.49512 1.94442C2.80156 1.6659 3.27606 1.68888 3.55469 1.9952L13.5547 12.9952C13.8332 13.3016 13.8111 13.7761 13.5049 14.0548C13.1984 14.3334 12.7239 14.3105 12.4453 14.004L11.3057 12.7501H10.6436C10.5166 13.1973 10.2789 13.6098 9.94434 13.9444C9.42864 14.4601 8.72928 14.7501 8 14.7501C7.27073 14.7501 6.57137 14.46 6.05567 13.9444C5.72109 13.6099 5.48339 13.1973 5.35645 12.7501H2.99512C2.77644 12.7487 2.56194 12.6894 2.37305 12.5792C2.18414 12.4689 2.02774 12.3109 1.91895 12.1212C1.8102 11.9315 1.75263 11.7168 1.75293 11.4981L1.76367 11.335C1.78517 11.1734 1.83883 11.0163 1.9209 10.8741C2.22538 10.347 2.68749 8.85851 2.74414 6.89853L2.75 6.50009C2.74874 5.63227 2.96296 4.78086 3.37012 4.02157L2.44531 3.00399C2.1667 2.6975 2.18863 2.22305 2.49512 1.94442ZM7.00195 12.7501C7.03701 12.7967 7.07448 12.8421 7.11621 12.8839C7.35062 13.1182 7.66856 13.2501 8 13.2501C8.33145 13.2501 8.6494 13.1182 8.88379 12.8839C8.92554 12.8421 8.96298 12.7967 8.99805 12.7501H7.00195ZM11.75 6.50009C11.7501 5.84422 11.5778 5.19962 11.251 4.63095C10.9242 4.06229 10.4544 3.58904 9.8877 3.25888C9.32098 2.92872 8.67735 2.75292 8.02149 2.74911C7.3658 2.74534 6.72077 2.91396 6.15039 3.23739C5.79023 3.44166 5.33239 3.31514 5.12793 2.95517C4.92359 2.59487 5.04986 2.13705 5.41016 1.9327C6.20882 1.47976 7.11213 1.2438 8.03027 1.24911C8.94847 1.25444 9.84919 1.50077 10.6426 1.96298C11.436 2.4252 12.0943 3.08774 12.5518 3.88388C13.0091 4.67994 13.2501 5.58198 13.25 6.50009C13.25 8.23463 13.5781 9.66906 13.8896 10.463C14.041 10.8485 13.8514 11.2843 13.4658 11.4356C13.0804 11.5869 12.6457 11.397 12.4941 11.0118C12.1071 10.0257 11.75 8.40256 11.75 6.50009ZM4.47168 5.23251C4.32653 5.63645 4.24934 6.06399 4.25 6.49813V6.50009C4.24997 8.52842 3.84382 10.268 3.4082 11.2501H9.94141L4.47168 5.23251Z" fill="black"/>
</svg>
