<svg width="16" height="16" viewBox="0 0 16 16" fill="none" xmlns="http://www.w3.org/2000/svg">
<path d="M13.25 5C13.25 4.9337 13.2236 4.87013 13.1768 4.82324C13.1299 4.77636 13.0663 4.75 13 4.75H11C10.7492 4.75 10.5151 4.62466 10.376 4.41602L9.59863 3.25H6.40137L5.62402 4.41602C5.48492 4.62466 5.25076 4.75 5 4.75H3C2.9337 4.75 2.87013 4.77636 2.82324 4.82324C2.77636 4.87013 2.75 4.9337 2.75 5V12C2.75 12.0663 2.77636 12.1299 2.82324 12.1768C2.87013 12.2236 2.9337 12.25 3 12.25H13C13.0663 12.25 13.1299 12.2236 13.1768 12.1768C13.2236 12.1299 13.25 12.0663 13.25 12V5ZM9.5 8.25C9.5 7.42157 8.82843 6.75 8 6.75C7.17157 6.75 6.5 7.42157 6.5 8.25C6.5 9.07843 7.17157 9.75 8 9.75C8.82843 9.75 9.5 9.07843 9.5 8.25ZM11 8.25C11 9.90685 9.65685 11.25 8 11.25C6.34315 11.25 5 9.90685 5 8.25C5 6.59315 6.34315 5.25 8 5.25C9.65685 5.25 11 6.59315 11 8.25ZM14.75 12C14.75 12.4641 14.5655 12.9091 14.2373 13.2373C13.9091 13.5655 13.4641 13.75 13 13.75H3C2.53587 13.75 2.09088 13.5655 1.7627 13.2373C1.43451 12.9091 1.25 12.4641 1.25 12V5C1.25 4.53587 1.43451 4.09088 1.7627 3.7627C2.09088 3.43451 2.53587 3.25 3 3.25H4.59863L5.37598 2.08398L5.43262 2.00977C5.57405 1.84604 5.78061 1.75 6 1.75H10C10.2508 1.75 10.4849 1.87534 10.624 2.08398L11.4014 3.25H13C13.4641 3.25 13.9091 3.43451 14.2373 3.7627C14.5655 4.09088 14.75 4.53587 14.75 5V12Z" fill="black"/>
</svg>
