<svg width="16" height="16" viewBox="0 0 16 16" fill="none" xmlns="http://www.w3.org/2000/svg">
<path d="M9.96469 4.27265C10.2602 3.98242 10.735 3.98694 11.0252 4.28242C11.3155 4.57794 11.311 5.05272 11.0155 5.34297L4.51255 11.7297C4.2208 12.0162 3.75353 12.0162 3.46176 11.7297L0.674654 8.99336C0.379196 8.70321 0.374895 8.22836 0.664889 7.93281C0.955115 7.63727 1.4299 7.63282 1.72544 7.92305L3.98618 10.1428L9.96469 4.27265ZM14.2743 4.27265C14.5698 3.98244 15.0446 3.98699 15.3348 4.28242C15.625 4.57788 15.6214 5.05271 15.326 5.34297L8.82211 11.7297C8.52665 12.0199 8.05182 12.0163 7.76157 11.7209C7.47133 11.4254 7.47581 10.9496 7.77133 10.6594L14.2743 4.27265Z" fill="black"/>
</svg>
