<svg width="16" height="16" viewBox="0 0 16 16" fill="none" xmlns="http://www.w3.org/2000/svg">
<path d="M2.75 12.25H13.25V3.75H2.75V12.25ZM11 9.25C11.4142 9.25 11.75 9.58579 11.75 10C11.75 10.4142 11.4142 10.75 11 10.75H8.5C8.08579 10.75 7.75 10.4142 7.75 10C7.75 9.58579 8.08579 9.25 8.5 9.25H11ZM4.41406 5.53125C4.67282 5.2078 5.1453 5.15531 5.46875 5.41406L7.96875 7.41406C8.14666 7.55639 8.25 7.77216 8.25 8C8.25 8.22784 8.14666 8.44361 7.96875 8.58594L5.46875 10.5859C5.1453 10.8447 4.67282 10.7922 4.41406 10.4688C4.15531 10.1453 4.2078 9.67282 4.53125 9.41406L6.29883 8L4.53125 6.58594C4.2078 6.32718 4.15531 5.8547 4.41406 5.53125ZM14.75 12.5C14.75 13.1904 14.1904 13.75 13.5 13.75H2.5C1.80964 13.75 1.25 13.1904 1.25 12.5V3.5C1.25 2.80964 1.80964 2.25 2.5 2.25H13.5C14.1904 2.25 14.75 2.80964 14.75 3.5V12.5Z" fill="black"/>
</svg>
