<svg width="16" height="16" viewBox="0 0 16 16" fill="none" xmlns="http://www.w3.org/2000/svg">
<path d="M13.5 1.75C13.9142 1.75 14.25 2.08579 14.25 2.5V10.5C14.25 10.9142 13.9142 11.25 13.5 11.25H11.25V13.5C11.25 13.9142 10.9142 14.25 10.5 14.25H2.5C2.08579 14.25 1.75 13.9142 1.75 13.5V5.5C1.75 5.08579 2.08579 4.75 2.5 4.75H4.75V2.5C4.75 2.08579 5.08579 1.75 5.5 1.75H13.5ZM3.25 12.75H9.75V6.25H3.25V12.75ZM6.25 4.75H10.5C10.9142 4.75 11.25 5.08579 11.25 5.5V9.75H12.75V3.25H6.25V4.75Z" fill="black"/>
</svg>
