<svg width="16" height="16" viewBox="0 0 16 16" fill="none" xmlns="http://www.w3.org/2000/svg">
<path d="M4.25 12.75H11.75V4.25H4.25V12.75ZM5.75 10.5V6.5C5.75 6.08579 6.08579 5.75 6.5 5.75C6.91421 5.75 7.25 6.08579 7.25 6.5V10.5C7.25 10.9142 6.91421 11.25 6.5 11.25C6.08579 11.25 5.75 10.9142 5.75 10.5ZM8.75 10.5V6.5C8.75 6.08579 9.08579 5.75 9.5 5.75C9.91421 5.75 10.25 6.08579 10.25 6.5V10.5C10.25 10.9142 9.91421 11.25 9.5 11.25C9.08579 11.25 8.75 10.9142 8.75 10.5ZM9.75 2.5C9.75 2.4337 9.72364 2.37013 9.67676 2.32324C9.62987 2.27636 9.5663 2.25 9.5 2.25H6.5C6.4337 2.25 6.37013 2.27636 6.32324 2.32324C6.27636 2.37013 6.25 2.4337 6.25 2.5V2.75H9.75V2.5ZM11.25 2.75H13.5C13.9142 2.75 14.25 3.08579 14.25 3.5C14.25 3.91421 13.9142 4.25 13.5 4.25H13.25V13C13.25 13.3315 13.1182 13.6494 12.8838 13.8838C12.6494 14.1182 12.3315 14.25 12 14.25H4C3.66848 14.25 3.35063 14.1182 3.11621 13.8838C2.88179 13.6494 2.75 13.3315 2.75 13V4.25H2.5C2.08579 4.25 1.75 3.91421 1.75 3.5C1.75 3.08579 2.08579 2.75 2.5 2.75H4.75V2.5C4.75 2.03587 4.93451 1.59088 5.2627 1.2627C5.59088 0.934507 6.03587 0.75 6.5 0.75H9.5C9.96413 0.75 10.4091 0.934507 10.7373 1.2627C11.0655 1.59088 11.25 2.03587 11.25 2.5V2.75Z" fill="black"/>
</svg>
