<svg width="16" height="16" viewBox="0 0 16 16" fill="none" xmlns="http://www.w3.org/2000/svg">
<path d="M3.25 10.3105V12.75H5.68945L10.9385 7.49902L8.5 5.06055L3.25 10.3105ZM9.56055 4L11.999 6.43848L13.1455 5.29102L10.707 2.85254L9.56055 4ZM14.75 5.29102C14.75 5.62239 14.618 5.94041 14.3838 6.1748L12.5459 8.0127C12.5405 8.01839 12.5358 8.02471 12.5303 8.03027C12.5247 8.03582 12.5184 8.04056 12.5127 8.0459L6.67676 13.8838C6.44263 14.1177 6.12485 14.2497 5.79395 14.25H3C2.66848 14.25 2.35063 14.1182 2.11621 13.8838C1.88182 13.6494 1.75 13.3315 1.75 13V10.207L1.75586 10.083C1.78435 9.7975 1.91079 9.52908 2.11523 9.32422L9.82324 1.61621C10.0576 1.382 10.3757 1.25004 10.707 1.25C10.997 1.25 11.2766 1.35103 11.499 1.5332L11.5908 1.61621L14.3838 4.40723L14.4668 4.49902C14.649 4.72146 14.75 5.00095 14.75 5.29102Z" fill="black"/>
</svg>
