<svg width="16" height="16" viewBox="0 0 16 16" fill="none" xmlns="http://www.w3.org/2000/svg">
<path d="M13.25 8C13.25 5.10051 10.8995 2.75 8 2.75C5.10051 2.75 2.75 5.10051 2.75 8C2.75 10.8995 5.10051 13.25 8 13.25C10.8995 13.25 13.25 10.8995 13.25 8ZM14.75 8C14.75 11.7279 11.7279 14.75 8 14.75C4.27208 14.75 1.25 11.7279 1.25 8C1.25 4.27208 4.27208 1.25 8 1.25C11.7279 1.25 14.75 4.27208 14.75 8Z" fill="black"/>
<path d="M5.75 7.5C6.16421 7.5 6.5 7.16421 6.5 6.75C6.5 6.33579 6.16421 6 5.75 6C5.33579 6 5 6.33579 5 6.75C5 7.16421 5.33579 7.5 5.75 7.5Z" fill="black"/>
<path d="M10.25 7.5C10.6642 7.5 11 7.16421 11 6.75C11 6.33579 10.6642 6 10.25 6C9.83579 6 9.5 6.33579 9.5 6.75C9.5 7.16421 9.83579 7.5 10.25 7.5Z" fill="black"/>
<path d="M9.85059 9.12402C10.058 8.76567 10.5175 8.64325 10.876 8.85059C11.2343 9.05805 11.3568 9.51751 11.1494 9.87598C10.5172 10.9688 9.41703 11.75 8 11.75C6.58297 11.75 5.48279 10.9688 4.85059 9.87598C4.64325 9.51751 4.76567 9.05805 5.12402 8.85059C5.48249 8.64325 5.94195 8.76567 6.14941 9.12402C6.55473 9.82479 7.1959 10.25 8 10.25C8.8041 10.25 9.44527 9.82479 9.85059 9.12402Z" fill="black"/>
</svg>
