<svg width="16" height="16" viewBox="0 0 16 16" fill="none" xmlns="http://www.w3.org/2000/svg">
<path d="M1.25 7.9999C1.25 4.27198 4.27208 1.2499 8 1.2499C8.41421 1.2499 8.75 1.58569 8.75 1.9999C8.75 2.41412 8.41421 2.7499 8 2.7499C5.10051 2.7499 2.75 5.10041 2.75 7.9999C2.75 10.8994 5.10051 13.2499 8 13.2499C10.8995 13.2499 13.25 10.8994 13.25 7.9999C13.25 7.58569 13.5858 7.2499 14 7.2499C14.4142 7.2499 14.75 7.58569 14.75 7.9999C14.75 11.7278 11.7279 14.7499 8 14.7499C4.27208 14.7499 1.25 11.7278 1.25 7.9999Z" fill="black"/>
<path d="M5.75 7.4999C6.16421 7.4999 6.5 7.16412 6.5 6.7499C6.5 6.33569 6.16421 5.9999 5.75 5.9999C5.33579 5.9999 5 6.33569 5 6.7499C5 7.16412 5.33579 7.4999 5.75 7.4999Z" fill="black"/>
<path d="M10.25 7.4999C10.6642 7.4999 11 7.16412 11 6.7499C11 6.33569 10.6642 5.9999 10.25 5.9999C9.83579 5.9999 9.5 6.33569 9.5 6.7499C9.5 7.16412 9.83579 7.4999 10.25 7.4999Z" fill="black"/>
<path d="M9.85059 9.12393C10.058 8.76558 10.5175 8.64315 10.876 8.85049C11.2343 9.05795 11.3568 9.51741 11.1494 9.87588C10.5172 10.9687 9.41703 11.7499 8 11.7499C6.58297 11.7499 5.48279 10.9687 4.85059 9.87588C4.64325 9.51741 4.76567 9.05795 5.12402 8.85049C5.48249 8.64315 5.94195 8.76558 6.14941 9.12393C6.55473 9.82469 7.1959 10.2499 8 10.2499C8.8041 10.2499 9.44527 9.82469 9.85059 9.12393Z" fill="black"/>
<path d="M11.917 5.49951V4.0835H10.5C10.0859 4.0835 9.75018 3.74756 9.75 3.3335C9.75 2.91928 10.0858 2.5835 10.5 2.5835H11.917V1.1665C11.917 0.75229 12.2528 0.416504 12.667 0.416504C13.0811 0.41668 13.417 0.752399 13.417 1.1665V2.5835H14.833C15.2472 2.5835 15.583 2.91928 15.583 3.3335C15.5828 3.74756 15.2471 4.0835 14.833 4.0835H13.417V5.49951C13.417 5.91362 13.0811 6.24934 12.667 6.24951C12.2528 6.24951 11.917 5.91373 11.917 5.49951Z" fill="black"/>
</svg>
