<svg width="16" height="16" viewBox="0 0 16 16" fill="none" xmlns="http://www.w3.org/2000/svg">
<path d="M13.25 8C13.25 5.10051 10.8995 2.75 8 2.75C5.10051 2.75 2.75 5.10051 2.75 8C2.75 10.8995 5.10051 13.25 8 13.25C10.8995 13.25 13.25 10.8995 13.25 8ZM14.75 8C14.75 11.7279 11.7279 14.75 8 14.75C4.27208 14.75 1.25 11.7279 1.25 8C1.25 4.27208 4.27208 1.25 8 1.25C11.7279 1.25 14.75 4.27208 14.75 8Z" fill="black"/>
<path d="M7.25 8.5V5C7.25 4.58579 7.58579 4.25 8 4.25C8.41421 4.25 8.75 4.58579 8.75 5V8.5C8.75 8.91421 8.41421 9.25 8 9.25C7.58579 9.25 7.25 8.91421 7.25 8.5Z" fill="black"/>
<path d="M8 11.5C8.41421 11.5 8.75 11.1642 8.75 10.75C8.75 10.3358 8.41421 10 8 10C7.58579 10 7.25 10.3358 7.25 10.75C7.25 11.1642 7.58579 11.5 8 11.5Z" fill="black"/>
</svg>
