<svg width="16" height="16" viewBox="0 0 16 16" fill="none" xmlns="http://www.w3.org/2000/svg">
<path d="M7.25 8.49999V3.31054L6.03027 4.53027C5.73738 4.82316 5.26262 4.82316 4.96973 4.53027C4.67683 4.23738 4.67683 3.76261 4.96973 3.46972L7.46973 0.969721L7.52637 0.917964C7.82095 0.677655 8.25567 0.695118 8.53027 0.969721L11.0303 3.46972C11.3232 3.76261 11.3232 4.23738 11.0303 4.53027C10.7374 4.82316 10.2626 4.82316 9.96973 4.53027L8.75 3.31054V8.49999C8.75 8.91421 8.41421 9.25 8 9.25C7.58579 9.25 7.25 8.91421 7.25 8.49999ZM13.75 13C13.75 13.3315 13.6182 13.6494 13.3838 13.8838C13.1494 14.1182 12.8315 14.25 12.5 14.25H3.5C3.16848 14.25 2.85063 14.1182 2.61621 13.8838C2.38179 13.6494 2.25 13.3315 2.25 13V6.99999C2.25 6.66847 2.38179 6.35063 2.61621 6.11621L2.70801 6.0332C2.93043 5.85098 3.20995 5.74999 3.5 5.74999H5C5.41421 5.74999 5.75 6.08578 5.75 6.49999C5.75 6.91421 5.41421 7.24999 5 7.24999H3.75V12.75H12.25V7.24999H11C10.5858 7.24999 10.25 6.91421 10.25 6.49999C10.25 6.08578 10.5858 5.74999 11 5.74999H12.5C12.7901 5.74999 13.0696 5.85098 13.292 6.0332L13.3838 6.11621L13.4668 6.208C13.649 6.43043 13.75 6.70994 13.75 6.99999V13Z" fill="black"/>
</svg>
