<svg width="16" height="16" viewBox="0 0 16 16" fill="none" xmlns="http://www.w3.org/2000/svg">
<path d="M2.25 14V3.49996C2.25002 3.28253 2.34453 3.07598 2.50879 2.93355C3.66203 1.93473 4.80839 1.64692 5.93262 1.78121C6.9905 1.90758 7.98467 2.40823 8.83301 2.82808C9.73446 3.27422 10.4906 3.63929 11.2451 3.72945C11.9333 3.81166 12.6622 3.66665 13.5088 2.93355C13.7307 2.74134 14.0445 2.69632 14.3115 2.81832C14.5785 2.94032 14.75 3.20642 14.75 3.49996V11C14.75 11.2176 14.6557 11.4249 14.4912 11.5673C13.338 12.5661 12.1916 12.853 11.0674 12.7187C10.0095 12.5923 9.01533 12.0917 8.16699 11.6718C7.26556 11.2257 6.50935 10.8606 5.75488 10.7705C5.13761 10.6967 4.48832 10.8069 3.75 11.3593V14C3.75 14.4142 3.41421 14.75 3 14.75C2.58579 14.75 2.25 14.4142 2.25 14ZM5.75488 3.27047C5.13761 3.19673 4.48832 3.30694 3.75 3.85933V9.6191C4.4841 9.28301 5.21262 9.19521 5.93262 9.28121C6.9905 9.40758 7.98467 9.90823 8.83301 10.3281C9.73446 10.7742 10.4906 11.1393 11.2451 11.2295C11.8624 11.3032 12.5116 11.193 13.25 10.6406V4.88082C12.5159 5.21693 11.7874 5.30471 11.0674 5.21871C10.0095 5.09233 9.01533 4.59169 8.16699 4.17183C7.26556 3.72571 6.50935 3.36062 5.75488 3.27047Z" fill="black"/>
</svg>
