<svg width="16" height="16" viewBox="0 0 16 16" fill="none" xmlns="http://www.w3.org/2000/svg">
<path d="M2.75 12.25H13.25V5.75H8C7.83774 5.75 7.67962 5.69696 7.5498 5.59961L5.75 4.25H2.75V12.25ZM14.75 12.5557C14.75 12.8724 14.6244 13.1764 14.4004 13.4004C14.1764 13.6244 13.8724 13.75 13.5557 13.75H2.5C2.16848 13.75 1.85063 13.6182 1.61621 13.3838C1.38179 13.1494 1.25 12.8315 1.25 12.5V4C1.25 3.66848 1.38179 3.35063 1.61621 3.11621C1.85063 2.88179 2.16848 2.75 2.5 2.75H5.83301C6.10344 2.75 6.36665 2.83776 6.58301 3L8.25 4.25H13.5C13.7901 4.25 14.0696 4.35098 14.292 4.5332L14.3838 4.61621L14.4668 4.70801C14.649 4.93043 14.75 5.20995 14.75 5.5V12.5557Z" fill="black"/>
</svg>
