<svg width="16" height="16" viewBox="0 0 16 16" fill="none" xmlns="http://www.w3.org/2000/svg">
<path d="M9.75 12.25H12.25V9.75H9.75V12.25ZM3.75 12.25H6.25V9.75H3.75V12.25ZM9.75 6.25H12.25V3.75H9.75V6.25ZM3.75 6.25H6.25V3.75H3.75V6.25ZM7.75 12.5C7.75 13.1904 7.19036 13.75 6.5 13.75H3.5C2.80964 13.75 2.25 13.1904 2.25 12.5V9.5C2.25 8.80964 2.80964 8.25 3.5 8.25H6.5C7.19036 8.25 7.75 8.80964 7.75 9.5V12.5ZM13.75 12.5C13.75 13.1904 13.1904 13.75 12.5 13.75H9.5C8.80964 13.75 8.25 13.1904 8.25 12.5V9.5C8.25 8.80964 8.80964 8.25 9.5 8.25H12.5C13.1904 8.25 13.75 8.80964 13.75 9.5V12.5ZM7.75 6.5C7.75 7.19036 7.19036 7.75 6.5 7.75H3.5C2.80964 7.75 2.25 7.19036 2.25 6.5V3.5C2.25 2.80964 2.80964 2.25 3.5 2.25H6.5C7.19036 2.25 7.75 2.80964 7.75 3.5V6.5ZM13.75 6.5C13.75 7.19036 13.1904 7.75 12.5 7.75H9.5C8.80964 7.75 8.25 7.19036 8.25 6.5V3.5C8.25 2.80964 8.80964 2.25 9.5 2.25H12.5C13.1904 2.25 13.75 2.80964 13.75 3.5V6.5Z" fill="black"/>
</svg>
