<svg width="16" height="16" viewBox="0 0 16 16" fill="none" xmlns="http://www.w3.org/2000/svg">
<path d="M5.35352 12.75H12.75V9.35352L10.75 7.35352L5.35352 12.75ZM3.25 12.7324L9.86523 6.11621C9.98133 5.99999 10.1197 5.90763 10.2715 5.84473L10.3867 5.80371C10.5043 5.76799 10.6267 5.75 10.75 5.75L10.873 5.75586C10.995 5.76793 11.1149 5.79763 11.2285 5.84473C11.3803 5.90763 11.5187 5.99999 11.6348 6.11621L12.75 7.23242V3.25H3.25V12.7324ZM6.25 6C6.25 5.86193 6.13807 5.75 6 5.75C5.86193 5.75 5.75 5.86193 5.75 6C5.75 6.13807 5.86193 6.25 6 6.25C6.13807 6.25 6.25 6.13807 6.25 6ZM7.75 6C7.75 6.9665 6.9665 7.75 6 7.75C5.0335 7.75 4.25 6.9665 4.25 6C4.25 5.0335 5.0335 4.25 6 4.25C6.9665 4.25 7.75 5.0335 7.75 6ZM14.25 13C14.25 13.6904 13.6904 14.25 13 14.25H3C2.30964 14.25 1.75 13.6904 1.75 13V3C1.75 2.30964 2.30964 1.75 3 1.75H13C13.6904 1.75 14.25 2.30964 14.25 3V13Z" fill="black"/>
</svg>
