<svg width="16" height="16" viewBox="0 0 16 16" fill="none" xmlns="http://www.w3.org/2000/svg">
<rect width="16" height="16" rx="8" fill="black"/>
<path d="M8.90736 11.3686C8.90736 11.8104 8.83369 12.1374 8.68655 12.3491C8.53961 12.5608 8.31342 12.6667 8.00796 12.6667C7.69878 12.6667 7.46886 12.5598 7.31799 12.3464C7.16713 12.1328 7.0918 11.8069 7.0918 11.3686V7.78357C7.0918 7.34525 7.1663 7.02055 7.3153 6.80863C7.4641 6.59672 7.69485 6.49097 8.00796 6.49097C8.31342 6.49097 8.53961 6.59672 8.68675 6.80863C8.83389 7.02055 8.90736 7.34525 8.90736 7.78357V11.3686Z" fill="white"/>
<path d="M6.95117 4.36614C6.95117 4.08261 7.05465 3.83966 7.26201 3.63705C7.46937 3.43445 7.71833 3.33325 8.00868 3.33325C8.2951 3.33325 8.54054 3.43466 8.74377 3.63705C8.94761 3.83966 9.04922 4.08261 9.04922 4.36614C9.04922 4.65338 8.94823 4.89655 8.74666 5.09542C8.54489 5.29409 8.29903 5.39343 8.00868 5.39343C7.71088 5.39343 7.46027 5.29409 7.25663 5.09542C7.05299 4.89634 6.95117 4.65338 6.95117 4.36614Z" fill="#5BBF8C"/>
</svg>
