<svg width="16" height="16" viewBox="0 0 16 16" fill="none" xmlns="http://www.w3.org/2000/svg">
<path d="M13.25 8C13.25 5.10051 10.8995 2.75 8 2.75C5.10051 2.75 2.75 5.10051 2.75 8C2.75 10.8995 5.10051 13.25 8 13.25C10.8995 13.25 13.25 10.8995 13.25 8ZM14.75 8C14.75 11.7279 11.7279 14.75 8 14.75C4.27208 14.75 1.25 11.7279 1.25 8C1.25 4.27208 4.27208 1.25 8 1.25C11.7279 1.25 14.75 4.27208 14.75 8Z" fill="black"/>
<path d="M8.75 10.2949C9.04093 10.3981 9.25 10.6737 9.25 11C9.25 11.4142 8.91421 11.75 8.5 11.75C8.16848 11.75 7.85063 11.6182 7.61621 11.3838C7.38179 11.1494 7.25 10.8315 7.25 10.5V8.2041C6.95923 8.10086 6.75 7.82617 6.75 7.5C6.75 7.08579 7.08579 6.75 7.5 6.75C7.83152 6.75 8.14937 6.88179 8.38379 7.11621C8.61821 7.35063 8.75 7.66848 8.75 8V10.2949Z" fill="black"/>
<path d="M7.75 6C8.16421 6 8.5 5.66421 8.5 5.25C8.5 4.83579 8.16421 4.5 7.75 4.5C7.33579 4.5 7 4.83579 7 5.25C7 5.66421 7.33579 6 7.75 6Z" fill="black"/>
</svg>
