<svg width="16" height="16" viewBox="0 0 16 16" fill="none" xmlns="http://www.w3.org/2000/svg">
<path d="M7 1.75C7.41421 1.75 7.75 2.08579 7.75 2.5C7.75 2.91421 7.41421 3.25 7 3.25H3.75V12.75H7C7.41421 12.75 7.75 13.0858 7.75 13.5C7.75 13.9142 7.41421 14.25 7 14.25H3C2.58579 14.25 2.25 13.9142 2.25 13.5V2.5C2.25 2.08579 2.58579 1.75 3 1.75H7ZM10.9697 4.96973C11.2626 4.67683 11.7374 4.67683 12.0303 4.96973L14.5303 7.46973C14.8232 7.76262 14.8232 8.23738 14.5303 8.53027L12.0303 11.0303C11.7374 11.3232 11.2626 11.3232 10.9697 11.0303C10.6768 10.7374 10.6768 10.2626 10.9697 9.96973L12.1895 8.75H7C6.58579 8.75 6.25 8.41421 6.25 8C6.25 7.58579 6.58579 7.25 7 7.25H12.1895L10.9697 6.03027C10.6768 5.73738 10.6768 5.26262 10.9697 4.96973Z" fill="black"/>
</svg>
