<svg width="16" height="16" viewBox="0 0 16 16" fill="none" xmlns="http://www.w3.org/2000/svg">
<path d="M4.22659 6.47073C4.5192 6.17757 4.99396 6.17716 5.28714 6.46976C5.57992 6.76239 5.58058 7.23725 5.28812 7.5303L3.41605 9.40433C2.99978 9.82744 2.76812 10.3987 2.77054 10.9922C2.77301 11.5857 3.01005 12.1546 3.42972 12.5742C3.8494 12.9938 4.41833 13.23 5.01175 13.2325C5.60516 13.2348 6.17564 13.0031 6.59866 12.5869L8.46976 10.7129C8.76242 10.4199 9.2372 10.4193 9.5303 10.7119C9.82319 11.0045 9.82367 11.4794 9.53128 11.7725L7.65042 13.6563C6.94524 14.35 5.9941 14.7365 5.00491 14.7325C4.01591 14.7283 3.06858 14.3341 2.36917 13.6348C1.66965 12.9353 1.27457 11.9873 1.27054 10.9981C1.26652 10.0088 1.6539 9.05775 2.34769 8.35257L4.22659 6.47073ZM9.46976 5.46976C9.76261 5.1769 10.2374 5.17697 10.5303 5.46976C10.8232 5.76265 10.8232 6.23741 10.5303 6.5303L6.5303 10.5303C6.23741 10.8232 5.76265 10.8232 5.46976 10.5303C5.17697 10.2374 5.1769 9.76261 5.46976 9.46976L9.46976 5.46976ZM10.9981 1.27054C11.9873 1.27457 12.9353 1.66965 13.6348 2.36917C14.3341 3.06858 14.7283 4.01591 14.7325 5.00491C14.7365 5.9941 14.35 6.94524 13.6563 7.65042L11.7725 9.53128C11.4794 9.82367 11.0045 9.82319 10.7119 9.5303C10.4193 9.2372 10.4199 8.76242 10.7129 8.46976L12.5869 6.59769C13.0028 6.17471 13.2348 5.60493 13.2325 5.01175C13.23 4.41833 12.9938 3.8494 12.5742 3.42972C12.1546 3.01005 11.5857 2.77301 10.9922 2.77054C10.3987 2.76812 9.82842 3.00076 9.4053 3.41702L9.40433 3.41605L7.5303 5.28812C7.23725 5.58058 6.76239 5.57992 6.46976 5.28714C6.17716 4.99396 6.17757 4.5192 6.47073 4.22659L8.35257 2.34769C9.05775 1.6539 10.0088 1.26652 10.9981 1.27054Z" fill="black"/>
</svg>
