<svg width="16" height="16" viewBox="0 0 16 16" fill="none" xmlns="http://www.w3.org/2000/svg">
<path d="M13 8C13 5.23858 10.7614 3 8 3C5.23858 3 3 5.23858 3 8C3 10.7614 5.23858 13 8 13C10.7614 13 13 10.7614 13 8ZM15 8C15 11.866 11.866 15 8 15C4.13401 15 1 11.866 1 8C1 4.13401 4.13401 1 8 1C11.866 1 15 4.13401 15 8Z" fill="black"/>
<path d="M14.073 7.67248C14.6219 7.73317 15.0184 8.22803 14.9578 8.77697C14.5987 12.023 12.0231 14.5986 8.77709 14.9576C8.22815 15.0183 7.73329 14.6218 7.6726 14.0729C7.61216 13.5242 8.00782 13.0303 8.55639 12.9694C10.8722 12.7133 12.7135 10.8721 12.9695 8.55627C13.0304 8.00769 13.5244 7.61204 14.073 7.67248Z" fill="black"/>
</svg>
