<svg width="16" height="16" viewBox="0 0 16 16" fill="none" xmlns="http://www.w3.org/2000/svg">
<path d="M8.42969 15.1143C8.17154 15.2948 7.82846 15.2948 7.57031 15.1143L8 14.5L8.42969 15.1143ZM12.25 6.5C12.25 5.37283 11.8019 4.29215 11.0049 3.49512C10.2079 2.69809 9.12717 2.25 8 2.25C6.87283 2.25 5.79215 2.69809 4.99512 3.49512C4.19809 4.29215 3.75 5.37283 3.75 6.5C3.75 8.47996 4.85934 10.3072 6.06641 11.6953C6.66066 12.3787 7.2563 12.9309 7.7041 13.3115C7.81207 13.4033 7.9121 13.4839 8 13.5547C8.0879 13.4839 8.18793 13.4033 8.2959 13.3115C8.7437 12.9309 9.33934 12.3787 9.93359 11.6953C11.1407 10.3072 12.25 8.47996 12.25 6.5ZM9.25 6.5C9.25 5.80964 8.69036 5.25 8 5.25C7.30964 5.25 6.75 5.80964 6.75 6.5C6.75 7.19036 7.30964 7.75 8 7.75C8.69036 7.75 9.25 7.19036 9.25 6.5ZM10.75 6.5C10.75 8.01878 9.51878 9.25 8 9.25C6.48122 9.25 5.25 8.01878 5.25 6.5C5.25 4.98122 6.48122 3.75 8 3.75C9.51878 3.75 10.75 4.98122 10.75 6.5ZM13.75 6.5C13.75 9.01993 12.3593 11.1928 11.0664 12.6797C10.4108 13.4337 9.75624 14.0379 9.2666 14.4541C9.02132 14.6626 8.81573 14.8251 8.66992 14.9365C8.59703 14.9922 8.53885 15.0356 8.49805 15.0654L8.43652 15.1094C8.43499 15.1105 8.43366 15.1116 8.43262 15.1123L8.43066 15.1133C8.43044 15.1134 8.4301 15.1144 8 14.5C7.5699 15.1144 7.57053 15.1144 7.57031 15.1143L7.56934 15.1133L7.56738 15.1123C7.56634 15.1116 7.56501 15.1105 7.56348 15.1094L7.50195 15.0654C7.46115 15.0356 7.40297 14.9922 7.33008 14.9365C7.18427 14.8251 6.97868 14.6626 6.7334 14.4541C6.24376 14.0379 5.58922 13.4337 4.93359 12.6797C3.64071 11.1928 2.25 9.01993 2.25 6.5C2.25 4.97501 2.85624 3.5129 3.93457 2.43457C5.0129 1.35624 6.47501 0.75 8 0.75C9.52499 0.75 10.9871 1.35624 12.0654 2.43457C13.1438 3.5129 13.75 4.97501 13.75 6.5Z" fill="black"/>
</svg>
