<svg width="16" height="16" viewBox="0 0 16 16" fill="none" xmlns="http://www.w3.org/2000/svg">
<path d="M3.25 12.75H12.75V6.25H3.25V12.75ZM14.25 13C14.25 13.6904 13.6904 14.25 13 14.25H3C2.30964 14.25 1.75 13.6904 1.75 13V6C1.75 5.30964 2.30964 4.75 3 4.75H13C13.6904 4.75 14.25 5.30964 14.25 6V13Z" fill="black"/>
<path d="M8 10.25C8.41421 10.25 8.75 9.91421 8.75 9.5C8.75 9.08579 8.41421 8.75 8 8.75C7.58579 8.75 7.25 9.08579 7.25 9.5C7.25 9.91421 7.58579 10.25 8 10.25Z" fill="black"/>
<path d="M9.75 5.5V3.5C9.75 3.03587 9.56549 2.59088 9.2373 2.2627C8.90912 1.93451 8.46413 1.75 8 1.75C7.53587 1.75 7.09088 1.93451 6.7627 2.2627C6.43451 2.59088 6.25 3.03587 6.25 3.5V5.5C6.25 5.91421 5.91421 6.25 5.5 6.25C5.08579 6.25 4.75 5.91421 4.75 5.5V3.5C4.75 2.63805 5.09266 1.81164 5.70215 1.20215C6.31164 0.592655 7.13805 0.25 8 0.25C8.86195 0.25 9.68836 0.592655 10.2979 1.20215C10.9073 1.81164 11.25 2.63805 11.25 3.5V5.5C11.25 5.91421 10.9142 6.25 10.5 6.25C10.0858 6.25 9.75 5.91421 9.75 5.5Z" fill="black"/>
</svg>
