<svg width="16" height="16" viewBox="0 0 16 16" fill="none" xmlns="http://www.w3.org/2000/svg">
<path d="M9.74983 7.99983C9.74983 7.03333 8.96633 6.24983 7.99983 6.24983C7.03333 6.24983 6.24983 7.03333 6.24983 7.99983C6.24983 8.96633 7.03333 9.74983 7.99983 9.74983C8.96633 9.74983 9.74983 8.96633 9.74983 7.99983ZM11.2498 7.99983C11.2498 8.61862 11.3647 9.08546 11.5428 9.3719C11.6929 9.61331 11.8948 9.74983 12.2498 9.74983C12.6049 9.74983 12.8068 9.61331 12.9569 9.3719C13.1349 9.08546 13.2498 8.61862 13.2498 7.99983C13.2498 6.96148 12.9419 5.94619 12.3651 5.08284C11.7882 4.21956 10.9679 3.54658 10.0086 3.14924C9.0494 2.752 7.9937 2.64787 6.97542 2.85042C5.95706 3.053 5.02211 3.55372 4.28792 4.28792C3.55372 5.02211 3.053 5.95706 2.85042 6.97542C2.64787 7.9937 2.752 9.0494 3.14924 10.0086C3.54658 10.9679 4.21956 11.7882 5.08284 12.3651C5.94619 12.9419 6.96148 13.2498 7.99983 13.2498C9.09712 13.2498 10.2715 12.9154 11.0848 12.3748C11.4297 12.1458 11.8956 12.2399 12.1248 12.5848C12.3539 12.9297 12.2597 13.3956 11.9149 13.6248C10.827 14.3479 9.35618 14.7498 7.99983 14.7498C6.66481 14.7498 5.35986 14.3538 4.24983 13.6121C3.1398 12.8704 2.27439 11.8162 1.7635 10.5828C1.25271 9.3496 1.11938 7.99262 1.37971 6.68342C1.64016 5.37405 2.28239 4.1704 3.22639 3.22639C4.1704 2.28239 5.37405 1.64016 6.68342 1.37971C7.99262 1.11938 9.3496 1.25271 10.5828 1.7635C11.8162 2.27439 12.8704 3.1398 13.6121 4.24983C14.3538 5.35986 14.7498 6.66481 14.7498 7.99983C14.7498 8.76166 14.6147 9.54549 14.2303 10.1639C13.8179 10.827 13.1446 11.2498 12.2498 11.2498C11.3986 11.2498 10.7483 10.8669 10.3319 10.2586C9.74108 10.8684 8.91594 11.2498 7.99983 11.2498C6.20491 11.2498 4.74983 9.79475 4.74983 7.99983C4.74983 6.20491 6.20491 4.74983 7.99983 4.74983C8.65925 4.74983 9.2726 4.94653 9.78499 5.28401C9.878 4.97551 10.161 4.74983 10.4998 4.74983C10.914 4.74983 11.2498 5.08562 11.2498 5.49983V7.99983Z" fill="black"/>
</svg>
