<svg width="16" height="16" viewBox="0 0 16 16" fill="none" xmlns="http://www.w3.org/2000/svg">
<path d="M2.86988 2.28567C3.88104 1.53528 5.12875 1.1737 6.38453 1.26614C7.64018 1.35865 8.82041 1.89929 9.7107 2.78958C10.1541 3.23297 10.5105 3.74829 10.7683 4.30911C11.4786 4.41395 12.1625 4.66151 12.7752 5.04251C13.5249 5.50888 14.145 6.15675 14.5779 6.9263C15.0108 7.696 15.2425 8.56278 15.2517 9.44583C15.2597 10.2231 15.0942 10.9911 14.7703 11.6949L15.198 13.149C15.2612 13.3642 15.2662 13.5927 15.2107 13.8101C15.1552 14.0276 15.0413 14.2266 14.8826 14.3853C14.7239 14.5438 14.5257 14.657 14.3084 14.7124C14.091 14.7679 13.8625 14.7639 13.6472 14.7007L13.6462 14.6997L12.1931 14.27C11.6032 14.541 10.968 14.7025 10.3181 14.7417C9.56222 14.7873 8.80525 14.6683 8.09937 14.3941C7.39342 14.1198 6.75515 13.696 6.22828 13.1519C5.81485 12.725 5.47874 12.2316 5.23121 11.6939C4.74075 11.6214 4.2607 11.4795 3.80543 11.27L2.35133 11.6988C2.13603 11.7619 1.9076 11.766 1.69019 11.7105C1.47269 11.655 1.27373 11.5421 1.115 11.3833C0.956292 11.2246 0.843353 11.0256 0.787849 10.8081C0.732399 10.5907 0.736378 10.3623 0.799567 10.147L0.800544 10.146L1.23023 8.6929C0.751323 7.65084 0.623687 6.47783 0.875739 5.35305C1.15113 4.12459 1.85894 3.03598 2.86988 2.28567ZM11.2341 6.11575C11.3266 7.37153 10.965 8.61924 10.2146 9.6304C9.4643 10.6413 8.37569 11.3492 7.14722 11.6245C7.07795 11.6401 7.00784 11.6529 6.93824 11.6656C7.04894 11.822 7.17139 11.9705 7.30543 12.1089C7.68184 12.4976 8.13799 12.8006 8.64234 12.9966C9.14658 13.1925 9.68733 13.2772 10.2273 13.2447C10.7674 13.2121 11.2941 13.0623 11.7712 12.8072C11.945 12.7142 12.1487 12.6937 12.3377 12.7495L13.6296 13.1304L13.2498 11.8365C13.1943 11.6476 13.2145 11.4445 13.3074 11.271C13.6053 10.7149 13.7582 10.0923 13.7517 9.46145C13.7452 8.83069 13.5795 8.21144 13.2703 7.66165C12.961 7.11194 12.5178 6.64905 11.9822 6.31594C11.7413 6.16615 11.4848 6.04595 11.2185 5.95462C11.2241 6.00823 11.2302 6.06185 11.2341 6.11575ZM6.27418 2.76126C5.37737 2.69524 4.48659 2.95399 3.76441 3.48977C3.04224 4.0257 2.53633 4.80366 2.33961 5.68118C2.14293 6.55882 2.26867 7.47806 2.69312 8.27102C2.78611 8.44479 2.80652 8.64841 2.75074 8.83743L2.3689 10.1294L3.66383 9.74954L3.80738 9.72219C3.95227 9.70905 4.09914 9.73848 4.22925 9.80813C4.71577 10.0685 5.24998 10.2148 5.79273 10.2447C5.79893 10.245 5.80511 10.2452 5.81129 10.2456C6.14701 10.2625 6.48616 10.2353 6.8191 10.1607C7.69662 9.96395 8.47457 9.45804 9.0105 8.73587C9.54629 8.01369 9.80504 7.12291 9.73902 6.2261C9.67298 5.32914 9.28612 4.48609 8.65015 3.85012C8.01418 3.21416 7.17114 2.8273 6.27418 2.76126Z" fill="black"/>
</svg>
