<svg width="16" height="16" viewBox="0 0 16 16" fill="none" xmlns="http://www.w3.org/2000/svg">
<path d="M14.5 7.99978C14.5002 9.12198 14.2099 10.2251 13.6574 11.2019C13.1048 12.1786 12.3087 12.9956 11.3467 13.5734C10.3847 14.1512 9.28942 14.4701 8.16759 14.499C7.04575 14.528 5.93554 14.266 4.945 13.7385L2.81687 14.4479C2.64068 14.5067 2.4516 14.5152 2.27083 14.4725C2.09006 14.4299 1.92474 14.3377 1.79341 14.2064C1.66207 14.075 1.56991 13.9097 1.52725 13.7289C1.48459 13.5482 1.49312 13.3591 1.55187 13.1829L2.26125 11.0548C1.79759 10.183 1.53862 9.21714 1.504 8.23038C1.46937 7.24362 1.66 6.26194 2.06142 5.35986C2.46283 4.45777 3.06448 3.65899 3.8207 3.02415C4.57691 2.3893 5.46782 1.93507 6.42579 1.69595C7.38376 1.45682 8.38362 1.43908 9.34948 1.64407C10.3153 1.84906 11.2218 2.27139 12.0001 2.87901C12.7783 3.48662 13.4079 4.26356 13.8411 5.15083C14.2743 6.03811 14.4996 7.01241 14.5 7.99978Z" fill="black"/>
</svg>
