<svg width="16" height="16" viewBox="0 0 16 16" fill="none" xmlns="http://www.w3.org/2000/svg">
<path d="M8 9C8.55228 9 9 8.55228 9 8C9 7.44772 8.55228 7 8 7C7.44772 7 7 7.44772 7 8C7 8.55228 7.44772 9 8 9Z" fill="black"/>
<path d="M3.75 9C4.30228 9 4.75 8.55228 4.75 8C4.75 7.44772 4.30228 7 3.75 7C3.19772 7 2.75 7.44772 2.75 8C2.75 8.55228 3.19772 9 3.75 9Z" fill="black"/>
<path d="M12.25 9C12.8023 9 13.25 8.55228 13.25 8C13.25 7.44772 12.8023 7 12.25 7C11.6977 7 11.25 7.44772 11.25 8C11.25 8.55228 11.6977 9 12.25 9Z" fill="black"/>
</svg>
