<svg width="16" height="16" viewBox="0 0 16 16" fill="none" xmlns="http://www.w3.org/2000/svg">
<path d="M2.99512 1.94537C3.3015 1.66684 3.77602 1.68901 4.05469 1.99518L14.0547 12.9952C14.3332 13.3016 14.3111 13.7761 14.0049 14.0547C13.6985 14.3333 13.224 14.3111 12.9453 14.0049L10.75 11.5899V14.0001C10.75 14.2865 10.5864 14.548 10.3291 14.6739C10.0719 14.7995 9.76506 14.7676 9.53906 14.5919L5.24219 11.2501H2.5C2.16848 11.2501 1.85063 11.1183 1.61621 10.8838C1.38179 10.6494 1.25 10.3316 1.25 10.0001V6.00006C1.25 5.66854 1.38179 5.35069 1.61621 5.11627L1.70801 5.03326C1.93043 4.85104 2.20995 4.75006 2.5 4.75006H4.53223L2.94531 3.00494C2.66679 2.69856 2.68895 2.22404 2.99512 1.94537ZM2.75 9.75006H5.5C5.66678 9.75006 5.82929 9.80587 5.96094 9.90826L9.25 12.4659V9.93951L5.89551 6.25006H2.75V9.75006ZM13.75 10.5001V5.50006C13.75 5.08584 14.0858 4.75006 14.5 4.75006C14.9142 4.75006 15.25 5.08584 15.25 5.50006V10.5001C15.25 10.9143 14.9142 11.2501 14.5 11.2501C14.0858 11.2501 13.75 10.9143 13.75 10.5001ZM11.75 9.50006V6.50006C11.75 6.08584 12.0858 5.75006 12.5 5.75006C12.9142 5.75006 13.25 6.08584 13.25 6.50006V9.50006C13.25 9.91427 12.9142 10.2501 12.5 10.2501C12.0858 10.2501 11.75 9.91427 11.75 9.50006ZM9.25 6.67682V3.53228L7.96973 4.52935C7.64276 4.78344 7.17121 4.72442 6.91699 4.39752C6.66277 4.07055 6.7219 3.59906 7.04883 3.34478L9.54004 1.40826C9.76602 1.23262 10.0719 1.20063 10.3291 1.32623C10.5864 1.45209 10.75 1.71362 10.75 2.00006V6.67682C10.75 7.09103 10.4142 7.42682 10 7.42682C9.58579 7.42682 9.25 7.09103 9.25 6.67682Z" fill="black"/>
</svg>
