<svg width="16" height="16" viewBox="0 0 16 16" fill="none" xmlns="http://www.w3.org/2000/svg">
<path d="M13.25 8C13.25 5.10051 10.8995 2.75 8 2.75C6.8207 2.75 5.73192 3.13846 4.85547 3.79492L12.2041 11.1436C12.8605 10.2671 13.25 9.17923 13.25 8ZM2.75 8C2.75 10.8995 5.10051 13.25 8 13.25C9.17923 13.25 10.2671 12.8605 11.1436 12.2041L3.79492 4.85547C3.13846 5.73192 2.75 6.8207 2.75 8ZM14.75 8C14.75 11.7279 11.7279 14.75 8 14.75C4.27208 14.75 1.25 11.7279 1.25 8C1.25 4.27208 4.27208 1.25 8 1.25C11.7279 1.25 14.75 4.27208 14.75 8Z" fill="black"/>
</svg>
