<svg width="16" height="16" viewBox="0 0 16 16" fill="none" xmlns="http://www.w3.org/2000/svg">
<path d="M13.25 3.75C13.25 3.19772 12.8023 2.75 12.25 2.75C11.6977 2.75 11.25 3.19772 11.25 3.75C11.25 4.30228 11.6977 4.75 12.25 4.75C12.8023 4.75 13.25 4.30228 13.25 3.75ZM13.75 13C13.75 13.3315 13.6182 13.6494 13.3838 13.8838C13.1494 14.1182 12.8315 14.25 12.5 14.25H3C2.66848 14.25 2.35063 14.1182 2.11621 13.8838C1.88179 13.6494 1.75 13.3315 1.75 13V3.5C1.75 3.16848 1.88179 2.85063 2.11621 2.61621L2.20801 2.5332C2.43043 2.35098 2.70995 2.25 3 2.25H8C8.41421 2.25 8.75 2.58579 8.75 3C8.75 3.41421 8.41421 3.75 8 3.75H3.25V12.75H12.25V8C12.25 7.58579 12.5858 7.25 13 7.25C13.4142 7.25 13.75 7.58579 13.75 8V13ZM14.75 3.75C14.75 5.13071 13.6307 6.25 12.25 6.25C10.8693 6.25 9.75 5.13071 9.75 3.75C9.75 2.36929 10.8693 1.25 12.25 1.25C13.6307 1.25 14.75 2.36929 14.75 3.75Z" fill="black"/>
</svg>
