<svg width="16" height="16" viewBox="0 0 16 16" fill="none" xmlns="http://www.w3.org/2000/svg">
<path d="M5.91298 5.8974C5.88137 5.88454 5.82853 5.86512 5.75771 5.84369C5.61419 5.8003 5.40084 5.75181 5.1415 5.74017C4.6849 5.71977 4.06089 5.81 3.37978 6.28314L6.54384 9.4472C6.54532 9.44866 6.54726 9.44964 6.54872 9.45111C6.54984 9.45223 6.55054 9.45389 6.55165 9.45502L9.70888 12.6113C10.1597 11.9319 10.5498 10.9704 10.1015 10.0742C9.95734 9.78582 10.0135 9.43723 10.2411 9.20892L13.6464 5.79291L10.2089 2.35345L6.80556 5.76752C6.57741 5.9962 6.22834 6.05249 5.93935 5.90814L5.91298 5.8974ZM5.94619 5.91205C5.94595 5.91194 5.94461 5.91169 5.94326 5.91107L5.9413 5.9101L5.94033 5.90912L5.94619 5.91205ZM15.2499 5.79291C15.2499 6.12421 15.1188 6.44233 14.8847 6.6767L14.8837 6.67572L11.6513 9.91888C12.1724 11.5813 11.2285 13.1023 10.7401 13.7519L10.7372 13.7558C10.6294 13.8973 10.4924 14.0142 10.3358 14.0986C10.1793 14.183 10.0064 14.2328 9.829 14.2451C9.65152 14.2573 9.47326 14.2319 9.30654 14.1699C9.13992 14.1078 8.9884 14.0109 8.8622 13.8857L6.01845 11.0419L3.53017 13.5302C3.23728 13.8231 2.76252 13.8231 2.46962 13.5302C2.17679 13.2373 2.17675 12.7625 2.46962 12.4697L4.95693 9.98138L2.11611 7.14056L2.11708 7.13959C1.99291 7.01553 1.89574 6.86697 1.8329 6.70306C1.77001 6.5389 1.74227 6.36298 1.75185 6.18744C1.76148 6.01202 1.80822 5.84075 1.88857 5.68451L1.95497 5.57025C2.02696 5.46056 2.1158 5.36256 2.21865 5.28021C3.30337 4.40597 4.385 4.20522 5.20888 4.24213C5.55239 4.25754 5.8466 4.31411 6.07411 4.37494L9.32411 1.11713L9.32509 1.11615C9.55946 0.881936 9.87755 0.749972 10.2089 0.749939C10.4989 0.749939 10.7785 0.850959 11.0009 1.03314L11.0927 1.11615L14.8837 4.90912C15.1178 5.1435 15.2499 5.46161 15.2499 5.79291Z" fill="black"/>
</svg>
