<svg width="16" height="16" viewBox="0 0 16 16" fill="none" xmlns="http://www.w3.org/2000/svg">
<path d="M15 8C15.0004 8.16977 14.9569 8.33675 14.8736 8.48471C14.7904 8.63267 14.6703 8.75658 14.525 8.84437L5.52 14.3531C5.36818 14.4461 5.19429 14.4968 5.0163 14.5001C4.83831 14.5034 4.66266 14.4592 4.5075 14.3719C4.35382 14.2859 4.2258 14.1606 4.1366 14.0088C4.04741 13.857 4.00026 13.6842 4 13.5081V2.49187C4.00026 2.3158 4.04741 2.14298 4.1366 1.99117C4.2258 1.83936 4.35382 1.71405 4.5075 1.62812C4.66266 1.54084 4.83831 1.49656 5.0163 1.49986C5.19429 1.50315 5.36818 1.55391 5.52 1.64687L14.525 7.15562C14.6703 7.24342 14.7904 7.36732 14.8736 7.51529C14.9569 7.66325 15.0004 7.83023 15 8Z" fill="black"/>
</svg>
