<svg width="16" height="16" viewBox="0 0 16 16" fill="none" xmlns="http://www.w3.org/2000/svg">
<path d="M13 1.75C13.4142 1.75 13.75 2.08579 13.75 2.5V12.25H14C14.4142 12.25 14.75 12.5858 14.75 13C14.75 13.4142 14.4142 13.75 14 13.75H2C1.58579 13.75 1.25 13.4142 1.25 13C1.25 12.5858 1.58579 12.25 2 12.25H2.25V8.5C2.25 8.08579 2.58579 7.75 3 7.75H5.25V5.5C5.25 5.08579 5.58579 4.75 6 4.75H8.75V2.5C8.75 2.08579 9.08579 1.75 9.5 1.75H13ZM10.25 12.25H12.25V3.25H10.25V12.25ZM6.75 12.25H8.75V6.25H6.75V12.25ZM3.75 12.25H5.25V9.25H3.75V12.25Z" fill="black"/>
</svg>
