<svg width="16" height="16" viewBox="0 0 16 16" fill="none" xmlns="http://www.w3.org/2000/svg">
<path d="M10 8.25H13.25V4.75H10V8.25ZM2.75 8.25H6V4.75H2.75V8.25ZM7.5 10C7.5 10.862 7.15734 11.6884 6.54785 12.2979C5.93836 12.9073 5.11195 13.25 4.25 13.25C3.83579 13.25 3.5 12.9142 3.5 12.5C3.5 12.0858 3.83579 11.75 4.25 11.75C4.71413 11.75 5.15912 11.5655 5.4873 11.2373C5.81549 10.9091 6 10.4641 6 10V9.75H2.5C2.16848 9.75 1.85063 9.61821 1.61621 9.38379C1.38179 9.14937 1.25 8.83152 1.25 8.5V4.5C1.25 4.16848 1.38179 3.85063 1.61621 3.61621C1.85063 3.38179 2.16848 3.25 2.5 3.25H6.25C6.58152 3.25 6.89937 3.38179 7.13379 3.61621C7.36821 3.85063 7.5 4.16848 7.5 4.5V10ZM14.75 10C14.75 10.862 14.4073 11.6884 13.7979 12.2979C13.1884 12.9073 12.362 13.25 11.5 13.25C11.0858 13.25 10.75 12.9142 10.75 12.5C10.75 12.0858 11.0858 11.75 11.5 11.75C11.9641 11.75 12.4091 11.5655 12.7373 11.2373C13.0655 10.9091 13.25 10.4641 13.25 10V9.75H9.75C9.41848 9.75 9.10063 9.61821 8.86621 9.38379C8.63179 9.14937 8.5 8.83152 8.5 8.5V4.5C8.5 4.16848 8.63179 3.85063 8.86621 3.61621L8.95801 3.5332C9.18043 3.35098 9.45995 3.25 9.75 3.25H13.5C13.8315 3.25 14.1494 3.38179 14.3838 3.61621C14.6182 3.85063 14.75 4.16848 14.75 4.5V10Z" fill="black"/>
</svg>
