<svg width="16" height="16" viewBox="0 0 16 16" fill="none" xmlns="http://www.w3.org/2000/svg">
<path d="M4.25 12.25C4.25 11.4216 4.92157 10.75 5.75 10.75C6.57843 10.75 7.25 11.4216 7.25 12.25C7.25 13.0784 6.57843 13.75 5.75 13.75C4.92157 13.75 4.25 13.0784 4.25 12.25ZM8.75 12.25C8.75 11.4216 9.42157 10.75 10.25 10.75C11.0784 10.75 11.75 11.4216 11.75 12.25C11.75 13.0784 11.0784 13.75 10.25 13.75C9.42157 13.75 8.75 13.0784 8.75 12.25ZM4.25 8C4.25 7.17157 4.92157 6.5 5.75 6.5C6.57843 6.5 7.25 7.17157 7.25 8C7.25 8.82843 6.57843 9.5 5.75 9.5C4.92157 9.5 4.25 8.82843 4.25 8ZM8.75 8C8.75 7.17157 9.42157 6.5 10.25 6.5C11.0784 6.5 11.75 7.17157 11.75 8C11.75 8.82843 11.0784 9.5 10.25 9.5C9.42157 9.5 8.75 8.82843 8.75 8ZM4.25 3.75C4.25 2.92157 4.92157 2.25 5.75 2.25C6.57843 2.25 7.25 2.92157 7.25 3.75C7.25 4.57843 6.57843 5.25 5.75 5.25C4.92157 5.25 4.25 4.57843 4.25 3.75ZM8.75 3.75C8.75 2.92157 9.42157 2.25 10.25 2.25C11.0784 2.25 11.75 2.92157 11.75 3.75C11.75 4.57843 11.0784 5.25 10.25 5.25C9.42157 5.25 8.75 4.57843 8.75 3.75Z" fill="black"/>
</svg>
