<svg width="16" height="16" viewBox="0 0 16 16" fill="none" xmlns="http://www.w3.org/2000/svg">
<path d="M6.78506 1.30645C6.50484 1.19044 6.18214 1.25507 5.96768 1.46954L0.96768 6.46954C0.674836 6.76242 0.674836 7.2372 0.96768 7.53008L5.96768 12.5301C6.18214 12.7445 6.50484 12.8092 6.78506 12.6932C7.06532 12.5771 7.24795 12.3032 7.24795 11.9998V9.78301C10.3864 10.0554 12.6171 11.9735 13.5185 12.9334L13.5194 12.9324C13.6612 13.0845 13.8458 13.1896 14.0497 13.2313C14.2577 13.2737 14.474 13.2494 14.6669 13.1609C14.8598 13.0724 15.0195 12.9244 15.123 12.7391C15.2254 12.5555 15.2665 12.3443 15.2421 12.1356C14.9805 9.86815 13.6809 7.90026 12.0448 6.51251C10.631 5.31327 8.90138 4.49225 7.24795 4.29571V1.99981C7.24795 1.69646 7.06532 1.42254 6.78506 1.30645ZM14.246 12.2498L14.6103 11.9061L14.2489 12.2479L14.2499 12.2498L14.2509 12.2508L14.248 12.2498H14.246ZM14.247 12.2488L14.248 12.2498H14.2499L14.2489 12.2479L14.247 12.2488ZM5.74795 4.99981C5.74795 5.414 6.08377 5.74977 6.49795 5.74981C7.92939 5.74981 9.64603 6.4457 11.0741 7.65704C12.0765 8.50725 12.8926 9.57542 13.3603 10.7625C11.8878 9.59084 9.53009 8.24981 6.49795 8.24981C6.08377 8.24985 5.74795 8.58562 5.74795 8.99981V10.1893L2.5585 6.99981L5.74795 3.81036V4.99981Z" fill="black"/>
</svg>
