<svg width="16" height="16" viewBox="0 0 16 16" fill="none" xmlns="http://www.w3.org/2000/svg">
<path d="M5.65056 2.20851C6.78876 1.7467 8.03753 1.63057 9.24138 1.87452C10.4345 2.11634 11.5306 2.70123 12.3957 3.55714L13.7502 4.7964V3.49952C13.7503 3.08542 14.086 2.74952 14.5002 2.74952C14.9141 2.74971 15.25 3.08553 15.2502 3.49952V6.49952C15.2502 6.91363 14.9142 7.24934 14.5002 7.24952H11.5002C11.086 7.24952 10.7502 6.91374 10.7502 6.49952C10.7503 6.08542 11.086 5.74952 11.5002 5.74952H12.5695L11.383 4.66359C11.3748 4.65614 11.3664 4.64893 11.3586 4.64113C10.6984 3.98098 9.85852 3.52969 8.94353 3.34425C8.02858 3.15884 7.07909 3.24716 6.21404 3.59816C5.34904 3.94918 4.60631 4.54738 4.07927 5.31788C3.55237 6.08827 3.26477 6.99695 3.25115 7.93019C3.23761 8.86368 3.49858 9.78138 4.0031 10.5669C4.50755 11.3523 5.23272 11.9712 6.08708 12.3472C6.94164 12.7231 7.88878 12.839 8.80876 12.6802C9.72847 12.5213 10.5811 12.0951 11.2599 11.4546C11.5612 11.1703 12.0362 11.1836 12.3205 11.4849C12.6048 11.7861 12.5905 12.2611 12.2892 12.5454C11.3958 13.3883 10.274 13.9497 9.06365 14.1587C7.85318 14.3677 6.60795 14.2149 5.48357 13.7202C4.35924 13.2256 3.40522 12.4109 2.74138 11.3775C2.07753 10.3439 1.73334 9.13699 1.75115 7.9087C1.769 6.6805 2.14848 5.48505 2.84197 4.4712C3.5355 3.4573 4.51229 2.67037 5.65056 2.20851Z" fill="black"/>
</svg>
