<svg width="16" height="16" viewBox="0 0 16 16" fill="none" xmlns="http://www.w3.org/2000/svg">
<path d="M4.75 12.6465L7.60254 10.8643L7.69629 10.8145C7.92168 10.7146 8.18456 10.7312 8.39746 10.8643L11.25 12.6465V3.25H4.75V12.6465ZM12.75 14C12.75 14.2726 12.6017 14.5241 12.3633 14.6562C12.1249 14.7882 11.8336 14.7802 11.6025 14.6357L8 12.3838L4.39746 14.6357C4.16637 14.7802 3.87512 14.7882 3.63672 14.6562C3.39825 14.5241 3.25 14.2726 3.25 14V3C3.25 2.66848 3.38179 2.35063 3.61621 2.11621C3.85063 1.88179 4.16848 1.75 4.5 1.75H11.5C11.8315 1.75 12.1494 1.88179 12.3838 2.11621C12.6182 2.35063 12.75 2.66848 12.75 3V14Z" fill="black"/>
</svg>
