<svg width="16" height="16" viewBox="0 0 16 16" fill="none" xmlns="http://www.w3.org/2000/svg">
<path d="M11.25 7C11.25 4.65279 9.34721 2.75 7 2.75C4.65279 2.75 2.75 4.65279 2.75 7C2.75 9.34721 4.65279 11.25 7 11.25C9.34721 11.25 11.25 9.34721 11.25 7ZM12.75 7C12.75 8.31713 12.3055 9.52954 11.5605 10.499L14.5303 13.4697C14.8232 13.7626 14.8232 14.2374 14.5303 14.5303C14.2374 14.8232 13.7626 14.8232 13.4697 14.5303L10.499 11.5605C9.52954 12.3055 8.31713 12.75 7 12.75C3.82436 12.75 1.25 10.1756 1.25 7C1.25 3.82436 3.82436 1.25 7 1.25C10.1756 1.25 12.75 3.82436 12.75 7Z" fill="black"/>
</svg>
