<svg width="16" height="16" viewBox="0 0 16 16" fill="none" xmlns="http://www.w3.org/2000/svg">
<path d="M5.53828 7.24969H9.00019C9.41424 7.24977 9.75003 7.58566 9.75019 7.99969C9.75019 8.41386 9.41434 8.74962 9.00019 8.74969H5.53828L3.94746 13.4577L13.4992 7.99384L3.94844 2.54462L5.53828 7.24969ZM15.2541 7.99481C15.254 8.21795 15.1936 8.43736 15.0803 8.62958C14.9687 8.81872 14.8085 8.97384 14.6174 9.08173L14.6184 9.0827L4.11836 15.0886L4.11347 15.0905C3.89085 15.2159 3.63542 15.2702 3.38105 15.2458C3.12661 15.2214 2.88542 15.1203 2.69062 14.9548C2.49591 14.7893 2.35641 14.568 2.29121 14.321C2.22758 14.0796 2.23915 13.8249 2.32148 13.5895L4.2082 7.99969L2.32051 2.41083L2.32148 2.40985C2.23998 2.17365 2.23006 1.91888 2.29511 1.67743L2.35761 1.49872C2.43389 1.32555 2.54876 1.17076 2.69453 1.04755L2.84883 0.937195C3.01005 0.838416 3.19218 0.776746 3.38203 0.758484L3.57148 0.754578C3.7603 0.76515 3.94502 0.818707 4.11152 0.911804L4.11738 0.914734L14.6174 6.90497L14.6164 6.90594C14.8081 7.01384 14.9684 7.16956 15.0803 7.35907C15.1937 7.55142 15.2541 7.77152 15.2541 7.99481Z" fill="black"/>
</svg>
