<svg width="16" height="16" viewBox="0 0 16 16" fill="none" xmlns="http://www.w3.org/2000/svg">
<path d="M12.25 12.5C12.25 11.8096 11.6904 11.25 11 11.25C10.3096 11.25 9.75 11.8096 9.75 12.5C9.75 13.1904 10.3096 13.75 11 13.75C11.6904 13.75 12.25 13.1904 12.25 12.5ZM5.25 8C5.25 7.30964 4.69036 6.75 4 6.75C3.30964 6.75 2.75 7.30964 2.75 8C2.75 8.69036 3.30964 9.25 4 9.25C4.69036 9.25 5.25 8.69036 5.25 8ZM12.25 3.5C12.25 2.80964 11.6904 2.25 11 2.25C10.3096 2.25 9.75 2.80964 9.75 3.5C9.75 4.19036 10.3096 4.75 11 4.75C11.6904 4.75 12.25 4.19036 12.25 3.5ZM13.75 3.5C13.75 5.01878 12.5188 6.25 11 6.25C10.302 6.25 9.66656 5.98802 9.18164 5.55957L6.62988 7.2002C6.7068 7.45345 6.75 7.72161 6.75 8C6.75 8.27806 6.70663 8.54584 6.62988 8.79883L9.18164 10.4395C9.6665 10.0113 10.3023 9.75 11 9.75C12.5188 9.75 13.75 10.9812 13.75 12.5C13.75 14.0188 12.5188 15.25 11 15.25C9.48122 15.25 8.25 14.0188 8.25 12.5C8.25 12.2217 8.29227 11.9534 8.36914 11.7002L5.81738 10.0596C5.33254 10.4877 4.69769 10.75 4 10.75C2.48122 10.75 1.25 9.51878 1.25 8C1.25 6.48122 2.48122 5.25 4 5.25C4.69746 5.25 5.3326 5.51155 5.81738 5.93945L8.36914 4.29883C8.29245 4.04592 8.25 3.77796 8.25 3.5C8.25 1.98122 9.48122 0.75 11 0.75C12.5188 0.75 13.75 1.98122 13.75 3.5Z" fill="black"/>
</svg>
