<svg width="16" height="16" viewBox="0 0 16 16" fill="none" xmlns="http://www.w3.org/2000/svg">
<path d="M8.25 1.5C6.59296 1.50182 5.0043 2.16088 3.83259 3.33259C2.66088 4.5043 2.00182 6.09296 2 7.75V13C2 13.2652 2.10536 13.5196 2.29289 13.7071C2.48043 13.8946 2.73478 14 3 14H8.25C9.9076 14 11.4973 13.3415 12.6694 12.1694C13.8415 10.9973 14.5 9.4076 14.5 7.75C14.5 6.0924 13.8415 4.50268 12.6694 3.33058C11.4973 2.15848 9.9076 1.5 8.25 1.5ZM10.25 9.5H6C5.86739 9.5 5.74021 9.44732 5.64645 9.35355C5.55268 9.25979 5.5 9.13261 5.5 9C5.5 8.86739 5.55268 8.74021 5.64645 8.64645C5.74021 8.55268 5.86739 8.5 6 8.5H10.25C10.3826 8.5 10.5098 8.55268 10.6036 8.64645C10.6973 8.74021 10.75 8.86739 10.75 9C10.75 9.13261 10.6973 9.25979 10.6036 9.35355C10.5098 9.44732 10.3826 9.5 10.25 9.5ZM10.25 7.5H6C5.86739 7.5 5.74021 7.44732 5.64645 7.35355C5.55268 7.25979 5.5 7.13261 5.5 7C5.5 6.86739 5.55268 6.74021 5.64645 6.64645C5.74021 6.55268 5.86739 6.5 6 6.5H10.25C10.3826 6.5 10.5098 6.55268 10.6036 6.64645C10.6973 6.74021 10.75 6.86739 10.75 7C10.75 7.13261 10.6973 7.25979 10.6036 7.35355C10.5098 7.44732 10.3826 7.5 10.25 7.5Z" fill="black"/>
</svg>
