<svg width="16" height="16" viewBox="0 0 16 16" fill="none" xmlns="http://www.w3.org/2000/svg">
<path d="M5.25 2C5.25 1.58579 5.58579 1.25 6 1.25C6.41421 1.25 6.75 1.58579 6.75 2V2.75H10C10.4142 2.75 10.75 3.08579 10.75 3.5C10.75 3.91421 10.4142 4.25 10 4.25H8.70605C8.55582 5.59363 8.0053 6.86248 7.12305 7.8916C7.85016 8.36774 8.68274 8.65476 9.5459 8.72949L10.8291 6.16504L10.8828 6.07422C11.0215 5.87312 11.2513 5.75 11.5 5.75C11.7841 5.75 12.0439 5.91095 12.1709 6.16504L15.6709 13.165C15.8558 13.5354 15.7053 13.9857 15.335 14.1709C14.9646 14.3558 14.5143 14.2053 14.3291 13.835L13.5361 12.25H9.46387L8.6709 13.835C8.48572 14.2053 8.03545 14.3558 7.66504 14.1709C7.29469 13.9857 7.14416 13.5354 7.3291 13.165L8.83691 10.1475C7.85729 9.97624 6.92246 9.59131 6.10254 9.01172C6.06781 8.98717 6.03421 8.96071 6 8.93555C4.8477 9.78354 3.44823 10.25 2 10.25C1.58579 10.25 1.25 9.91421 1.25 9.5C1.25 9.08579 1.58579 8.75 2 8.75C3.02896 8.75 4.02591 8.44662 4.87402 7.8916C4.33577 7.26349 3.91365 6.5388 3.63477 5.75C3.49671 5.35951 3.70133 4.93108 4.0918 4.79297C4.48231 4.6549 4.91074 4.85951 5.04883 5.25C5.26325 5.85649 5.58724 6.41379 5.99902 6.89844C6.64032 6.14387 7.05445 5.22583 7.19531 4.25H2C1.58579 4.25 1.25 3.91421 1.25 3.5C1.25 3.08579 1.58579 2.75 2 2.75H5.25V2ZM10.2139 10.75H12.7861L11.5 8.17676L10.2139 10.75Z" fill="black"/>
</svg>
