<svg width="16" height="16" viewBox="0 0 16 16" fill="none" xmlns="http://www.w3.org/2000/svg">
<path d="M2.49501 1.94525C2.80137 1.66674 3.2759 1.68895 3.55458 1.99506L13.5546 12.9951C13.8331 13.3014 13.8109 13.776 13.5048 14.0546C13.1984 14.3332 12.7239 14.3111 12.4452 14.0048L11.3358 12.7851C11.1408 13.1828 10.9193 13.5136 10.7401 13.7519L10.7372 13.7558C10.6294 13.8973 10.4924 14.0141 10.3358 14.0986C10.1793 14.183 10.0064 14.2328 9.829 14.2451C9.65152 14.2573 9.47326 14.2319 9.30654 14.1699C9.13992 14.1078 8.9884 14.0109 8.8622 13.8857L6.01845 11.0419L3.53017 13.5302C3.23728 13.8231 2.76252 13.8231 2.46962 13.5302C2.17679 13.2373 2.17675 12.7625 2.46962 12.4697L4.95693 9.98138L2.11611 7.14056L2.11708 7.13959C1.99291 7.01552 1.89574 6.86697 1.8329 6.70306C1.77001 6.5389 1.74227 6.36298 1.75185 6.18744C1.76148 6.01202 1.80822 5.84075 1.88857 5.68451L1.95497 5.57025C2.02696 5.46056 2.1158 5.36256 2.21865 5.28021C2.73906 4.86087 3.25925 4.59655 3.7499 4.43939L2.44521 3.00482C2.16668 2.69844 2.18883 2.22392 2.49501 1.94525ZM4.93447 5.7431C4.50421 5.75601 3.96278 5.8783 3.37978 6.28314L6.54384 9.4472C6.54532 9.44866 6.54726 9.44964 6.54872 9.45111C6.54984 9.45223 6.55054 9.45389 6.55165 9.45502L9.7079 12.6103C9.90462 12.3131 10.1 11.9447 10.2099 11.5458L4.93447 5.7431ZM15.2489 5.79291C15.2489 6.12384 15.1173 6.44045 14.8837 6.67474L12.0936 9.47552C11.8013 9.76889 11.3265 9.76984 11.0331 9.47748C10.7397 9.18511 10.7388 8.71032 11.0311 8.41693L13.6454 5.79291L10.2089 2.35345L7.80751 4.76068C7.51501 5.05389 7.04022 5.05506 6.74697 4.76263C6.45372 4.4701 6.45345 3.99436 6.74599 3.70111L9.32411 1.11615C9.55848 0.881936 9.87755 0.749972 10.2089 0.749939C10.4989 0.749939 10.7785 0.850959 11.0009 1.03314L11.0927 1.11615L14.8837 4.90912C15.1179 5.14351 15.2489 5.46153 15.2489 5.79291Z" fill="black"/>
</svg>
