<svg width="16" height="16" viewBox="0 0 16 16" fill="none" xmlns="http://www.w3.org/2000/svg">
<path d="M3.25043 5.19233C3.25065 4.7783 3.58635 4.44233 4.00043 4.44233C4.41442 4.44243 4.75021 4.77836 4.75043 5.19233V12.6464L7.60297 10.8642L7.69672 10.8144C7.92205 10.7146 8.18507 10.7312 8.39789 10.8642L11.2641 12.6552C11.3316 12.3103 11.6358 12.0497 12.0004 12.0497C12.4144 12.0499 12.7502 12.3858 12.7504 12.7997V13.9999C12.7504 14.2726 12.6022 14.524 12.3637 14.6562C12.1253 14.7883 11.8341 14.7802 11.603 14.6357L8.00043 12.3837L4.39789 14.6357C4.16669 14.7802 3.87464 14.7884 3.63617 14.6562C3.39791 14.524 3.25043 14.2725 3.25043 13.9999V5.19233ZM11.2504 8.58979V3.24994H5.91059L11.2504 8.58979ZM12.7504 10.0898L14.5307 11.8701C14.8234 12.163 14.8235 12.6378 14.5307 12.9306C14.2379 13.2234 13.7631 13.2233 13.4702 12.9306L2.26996 1.73041C1.97707 1.43752 1.97707 0.962758 2.26996 0.669865C2.56286 0.376972 3.03762 0.376972 3.33051 0.669865L4.41059 1.74994H11.5004C11.7904 1.74999 12.07 1.85096 12.2924 2.03315L12.3842 2.11615L12.4672 2.20795C12.6494 2.43033 12.7504 2.70995 12.7504 2.99994V10.0898Z" fill="black"/>
</svg>
