<svg width="16" height="16" viewBox="0 0 16 16" fill="none" xmlns="http://www.w3.org/2000/svg">
<path d="M3.75 13.25H12.25V6.25H9.5C9.08579 6.25 8.75 5.91421 8.75 5.5V2.75H3.75V13.25ZM7.25 11.5V9.31055L7.03027 9.53027C6.73738 9.82317 6.26262 9.82317 5.96973 9.53027C5.67683 9.23738 5.67683 8.76262 5.96973 8.46973L7.46973 6.96973L7.52637 6.91797C7.82095 6.67766 8.25567 6.69512 8.53027 6.96973L10.0303 8.46973C10.3232 8.76262 10.3232 9.23738 10.0303 9.53027C9.73738 9.82317 9.26262 9.82317 8.96973 9.53027L8.75 9.31055V11.5C8.75 11.9142 8.41421 12.25 8 12.25C7.58579 12.25 7.25 11.9142 7.25 11.5ZM10.25 4.75H11.1895L10.25 3.81055V4.75ZM13.75 13.5C13.75 13.8315 13.6182 14.1494 13.3838 14.3838C13.1494 14.6182 12.8315 14.75 12.5 14.75H3.5C3.16848 14.75 2.85063 14.6182 2.61621 14.3838C2.38179 14.1494 2.25 13.8315 2.25 13.5V2.5C2.25 2.16848 2.38179 1.85063 2.61621 1.61621C2.85063 1.38179 3.16848 1.25 3.5 1.25H9.5C9.69891 1.25 9.88962 1.32907 10.0303 1.46973L13.5303 4.96973C13.6709 5.11038 13.75 5.30109 13.75 5.5V13.5Z" fill="black"/>
</svg>
