<svg width="16" height="16" viewBox="0 0 16 16" fill="none" xmlns="http://www.w3.org/2000/svg">
<g clip-path="url(#clip0_14236_431464)">
<path d="M7.74978 6.74999C7.74978 5.36927 6.63049 4.24999 5.24978 4.24999C3.86919 4.25013 2.74978 5.36937 2.74978 6.74999C2.74978 8.12637 3.86234 9.24202 5.23708 9.24901H5.2615C6.63694 9.24284 7.74978 8.12688 7.74978 6.74999ZM10.989 2.75682C11.577 2.79244 12.15 2.95759 12.6668 3.24022C13.1835 3.52286 13.6312 3.91679 13.9783 4.39256C14.3255 4.86848 14.5632 5.41567 14.6746 5.99413C14.7859 6.57251 14.7684 7.16853 14.6228 7.73924C14.4772 8.30991 14.2076 8.84159 13.8328 9.29588C13.6795 9.48165 13.5089 9.65123 13.3259 9.80565C13.4626 9.86745 13.5979 9.93309 13.7302 10.0049C14.6452 10.501 15.4216 11.2183 15.989 12.0908C16.2148 12.4381 16.1166 12.9031 15.7693 13.1289C15.4222 13.3544 14.958 13.2561 14.7322 12.9092C14.3011 12.2461 13.7106 11.7012 13.0154 11.3242C12.3201 10.9472 11.5416 10.7496 10.7508 10.75C10.3367 10.7502 10.0003 10.4149 9.99978 10.001C9.99949 9.61271 10.2945 9.29266 10.6726 9.25389L10.7498 9.24999L10.8875 9.24608C11.2082 9.22806 11.523 9.14817 11.8142 9.01073C12.1471 8.85361 12.4413 8.62474 12.6756 8.34081C12.9098 8.05686 13.0787 7.72482 13.1697 7.36815C13.2607 7.0114 13.2715 6.63887 13.2019 6.27733C13.1323 5.91582 12.9843 5.57378 12.7674 5.27635C12.5504 4.97892 12.27 4.73331 11.947 4.55663C11.624 4.37994 11.2657 4.27714 10.8982 4.25487C10.5308 4.23263 10.163 4.29137 9.82107 4.42772C9.43633 4.58117 8.99991 4.39352 8.84646 4.00877C8.69322 3.62411 8.88076 3.18758 9.2654 3.03417C9.81248 2.81601 10.4011 2.72122 10.989 2.75682ZM9.24978 6.74999C9.24978 7.97649 8.69704 9.07288 7.8279 9.80663C7.96389 9.86822 8.09852 9.93341 8.23025 10.0049C9.14509 10.5012 9.92152 11.2184 10.489 12.0908C10.7149 12.438 10.6165 12.9031 10.2693 13.1289C9.92221 13.3544 9.45805 13.2561 9.2322 12.9092C8.80089 12.246 8.21073 11.7005 7.5154 11.3232C6.8251 10.9487 6.05251 10.7519 5.26736 10.749C5.26159 10.749 5.25555 10.75 5.24978 10.75C5.24359 10.75 5.23741 10.749 5.23122 10.749C4.44668 10.7521 3.67492 10.9491 2.98513 11.3232C2.28976 11.7005 1.69966 12.246 1.26833 12.9092C1.04247 13.2563 0.577445 13.3547 0.230247 13.1289C-0.116903 12.903 -0.215294 12.438 0.01052 12.0908C0.578002 11.2183 1.35448 10.5012 2.26931 10.0049C2.40069 9.93359 2.53505 9.86809 2.67068 9.80663C1.80205 9.07288 1.24978 7.97607 1.24978 6.74999C1.24978 4.54094 3.04076 2.75013 5.24978 2.74999C7.45892 2.74999 9.24978 4.54085 9.24978 6.74999Z" fill="black"/>
</g>
<defs>
<clipPath id="clip0_14236_431464">
<rect width="16" height="16" fill="white"/>
</clipPath>
</defs>
</svg>
