<svg width="16" height="16" viewBox="0 0 16 16" fill="none" xmlns="http://www.w3.org/2000/svg">
<g clip-path="url(#clip0_14246_434226)">
<path d="M9.74995 6.25C9.74995 4.59315 8.4068 3.25 6.74995 3.25C5.09309 3.25 3.74995 4.59315 3.74995 6.25C3.74995 7.90685 5.09309 9.25 6.74995 9.25C8.4068 9.25 9.74995 7.90685 9.74995 6.25ZM15.4999 7.75C15.9142 7.75 16.2499 8.08579 16.2499 8.5C16.2499 8.91421 15.9142 9.25 15.4999 9.25H12.4999C12.0857 9.25 11.7499 8.91421 11.7499 8.5C11.7499 8.08579 12.0857 7.75 12.4999 7.75H15.4999ZM11.2499 6.25C11.2499 7.68406 10.5781 8.96014 9.53315 9.78418C10.7222 10.2628 11.7513 11.0386 12.5742 12.0176C12.8406 12.3347 12.7994 12.8077 12.4824 13.0742C12.1653 13.3406 11.6922 13.2995 11.4257 12.9824C10.2687 11.6058 8.65833 10.75 6.74995 10.75C4.84156 10.75 3.23123 11.6058 2.07417 12.9824C1.80769 13.2995 1.33461 13.3406 1.01753 13.0742C0.700477 12.8077 0.659329 12.3347 0.925729 12.0176C1.74835 11.0388 2.77703 10.2629 3.96577 9.78418C2.92116 8.96012 2.24995 7.68379 2.24995 6.25C2.24995 3.76472 4.26467 1.75 6.74995 1.75C9.23523 1.75 11.2499 3.76472 11.2499 6.25Z" fill="black"/>
</g>
<defs>
<clipPath id="clip0_14246_434226">
<rect width="16" height="16" fill="white"/>
</clipPath>
</defs>
</svg>
