<svg width="16" height="16" viewBox="0 0 16 16" fill="none" xmlns="http://www.w3.org/2000/svg">
<g clip-path="url(#clip0_14236_425146)">
<path d="M9.74995 6.25C9.74995 4.59315 8.4068 3.25 6.74995 3.25C5.09309 3.25 3.74995 4.59315 3.74995 6.25C3.74995 7.90685 5.09309 9.25 6.74995 9.25C8.4068 9.25 9.74995 7.90685 9.74995 6.25ZM14.9697 7.46973C15.2626 7.17683 15.7373 7.17683 16.0302 7.46973C16.3231 7.76262 16.3231 8.23738 16.0302 8.53027L14.0302 10.5303C13.7373 10.8232 13.2626 10.8232 12.9697 10.5303L11.9697 9.53027C11.6768 9.23738 11.6768 8.76262 11.9697 8.46973C12.2626 8.17683 12.7373 8.17683 13.0302 8.46973L13.4999 8.93945L14.9697 7.46973ZM11.2499 6.25C11.2499 7.68406 10.5781 8.96014 9.53315 9.78418C10.7222 10.2628 11.7513 11.0386 12.5742 12.0176C12.8406 12.3347 12.7994 12.8077 12.4824 13.0742C12.1653 13.3406 11.6922 13.2995 11.4257 12.9824C10.2687 11.6058 8.65833 10.75 6.74995 10.75C4.84156 10.75 3.23123 11.6058 2.07417 12.9824C1.80769 13.2995 1.33461 13.3406 1.01753 13.0742C0.700477 12.8077 0.659329 12.3347 0.925729 12.0176C1.74835 11.0388 2.77703 10.2629 3.96577 9.78418C2.92116 8.96012 2.24995 7.68379 2.24995 6.25C2.24995 3.76472 4.26467 1.75 6.74995 1.75C9.23523 1.75 11.2499 3.76472 11.2499 6.25Z" fill="black"/>
</g>
<defs>
<clipPath id="clip0_14236_425146">
<rect width="16" height="16" fill="white"/>
</clipPath>
</defs>
</svg>
