<svg width="16" height="16" viewBox="0 0 16 16" fill="none" xmlns="http://www.w3.org/2000/svg">
<path d="M11.2499 6C11.2499 4.20507 9.79482 2.75 7.9999 2.75C6.20497 2.75 4.7499 4.20507 4.7499 6C4.7499 7.79493 6.20497 9.25 7.9999 9.25C9.79482 9.25 11.2499 7.79493 11.2499 6ZM12.7499 6C12.7499 7.55353 12.0036 8.93218 10.8505 9.79883C12.4586 10.4478 13.7851 11.6307 14.6493 13.124C14.8568 13.4825 14.7343 13.9419 14.3759 14.1494C14.0174 14.3569 13.558 14.2344 13.3505 13.876C12.2644 11.9992 10.3043 10.75 7.9999 10.75C5.69554 10.75 3.73544 11.9992 2.64931 13.876C2.44181 14.2344 1.98239 14.3569 1.62392 14.1494C1.2655 13.9419 1.14303 13.4825 1.35048 13.124C2.21459 11.631 3.54059 10.4479 5.14833 9.79883C3.99559 8.93215 3.2499 7.55325 3.2499 6C3.2499 3.37665 5.37654 1.25 7.9999 1.25C10.6233 1.25 12.7499 3.37665 12.7499 6Z" fill="black"/>
</svg>
