<svg width="16" height="16" viewBox="0 0 16 16" fill="none" xmlns="http://www.w3.org/2000/svg">
<g clip-path="url(#clip0_14111_491495)">
<path d="M2.25 11.25H11.75V4.75H2.25V11.25ZM13.25 7.40137V8.59863L14.75 9.59863V6.40137L13.25 7.40137ZM13.25 5.59863L15.084 4.37598C15.3141 4.2226 15.6097 4.20849 15.8535 4.33887C16.0974 4.46938 16.25 4.7234 16.25 5V11C16.25 11.2766 16.0974 11.5306 15.8535 11.6611C15.6097 11.7915 15.3141 11.7774 15.084 11.624L13.25 10.4014V11.5C13.25 12.1904 12.6904 12.75 12 12.75H2C1.30964 12.75 0.75 12.1904 0.75 11.5V4.5C0.75 3.80964 1.30964 3.25 2 3.25H12C12.6904 3.25 13.25 3.80964 13.25 4.5V5.59863Z" fill="black"/>
</g>
<defs>
<clipPath id="clip0_14111_491495">
<rect width="16" height="16" fill="white"/>
</clipPath>
</defs>
</svg>
