<svg width="16" height="16" viewBox="0 0 16 16" fill="none" xmlns="http://www.w3.org/2000/svg">
<path d="M7.25 15V13.1953C6.13495 13.0344 5.09411 12.5179 4.28809 11.7119C3.30352 10.7273 2.75 9.39239 2.75 8C2.75 7.58579 3.08579 7.25 3.5 7.25C3.91421 7.25 4.25 7.58579 4.25 8C4.25 8.99456 4.64537 9.94811 5.34863 10.6514C6.05189 11.3546 7.00544 11.75 8 11.75C8.99456 11.75 9.94811 11.3546 10.6514 10.6514C11.3546 9.9481 11.75 8.99456 11.75 8C11.75 7.58579 12.0858 7.25 12.5 7.25C12.9142 7.25 13.25 7.58579 13.25 8C13.25 9.39239 12.6965 10.7273 11.7119 11.7119C10.9059 12.5179 9.86505 13.0344 8.75 13.1953V15C8.75 15.4142 8.41421 15.75 8 15.75C7.58579 15.75 7.25 15.4142 7.25 15ZM9.75 4C9.75 3.0335 8.9665 2.25 8 2.25C7.0335 2.25 6.25 3.0335 6.25 4V8C6.25 8.9665 7.0335 9.75 8 9.75C8.9665 9.75 9.75 8.9665 9.75 8V4ZM11.25 8C11.25 9.79493 9.79493 11.25 8 11.25C6.20507 11.25 4.75 9.79493 4.75 8V4C4.75 2.20507 6.20507 0.75 8 0.75C9.79493 0.75 11.25 2.20507 11.25 4V8Z" fill="black"/>
</svg>
