<svg width="16" height="16" viewBox="0 0 16 16" fill="none" xmlns="http://www.w3.org/2000/svg">
<path d="M13.25 8C13.25 5.10051 10.8995 2.75 8 2.75C5.10051 2.75 2.75 5.10051 2.75 8C2.75 10.8995 5.10051 13.25 8 13.25C10.8995 13.25 13.25 10.8995 13.25 8ZM9.46973 5.46973C9.76262 5.17683 10.2374 5.17683 10.5303 5.46973C10.8232 5.76262 10.8232 6.23738 10.5303 6.53027L9.06055 8L10.5303 9.46973C10.8232 9.76262 10.8232 10.2374 10.5303 10.5303C10.2374 10.8232 9.76262 10.8232 9.46973 10.5303L8 9.06055L6.53027 10.5303C6.23738 10.8232 5.76262 10.8232 5.46973 10.5303C5.17683 10.2374 5.17683 9.76262 5.46973 9.46973L6.93945 8L5.46973 6.53027C5.17683 6.23738 5.17683 5.76262 5.46973 5.46973C5.76262 5.17683 6.23738 5.17683 6.53027 5.46973L8 6.93945L9.46973 5.46973ZM14.75 8C14.75 11.7279 11.7279 14.75 8 14.75C4.27208 14.75 1.25 11.7279 1.25 8C1.25 4.27208 4.27208 1.25 8 1.25C11.7279 1.25 14.75 4.27208 14.75 8Z" fill="black"/>
</svg>
