<svg width="16" height="16" viewBox="0 0 16 16" fill="none" xmlns="http://www.w3.org/2000/svg">
<path d="M11.9697 2.96967C12.2626 2.67678 12.7373 2.67678 13.0302 2.96967C13.3231 3.26256 13.3231 3.73732 13.0302 4.03022L9.06049 7.99994L13.0302 11.9697C13.3231 12.2626 13.3231 12.7373 13.0302 13.0302C12.7373 13.3231 12.2626 13.3231 11.9697 13.0302L7.99994 9.06049L4.03022 13.0302C3.73732 13.3231 3.26256 13.3231 2.96967 13.0302C2.67678 12.7373 2.67678 12.2626 2.96967 11.9697L6.9394 7.99994L2.96967 4.03022C2.67678 3.73732 2.67678 3.26256 2.96967 2.96967C3.26256 2.67678 3.73732 2.67678 4.03022 2.96967L7.99994 6.9394L11.9697 2.96967Z" fill="black"/>
</svg>
