<svg width="26" height="32" viewBox="0 0 26 32" fill="none" xmlns="http://www.w3.org/2000/svg">
<path d="M0 3.2C0 1.43269 1.43269 0 3.2 0H18.2L26 8V28.8C26 30.5673 24.5673 32 22.8 32H3.2C1.43269 32 0 30.5673 0 28.8V3.2Z" fill="#E59E34"/>
<path fill-rule="evenodd" clip-rule="evenodd" d="M8.17031 0H6.11768V2.14737H8.17031V4.29474H6.11768V6.4421H8.17031V8.58947H6.11768V10.7368H8.17031V12.8842H6.11768V15.0316H8.17031V12.8842H10.2229V10.7368H8.17031V8.58947H10.2229V6.4421H8.17031V4.29474H10.2229V2.14737H8.17031V0ZM6.11768 18.2526C6.11768 17.6597 6.57717 17.1789 7.14399 17.1789H9.19662C9.76344 17.1789 10.2229 17.6597 10.2229 18.2526V24.6947C10.2229 25.2877 9.76344 25.7684 9.19662 25.7684H7.14399C6.57717 25.7684 6.11768 25.2877 6.11768 24.6947V18.2526ZM7.14399 24.6947V21.4737H9.19662V24.6947H7.14399Z" fill="white"/>
<path opacity="0.5" d="M26.0001 8L20.6001 8C19.2746 8 18.2001 6.92548 18.2001 5.6V0L26.0001 8Z" fill="white"/>
</svg>
