<svg width="26" height="32" viewBox="0 0 26 32" fill="none" xmlns="http://www.w3.org/2000/svg">
<path d="M0 3.2C0 1.43269 1.43269 0 3.2 0H18.2L26 8V28.8C26 30.5673 24.5673 32 22.8 32H3.2C1.43269 32 0 30.5673 0 28.8V3.2Z" fill="#00ACA1"/>
<g clip-path="url(#clip0_13523_510282)">
<path d="M11.6876 23.8125L14.3126 14.1875M16.646 16.5208L18.2267 18.2004C18.6495 18.6496 18.6495 19.3503 18.2267 19.7996L16.646 21.4792M9.3543 21.4792L7.77352 19.7996C7.35072 19.3503 7.35072 18.6496 7.77352 18.2004L9.3543 16.5208" stroke="white" stroke-width="1.33333" stroke-linecap="round" stroke-linejoin="round"/>
</g>
<path opacity="0.5" d="M26.0001 8L20.6001 8C19.2746 8 18.2001 6.92548 18.2001 5.6V0L26.0001 8Z" fill="white"/>
<defs>
<clipPath id="clip0_13523_510282">
<rect width="14" height="14" fill="white" transform="translate(6.00012 12)"/>
</clipPath>
</defs>
</svg>
