<svg width="19" height="24" viewBox="0 0 19 24" fill="none" xmlns="http://www.w3.org/2000/svg">
<path d="M0 2.4C0 1.07452 1.07452 0 2.4 0H13.3L19 6V21.6C19 22.9255 17.9255 24 16.6 24H2.4C1.07452 24 0 22.9255 0 21.6V2.4Z" fill="#2727B0"/>
<path d="M12.875 12.875V15.125M14.375 12.125V15.875M7.625 15.875H5.375C5.27554 15.875 5.18016 15.8355 5.10984 15.7652C5.03951 15.6948 5 15.5995 5 15.5V12.5C5 12.4005 5.03951 12.3052 5.10984 12.2348C5.18016 12.1645 5.27554 12.125 5.375 12.125H7.625L11 9.5V18.5L7.625 15.875Z" stroke="white" stroke-linecap="round" stroke-linejoin="round"/>
<path opacity="0.5" d="M19 6L15.1 6C14.1059 6 13.3 5.19411 13.3 4.2V0L19 6Z" fill="white"/>
</svg>
