<svg width="32" height="40" viewBox="0 0 32 40" fill="none" xmlns="http://www.w3.org/2000/svg">
<path d="M0 4C0 1.79086 1.79086 0 4 0H22.4L32 10V36C32 38.2091 30.2091 40 28 40H4C1.79086 40 0 38.2091 0 36V4Z" fill="#A847B7"/>
<g clip-path="url(#clip0_2755_46026)">
<path d="M20.5 16L23.5 14V20L20.5 18M10 13H20C20.2761 13 20.5 13.2239 20.5 13.5V20.5C20.5 20.7761 20.2761 21 20 21H10C9.72386 21 9.5 20.7761 9.5 20.5V13.5C9.5 13.2239 9.72386 13 10 13Z" stroke="white" stroke-width="1.2" stroke-linecap="round" stroke-linejoin="round"/>
</g>
<path opacity="0.5" d="M32 10H25.4C23.7431 10 22.4 8.65685 22.4 7V0L32 10Z" fill="white"/>
<path d="M7.5 33V28.6992H8.64062V29.3711H8.71094C8.80208 29.1289 8.95312 28.9414 9.16406 28.8086C9.375 28.6732 9.62109 28.6055 9.90234 28.6055C10.0977 28.6055 10.2747 28.638 10.4336 28.7031C10.5924 28.7656 10.7279 28.8555 10.8398 28.9727C10.9518 29.0898 11.0378 29.2318 11.0977 29.3984H11.168C11.2331 29.2396 11.3294 29.1016 11.457 28.9844C11.5846 28.8646 11.7344 28.7721 11.9062 28.707C12.0781 28.6393 12.2643 28.6055 12.4648 28.6055C12.7513 28.6055 12.9974 28.6641 13.2031 28.7812C13.4115 28.8984 13.5716 29.0651 13.6836 29.2812C13.7982 29.4948 13.8555 29.75 13.8555 30.0469V33H12.7148V30.332C12.7148 30.1576 12.6888 30.013 12.6367 29.8984C12.5846 29.7839 12.5052 29.6979 12.3984 29.6406C12.2943 29.5807 12.1628 29.5508 12.0039 29.5508C11.8503 29.5508 11.7161 29.5859 11.6016 29.6562C11.4896 29.7266 11.4023 29.8216 11.3398 29.9414C11.2773 30.0612 11.2461 30.1992 11.2461 30.3555V33H10.1055V30.2812C10.1055 30.1276 10.0768 29.9961 10.0195 29.8867C9.96484 29.7773 9.88411 29.694 9.77734 29.6367C9.67318 29.5794 9.54688 29.5508 9.39844 29.5508C9.25 29.5508 9.11849 29.5885 9.00391 29.6641C8.89193 29.737 8.80339 29.8385 8.73828 29.9688C8.67318 30.0964 8.64062 30.2422 8.64062 30.4062V33H7.5ZM14.9609 34.4258V28.6992H16.1016V29.3633H16.1719C16.2474 29.2096 16.3464 29.0781 16.4688 28.9688C16.5938 28.8594 16.7396 28.776 16.9062 28.7188C17.0729 28.6589 17.2578 28.6289 17.4609 28.6289C17.8203 28.6289 18.1302 28.7188 18.3906 28.8984C18.651 29.0781 18.8516 29.3333 18.9922 29.6641C19.1354 29.9922 19.207 30.3854 19.207 30.8438V30.8516C19.207 31.3125 19.1367 31.7083 18.9961 32.0391C18.8555 32.3698 18.6549 32.6237 18.3945 32.8008C18.1341 32.9779 17.8229 33.0664 17.4609 33.0664C17.263 33.0664 17.0794 33.0365 16.9102 32.9766C16.7435 32.9141 16.5964 32.8268 16.4688 32.7148C16.3438 32.6029 16.2448 32.4688 16.1719 32.3125H16.1016V34.4258H14.9609ZM17.0703 32.1211C17.2734 32.1211 17.4466 32.0703 17.5898 31.9688C17.7357 31.8672 17.8477 31.7214 17.9258 31.5312C18.0065 31.3411 18.0469 31.1146 18.0469 30.8516V30.8438C18.0469 30.5807 18.0065 30.3542 17.9258 30.1641C17.8477 29.974 17.7357 29.8281 17.5898 29.7266C17.4466 29.625 17.2734 29.5742 17.0703 29.5742C16.8698 29.5742 16.6953 29.625 16.5469 29.7266C16.401 29.8281 16.2878 29.974 16.207 30.1641C16.1289 30.3516 16.0898 30.5781 16.0898 30.8438V30.8516C16.0898 31.112 16.1302 31.3385 16.2109 31.5312C16.2917 31.7214 16.4049 31.8672 16.5508 31.9688C16.6992 32.0703 16.8724 32.1211 17.0703 32.1211ZM22.7539 33V31.9648H19.9922V31.0391C20.1354 30.7839 20.2799 30.5312 20.4258 30.2812C20.5716 30.0286 20.7188 29.7786 20.8672 29.5312C21.0182 29.2812 21.168 29.0352 21.3164 28.793C21.4674 28.5482 21.6185 28.3073 21.7695 28.0703C21.9206 27.8307 22.0716 27.5951 22.2227 27.3633H23.8789V31.0195H24.6133V31.9648H23.8789V33H22.7539ZM21.0547 31.0508H22.7773V28.2578H22.7148C22.6055 28.4271 22.4935 28.6003 22.3789 28.7773C22.2669 28.9544 22.1536 29.1354 22.0391 29.3203C21.9271 29.5052 21.8138 29.6914 21.6992 29.8789C21.5872 30.0638 21.4766 30.25 21.3672 30.4375C21.2604 30.6224 21.1562 30.806 21.0547 30.9883V31.0508Z" fill="white"/>
<defs>
<clipPath id="clip0_2755_46026">
<rect width="16" height="16" fill="white" transform="translate(8 9)"/>
</clipPath>
</defs>
</svg>
