<svg width="26" height="32" viewBox="0 0 26 32" fill="none" xmlns="http://www.w3.org/2000/svg">
<path d="M0 3.2C0 1.43269 1.43269 0 3.2 0H18.2L26 8V28.8C26 30.5673 24.5673 32 22.8 32H3.2C1.43269 32 0 30.5673 0 28.8V3.2Z" fill="#2727B0"/>
<path d="M17.5 17.5V20.5M19.5 16.5V21.5M10.5 21.5H7.5C7.36739 21.5 7.24021 21.4473 7.14645 21.3536C7.05268 21.2598 7 21.1326 7 21V17C7 16.8674 7.05268 16.7402 7.14645 16.6464C7.24021 16.5527 7.36739 16.5 7.5 16.5H10.5L15 13V25L10.5 21.5Z" stroke="white" stroke-width="1.33333" stroke-linecap="round" stroke-linejoin="round"/>
<path opacity="0.5" d="M26.0001 8L20.6001 8C19.2746 8 18.2001 6.92548 18.2001 5.6V0L26.0001 8Z" fill="white"/>
</svg>
