<svg width="19" height="24" viewBox="0 0 19 24" fill="none" xmlns="http://www.w3.org/2000/svg">
<path d="M0 2.4C0 1.07452 1.07452 0 2.4 0H13.3L19 6V21.6C19 22.9255 17.9255 24 16.6 24H2.4C1.07452 24 0 22.9255 0 21.6V2.4Z" fill="#00ACA1"/>
<path d="M8.37504 18.125L10.625 9.875M12.625 11.875L13.98 13.3147C14.3424 13.6997 14.3424 14.3003 13.98 14.6853L12.625 16.125M6.37504 16.125L5.02009 14.6853C4.65769 14.3003 4.65769 13.6997 5.02009 13.3147L6.37504 11.875" stroke="white" stroke-linecap="round" stroke-linejoin="round"/>
<path opacity="0.5" d="M19 6L15.1 6C14.1059 6 13.3 5.19411 13.3 4.2V0L19 6Z" fill="white"/>
</svg>
