<svg width="19" height="24" viewBox="0 0 19 24" fill="none" xmlns="http://www.w3.org/2000/svg">
<path d="M0 2.4C0 1.07452 1.07452 0 2.4 0H13.3L19 6V21.6C19 22.9255 17.9255 24 16.6 24H2.4C1.07452 24 0 22.9255 0 21.6V2.4Z" fill="#D14423"/>
<path opacity="0.5" d="M19 6L15.1 6C14.1059 6 13.3 5.19411 13.3 4.2V0L19 6Z" fill="white"/>
<g clip-path="url(#clip0_8305_395380)">
<path d="M6.87502 12.875H12.125M9.50002 14.375V18.125M8.00002 18.125H11M4.62502 14.375C4.56107 14.375 4.49817 14.3587 4.44229 14.3276C4.38642 14.2965 4.33943 14.2516 4.3058 14.1972C4.27217 14.1428 4.253 14.0807 4.25013 14.0168C4.24726 13.9529 4.26078 13.8894 4.2894 13.8322L6.1644 10.0822C6.19558 10.0199 6.24349 9.9675 6.30277 9.9309C6.36205 9.89431 6.43036 9.87495 6.50002 9.875H12.5C12.5697 9.87495 12.638 9.89431 12.6973 9.9309C12.7566 9.9675 12.8045 10.0199 12.8357 10.0822L14.7107 13.8322C14.7393 13.8894 14.7528 13.9529 14.7499 14.0168C14.747 14.0807 14.7279 14.1428 14.6942 14.1972C14.6606 14.2516 14.6136 14.2965 14.5578 14.3276C14.5019 14.3587 14.439 14.375 14.375 14.375H4.62502Z" stroke="white" stroke-linecap="round" stroke-linejoin="round"/>
</g>
<defs>
<clipPath id="clip0_8305_395380">
<rect width="12" height="12" fill="white" transform="translate(3.5 8)"/>
</clipPath>
</defs>
</svg>
