<svg width="19" height="24" viewBox="0 0 19 24" fill="none" xmlns="http://www.w3.org/2000/svg">
<path d="M0 2.4C0 1.07452 1.07452 0 2.4 0H13.3L19 6V21.6C19 22.9255 17.9255 24 16.6 24H2.4C1.07452 24 0 22.9255 0 21.6V2.4Z" fill="#E71A01"/>
<path opacity="0.5" d="M19 6L15.1 6C14.1059 6 13.3 5.19411 13.3 4.2V0L19 6Z" fill="white"/>
<g clip-path="url(#clip0_8305_395364)">
<path d="M15.315 14.6503C14.96 14.2778 14.232 14.0653 13.203 14.0653C12.653 14.0653 12.0145 14.1183 11.3225 14.2423C10.8985 13.8346 10.5125 13.3893 10.169 12.9118C9.903 12.5568 9.672 12.1668 9.459 11.7938C9.8675 10.5518 10.0625 9.54028 10.0625 8.81278C10.0625 7.99678 9.761 7.14478 8.8915 7.14478C8.6255 7.14478 8.359 7.30478 8.217 7.53528C7.827 8.22728 8.0045 9.73528 8.6785 11.2258C8.42481 11.988 8.14075 12.7398 7.827 13.4793C7.543 14.1538 7.2235 14.8458 6.8685 15.4843C4.917 16.2653 3.657 17.1703 3.515 17.8793C3.462 18.1458 3.5505 18.3943 3.746 18.5893C3.817 18.6428 4.0655 18.8558 4.491 18.8558C5.786 18.8558 7.1525 16.7618 7.8445 15.5023C8.377 15.3248 8.9095 15.1473 9.4415 15.0053C10.0028 14.8528 10.5713 14.7285 11.145 14.6328C12.511 15.8568 13.7175 16.0523 14.321 16.0523C15.066 16.0523 15.3325 15.7503 15.421 15.5023C15.581 15.1823 15.4745 14.8278 15.315 14.6503ZM14.605 15.1653C14.5515 15.4313 14.285 15.6088 13.913 15.6088C13.8065 15.6088 13.718 15.5908 13.611 15.5733C12.937 15.4133 12.298 15.0763 11.6595 14.5438C12.1518 14.4605 12.6502 14.419 13.1495 14.4198C13.5225 14.4198 13.842 14.4373 14.0545 14.4908C14.303 14.5438 14.6935 14.7038 14.6045 15.1648L14.605 15.1653ZM10.843 14.3313C10.3479 14.4241 9.85667 14.5365 9.3705 14.6683C8.9465 14.7785 8.52627 14.9027 8.1105 15.0408C8.32663 14.6222 8.52792 14.1961 8.714 13.7633C8.927 13.2663 9.104 12.7518 9.282 12.2728C9.459 12.5743 9.6545 12.8763 9.8495 13.1423C10.1683 13.5488 10.4997 13.9453 10.843 14.3313ZM8.519 7.73028C8.55036 7.66742 8.59837 7.61437 8.65778 7.5769C8.7172 7.53943 8.78576 7.51898 8.856 7.51778C9.2285 7.51778 9.2995 7.94328 9.2995 8.28078C9.2995 8.84828 9.122 9.71778 8.8205 10.7113C8.3055 9.32728 8.2705 8.17428 8.519 7.73028ZM6.567 15.9988C5.662 17.4893 4.7925 18.4118 4.2605 18.4118C4.16451 18.4124 4.07101 18.3813 3.9945 18.3233C3.888 18.2168 3.8345 18.0928 3.87 17.9508C3.9765 17.4183 5.0055 16.6733 6.567 15.9988Z" fill="white"/>
</g>
<defs>
<clipPath id="clip0_8305_395364">
<rect width="12" height="12" fill="white" transform="translate(3.5 7)"/>
</clipPath>
</defs>
</svg>
