<svg width="19" height="24" viewBox="0 0 19 24" fill="none" xmlns="http://www.w3.org/2000/svg">
<path d="M0 2.4C0 1.07452 1.07452 0 2.4 0H13.3L19 6V21.6C19 22.9255 17.9255 24 16.6 24H2.4C1.07452 24 0 22.9255 0 21.6V2.4Z" fill="#E59E34"/>
<path fill-rule="evenodd" clip-rule="evenodd" d="M5.97058 0H4.47058V1.61053H5.97058V3.22105H4.47058V4.83158H5.97058V6.4421H4.47058V8.05263H5.97058V9.66316H4.47058V11.2737H5.97058V9.66316H7.47058V8.05263H5.97058V6.4421H7.47058V4.83158H5.97058V3.22105H7.47058V1.61053H5.97058V0ZM4.47058 13.6895C4.47058 13.2447 4.80637 12.8842 5.22058 12.8842H6.72058C7.13479 12.8842 7.47058 13.2447 7.47058 13.6895V18.5211C7.47058 18.9658 7.13479 19.3263 6.72058 19.3263H5.22058C4.80637 19.3263 4.47058 18.9658 4.47058 18.5211V13.6895ZM5.22058 18.5211V16.1053H6.72058V18.5211H5.22058Z" fill="white"/>
<path opacity="0.5" d="M19 6L15.1 6C14.1059 6 13.3 5.19411 13.3 4.2V0L19 6Z" fill="white"/>
</svg>
