<svg width="32" height="40" viewBox="0 0 32 40" fill="none" xmlns="http://www.w3.org/2000/svg">
<path d="M0 4C0 1.79086 1.79086 0 4 0H22.4L32 10V36C32 38.2091 30.2091 40 28 40H4C1.79086 40 0 38.2091 0 36V4Z" fill="#0C864B"/>
<path d="M10 15.5H22M10 18.5H22M13.5 15.5V21.5M10 12.5H22V21C22 21.1326 21.9473 21.2598 21.8536 21.3536C21.7598 21.4473 21.6326 21.5 21.5 21.5H10.5C10.3674 21.5 10.2402 21.4473 10.1464 21.3536C10.0527 21.2598 10 21.1326 10 21V12.5Z" stroke="white" stroke-width="1.5" stroke-linecap="round" stroke-linejoin="round"/>
<path opacity="0.5" d="M32 10H25.4C23.7431 10 22.4 8.65685 22.4 7V0L32 10Z" fill="white"/>
<path d="M10.4883 33L11.8359 30.8711L10.4766 28.6992H11.7852L12.5469 30.125H12.6172L13.3789 28.6992H14.6211L13.2656 30.8242L14.6289 33H13.3672L12.5625 31.5781H12.4922L11.6914 33H10.4883ZM15.4883 33V27.0547H16.6289V33H15.4883ZM19.5195 33.0898C19.1289 33.0898 18.7956 33.0365 18.5195 32.9297C18.2461 32.8203 18.0312 32.6706 17.875 32.4805C17.7214 32.2904 17.6315 32.0729 17.6055 31.8281L17.6016 31.8125H18.7227L18.7305 31.8281C18.7773 31.9609 18.8659 32.0703 18.9961 32.1562C19.1289 32.2422 19.3073 32.2852 19.5312 32.2852C19.6771 32.2852 19.8047 32.2656 19.9141 32.2266C20.0234 32.1849 20.1094 32.1289 20.1719 32.0586C20.2344 31.9883 20.2656 31.9062 20.2656 31.8125V31.8047C20.2656 31.6901 20.2188 31.5951 20.125 31.5195C20.0312 31.444 19.875 31.3815 19.6562 31.332L18.9375 31.1797C18.6641 31.1224 18.4362 31.0391 18.2539 30.9297C18.0716 30.8177 17.9349 30.681 17.8438 30.5195C17.7552 30.3581 17.7109 30.1706 17.7109 29.957V29.9531C17.7109 29.6823 17.7852 29.4466 17.9336 29.2461C18.0846 29.043 18.2943 28.8854 18.5625 28.7734C18.8333 28.6615 19.1471 28.6055 19.5039 28.6055C19.8789 28.6055 20.1979 28.6628 20.4609 28.7773C20.724 28.8893 20.9258 29.0404 21.0664 29.2305C21.2096 29.418 21.2891 29.6276 21.3047 29.8594V29.875H20.2461L20.2422 29.8555C20.2109 29.7383 20.1328 29.6354 20.0078 29.5469C19.8828 29.4557 19.7135 29.4102 19.5 29.4102C19.3698 29.4102 19.2539 29.4297 19.1523 29.4688C19.0508 29.5078 18.9701 29.5625 18.9102 29.6328C18.8529 29.7031 18.8242 29.7865 18.8242 29.8828V29.8867C18.8242 29.9622 18.8438 30.0286 18.8828 30.0859C18.9219 30.1432 18.9857 30.1927 19.0742 30.2344C19.1628 30.276 19.2812 30.3138 19.4297 30.3477L20.1445 30.5C20.5742 30.5938 20.8919 30.7344 21.0977 30.9219C21.3034 31.1094 21.4062 31.362 21.4062 31.6797V31.6836C21.4062 31.9674 21.3255 32.2148 21.1641 32.4258C21.0026 32.6367 20.7799 32.8008 20.4961 32.918C20.2122 33.0326 19.8867 33.0898 19.5195 33.0898Z" fill="white"/>
</svg>
