<svg width="19" height="24" viewBox="0 0 19 24" fill="none" xmlns="http://www.w3.org/2000/svg">
<path d="M0 2.4C0 1.07452 1.07452 0 2.4 0H13.3L19 6V21.6C19 22.9255 17.9255 24 16.6 24H2.4C1.07452 24 0 22.9255 0 21.6V2.4Z" fill="#3375E2"/>
<path opacity="0.5" d="M19 6L15.1 6C14.1059 6 13.3 5.19411 13.3 4.2V0L19 6Z" fill="white"/>
<g clip-path="url(#clip0_8305_395371)">
<rect x="4.5" y="11" width="9" height="1" rx="0.5" fill="white"/>
<rect x="4.5" y="16" width="9" height="1" rx="0.5" fill="white"/>
<rect x="4.5" y="13.5" width="6" height="1" rx="0.5" fill="white"/>
</g>
<defs>
<clipPath id="clip0_8305_395371">
<rect width="10" height="10" fill="white" transform="translate(4.5 9)"/>
</clipPath>
</defs>
</svg>
