<svg width="26" height="32" viewBox="0 0 26 32" fill="none" xmlns="http://www.w3.org/2000/svg">
<path d="M0 3.2C0 1.43269 1.43269 0 3.2 0H18.2L26 8V28.8C26 30.5673 24.5673 32 22.8 32H3.2C1.43269 32 0 30.5673 0 28.8V3.2Z" fill="#A847B7"/>
<g clip-path="url(#clip0_13523_510277)">
<path d="M17.5001 18L20.5001 16V22L17.5001 20M7.00012 15H17.0001C17.2763 15 17.5001 15.2239 17.5001 15.5V22.5C17.5001 22.7761 17.2763 23 17.0001 23H7.00012C6.72398 23 6.50012 22.7761 6.50012 22.5V15.5C6.50012 15.2239 6.72398 15 7.00012 15Z" stroke="white" stroke-width="1.33333" stroke-linecap="round" stroke-linejoin="round"/>
</g>
<path opacity="0.5" d="M26.0001 8L20.6001 8C19.2746 8 18.2001 6.92548 18.2001 5.6V0L26.0001 8Z" fill="white"/>
<defs>
<clipPath id="clip0_13523_510277">
<rect width="16" height="16" fill="white" transform="translate(5.00012 11)"/>
</clipPath>
</defs>
</svg>
