<svg width="32" height="40" viewBox="0 0 32 40" fill="none" xmlns="http://www.w3.org/2000/svg">
<path d="M0 4C0 1.79086 1.79086 0 4 0H22.4L32 10V36C32 38.2091 30.2091 40 28 40H4C1.79086 40 0 38.2091 0 36V4Z" fill="#2727B0"/>
<path d="M20.5 15.5V18.5M22.5 14.5V19.5M13.5 19.5H10.5C10.3674 19.5 10.2402 19.4473 10.1464 19.3536C10.0527 19.2598 10 19.1326 10 19V15C10 14.8674 10.0527 14.7402 10.1464 14.6464C10.2402 14.5527 10.3674 14.5 10.5 14.5H13.5L18 11V23L13.5 19.5Z" stroke="white" stroke-width="1.2" stroke-linecap="round" stroke-linejoin="round"/>
<path opacity="0.5" d="M32 10H25.4C23.7431 10 22.4 8.65685 22.4 7V0L32 10Z" fill="white"/>
<path d="M7.59375 33V28.6992H8.73438V29.3711H8.80469C8.89583 29.1289 9.04688 28.9414 9.25781 28.8086C9.46875 28.6732 9.71484 28.6055 9.99609 28.6055C10.1914 28.6055 10.3685 28.638 10.5273 28.7031C10.6862 28.7656 10.8216 28.8555 10.9336 28.9727C11.0456 29.0898 11.1315 29.2318 11.1914 29.3984H11.2617C11.3268 29.2396 11.4232 29.1016 11.5508 28.9844C11.6784 28.8646 11.8281 28.7721 12 28.707C12.1719 28.6393 12.3581 28.6055 12.5586 28.6055C12.8451 28.6055 13.0911 28.6641 13.2969 28.7812C13.5052 28.8984 13.6654 29.0651 13.7773 29.2812C13.8919 29.4948 13.9492 29.75 13.9492 30.0469V33H12.8086V30.332C12.8086 30.1576 12.7826 30.013 12.7305 29.8984C12.6784 29.7839 12.599 29.6979 12.4922 29.6406C12.388 29.5807 12.2565 29.5508 12.0977 29.5508C11.944 29.5508 11.8099 29.5859 11.6953 29.6562C11.5833 29.7266 11.4961 29.8216 11.4336 29.9414C11.3711 30.0612 11.3398 30.1992 11.3398 30.3555V33H10.1992V30.2812C10.1992 30.1276 10.1706 29.9961 10.1133 29.8867C10.0586 29.7773 9.97786 29.694 9.87109 29.6367C9.76693 29.5794 9.64062 29.5508 9.49219 29.5508C9.34375 29.5508 9.21224 29.5885 9.09766 29.6641C8.98568 29.737 8.89714 29.8385 8.83203 29.9688C8.76693 30.0964 8.73438 30.2422 8.73438 30.4062V33H7.59375ZM15.0547 34.4258V28.6992H16.1953V29.3633H16.2656C16.3411 29.2096 16.4401 29.0781 16.5625 28.9688C16.6875 28.8594 16.8333 28.776 17 28.7188C17.1667 28.6589 17.3516 28.6289 17.5547 28.6289C17.9141 28.6289 18.224 28.7188 18.4844 28.8984C18.7448 29.0781 18.9453 29.3333 19.0859 29.6641C19.2292 29.9922 19.3008 30.3854 19.3008 30.8438V30.8516C19.3008 31.3125 19.2305 31.7083 19.0898 32.0391C18.9492 32.3698 18.7487 32.6237 18.4883 32.8008C18.2279 32.9779 17.9167 33.0664 17.5547 33.0664C17.3568 33.0664 17.1732 33.0365 17.0039 32.9766C16.8372 32.9141 16.6901 32.8268 16.5625 32.7148C16.4375 32.6029 16.3385 32.4688 16.2656 32.3125H16.1953V34.4258H15.0547ZM17.1641 32.1211C17.3672 32.1211 17.5404 32.0703 17.6836 31.9688C17.8294 31.8672 17.9414 31.7214 18.0195 31.5312C18.1003 31.3411 18.1406 31.1146 18.1406 30.8516V30.8438C18.1406 30.5807 18.1003 30.3542 18.0195 30.1641C17.9414 29.974 17.8294 29.8281 17.6836 29.7266C17.5404 29.625 17.3672 29.5742 17.1641 29.5742C16.9635 29.5742 16.7891 29.625 16.6406 29.7266C16.4948 29.8281 16.3815 29.974 16.3008 30.1641C16.2227 30.3516 16.1836 30.5781 16.1836 30.8438V30.8516C16.1836 31.112 16.224 31.3385 16.3047 31.5312C16.3854 31.7214 16.4987 31.8672 16.6445 31.9688C16.793 32.0703 16.9661 32.1211 17.1641 32.1211ZM22.3008 33.125C21.8763 33.125 21.5039 33.0547 21.1836 32.9141C20.8659 32.7708 20.6146 32.5729 20.4297 32.3203C20.2448 32.0651 20.138 31.7695 20.1094 31.4336L20.1055 31.3828H21.2344L21.2383 31.4258C21.2565 31.5716 21.3099 31.7018 21.3984 31.8164C21.4896 31.9284 21.612 32.0169 21.7656 32.082C21.9193 32.1445 22.0977 32.1758 22.3008 32.1758C22.5013 32.1758 22.6758 32.1419 22.8242 32.0742C22.9753 32.0039 23.0911 31.9076 23.1719 31.7852C23.2552 31.6628 23.2969 31.5221 23.2969 31.3633V31.3555C23.2969 31.0846 23.2005 30.8776 23.0078 30.7344C22.8177 30.5911 22.5521 30.5195 22.2109 30.5195H21.5664V29.6797H22.1953C22.3932 29.6797 22.5651 29.6471 22.7109 29.582C22.8568 29.5169 22.9701 29.4271 23.0508 29.3125C23.1315 29.1953 23.1719 29.0612 23.1719 28.9102V28.9023C23.1719 28.7461 23.1367 28.612 23.0664 28.5C22.9987 28.3854 22.8984 28.2982 22.7656 28.2383C22.6354 28.1758 22.4779 28.1445 22.293 28.1445C22.1081 28.1445 21.9453 28.1758 21.8047 28.2383C21.6641 28.3008 21.5521 28.3906 21.4688 28.5078C21.3854 28.6224 21.3359 28.7578 21.3203 28.9141L21.3164 28.9492H20.2305L20.2344 28.9023C20.263 28.5638 20.3646 28.2708 20.5391 28.0234C20.7161 27.7734 20.9531 27.5807 21.25 27.4453C21.5495 27.3073 21.8971 27.2383 22.293 27.2383C22.6966 27.2383 23.0482 27.3021 23.3477 27.4297C23.6471 27.5547 23.8776 27.7305 24.0391 27.957C24.2031 28.181 24.2852 28.444 24.2852 28.7461V28.7539C24.2852 28.9883 24.2331 29.194 24.1289 29.3711C24.0247 29.5482 23.8841 29.694 23.707 29.8086C23.5299 29.9232 23.3307 30.0039 23.1094 30.0508V30.0742C23.5286 30.1133 23.8646 30.2487 24.1172 30.4805C24.3698 30.7122 24.4961 31.0195 24.4961 31.4023V31.4102C24.4961 31.7513 24.4036 32.0508 24.2188 32.3086C24.0365 32.5664 23.7812 32.7669 23.4531 32.9102C23.125 33.0534 22.7409 33.125 22.3008 33.125Z" fill="white"/>
</svg>
