<svg width="26" height="32" viewBox="0 0 26 32" fill="none" xmlns="http://www.w3.org/2000/svg">
<path d="M0 3.2C0 1.43269 1.43269 0 3.2 0H18.2L26 8V28.8C26 30.5673 24.5673 32 22.8 32H3.2C1.43269 32 0 30.5673 0 28.8V3.2Z" fill="#D14423"/>
<path opacity="0.5" d="M25.9999 8L20.5999 8C19.2745 8 18.1999 6.92548 18.1999 5.6V0L25.9999 8Z" fill="white"/>
<path d="M9.49999 17.5H16.5M13 19.5V24.5M11 24.5H15M6.49999 19.5C6.41472 19.5001 6.33085 19.4783 6.25635 19.4368C6.18185 19.3953 6.11921 19.3355 6.07436 19.263C6.02952 19.1904 6.00397 19.1076 6.00014 19.0224C5.99631 18.9373 6.01433 18.8525 6.05249 18.7763L8.55249 13.7763C8.59406 13.6932 8.65795 13.6233 8.73699 13.5745C8.81603 13.5257 8.9071 13.4999 8.99999 13.5H17C17.0929 13.4999 17.184 13.5257 17.263 13.5745C17.342 13.6233 17.4059 13.6932 17.4475 13.7763L19.9475 18.7763C19.9857 18.8525 20.0037 18.9373 19.9998 19.0224C19.996 19.1076 19.9705 19.1904 19.9256 19.263C19.8808 19.3355 19.8181 19.3953 19.7436 19.4368C19.6691 19.4783 19.5853 19.5001 19.5 19.5H6.49999Z" stroke="white" stroke-width="1.33333" stroke-linecap="round" stroke-linejoin="round"/>
</svg>
