<svg width="32" height="40" viewBox="0 0 32 40" fill="none" xmlns="http://www.w3.org/2000/svg">
<path d="M0 4C0 1.79086 1.79086 0 4 0H22.4L32 10V36C32 38.2091 30.2091 40 28 40H4C1.79086 40 0 38.2091 0 36V4Z" fill="#3375E2"/>
<path opacity="0.5" d="M32 10H25.4C23.7431 10 22.4 8.65685 22.4 7V0L32 10Z" fill="white"/>
<rect x="8" y="12.2" width="14.4" height="1.6" rx="0.8" fill="white"/>
<rect x="8" y="20.2" width="14.4" height="1.6" rx="0.8" fill="white"/>
<rect x="8" y="16.2" width="9.6" height="1.6" rx="0.8" fill="white"/>
<path d="M10.668 33.0664C10.3112 33.0664 10.0013 32.9779 9.73828 32.8008C9.47786 32.6211 9.27604 32.3659 9.13281 32.0352C8.99219 31.7044 8.92188 31.3099 8.92188 30.8516V30.8438C8.92188 30.3828 8.99089 29.987 9.12891 29.6562C9.26953 29.3255 9.47005 29.0716 9.73047 28.8945C9.99089 28.7174 10.3034 28.6289 10.668 28.6289C10.8633 28.6289 11.0443 28.6602 11.2109 28.7227C11.3802 28.7826 11.5286 28.8685 11.6562 28.9805C11.7839 29.0924 11.8828 29.2279 11.9531 29.3867H12.0234V27.0547H13.1641V33H12.0234V32.332H11.9531C11.8802 32.4857 11.7812 32.6172 11.6562 32.7266C11.5339 32.8359 11.3893 32.9206 11.2227 32.9805C11.056 33.0378 10.8711 33.0664 10.668 33.0664ZM11.0547 32.1211C11.2578 32.1211 11.4323 32.0703 11.5781 31.9688C11.724 31.8672 11.8359 31.7214 11.9141 31.5312C11.9948 31.3411 12.0352 31.1159 12.0352 30.8555V30.8477C12.0352 30.582 11.9948 30.3555 11.9141 30.168C11.8359 29.9779 11.7227 29.832 11.5742 29.7305C11.4284 29.6263 11.2552 29.5742 11.0547 29.5742C10.8568 29.5742 10.6836 29.6263 10.5352 29.7305C10.3893 29.832 10.2773 29.9779 10.1992 30.168C10.1211 30.3555 10.082 30.5807 10.082 30.8438V30.8516C10.082 31.1146 10.1211 31.3411 10.1992 31.5312C10.2773 31.7214 10.3893 31.8672 10.5352 31.9688C10.681 32.0703 10.8542 32.1211 11.0547 32.1211ZM16.2539 33.0898C15.8138 33.0898 15.4349 33.0013 15.1172 32.8242C14.7995 32.6445 14.556 32.388 14.3867 32.0547C14.2174 31.7188 14.1328 31.3177 14.1328 30.8516V30.8438C14.1328 30.3802 14.2188 29.9818 14.3906 29.6484C14.5625 29.3151 14.806 29.0586 15.1211 28.8789C15.4388 28.6966 15.8164 28.6055 16.2539 28.6055C16.6914 28.6055 17.0677 28.6953 17.3828 28.875C17.7005 29.0547 17.9453 29.3125 18.1172 29.6484C18.2891 29.9818 18.375 30.3802 18.375 30.8438V30.8516C18.375 31.3177 18.2904 31.7188 18.1211 32.0547C17.9518 32.388 17.7083 32.6445 17.3906 32.8242C17.0755 33.0013 16.6966 33.0898 16.2539 33.0898ZM16.2539 32.1953C16.457 32.1953 16.6289 32.1419 16.7695 32.0352C16.9102 31.9284 17.0182 31.7747 17.0938 31.5742C17.1693 31.3737 17.207 31.1328 17.207 30.8516V30.8438C17.207 30.5625 17.1693 30.3229 17.0938 30.125C17.0182 29.9245 16.9089 29.7708 16.7656 29.6641C16.625 29.5547 16.4544 29.5 16.2539 29.5C16.0534 29.5 15.8815 29.5547 15.7383 29.6641C15.5977 29.7708 15.4896 29.9245 15.4141 30.125C15.3385 30.3229 15.3008 30.5625 15.3008 30.8438V30.8516C15.3008 31.1354 15.3372 31.3776 15.4102 31.5781C15.4857 31.7786 15.5938 31.9323 15.7344 32.0391C15.8776 32.1432 16.0508 32.1953 16.2539 32.1953ZM21.1992 33.0898C20.7513 33.0898 20.3698 33.0026 20.0547 32.8281C19.7422 32.651 19.5039 32.3958 19.3398 32.0625C19.1758 31.7266 19.0938 31.3203 19.0938 30.8438V30.8359C19.0938 30.362 19.1758 29.9596 19.3398 29.6289C19.5039 29.2982 19.7422 29.0456 20.0547 28.8711C20.3698 28.694 20.7513 28.6055 21.1992 28.6055C21.5794 28.6055 21.9062 28.6706 22.1797 28.8008C22.4531 28.931 22.6693 29.1146 22.8281 29.3516C22.987 29.5885 23.0833 29.8672 23.1172 30.1875V30.1992H22.0586L22.0547 30.1914C22.0156 29.9831 21.9245 29.8164 21.7812 29.6914C21.6406 29.5638 21.4479 29.5 21.2031 29.5C21 29.5 20.8268 29.5521 20.6836 29.6562C20.543 29.7578 20.4362 29.9076 20.3633 30.1055C20.2904 30.3034 20.2539 30.5469 20.2539 30.8359V30.8438C20.2539 31.1328 20.2904 31.3789 20.3633 31.582C20.4388 31.7826 20.5469 31.9349 20.6875 32.0391C20.8281 32.1432 21 32.1953 21.2031 32.1953C21.4375 32.1953 21.625 32.1406 21.7656 32.0312C21.9062 31.9219 22.0013 31.7578 22.0508 31.5391L22.0586 31.5273L23.1133 31.5234V31.5508C23.0716 31.8607 22.9714 32.1315 22.8125 32.3633C22.6536 32.5951 22.4388 32.7747 22.168 32.9023C21.8971 33.0273 21.5742 33.0898 21.1992 33.0898Z" fill="white"/>
</svg>
