<svg width="26" height="32" viewBox="0 0 26 32" fill="none" xmlns="http://www.w3.org/2000/svg">
<path d="M0 3.2C0 1.43269 1.43269 0 3.2 0H18.2L26 8V28.8C26 30.5673 24.5673 32 22.8 32H3.2C1.43269 32 0 30.5673 0 28.8V3.2Z" fill="#E71A01"/>
<path opacity="0.5" d="M26 8L20.6 8C19.2745 8 18.2 6.92548 18.2 5.6V0L26 8Z" fill="white"/>
<g clip-path="url(#clip0_13523_510248)">
<path d="M20.7533 19.5337C20.28 19.037 19.3093 18.7537 17.9373 18.7537C17.204 18.7537 16.3526 18.8244 15.43 18.9897C14.8647 18.4461 14.3499 17.8523 13.892 17.2157C13.5373 16.7424 13.2293 16.2224 12.9453 15.725C13.49 14.069 13.75 12.7204 13.75 11.7504C13.75 10.6624 13.348 9.52637 12.1886 9.52637C11.834 9.52637 11.4786 9.7397 11.2893 10.047C10.7693 10.9697 11.006 12.9804 11.9046 14.9677C11.5664 15.984 11.1876 16.9863 10.7693 17.9724C10.3906 18.8717 9.96465 19.7944 9.49131 20.6457C6.88931 21.687 5.20931 22.8937 5.01998 23.839C4.94931 24.1944 5.06731 24.5257 5.32798 24.7857C5.42265 24.857 5.75398 25.141 6.32131 25.141C8.04798 25.141 9.86998 22.349 10.7926 20.6697C11.5026 20.433 12.2126 20.1964 12.922 20.007C13.6704 19.8038 14.4284 19.638 15.1933 19.5104C17.0146 21.1424 18.6233 21.403 19.428 21.403C20.4213 21.403 20.7766 21.0004 20.8946 20.6697C21.108 20.243 20.966 19.7704 20.7533 19.5337ZM19.8066 20.2204C19.7353 20.575 19.38 20.8117 18.884 20.8117C18.742 20.8117 18.624 20.7877 18.4813 20.7644C17.5826 20.551 16.7306 20.1017 15.8793 19.3917C16.5357 19.2807 17.2003 19.2254 17.866 19.2264C18.3633 19.2264 18.7893 19.2497 19.0726 19.321C19.404 19.3917 19.9246 19.605 19.806 20.2197L19.8066 20.2204ZM14.7906 19.1084C14.1305 19.2321 13.4755 19.382 12.8273 19.5577C12.262 19.7047 11.7017 19.8703 11.1473 20.0544C11.4355 19.4962 11.7039 18.9281 11.952 18.351C12.236 17.6884 12.472 17.0024 12.7093 16.3637C12.9453 16.7657 13.206 17.1684 13.466 17.523C13.8911 18.065 14.3329 18.5937 14.7906 19.1084ZM11.692 10.307C11.7338 10.2232 11.7978 10.1525 11.877 10.1025C11.9563 10.0526 12.0477 10.0253 12.1413 10.0237C12.638 10.0237 12.7326 10.591 12.7326 11.041C12.7326 11.7977 12.496 12.957 12.094 14.2817C11.4073 12.4364 11.3606 10.899 11.692 10.307ZM9.08931 21.3317C7.88265 23.319 6.72331 24.549 6.01398 24.549C5.88599 24.5498 5.76132 24.5083 5.65931 24.431C5.51731 24.289 5.44598 24.1237 5.49331 23.9344C5.63531 23.2244 7.00731 22.231 9.08931 21.3317Z" fill="white"/>
</g>
<defs>
<clipPath id="clip0_13523_510248">
<rect width="16" height="16" fill="white" transform="translate(5 9.33325)"/>
</clipPath>
</defs>
</svg>
