<svg width="32" height="40" viewBox="0 0 32 40" fill="none" xmlns="http://www.w3.org/2000/svg">
<path d="M0 4C0 1.79086 1.79086 0 4 0H22.4L32 10V36C32 38.2091 30.2091 40 28 40H4C1.79086 40 0 38.2091 0 36V4Z" fill="#D14423"/>
<path opacity="0.5" d="M32 10H25.4C23.7431 10 22.4 8.65685 22.4 7V0L32 10Z" fill="white"/>
<path d="M12.5 15.5H19.5M16 17.5V22.5M14 22.5H18M9.49999 17.5C9.41472 17.5001 9.33085 17.4783 9.25635 17.4368C9.18185 17.3953 9.1192 17.3355 9.07436 17.263C9.02952 17.1904 9.00397 17.1076 9.00014 17.0224C8.99631 16.9373 9.01433 16.8525 9.05249 16.7762L11.5525 11.7763C11.5941 11.6932 11.6579 11.6233 11.737 11.5745C11.816 11.5257 11.9071 11.4999 12 11.5H20C20.0929 11.4999 20.184 11.5257 20.263 11.5745C20.342 11.6233 20.4059 11.6932 20.4475 11.7763L22.9475 16.7762C22.9857 16.8525 23.0037 16.9373 22.9998 17.0224C22.996 17.1076 22.9705 17.1904 22.9256 17.263C22.8808 17.3355 22.8181 17.3953 22.7436 17.4368C22.6691 17.4783 22.5853 17.5001 22.5 17.5H9.49999Z" stroke="white" stroke-width="1.2" stroke-linecap="round" stroke-linejoin="round"/>
<path d="M9.73828 34.4258V28.6992H10.8789V29.3633H10.9492C11.0247 29.2096 11.1237 29.0781 11.2461 28.9688C11.3711 28.8594 11.5169 28.776 11.6836 28.7188C11.8503 28.6589 12.0352 28.6289 12.2383 28.6289C12.5977 28.6289 12.9076 28.7188 13.168 28.8984C13.4284 29.0781 13.6289 29.3333 13.7695 29.6641C13.9128 29.9922 13.9844 30.3854 13.9844 30.8438V30.8516C13.9844 31.3125 13.9141 31.7083 13.7734 32.0391C13.6328 32.3698 13.4323 32.6237 13.1719 32.8008C12.9115 32.9779 12.6003 33.0664 12.2383 33.0664C12.0404 33.0664 11.8568 33.0365 11.6875 32.9766C11.5208 32.9141 11.3737 32.8268 11.2461 32.7148C11.1211 32.6029 11.0221 32.4688 10.9492 32.3125H10.8789V34.4258H9.73828ZM11.8477 32.1211C12.0508 32.1211 12.224 32.0703 12.3672 31.9688C12.513 31.8672 12.625 31.7214 12.7031 31.5312C12.7839 31.3411 12.8242 31.1146 12.8242 30.8516V30.8438C12.8242 30.5807 12.7839 30.3542 12.7031 30.1641C12.625 29.974 12.513 29.8281 12.3672 29.7266C12.224 29.625 12.0508 29.5742 11.8477 29.5742C11.6471 29.5742 11.4727 29.625 11.3242 29.7266C11.1784 29.8281 11.0651 29.974 10.9844 30.1641C10.9062 30.3516 10.8672 30.5781 10.8672 30.8438V30.8516C10.8672 31.112 10.9076 31.3385 10.9883 31.5312C11.069 31.7214 11.1823 31.8672 11.3281 31.9688C11.4766 32.0703 11.6497 32.1211 11.8477 32.1211ZM14.918 34.4258V28.6992H16.0586V29.3633H16.1289C16.2044 29.2096 16.3034 29.0781 16.4258 28.9688C16.5508 28.8594 16.6966 28.776 16.8633 28.7188C17.0299 28.6589 17.2148 28.6289 17.418 28.6289C17.7773 28.6289 18.0872 28.7188 18.3477 28.8984C18.6081 29.0781 18.8086 29.3333 18.9492 29.6641C19.0924 29.9922 19.1641 30.3854 19.1641 30.8438V30.8516C19.1641 31.3125 19.0938 31.7083 18.9531 32.0391C18.8125 32.3698 18.612 32.6237 18.3516 32.8008C18.0911 32.9779 17.7799 33.0664 17.418 33.0664C17.2201 33.0664 17.0365 33.0365 16.8672 32.9766C16.7005 32.9141 16.5534 32.8268 16.4258 32.7148C16.3008 32.6029 16.2018 32.4688 16.1289 32.3125H16.0586V34.4258H14.918ZM17.0273 32.1211C17.2305 32.1211 17.4036 32.0703 17.5469 31.9688C17.6927 31.8672 17.8047 31.7214 17.8828 31.5312C17.9635 31.3411 18.0039 31.1146 18.0039 30.8516V30.8438C18.0039 30.5807 17.9635 30.3542 17.8828 30.1641C17.8047 29.974 17.6927 29.8281 17.5469 29.7266C17.4036 29.625 17.2305 29.5742 17.0273 29.5742C16.8268 29.5742 16.6523 29.625 16.5039 29.7266C16.3581 29.8281 16.2448 29.974 16.1641 30.1641C16.0859 30.3516 16.0469 30.5781 16.0469 30.8438V30.8516C16.0469 31.112 16.0872 31.3385 16.168 31.5312C16.2487 31.7214 16.362 31.8672 16.5078 31.9688C16.6562 32.0703 16.8294 32.1211 17.0273 32.1211ZM21.8828 33.0156C21.362 33.0156 20.987 32.9245 20.7578 32.7422C20.5286 32.5573 20.4141 32.2565 20.4141 31.8398V29.5586H19.75V28.6992H20.4141V27.6719H21.5664V28.6992H22.4531V29.5586H21.5664V31.5781C21.5664 31.7708 21.6094 31.9128 21.6953 32.0039C21.7839 32.0924 21.9245 32.1367 22.1172 32.1367C22.1901 32.1367 22.25 32.1354 22.2969 32.1328C22.3464 32.1276 22.3984 32.1224 22.4531 32.1172V32.9648C22.3828 32.9779 22.2982 32.9896 22.1992 33C22.1003 33.0104 21.9948 33.0156 21.8828 33.0156Z" fill="white"/>
</svg>
