<svg width="19" height="24" viewBox="0 0 19 24" fill="none" xmlns="http://www.w3.org/2000/svg">
<path d="M0 2.4C0 1.07452 1.07452 0 2.4 0H13.3L19 6V21.6C19 22.9255 17.9255 24 16.6 24H2.4C1.07452 24 0 22.9255 0 21.6V2.4Z" fill="#A847B7"/>
<g clip-path="url(#clip0_8305_395398)">
<path d="M12.875 13.25L15.125 11.75V16.25L12.875 14.75M5 11H12.5C12.7071 11 12.875 11.1679 12.875 11.375V16.625C12.875 16.8321 12.7071 17 12.5 17H5C4.79289 17 4.625 16.8321 4.625 16.625V11.375C4.625 11.1679 4.79289 11 5 11Z" stroke="white" stroke-linecap="round" stroke-linejoin="round"/>
</g>
<path opacity="0.5" d="M19 6L15.1 6C14.1059 6 13.3 5.19411 13.3 4.2V0L19 6Z" fill="white"/>
<defs>
<clipPath id="clip0_8305_395398">
<rect width="12" height="12" fill="white" transform="translate(3.5 8)"/>
</clipPath>
</defs>
</svg>
