<svg width="32" height="40" viewBox="0 0 32 40" fill="none" xmlns="http://www.w3.org/2000/svg">
<path d="M0 4C0 1.79086 1.79086 0 4 0H22.4L32 10V36C32 38.2091 30.2091 40 28 40H4C1.79086 40 0 38.2091 0 36V4Z" fill="#E59E34"/>
<path fill-rule="evenodd" clip-rule="evenodd" d="M9.41177 0H7.52942V2H9.41177V4H7.52942V6H9.41177V8H7.52942V10H9.41177V12H7.52942V14H9.41177V12H11.2941V10H9.41177V8H11.2941V6H9.41177V4H11.2941V2H9.41177V0ZM7.52942 17C7.52942 16.4477 7.9508 16 8.4706 16H10.3529C10.8727 16 11.2941 16.4477 11.2941 17V23C11.2941 23.5523 10.8727 24 10.3529 24H8.4706C7.9508 24 7.52942 23.5523 7.52942 23V17ZM8.4706 23V20H10.3529V23H8.4706Z" fill="white"/>
<path opacity="0.5" d="M32 10H25.4C23.7431 10 22.4 8.65685 22.4 7V0L32 10Z" fill="white"/>
<path d="M10.4688 33V32.3438L12.6602 29.6289V29.5586H10.5V28.6992H14.0078V29.4258L11.9414 32.0703V32.1406H14.0586V33H10.4688ZM15.1055 33V28.6992H16.2461V33H15.1055ZM15.6797 28.0391C15.5052 28.0391 15.3542 27.9779 15.2266 27.8555C15.099 27.7305 15.0352 27.5807 15.0352 27.4062C15.0352 27.2292 15.099 27.0794 15.2266 26.957C15.3542 26.832 15.5052 26.7695 15.6797 26.7695C15.8568 26.7695 16.0078 26.832 16.1328 26.957C16.2578 27.0794 16.3203 27.2292 16.3203 27.4062C16.3203 27.5807 16.2578 27.7305 16.1328 27.8555C16.0078 27.9779 15.8568 28.0391 15.6797 28.0391ZM17.3945 34.4258V28.6992H18.5352V29.3633H18.6055C18.681 29.2096 18.7799 29.0781 18.9023 28.9688C19.0273 28.8594 19.1732 28.776 19.3398 28.7188C19.5065 28.6589 19.6914 28.6289 19.8945 28.6289C20.2539 28.6289 20.5638 28.7188 20.8242 28.8984C21.0846 29.0781 21.2852 29.3333 21.4258 29.6641C21.569 29.9922 21.6406 30.3854 21.6406 30.8438V30.8516C21.6406 31.3125 21.5703 31.7083 21.4297 32.0391C21.2891 32.3698 21.0885 32.6237 20.8281 32.8008C20.5677 32.9779 20.2565 33.0664 19.8945 33.0664C19.6966 33.0664 19.513 33.0365 19.3438 32.9766C19.1771 32.9141 19.0299 32.8268 18.9023 32.7148C18.7773 32.6029 18.6784 32.4688 18.6055 32.3125H18.5352V34.4258H17.3945ZM19.5039 32.1211C19.707 32.1211 19.8802 32.0703 20.0234 31.9688C20.1693 31.8672 20.2812 31.7214 20.3594 31.5312C20.4401 31.3411 20.4805 31.1146 20.4805 30.8516V30.8438C20.4805 30.5807 20.4401 30.3542 20.3594 30.1641C20.2812 29.974 20.1693 29.8281 20.0234 29.7266C19.8802 29.625 19.707 29.5742 19.5039 29.5742C19.3034 29.5742 19.1289 29.625 18.9805 29.7266C18.8346 29.8281 18.7214 29.974 18.6406 30.1641C18.5625 30.3516 18.5234 30.5781 18.5234 30.8438V30.8516C18.5234 31.112 18.5638 31.3385 18.6445 31.5312C18.7253 31.7214 18.8385 31.8672 18.9844 31.9688C19.1328 32.0703 19.306 32.1211 19.5039 32.1211Z" fill="white"/>
</svg>
