<svg width="32" height="40" viewBox="0 0 32 40" fill="none" xmlns="http://www.w3.org/2000/svg">
<path d="M0 4C0 1.79086 1.79086 0 4 0H22.4L32 10V36C32 38.2091 30.2091 40 28 40H4C1.79086 40 0 38.2091 0 36V4Z" fill="#00ACA1"/>
<path d="M14.5 22.5L17.5 11.5M20.1666 14.1667L21.9732 16.0862C22.4564 16.5996 22.4564 17.4004 21.9732 17.9138L20.1666 19.8333M11.8333 19.8333L10.0267 17.9138C9.54351 17.4004 9.54351 16.5996 10.0267 16.0862L11.8333 14.1667" stroke="white" stroke-width="1.2" stroke-linecap="round" stroke-linejoin="round"/>
<path opacity="0.5" d="M32 10H25.4C23.7431 10 22.4 8.65685 22.4 7V0L32 10Z" fill="white"/>
<path d="M7.51562 33V27.0547H8.65625V29.3633H8.72656C8.82552 29.1289 8.97917 28.944 9.1875 28.8086C9.39583 28.6732 9.65365 28.6055 9.96094 28.6055C10.2812 28.6055 10.5495 28.6693 10.7656 28.7969C10.9844 28.9219 11.1497 29.1042 11.2617 29.3438C11.3763 29.5833 11.4336 29.875 11.4336 30.2188V33H10.293V30.4766C10.293 30.1719 10.2292 29.9414 10.1016 29.7852C9.97396 29.6289 9.77474 29.5508 9.50391 29.5508C9.32943 29.5508 9.17839 29.5911 9.05078 29.6719C8.92578 29.75 8.82812 29.8607 8.75781 30.0039C8.6901 30.1471 8.65625 30.3164 8.65625 30.5117V33H7.51562ZM14.3242 33.0156C13.8034 33.0156 13.4284 32.9245 13.1992 32.7422C12.9701 32.5573 12.8555 32.2565 12.8555 31.8398V29.5586H12.1914V28.6992H12.8555V27.6719H14.0078V28.6992H14.8945V29.5586H14.0078V31.5781C14.0078 31.7708 14.0508 31.9128 14.1367 32.0039C14.2253 32.0924 14.3659 32.1367 14.5586 32.1367C14.6315 32.1367 14.6914 32.1354 14.7383 32.1328C14.7878 32.1276 14.8398 32.1224 14.8945 32.1172V32.9648C14.8242 32.9779 14.7396 32.9896 14.6406 33C14.5417 33.0104 14.4362 33.0156 14.3242 33.0156ZM15.8438 33V28.6992H16.9844V29.3711H17.0547C17.1458 29.1289 17.2969 28.9414 17.5078 28.8086C17.7188 28.6732 17.9648 28.6055 18.2461 28.6055C18.4414 28.6055 18.6185 28.638 18.7773 28.7031C18.9362 28.7656 19.0716 28.8555 19.1836 28.9727C19.2956 29.0898 19.3815 29.2318 19.4414 29.3984H19.5117C19.5768 29.2396 19.6732 29.1016 19.8008 28.9844C19.9284 28.8646 20.0781 28.7721 20.25 28.707C20.4219 28.6393 20.6081 28.6055 20.8086 28.6055C21.0951 28.6055 21.3411 28.6641 21.5469 28.7812C21.7552 28.8984 21.9154 29.0651 22.0273 29.2812C22.1419 29.4948 22.1992 29.75 22.1992 30.0469V33H21.0586V30.332C21.0586 30.1576 21.0326 30.013 20.9805 29.8984C20.9284 29.7839 20.849 29.6979 20.7422 29.6406C20.638 29.5807 20.5065 29.5508 20.3477 29.5508C20.194 29.5508 20.0599 29.5859 19.9453 29.6562C19.8333 29.7266 19.7461 29.8216 19.6836 29.9414C19.6211 30.0612 19.5898 30.1992 19.5898 30.3555V33H18.4492V30.2812C18.4492 30.1276 18.4206 29.9961 18.3633 29.8867C18.3086 29.7773 18.2279 29.694 18.1211 29.6367C18.0169 29.5794 17.8906 29.5508 17.7422 29.5508C17.5938 29.5508 17.4622 29.5885 17.3477 29.6641C17.2357 29.737 17.1471 29.8385 17.082 29.9688C17.0169 30.0964 16.9844 30.2422 16.9844 30.4062V33H15.8438ZM23.3438 33V27.0547H24.4844V33H23.3438Z" fill="white"/>
</svg>
