<svg width="19" height="24" viewBox="0 0 19 24" fill="none" xmlns="http://www.w3.org/2000/svg">
<path d="M0 2.4C0 1.07452 1.07452 0 2.4 0H13.3L19 6V21.6C19 22.9255 17.9255 24 16.6 24H2.4C1.07452 24 0 22.9255 0 21.6V2.4Z" fill="#0C864B"/>
<path d="M5 12.875H14M5 15.125H14M7.625 12.875V17.375M5 10.625H14V17C14 17.0995 13.9605 17.1948 13.8902 17.2652C13.8198 17.3355 13.7245 17.375 13.625 17.375H5.375C5.27554 17.375 5.18016 17.3355 5.10984 17.2652C5.03951 17.1948 5 17.0995 5 17V10.625Z" stroke="white" stroke-linecap="round" stroke-linejoin="round"/>
<path opacity="0.5" d="M19 6L15.1 6C14.1059 6 13.3 5.19411 13.3 4.2V0L19 6Z" fill="white"/>
</svg>
