<svg width="20" height="20" viewBox="0 0 20 20" fill="none" xmlns="http://www.w3.org/2000/svg">
<path d="M4.98437 15.5758C5.45462 14.6495 6.17216 13.8716 7.05745 13.3282C7.94275 12.7848 8.96123 12.4972 10 12.4972C11.0388 12.4972 12.0572 12.7848 12.9425 13.3282C13.8278 13.8716 14.5454 14.6495 15.0156 15.5758M17.5 10C17.5 14.1421 14.1421 17.5 10 17.5C5.85786 17.5 2.5 14.1421 2.5 10C2.5 5.85786 5.85786 2.5 10 2.5C14.1421 2.5 17.5 5.85786 17.5 10ZM13.125 9.375C13.125 11.1009 11.7259 12.5 10 12.5C8.27411 12.5 6.875 11.1009 6.875 9.375C6.875 7.64911 8.27411 6.25 10 6.25C11.7259 6.25 13.125 7.64911 13.125 9.375Z" stroke="black" stroke-width="1.5" stroke-linecap="round" stroke-linejoin="round"/>
</svg>
