<svg width="20" height="20" viewBox="0 0 20 20" fill="none" xmlns="http://www.w3.org/2000/svg">
<path d="M3.75015 3.12492L10.0001 9.99992C10.0001 9.99992 13.8094 14.1901 16.2501 16.8749M7.50015 14.9999C7.50015 15.663 7.76354 16.2988 8.23238 16.7677C8.70122 17.2365 9.33711 17.4999 10.0001 17.4999C10.6632 17.4999 11.2991 17.2365 11.7679 16.7677C12.2368 16.2988 12.5001 15.663 12.5001 14.9999M7.22515 3.23117C8.0809 2.74583 9.04899 2.49341 10.0328 2.49912C11.0166 2.50482 11.9817 2.76845 12.8317 3.26369C13.6818 3.75893 14.3871 4.46846 14.8773 5.32147C15.3674 6.17447 15.6253 7.14111 15.6251 8.12492C15.6251 10.3984 16.0533 12.3093 16.49 13.4218M14.5455 14.9999H3.75015C3.64076 14.9993 3.53345 14.9699 3.43896 14.9148C3.34448 14.8597 3.26611 14.7807 3.2117 14.6858C3.15729 14.5909 3.12874 14.4834 3.12891 14.374C3.12907 14.2646 3.15795 14.1572 3.21265 14.0624C3.72749 13.1718 4.37515 10.9226 4.37515 8.12492C4.37327 6.97806 4.72371 5.85829 5.37905 4.91711" stroke="black" stroke-width="1.5" stroke-linecap="round" stroke-linejoin="round"/>
</svg>
