<svg width="63" height="13" viewBox="0 0 63 13" fill="none" xmlns="http://www.w3.org/2000/svg">
<path d="M3.40179 10.1079C2.70179 10.1079 2.09512 9.94927 1.58179 9.63194C1.07779 9.31461 0.685789 8.86661 0.405789 8.28794C0.135122 7.69994 -0.000210889 7.01394 -0.000210889 6.22994C-0.000210889 5.44594 0.135122 4.76461 0.405789 4.18594C0.685789 3.60727 1.07312 3.15927 1.56779 2.84194C2.07179 2.51527 2.66446 2.35194 3.34579 2.35194C3.98979 2.35194 4.55912 2.50594 5.05379 2.81394C5.54846 3.11261 5.93112 3.55127 6.20179 4.12994C6.48179 4.70861 6.62179 5.41327 6.62179 6.24394V6.59394H1.23179C1.27846 7.38727 1.48846 7.98461 1.86179 8.38594C2.24446 8.78727 2.75779 8.98794 3.40179 8.98794C3.88712 8.98794 4.28379 8.87594 4.59179 8.65194C4.90912 8.41861 5.12846 8.11527 5.24979 7.74194L6.50979 7.83994C6.31379 8.50261 5.94046 9.04861 5.38979 9.47794C4.84846 9.89794 4.18579 10.1079 3.40179 10.1079ZM1.23179 5.55794H5.33379C5.27779 4.83927 5.06779 4.31194 4.70379 3.97594C4.34912 3.63994 3.89646 3.47194 3.34579 3.47194C2.77646 3.47194 2.30512 3.64927 1.93179 4.00394C1.56779 4.34927 1.33446 4.86727 1.23179 5.55794ZM8.21473 9.93994V2.51994H9.29273L9.33473 4.39594L9.16673 4.33994C9.25073 3.92927 9.39539 3.57927 9.60073 3.28994C9.81539 2.99127 10.0767 2.76261 10.3847 2.60394C10.6927 2.43594 11.0334 2.35194 11.4067 2.35194C12.0507 2.35194 12.5734 2.52927 12.9747 2.88394C13.3854 3.23861 13.6421 3.73327 13.7447 4.36794L13.5207 4.35394C13.5954 3.92461 13.7307 3.56527 13.9267 3.27594C14.1321 2.97727 14.3934 2.74861 14.7107 2.58994C15.0281 2.43127 15.3921 2.35194 15.8027 2.35194C16.3347 2.35194 16.7827 2.46394 17.1467 2.68794C17.5107 2.90261 17.7861 3.21994 17.9727 3.63994C18.1594 4.05994 18.2527 4.56861 18.2527 5.16594V9.93994H17.0767V5.41794C17.0767 4.74594 16.9461 4.24194 16.6847 3.90594C16.4234 3.56061 16.0361 3.38794 15.5227 3.38794C15.1774 3.38794 14.8741 3.47194 14.6127 3.63994C14.3607 3.80794 14.1647 4.05061 14.0247 4.36794C13.8847 4.67594 13.8147 5.05394 13.8147 5.50194V9.93994H12.6387V5.50194C12.6387 4.83927 12.5221 4.32127 12.2887 3.94794C12.0554 3.57461 11.6634 3.38794 11.1127 3.38794C10.7674 3.38794 10.4641 3.47194 10.2027 3.63994C9.95073 3.80794 9.75006 4.05061 9.60073 4.36794C9.46073 4.68527 9.39073 5.06327 9.39073 5.50194V9.93994H8.21473ZM23.226 10.1079C22.5447 10.1079 21.9473 9.94927 21.434 9.63194C20.9207 9.31461 20.524 8.86661 20.244 8.28794C19.964 7.69994 19.824 7.01394 19.824 6.22994C19.824 5.43661 19.964 4.75061 20.244 4.17194C20.524 3.59327 20.9207 3.14527 21.434 2.82794C21.9473 2.51061 22.5447 2.35194 23.226 2.35194C23.9073 2.35194 24.5 2.51061 25.004 2.82794C25.5173 3.14527 25.914 3.59327 26.194 4.17194C26.474 4.75061 26.614 5.43661 26.614 6.22994C26.614 7.01394 26.474 7.69994 26.194 8.28794C25.914 8.86661 25.5173 9.31461 25.004 9.63194C24.5 9.94927 23.9073 10.1079 23.226 10.1079ZM23.226 8.98794C23.9073 8.98794 24.4347 8.74527 24.808 8.25994C25.1907 7.76527 25.382 7.08861 25.382 6.22994C25.382 5.37127 25.1907 4.69927 24.808 4.21394C24.4347 3.71927 23.9073 3.47194 23.226 3.47194C22.5447 3.47194 22.0127 3.71927 21.63 4.21394C21.2473 4.69927 21.056 5.37127 21.056 6.22994C21.056 7.08861 21.2473 7.76527 21.63 8.25994C22.0127 8.74527 22.5447 8.98794 23.226 8.98794ZM27.0267 12.0399V11.0039H27.6287C27.8713 11.0039 28.0673 10.9433 28.2167 10.8219C28.366 10.7099 28.4407 10.4999 28.4407 10.1919V2.51994H29.6167V10.2479C29.6167 10.9013 29.472 11.3633 29.1827 11.6339C28.8933 11.9046 28.4127 12.0399 27.7407 12.0399H27.0267ZM29.0427 1.39994C28.8467 1.39994 28.6833 1.33927 28.5527 1.21794C28.4313 1.08727 28.3707 0.914608 28.3707 0.699941C28.3707 0.494608 28.4313 0.326608 28.5527 0.195941C28.6833 0.0652742 28.8467 -5.91278e-05 29.0427 -5.91278e-05C29.2387 -5.91278e-05 29.3973 0.0652742 29.5187 0.195941C29.6493 0.326608 29.7147 0.494608 29.7147 0.699941C29.7147 0.914608 29.6493 1.08727 29.5187 1.21794C29.3973 1.33927 29.2387 1.39994 29.0427 1.39994ZM31.58 9.93994V2.51994H32.756V9.93994H31.58ZM32.182 1.39994C31.986 1.39994 31.8226 1.33927 31.692 1.21794C31.5706 1.08727 31.51 0.914608 31.51 0.699941C31.51 0.494608 31.5706 0.326608 31.692 0.195941C31.8226 0.0652742 31.986 -5.91278e-05 32.182 -5.91278e-05C32.378 -5.91278e-05 32.5366 0.0652742 32.658 0.195941C32.7886 0.326608 32.854 0.494608 32.854 0.699941C32.854 0.914608 32.7886 1.08727 32.658 1.21794C32.5366 1.33927 32.378 1.39994 32.182 1.39994ZM34.4939 6.41194V5.30594H39.1279V6.41194H34.4939ZM42.7952 10.1079C42.0298 10.1079 41.4185 9.93061 40.9612 9.57594C40.5132 9.22127 40.2892 8.72661 40.2892 8.09194C40.2892 7.45727 40.4758 6.95794 40.8492 6.59394C41.2225 6.22994 41.8152 5.97327 42.6272 5.82394L45.2592 5.33394C45.2592 4.70861 45.1098 4.24194 44.8112 3.93394C44.5218 3.62594 44.0832 3.47194 43.4952 3.47194C42.9818 3.47194 42.5758 3.58861 42.2772 3.82194C41.9785 4.04594 41.7732 4.37261 41.6612 4.80194L40.4152 4.70394C40.5552 4.00394 40.8912 3.43927 41.4232 3.00994C41.9645 2.57127 42.6552 2.35194 43.4952 2.35194C44.4472 2.35194 45.1752 2.62261 45.6792 3.16394C46.1832 3.69594 46.4352 4.43327 46.4352 5.37594V9.93994H45.3712L45.3292 8.37194L45.4552 8.39994C45.3898 8.72661 45.2265 9.02061 44.9652 9.28194C44.7038 9.53394 44.3818 9.73461 43.9992 9.88394C43.6165 10.0333 43.2152 10.1079 42.7952 10.1079ZM42.9072 9.07194C43.4018 9.07194 43.8218 8.97861 44.1672 8.79194C44.5218 8.59594 44.7925 8.33461 44.9792 8.00794C45.1658 7.67194 45.2592 7.29861 45.2592 6.88794V6.35594L42.8512 6.80394C42.3472 6.89727 41.9972 7.04194 41.8012 7.23794C41.6145 7.42461 41.5212 7.67194 41.5212 7.97994C41.5212 8.32527 41.6425 8.59594 41.8852 8.79194C42.1372 8.97861 42.4778 9.07194 42.9072 9.07194ZM51.1377 10.1079C50.4937 10.1079 49.9337 9.94927 49.4577 9.63194C48.9911 9.31461 48.6317 8.86661 48.3797 8.28794C48.1277 7.70927 48.0017 7.02327 48.0017 6.22994C48.0017 5.43661 48.1277 4.75061 48.3797 4.17194C48.6317 3.59327 48.9911 3.14527 49.4577 2.82794C49.9337 2.51061 50.4937 2.35194 51.1377 2.35194C51.6324 2.35194 52.0851 2.45927 52.4957 2.67394C52.9064 2.87927 53.2144 3.17327 53.4197 3.55594V-5.91278e-05H54.5957V9.93994H53.5317L53.4897 8.81994C53.2844 9.22127 52.9717 9.53861 52.5517 9.77194C52.1317 9.99594 51.6604 10.1079 51.1377 10.1079ZM51.3757 8.98794C51.8144 8.98794 52.1831 8.87594 52.4817 8.65194C52.7897 8.42794 53.0231 8.11061 53.1817 7.69994C53.3404 7.27994 53.4197 6.78994 53.4197 6.22994C53.4197 5.65127 53.3404 5.15661 53.1817 4.74594C53.0231 4.33527 52.7897 4.02261 52.4817 3.80794C52.1831 3.58394 51.8144 3.47194 51.3757 3.47194C50.7224 3.47194 50.1997 3.71927 49.8077 4.21394C49.4251 4.69927 49.2337 5.37127 49.2337 6.22994C49.2337 7.07927 49.4251 7.75127 49.8077 8.24594C50.1997 8.74061 50.7224 8.98794 51.3757 8.98794ZM59.3272 10.1079C58.6832 10.1079 58.1232 9.94927 57.6472 9.63194C57.1805 9.31461 56.8212 8.86661 56.5692 8.28794C56.3172 7.70927 56.1912 7.02327 56.1912 6.22994C56.1912 5.43661 56.3172 4.75061 56.5692 4.17194C56.8212 3.59327 57.1805 3.14527 57.6472 2.82794C58.1232 2.51061 58.6832 2.35194 59.3272 2.35194C59.8219 2.35194 60.2745 2.45927 60.6852 2.67394C61.0959 2.87927 61.4039 3.17327 61.6092 3.55594V-5.91278e-05H62.7852V9.93994H61.7212L61.6792 8.81994C61.4739 9.22127 61.1612 9.53861 60.7412 9.77194C60.3212 9.99594 59.8499 10.1079 59.3272 10.1079ZM59.5652 8.98794C60.0039 8.98794 60.3725 8.87594 60.6712 8.65194C60.9792 8.42794 61.2125 8.11061 61.3712 7.69994C61.5299 7.27994 61.6092 6.78994 61.6092 6.22994C61.6092 5.65127 61.5299 5.15661 61.3712 4.74594C61.2125 4.33527 60.9792 4.02261 60.6712 3.80794C60.3725 3.58394 60.0039 3.47194 59.5652 3.47194C58.9119 3.47194 58.3892 3.71927 57.9972 4.21394C57.6145 4.69927 57.4232 5.37127 57.4232 6.22994C57.4232 7.07927 57.6145 7.75127 57.9972 8.24594C58.3892 8.74061 58.9119 8.98794 59.5652 8.98794Z" fill="#1A1B25"/>
</svg>
