<svg width="20" height="20" viewBox="0 0 20 20" fill="none" xmlns="http://www.w3.org/2000/svg">
<path d="M13.75 8.125H15.625C15.7908 8.125 15.9497 8.19085 16.0669 8.30806C16.1842 8.42527 16.25 8.58424 16.25 8.75V16.25C16.25 16.4158 16.1842 16.5747 16.0669 16.6919C15.9497 16.8092 15.7908 16.875 15.625 16.875H4.375C4.20924 16.875 4.05027 16.8092 3.93306 16.6919C3.81585 16.5747 3.75 16.4158 3.75 16.25V8.75C3.75 8.58424 3.81585 8.42527 3.93306 8.30806C4.05027 8.19085 4.20924 8.125 4.375 8.125H6.25M6.875 5L10 1.875M10 1.875L13.125 5M10 1.875V10.625" stroke="black" stroke-width="1.5" stroke-linecap="round" stroke-linejoin="round"/>
</svg>
