<svg width="20" height="20" viewBox="0 0 20 20" fill="none" xmlns="http://www.w3.org/2000/svg">
<path d="M13.125 10C13.125 11.7259 11.7259 13.125 10 13.125C8.27411 13.125 6.875 11.7259 6.875 10C6.875 8.27411 8.27411 6.875 10 6.875C11.7259 6.875 13.125 8.27411 13.125 10ZM13.125 10C13.125 11.7258 13.75 13.125 15.3125 13.125C16.875 13.125 17.5 11.7258 17.5 10C17.5 8.51664 17.0601 7.0666 16.236 5.83323C15.4119 4.59986 14.2406 3.63856 12.8701 3.07091C11.4997 2.50325 9.99168 2.35472 8.53683 2.64411C7.08197 2.9335 5.7456 3.64781 4.6967 4.6967C3.64781 5.7456 2.9335 7.08197 2.64411 8.53683C2.35472 9.99168 2.50325 11.4997 3.07091 12.8701C3.63856 14.2406 4.59986 15.4119 5.83323 16.236C7.0666 17.0601 8.51664 17.5 10 17.5C11.5336 17.5 13.1867 17.0398 14.375 16.25M13.125 10V6.875" stroke="black" stroke-width="1.5" stroke-linecap="round" stroke-linejoin="round"/>
</svg>
