<svg width="20" height="20" viewBox="0 0 20 20" fill="none" xmlns="http://www.w3.org/2000/svg">
<path d="M12.8076 6.25836C13.7525 6.30974 14.6692 6.59868 15.4728 7.09845C16.2764 7.59821 16.941 8.29265 17.4049 9.11746C17.8688 9.94227 18.1172 10.8708 18.1269 11.8171C18.1367 12.7634 17.9075 13.6968 17.4607 14.531L18.0982 16.6998C18.1298 16.8075 18.1319 16.9217 18.1041 17.0304C18.0764 17.1392 18.0198 17.2385 17.9405 17.3178C17.8611 17.3972 17.7618 17.4537 17.6531 17.4815C17.5443 17.5092 17.4301 17.5072 17.3224 17.4756L15.156 16.8357C14.4404 17.2184 13.6504 17.4419 12.8404 17.4907C12.0303 17.5396 11.2192 17.4127 10.4628 17.1188C9.70632 16.8249 9.02237 16.3708 8.45781 15.7878C7.89325 15.2049 7.46143 14.5067 7.19195 13.7412M2.53882 10.781C1.90215 9.59158 1.71418 8.21294 2.00918 6.89647C2.30419 5.58 3.06253 4.41341 4.14591 3.60942C5.22929 2.80543 6.56555 2.4176 7.91103 2.51665C9.2565 2.6157 10.5216 3.19503 11.4755 4.149C12.4295 5.10297 13.0088 6.36803 13.1079 7.7135C13.2069 9.05898 12.8191 10.3952 12.0151 11.4786C11.2111 12.562 10.0445 13.3203 8.72806 13.6153C7.41159 13.9104 6.03295 13.7224 4.84351 13.0857L2.67476 13.7232C2.56707 13.7548 2.45285 13.7569 2.3441 13.7291C2.23535 13.7014 2.13608 13.6448 2.05671 13.5655C1.97735 13.4861 1.92082 13.3868 1.89307 13.2781C1.86531 13.1693 1.86735 13.0551 1.89898 12.9474L2.53882 10.781Z" stroke="black" stroke-width="1.5" stroke-linecap="round" stroke-linejoin="round"/>
</svg>
