<svg width="20" height="20" viewBox="0 0 20 20" fill="none" xmlns="http://www.w3.org/2000/svg">
<path d="M5.62496 8.125H14.375M9.99996 10.625V16.875M7.49996 16.875H12.5M1.87496 10.625C1.76837 10.6251 1.66353 10.5979 1.57041 10.546C1.47729 10.4942 1.39898 10.4193 1.34292 10.3287C1.28686 10.238 1.25493 10.1345 1.25014 10.0281C1.24536 9.92157 1.26789 9.81563 1.31558 9.72031L4.44058 3.47031C4.49254 3.36648 4.5724 3.27917 4.67121 3.21817C4.77001 3.15718 4.88385 3.12492 4.99996 3.125H15C15.1161 3.12492 15.2299 3.15718 15.3287 3.21817C15.4275 3.27917 15.5074 3.36648 15.5593 3.47031L18.6843 9.72031C18.732 9.81563 18.7546 9.92157 18.7498 10.0281C18.745 10.1345 18.7131 10.238 18.657 10.3287C18.6009 10.4193 18.5226 10.4942 18.4295 10.546C18.3364 10.5979 18.2316 10.6251 18.125 10.625H1.87496Z" stroke="black" stroke-width="1.5" stroke-linecap="round" stroke-linejoin="round"/>
</svg>
