<svg width="20" height="20" viewBox="0 0 20 20" fill="none" xmlns="http://www.w3.org/2000/svg">
<path d="M8.4375 11.25H3.125C2.95924 11.25 2.80027 11.1842 2.68306 11.0669C2.56585 10.9497 2.5 10.7908 2.5 10.625V5.625C2.5 5.45924 2.56585 5.30027 2.68306 5.18306C2.80027 5.06585 2.95924 5 3.125 5H7.8125C7.97826 5 8.13723 5.06585 8.25444 5.18306C8.37165 5.30027 8.4375 5.45924 8.4375 5.625V12.5C8.4375 13.3288 8.10826 14.1237 7.52221 14.7097C6.93616 15.2958 6.1413 15.625 5.3125 15.625M17.5 11.25H12.1875C12.0217 11.25 11.8628 11.1842 11.7456 11.0669C11.6283 10.9497 11.5625 10.7908 11.5625 10.625V5.625C11.5625 5.45924 11.6283 5.30027 11.7456 5.18306C11.8628 5.06585 12.0217 5 12.1875 5H16.875C17.0408 5 17.1997 5.06585 17.3169 5.18306C17.4342 5.30027 17.5 5.45924 17.5 5.625V12.5C17.5 13.3288 17.1708 14.1237 16.5847 14.7097C15.9987 15.2958 15.2038 15.625 14.375 15.625" stroke="black" stroke-width="1.5" stroke-linecap="round" stroke-linejoin="round"/>
</svg>
