<svg width="20" height="20" viewBox="0 0 20 20" fill="none" xmlns="http://www.w3.org/2000/svg">
<path d="M10.3125 1.875C8.24119 1.87727 6.25538 2.70111 4.79074 4.16574C3.32611 5.63038 2.50227 7.61619 2.5 9.6875V16.25C2.5 16.5815 2.6317 16.8995 2.86612 17.1339C3.10054 17.3683 3.41848 17.5 3.75 17.5H10.3125C12.3845 17.5 14.3716 16.6769 15.8368 15.2118C17.3019 13.7466 18.125 11.7595 18.125 9.6875C18.125 7.6155 17.3019 5.62836 15.8368 4.16323C14.3716 2.6981 12.3845 1.875 10.3125 1.875ZM12.8125 11.875H7.5C7.33424 11.875 7.17527 11.8092 7.05806 11.6919C6.94085 11.5747 6.875 11.4158 6.875 11.25C6.875 11.0842 6.94085 10.9253 7.05806 10.8081C7.17527 10.6908 7.33424 10.625 7.5 10.625H12.8125C12.9783 10.625 13.1372 10.6908 13.2544 10.8081C13.3717 10.9253 13.4375 11.0842 13.4375 11.25C13.4375 11.4158 13.3717 11.5747 13.2544 11.6919C13.1372 11.8092 12.9783 11.875 12.8125 11.875ZM12.8125 9.375H7.5C7.33424 9.375 7.17527 9.30915 7.05806 9.19194C6.94085 9.07473 6.875 8.91576 6.875 8.75C6.875 8.58424 6.94085 8.42527 7.05806 8.30806C7.17527 8.19085 7.33424 8.125 7.5 8.125H12.8125C12.9783 8.125 13.1372 8.19085 13.2544 8.30806C13.3717 8.42527 13.4375 8.58424 13.4375 8.75C13.4375 8.91576 13.3717 9.07473 13.2544 9.19194C13.1372 9.30915 12.9783 9.375 12.8125 9.375Z" fill="black"/>
</svg>
