<svg width="32" height="32" viewBox="0 0 32 32" fill="none" xmlns="http://www.w3.org/2000/svg">
<path d="M20 15C20 12.7909 18.2091 11 16 11C13.7909 11 12 12.7909 12 15C12 17.1686 13.7258 18.933 15.8789 18.9971C15.9193 18.9966 15.9596 18.9951 16 18.9951C16.0401 18.9951 16.0801 18.9966 16.1201 18.9971C18.2737 18.9335 20 17.1689 20 15ZM16 21C15.9618 21 15.9238 20.9978 15.8857 20.9971C14.4481 21.0176 13.042 21.4249 11.8154 22.1777C10.7815 22.8124 9.90831 23.6719 9.25879 24.6885C11.1212 26.1356 13.4589 27 16 27C18.5408 27 20.8779 26.1353 22.7402 24.6885C22.0907 23.672 21.2184 22.8123 20.1846 22.1777C18.9577 21.4247 17.5513 21.0174 16.1133 20.9971C16.0756 20.9978 16.0379 21 16 21ZM29 16C29 23.1797 23.1797 29 16 29C8.8203 29 3 23.1797 3 16C3 8.8203 8.8203 3 16 3C23.1797 3 29 8.8203 29 16ZM22 15C22 16.911 21.1048 18.6112 19.7129 19.71C20.2376 19.9198 20.7459 20.1746 21.2314 20.4727C22.4181 21.201 23.4347 22.167 24.2217 23.3037C25.9488 21.361 27 18.8039 27 16C27 9.92487 22.0751 5 16 5C9.92487 5 5 9.92487 5 16C5 18.8037 6.0505 21.361 7.77734 23.3037C8.56434 22.1668 9.58174 21.2011 10.7686 20.4727C11.2539 20.1748 11.7617 19.9197 12.2861 19.71C10.8945 18.6112 10 16.9107 10 15C10 11.6863 12.6863 9 16 9C19.3137 9 22 11.6863 22 15Z" fill="black"/>
</svg>
