<svg width="32" height="32" viewBox="0 0 32 32" fill="none" xmlns="http://www.w3.org/2000/svg">
<path d="M26 13H6V24H26V13ZM19 16C19.5523 16 20 16.4477 20 17C20 17.5523 19.5523 18 19 18H13C12.4477 18 12 17.5523 12 17C12 16.4477 12.4477 16 13 16H19ZM4 8V11H28V8H4ZM30 11C30 12.1046 29.1046 13 28 13V24C28 24.5304 27.7891 25.039 27.4141 25.4141C27.039 25.7891 26.5304 26 26 26H6C5.46957 26 4.96101 25.7891 4.58594 25.4141C4.21087 25.039 4 24.5304 4 24V13C2.89543 13 2 12.1046 2 11V8C2 6.89543 2.89543 6 4 6H28C29.1046 6 30 6.89543 30 8V11Z" fill="black"/>
</svg>
