<svg width="32" height="32" viewBox="0 0 32 32" fill="none" xmlns="http://www.w3.org/2000/svg">
<path d="M27 16C27 9.92487 22.0751 5 16 5C9.92487 5 5 9.92487 5 16C5 22.0751 9.92487 27 16 27C22.0751 27 27 22.0751 27 16ZM15 11C15 10.4477 15.4477 10 16 10C16.5523 10 17 10.4477 17 11V18.5859L19.293 16.293C19.6835 15.9024 20.3165 15.9024 20.707 16.293C21.0976 16.6835 21.0976 17.3165 20.707 17.707L16.707 21.707C16.3165 22.0976 15.6835 22.0976 15.293 21.707L11.293 17.707C10.9024 17.3165 10.9024 16.6835 11.293 16.293C11.6835 15.9024 12.3165 15.9024 12.707 16.293L15 18.5859V11ZM29 16C29 23.1797 23.1797 29 16 29C8.8203 29 3 23.1797 3 16C3 8.8203 8.8203 3 16 3C23.1797 3 29 8.8203 29 16Z" fill="black"/>
</svg>
