<svg width="32" height="32" viewBox="0 0 32 32" fill="none" xmlns="http://www.w3.org/2000/svg">
<path d="M25.0005 7.99957C25.0004 7.20397 24.6842 6.44107 24.1216 5.87848C23.559 5.3159 22.7962 4.99967 22.0005 4.99957C21.2048 4.99957 20.4412 5.31578 19.8785 5.87848L7.4693 18.4576L7.47027 18.4586C6.5452 19.3988 6.02935 20.6669 6.03472 21.9859C6.04011 23.3049 6.56692 24.5679 7.49957 25.5005C8.43223 26.4332 9.69525 26.96 11.0142 26.9654C12.3307 26.9708 13.596 26.4565 14.5357 25.5347L24.7935 15.2925C25.1843 14.9023 25.8173 14.9028 26.2076 15.2935C26.5978 15.6843 26.5974 16.3173 26.2066 16.7076L15.9488 26.9498L15.9439 26.9556C14.6276 28.2506 12.8529 28.9729 11.0064 28.9654C9.15978 28.9579 7.3903 28.2214 6.08453 26.9156C4.77878 25.6098 4.04224 23.8403 4.03473 21.9937C4.02728 20.1473 4.74957 18.3725 6.04449 17.0562L6.04547 17.0552L18.4595 4.4693L18.4644 4.46442C19.4022 3.52665 20.6743 2.99957 22.0005 2.99957C23.3266 2.99967 24.598 3.52676 25.5357 4.46442C26.4734 5.40208 27.0004 6.67353 27.0005 7.99957C27.0005 9.32351 26.4744 10.5925 25.5396 11.5298L25.5406 11.5308L13.1275 24.1158C13.1225 24.1208 13.117 24.1265 13.1119 24.1314C12.5468 24.6803 11.7883 24.9846 11.0005 24.9791C10.2126 24.9735 9.45828 24.6582 8.90094 24.1011C8.34357 23.544 8.02796 22.7896 8.02203 22.0015C8.01621 21.2138 8.3201 20.4555 8.86871 19.8902L8.87359 19.8853L19.2877 9.2984C19.675 8.90507 20.3081 8.89959 20.7017 9.28668C21.0954 9.67399 21.1007 10.308 20.7134 10.7017L10.3033 21.2818L10.3043 21.2828C10.1213 21.4713 10.0191 21.7242 10.0211 21.9869C10.023 22.2496 10.1292 22.5014 10.315 22.6871C10.5007 22.8724 10.7518 22.9772 11.0142 22.9791C11.2768 22.9809 11.5299 22.8798 11.7183 22.6968L24.1168 10.1265L24.1216 10.1216C24.6843 9.55895 25.0005 8.79534 25.0005 7.99957Z" fill="black"/>
</svg>
