<svg width="32" height="32" viewBox="0 0 32 32" fill="none" xmlns="http://www.w3.org/2000/svg">
<path d="M19.3857 3.21092C19.6872 2.97643 20.0964 2.93374 20.4395 3.10154C20.7825 3.26935 21 3.61806 21 3.99998V28C21 28.3819 20.7825 28.7306 20.4395 28.8984C20.0964 29.0662 19.6872 29.0235 19.3857 28.789L10.6572 22H5C4.46957 22 3.96101 21.7891 3.58594 21.414C3.21087 21.039 3 20.5304 3 20V12C3 11.4695 3.21087 10.961 3.58594 10.5859C3.96101 10.2108 4.46957 9.99998 5 9.99998H10.6572L19.3857 3.21092ZM28 21V11C28 10.4477 28.4477 9.99998 29 9.99998C29.5523 9.99998 30 10.4477 30 11V21C30 21.5523 29.5523 22 29 22C28.4477 22 28 21.5523 28 21ZM24 19V13C24 12.4477 24.4477 12 25 12C25.5523 12 26 12.4477 26 13V19C26 19.5523 25.5523 20 25 20C24.4477 20 24 19.5523 24 19ZM5 20H11C11.2224 20 11.4387 20.0744 11.6143 20.2109L19 25.9551V6.04393L11.6143 11.789C11.4387 11.9256 11.2224 12 11 12H5V20Z" fill="black"/>
</svg>
