<svg width="32" height="32" viewBox="0 0 32 32" fill="none" xmlns="http://www.w3.org/2000/svg">
<path d="M24 13C24 10.8783 23.1565 8.84307 21.6563 7.34277C20.156 5.84277 18.1215 5.00004 16 5C13.8783 5 11.8431 5.84253 10.3428 7.34277C8.84248 8.84306 8 10.8783 8 13C8 17.2992 7.07293 20.8983 6.18262 22.6709L6.00586 23H25.9961C25.0549 21.3734 24 17.5859 24 13ZM13.1758 25C13.3236 25.4174 13.5599 25.802 13.8789 26.1211C14.4415 26.6837 15.2044 27 16 27C16.7956 27 17.5585 26.6837 18.1211 26.1211C18.4401 25.802 18.6764 25.4174 18.8242 25H13.1758ZM26 13C26 17.0951 26.8959 20.3453 27.5918 21.7441L27.7275 21.999L27.7285 22C27.9037 22.3034 27.9958 22.6477 27.9961 22.998C27.9964 23.3485 27.9052 23.6933 27.7305 23.9971C27.5558 24.3009 27.304 24.5535 27.001 24.7295C26.6979 24.9055 26.3534 24.9988 26.0029 25H20.8984C20.7038 25.9534 20.2335 26.8368 19.5352 27.5352C18.5975 28.4728 17.326 29 16 29C14.6739 29 13.4016 28.4728 12.4639 27.5352C11.7657 26.8369 11.2962 25.9532 11.1016 25H5.99414C5.6441 24.9979 5.30042 24.9039 4.99805 24.7275C4.69573 24.5512 4.44462 24.2987 4.27051 23.9951C4.09641 23.6915 4.00535 23.3471 4.00586 22.9971C4.00639 22.6471 4.09847 22.3031 4.27344 22C4.98109 20.7758 6 17.367 6 13C6 10.3478 7.05335 7.80407 8.92871 5.92871C10.8041 4.0534 13.3479 3 16 3C18.6521 3.00004 21.196 4.05338 23.0713 5.92871C24.9466 7.80407 26 10.3479 26 13Z" fill="black"/>
</svg>
