<svg width="32" height="32" viewBox="0 0 32 32" fill="none" xmlns="http://www.w3.org/2000/svg">
<path d="M5.32715 4.26042C5.73581 3.88891 6.36873 3.91915 6.74024 4.3278L26.7402 26.3278C27.1113 26.7364 27.0811 27.3685 26.6729 27.7399C26.2642 28.1114 25.6313 28.0812 25.2598 27.6725L22.8301 24.9997H20.8984C20.7038 25.9533 20.2336 26.8373 19.5352 27.5358C18.5975 28.4733 17.3259 28.9996 16 28.9997C14.6739 28.9997 13.4016 28.4735 12.4639 27.5358C11.7655 26.8374 11.2961 25.9532 11.1016 24.9997H5.99414C5.6441 24.9976 5.30042 24.9036 4.99805 24.7272C4.69577 24.5508 4.44458 24.2984 4.27051 23.9948C4.09648 23.6912 4.00533 23.3467 4.00586 22.9967C4.00646 22.6468 4.09847 22.3027 4.27344 21.9997C4.93686 20.8519 5.87386 17.7844 5.98828 13.8073L6 12.9997C5.99747 11.2295 6.46642 9.49562 7.35254 7.97429L5.25977 5.67253C4.88851 5.26391 4.91868 4.63188 5.32715 4.26042ZM13.1758 24.9997C13.3236 25.4172 13.5597 25.8026 13.8789 26.1217C14.4415 26.6841 15.2045 26.9997 16 26.9997C16.7955 26.9996 17.5585 26.6842 18.1211 26.1217C18.4403 25.8026 18.6764 25.4172 18.8242 24.9997H13.1758ZM8.78223 9.54655C8.26808 10.6191 7.99804 11.7984 8 12.9987C8 17.5831 6.94651 21.3732 6.00684 22.9997H21.0117L8.78223 9.54655ZM16.0576 2.9987C17.8066 3.00885 19.523 3.47765 21.0342 4.35808C22.5452 5.23845 23.7986 6.50003 24.6699 8.01628C25.5412 9.53255 26.0002 11.2509 26 12.9997L26.0078 13.654C26.0834 16.8873 26.7065 19.5614 27.3145 21.11C27.5161 21.624 27.263 22.2041 26.749 22.4059C26.235 22.6077 25.655 22.3545 25.4531 21.8405C24.7041 19.9323 24 16.749 24 12.9997C24.0002 11.6006 23.6336 10.2254 22.9365 9.01237C22.2395 7.79945 21.2361 6.79088 20.0273 6.08659C18.8184 5.38225 17.4451 5.00682 16.0459 4.9987C14.6469 4.99065 13.2697 5.34951 12.0527 6.03972C11.5725 6.31193 10.963 6.14377 10.6904 5.66374C10.418 5.18339 10.5861 4.57296 11.0664 4.30046C12.5877 3.43766 14.3087 2.9886 16.0576 2.9987Z" fill="black"/>
</svg>
