<svg width="32" height="32" viewBox="0 0 32 32" fill="none" xmlns="http://www.w3.org/2000/svg">
<path d="M26.7312 15.6825L12.7312 30.6825C12.5828 30.8408 12.387 30.9466 12.1732 30.9839C11.9595 31.0211 11.7394 30.9879 11.5462 30.8891C11.353 30.7903 11.1972 30.6314 11.1023 30.4363C11.0073 30.2412 10.9784 30.0205 11.0199 29.8075L12.8524 20.6412L5.64867 17.9362C5.49396 17.8784 5.356 17.7831 5.2471 17.6589C5.13821 17.5347 5.06177 17.3854 5.02463 17.2245C4.98749 17.0635 4.9908 16.8959 5.03425 16.7365C5.07771 16.5772 5.15997 16.431 5.27367 16.3112L19.2737 1.31124C19.422 1.15291 19.6179 1.04713 19.8316 1.00986C20.0454 0.972589 20.2655 1.00586 20.4586 1.10464C20.6518 1.20342 20.8076 1.36236 20.9026 1.55746C20.9975 1.75257 21.0264 1.97326 20.9849 2.18624L19.1474 11.3625L26.3512 14.0637C26.5047 14.122 26.6416 14.2172 26.7496 14.3409C26.8577 14.4646 26.9336 14.613 26.9707 14.773C27.0077 14.933 27.0048 15.0997 26.9622 15.2583C26.9195 15.417 26.8385 15.5626 26.7262 15.6825H26.7312Z" fill="black"/>
</svg>
