<svg width="32" height="32" viewBox="0 0 32 32" fill="none" xmlns="http://www.w3.org/2000/svg">
<path d="M27 10C27 9.73478 26.8946 9.4805 26.707 9.29297C26.5195 9.10543 26.2652 9 26 9H22C21.6656 9 21.3534 8.83289 21.168 8.55469L19.4648 6H12.5352L10.832 8.55469C10.6466 8.83289 10.3344 9 10 9H6C5.73478 9 5.48051 9.10543 5.29297 9.29297C5.10543 9.4805 5 9.73478 5 10V24C5 24.2652 5.10543 24.5195 5.29297 24.707C5.48051 24.8946 5.73478 25 6 25H26C26.2652 25 26.5195 24.8946 26.707 24.707C26.8946 24.5195 27 24.2652 27 24V10ZM19.5 16.5C19.5 14.567 17.933 13 16 13C14.067 13 12.5 14.567 12.5 16.5C12.5 18.433 14.067 20 16 20C17.933 20 19.5 18.433 19.5 16.5ZM21.5 16.5C21.5 19.5376 19.0376 22 16 22C12.9624 22 10.5 19.5376 10.5 16.5C10.5 13.4624 12.9624 11 16 11C19.0376 11 21.5 13.4624 21.5 16.5ZM29 24C29 24.7957 28.6837 25.5585 28.1211 26.1211C27.5585 26.6837 26.7957 27 26 27H6C5.20435 27 4.44152 26.6837 3.87891 26.1211C3.3163 25.5585 3 24.7957 3 24V10C3 9.20435 3.3163 8.44152 3.87891 7.87891C4.44152 7.3163 5.20435 7 6 7H9.46484L11.168 4.44531L11.2432 4.34668C11.4318 4.12817 11.7073 4 12 4H20C20.3344 4 20.6466 4.16711 20.832 4.44531L22.5352 7H26C26.7957 7 27.5585 7.3163 28.1211 7.87891C28.6837 8.44152 29 9.20435 29 10V24Z" fill="black"/>
</svg>
