<svg width="32" height="32" viewBox="0 0 32 32" fill="none" xmlns="http://www.w3.org/2000/svg">
<path d="M20.2801 8.90181C20.674 8.5151 21.3072 8.52085 21.6942 8.91451C22.0812 9.30853 22.0755 9.94256 21.6815 10.3295L8.67464 23.103C8.28564 23.485 7.66227 23.485 7.27327 23.103L1.70003 17.6294C1.30607 17.2425 1.29964 16.6094 1.68636 16.2153C2.07329 15.8213 2.70637 15.8157 3.10042 16.2026L7.97347 20.9877L20.2801 8.90181ZM28.8993 8.90181C29.2931 8.51503 29.9263 8.52092 30.3133 8.91451C30.7003 9.30853 30.6946 9.94256 30.3006 10.3295L17.2948 23.103C16.9007 23.49 16.2677 23.4843 15.8807 23.0903C15.4937 22.6963 15.4994 22.0632 15.8934 21.6762L28.8993 8.90181Z" fill="black"/>
</svg>
