<svg width="32" height="32" viewBox="0 0 32 32" fill="none" xmlns="http://www.w3.org/2000/svg">
<path d="M5 7V25H27V7H5ZM9.21875 11.375C9.56376 10.9437 10.1937 10.8737 10.625 11.2188L15.625 15.2188C15.8622 15.4085 16 15.6962 16 16C16 16.3038 15.8622 16.5915 15.625 16.7812L10.625 20.7812C10.1937 21.1263 9.56376 21.0563 9.21875 20.625C8.87374 20.1937 8.94374 19.5638 9.375 19.2188L13.3984 16L9.375 12.7812C8.94374 12.4362 8.87374 11.8063 9.21875 11.375ZM22 19C22.5523 19 23 19.4477 23 20C23 20.5523 22.5523 21 22 21H17C16.4477 21 16 20.5523 16 20C16 19.4477 16.4477 19 17 19H22ZM29 25C29 26.1046 28.1046 27 27 27H5C3.89543 27 3 26.1046 3 25V7C3 5.89543 3.89543 5 5 5H27C28.1046 5 29 5.89543 29 7V25Z" fill="black"/>
</svg>
