<svg width="32" height="32" viewBox="0 0 32 32" fill="none" xmlns="http://www.w3.org/2000/svg">
<path d="M24 8H8V26H24V8ZM12 21V13C12 12.4477 12.4477 12 13 12C13.5523 12 14 12.4477 14 13V21C14 21.5523 13.5523 22 13 22C12.4477 22 12 21.5523 12 21ZM18 21V13C18 12.4477 18.4477 12 19 12C19.5523 12 20 12.4477 20 13V21C20 21.5523 19.5523 22 19 22C18.4477 22 18 21.5523 18 21ZM20 5C20 4.73478 19.8946 4.48051 19.707 4.29297C19.5195 4.10543 19.2652 4 19 4H13C12.7348 4 12.4805 4.10543 12.293 4.29297C12.1054 4.48051 12 4.73478 12 5V6H20V5ZM22 6H27C27.5523 6 28 6.44772 28 7C28 7.55228 27.5523 8 27 8H26V26C26 26.5304 25.7891 27.039 25.4141 27.4141C25.039 27.7891 24.5304 28 24 28H8C7.46957 28 6.96101 27.7891 6.58594 27.4141C6.21087 27.039 6 26.5304 6 26V8H5C4.44772 8 4 7.55228 4 7C4 6.44772 4.44772 6 5 6H10V5C10 4.20435 10.3163 3.44152 10.8789 2.87891C11.4415 2.3163 12.2044 2 13 2H19C19.7956 2 20.5585 2.3163 21.1211 2.87891C21.6837 3.44152 22 4.20435 22 5V6Z" fill="black"/>
</svg>
