<svg width="32" height="32" viewBox="0 0 32 32" fill="none" xmlns="http://www.w3.org/2000/svg">
<path d="M27 10.5808L21.4141 4.99976L18.4141 7.99976L23.998 13.5837L27 10.5808ZM11.5859 25.9998L22.584 14.9978L17 9.41382L6 20.4148V25.9998H11.5859ZM29 10.5818C29 11.112 28.7898 11.6208 28.415 11.9958L24.7236 15.6873C24.7178 15.6934 24.7131 15.7007 24.707 15.7068C24.7 15.7138 24.6917 15.7196 24.6846 15.7263L13 27.4148C12.6253 27.7891 12.1166 27.9995 11.5869 27.9998H6C5.46957 27.9998 4.96101 27.7889 4.58594 27.4138C4.21092 27.0388 4 26.5301 4 25.9998V20.4128L4.00977 20.2156C4.05536 19.7584 4.25746 19.3286 4.58496 19.0007L20.001 3.58472C20.3759 3.21022 20.8841 2.99984 21.4141 2.99976C21.9442 2.99976 22.4531 3.21004 22.8281 3.58472L28.4141 9.16772C28.7889 9.54276 29 10.0516 29 10.5818Z" fill="black"/>
</svg>
