<svg width="32" height="32" viewBox="0 0 32 32" fill="none" xmlns="http://www.w3.org/2000/svg">
<path d="M27 16C27 9.92487 22.0751 5 16 5C9.92487 5 5 9.92487 5 16C5 22.0751 9.92487 27 16 27C22.0751 27 27 22.0751 27 16ZM29 16C29 23.1797 23.1797 29 16 29C8.8203 29 3 23.1797 3 16C3 8.8203 8.8203 3 16 3C23.1797 3 29 8.8203 29 16Z" fill="black"/>
<path d="M11.5 15C12.3284 15 13 14.3284 13 13.5C13 12.6716 12.3284 12 11.5 12C10.6716 12 10 12.6716 10 13.5C10 14.3284 10.6716 15 11.5 15Z" fill="black"/>
<path d="M20.5 15C21.3284 15 22 14.3284 22 13.5C22 12.6716 21.3284 12 20.5 12C19.6716 12 19 12.6716 19 13.5C19 14.3284 19.6716 15 20.5 15Z" fill="black"/>
<path d="M20.1348 18.499C20.4114 18.0213 21.023 17.8583 21.501 18.1348C21.9787 18.4114 22.1417 19.023 21.8652 19.501C20.6765 21.556 18.6298 23 16 23C13.3702 23 11.3235 21.556 10.1348 19.501C9.85832 19.023 10.0213 18.4114 10.499 18.1348C10.977 17.8583 11.5886 18.0213 11.8652 18.499C12.7515 20.0313 14.1874 21 16 21C17.8126 21 19.2485 20.0313 20.1348 18.499Z" fill="black"/>
</svg>
