<svg width="32" height="32" viewBox="0 0 32 32" fill="none" xmlns="http://www.w3.org/2000/svg">
<path d="M3 16C3 8.82035 8.8203 3.00005 16 3.00005C16.5523 3.00005 17 3.44776 17 4.00005C17 4.55233 16.5523 5.00005 16 5.00005C9.92487 5.00005 5 9.92492 5 16C5 22.0752 9.92487 27 16 27C22.0751 27 27 22.0752 27 16C27 15.4478 27.4477 15 28 15C28.5523 15 29 15.4478 29 16C29 23.1798 23.1797 29 16 29C8.8203 29 3 23.1798 3 16Z" fill="black"/>
<path d="M11.5 15C12.3284 15 13 14.3285 13 13.5C13 12.6716 12.3284 12 11.5 12C10.6716 12 10 12.6716 10 13.5C10 14.3285 10.6716 15 11.5 15Z" fill="black"/>
<path d="M20.5 15C21.3284 15 22 14.3285 22 13.5C22 12.6716 21.3284 12 20.5 12C19.6716 12 19 12.6716 19 13.5C19 14.3285 19.6716 15 20.5 15Z" fill="black"/>
<path d="M20.1348 18.4991C20.4114 18.0213 21.023 17.8584 21.501 18.1348C21.9787 18.4114 22.1417 19.0231 21.8652 19.501C20.6765 21.556 18.6298 23 16 23C13.3702 23 11.3235 21.556 10.1348 19.501C9.85832 19.0231 10.0213 18.4114 10.499 18.1348C10.977 17.8584 11.5886 18.0213 11.8652 18.4991C12.7515 20.0313 14.1874 21 16 21C17.8126 21 19.2485 20.0313 20.1348 18.4991Z" fill="black"/>
<path d="M24.333 11.0002V7.66626H21C20.4477 7.66626 20 7.21854 20 6.66626C20.0002 6.11412 20.4478 5.66626 21 5.66626H24.333V2.33325C24.333 1.78108 24.7809 1.33343 25.333 1.33325C25.8853 1.33325 26.333 1.78097 26.333 2.33325V5.66626H29.667C30.219 5.66644 30.6668 6.11423 30.667 6.66626C30.667 7.21844 30.2191 7.66608 29.667 7.66626H26.333V11.0002C26.3328 11.5524 25.8852 12.0002 25.333 12.0002C24.781 12.0001 24.3332 11.5523 24.333 11.0002Z" fill="black"/>
</svg>
