<svg width="32" height="32" viewBox="0 0 32 32" fill="none" xmlns="http://www.w3.org/2000/svg">
<path d="M5 26V14C5 13.4696 5.21087 12.961 5.58594 12.5859C5.96101 12.2109 6.46957 12 7 12H10C10.5523 12 11 12.4477 11 13C11 13.5523 10.5523 14 10 14H7V26H25V14H22C21.4477 14 21 13.5523 21 13C21 12.4477 21.4477 12 22 12H25C25.5304 12 26.039 12.2109 26.4141 12.5859C26.7891 12.961 27 13.4696 27 14V26C27 26.5304 26.7891 27.039 26.4141 27.4141C26.039 27.7891 25.5304 28 25 28H7C6.46957 28 5.96101 27.7891 5.58594 27.4141C5.21087 27.039 5 26.5304 5 26ZM15 17V5.41407L11.707 8.70704C11.3165 9.09757 10.6835 9.09757 10.293 8.70704C9.90244 8.31652 9.90244 7.6835 10.293 7.29298L15.293 2.29298L15.3691 2.22462C15.7619 1.90427 16.3409 1.92686 16.707 2.29298L21.707 7.29298C22.0976 7.6835 22.0976 8.31652 21.707 8.70704C21.3165 9.09757 20.6835 9.09757 20.293 8.70704L17 5.41407V17C17 17.5523 16.5523 18 16 18C15.4477 18 15 17.5523 15 17Z" fill="black"/>
</svg>
