<svg width="32" height="32" viewBox="0 0 32 32" fill="none" xmlns="http://www.w3.org/2000/svg">
<path d="M20 10H23.5859L20 6.41406V10ZM27 27C27 27.5304 26.7891 28.039 26.4141 28.4141C26.039 28.7891 25.5304 29 25 29H7C6.46957 29 5.96101 28.7891 5.58594 28.4141C5.21087 28.039 5 27.5304 5 27V5C5 4.46957 5.21087 3.96101 5.58594 3.58594C5.96101 3.21087 6.46957 3 7 3H19C19.2652 3 19.5195 3.10543 19.707 3.29297L26.707 10.293C26.8946 10.4805 27 10.7348 27 11V27ZM7 27H25V12H19C18.4477 12 18 11.5523 18 11V5H7V27Z" fill="black"/>
</svg>
