<svg width="32" height="32" viewBox="0 0 32 32" fill="none" xmlns="http://www.w3.org/2000/svg">
<path d="M5 27.9998V6.99981C5.00005 6.70974 5.12643 6.43386 5.3457 6.24395C7.54981 4.3351 9.70273 3.80729 11.8057 4.0584C13.8202 4.29906 15.729 5.25486 17.4434 6.10333C19.2287 6.98693 20.8205 7.76341 22.4307 7.95586C23.9525 8.13767 25.5501 7.79915 27.3457 6.24395C27.6415 5.98794 28.0592 5.9282 28.415 6.09063C28.7711 6.25327 28.9999 6.60841 29 6.99981V21.9998C29 22.2899 28.8736 22.5657 28.6543 22.7557C26.4501 24.6646 24.2973 25.1923 22.1943 24.9412C20.1797 24.7005 18.271 23.7448 16.5566 22.8963C14.7712 22.0127 13.1795 21.2362 11.5693 21.0438C10.1458 20.8737 8.65615 21.1591 7 22.4695V27.9998C7 28.5521 6.55228 28.9998 6 28.9998C5.44772 28.9998 5 28.5521 5 27.9998ZM11.5693 6.04376C10.1458 5.87369 8.65615 6.15906 7 7.46954V20.0555C8.63022 19.1187 10.232 18.8705 11.8057 19.0584C13.8202 19.2991 15.729 20.2549 17.4434 21.1033C19.2287 21.9869 20.8205 22.7634 22.4307 22.9559C23.8544 23.1259 25.3436 22.84 27 21.5291V8.94317C25.3696 9.88026 23.7682 10.1292 22.1943 9.94122C20.1797 9.70055 18.271 8.74477 16.5566 7.89629C14.7712 7.01268 13.1795 6.23621 11.5693 6.04376Z" fill="black"/>
</svg>
