<svg width="32" height="32" viewBox="0 0 32 32" fill="none" xmlns="http://www.w3.org/2000/svg">
<path d="M29 25.1113C29 25.6122 28.8015 26.0931 28.4473 26.4473C28.0931 26.8015 27.6122 27 27.1113 27H5C4.46957 27 3.96101 26.7891 3.58594 26.4141C3.21087 26.039 3 25.5304 3 25V8C3 7.46957 3.21087 6.96101 3.58594 6.58594C3.96101 6.21087 4.46957 6 5 6H11.666C12.0988 6 12.52 6.14075 12.8662 6.40039L16.333 9H27C27.5304 9 28.039 9.21087 28.4141 9.58594C28.7891 9.96101 29 10.4696 29 11V25.1113ZM5 25H27V11H16C15.7837 11 15.5735 10.9296 15.4004 10.7998L11.666 8H5V25Z" fill="black"/>
</svg>
