<svg width="32" height="32" viewBox="0 0 32 32" fill="none" xmlns="http://www.w3.org/2000/svg">
<path d="M7 19V25H13V19H7ZM19 19V25H25V19H19ZM7 7V13H13V7H7ZM19 7V13H25V7H19ZM15 25C15 26.1046 14.1046 27 13 27H7C5.89543 27 5 26.1046 5 25V19C5 17.8954 5.89543 17 7 17H13C14.1046 17 15 17.8954 15 19V25ZM27 25C27 26.1046 26.1046 27 25 27H19C17.8954 27 17 26.1046 17 25V19C17 17.8954 17.8954 17 19 17H25C26.1046 17 27 17.8954 27 19V25ZM15 13C15 14.1046 14.1046 15 13 15H7C5.89543 15 5 14.1046 5 13V7C5 5.89543 5.89543 5 7 5H13C14.1046 5 15 5.89543 15 7V13ZM27 13C27 14.1046 26.1046 15 25 15H19C17.8954 15 17 14.1046 17 13V7C17 5.89543 17.8954 5 19 5H25C26.1046 5 27 5.89543 27 7V13Z" fill="black"/>
</svg>
