<svg width="32" height="32" viewBox="0 0 32 32" fill="none" xmlns="http://www.w3.org/2000/svg">
<path d="M26 18.5L21.5 14L9.5 26H26V18.5ZM13 12C13 11.4477 12.5523 11 12 11C11.4477 11 11 11.4477 11 12C11 12.5523 11.4477 13 12 13C12.5523 13 13 12.5523 13 12ZM6 6V26H6.67188L20.085 12.585C20.2706 12.3992 20.4918 12.2519 20.7344 12.1514C20.9771 12.0508 21.2373 11.999 21.5 11.999C21.7627 11.999 22.0229 12.0508 22.2656 12.1514C22.5084 12.252 22.7293 12.4 22.915 12.5859L26 15.6709V6H6ZM15 12C15 13.6569 13.6569 15 12 15C10.3431 15 9 13.6569 9 12C9 10.3431 10.3431 9 12 9C13.6569 9 15 10.3431 15 12ZM28 26C28 27.1046 27.1046 28 26 28H6C4.89543 28 4 27.1046 4 26V6C4 4.89543 4.89543 4 6 4H26C27.1046 4 28 4.89543 28 6V26Z" fill="black"/>
</svg>
