<svg width="32" height="32" viewBox="0 0 32 32" fill="none" xmlns="http://www.w3.org/2000/svg">
<rect width="32" height="32" rx="16" fill="black"/>
<path d="M17.8142 22.7369C17.8142 23.6205 17.6669 24.2745 17.3726 24.6979C17.0787 25.1213 16.6263 25.3332 16.0154 25.3332C15.3971 25.3332 14.9372 25.1193 14.6355 24.6925C14.3338 24.2654 14.1831 23.6135 14.1831 22.7369V15.5669C14.1831 14.6903 14.3321 14.0409 14.6301 13.617C14.9277 13.1932 15.3892 12.9817 16.0154 12.9817C16.6263 12.9817 17.0787 13.1932 17.373 13.617C17.6673 14.0409 17.8142 14.6903 17.8142 15.5669V22.7369Z" fill="white"/>
<path d="M13.9019 8.73251C13.9019 8.16547 14.1088 7.67956 14.5235 7.27435C14.9383 6.86914 15.4362 6.66675 16.0169 6.66675C16.5897 6.66675 17.0806 6.86956 17.487 7.27435C17.8947 7.67956 18.098 8.16547 18.098 8.73251C18.098 9.30701 17.896 9.79334 17.4928 10.1911C17.0893 10.5884 16.5976 10.7871 16.0169 10.7871C15.4213 10.7871 14.92 10.5884 14.5128 10.1911C14.1055 9.79292 13.9019 9.30701 13.9019 8.73251Z" fill="#5BBF8C"/>
</svg>
