<svg width="32" height="32" viewBox="0 0 32 32" fill="none" xmlns="http://www.w3.org/2000/svg">
<path d="M27 16C27 9.92487 22.0751 5 16 5C9.92487 5 5 9.92487 5 16C5 22.0751 9.92487 27 16 27C22.0751 27 27 22.0751 27 16ZM29 16C29 23.1797 23.1797 29 16 29C8.8203 29 3 23.1797 3 16C3 8.8203 8.8203 3 16 3C23.1797 3 29 8.8203 29 16Z" fill="black"/>
<path d="M15 21V16C14.4477 16 14 15.5523 14 15C14 14.4477 14.4477 14 15 14C15.5304 14 16.039 14.2109 16.4141 14.5859C16.7891 14.961 17 15.4696 17 16V21C17.5523 21 18 21.4477 18 22C18 22.5523 17.5523 23 17 23C16.4696 23 15.961 22.7891 15.5859 22.4141C15.2109 22.039 15 21.5304 15 21Z" fill="black"/>
<path d="M15.5 12C16.3284 12 17 11.3284 17 10.5C17 9.67157 16.3284 9 15.5 9C14.6716 9 14 9.67157 14 10.5C14 11.3284 14.6716 12 15.5 12Z" fill="black"/>
</svg>
