<svg width="32" height="32" viewBox="0 0 32 32" fill="none" xmlns="http://www.w3.org/2000/svg">
<path d="M14 4C14.5523 4 15 4.44772 15 5C15 5.55228 14.5523 6 14 6H7V26H14C14.5523 26 15 26.4477 15 27C15 27.5523 14.5523 28 14 28H6C5.44772 28 5 27.5523 5 27V5C5 4.44772 5.44772 4 6 4H14ZM22.293 10.293C22.6835 9.90244 23.3165 9.90244 23.707 10.293L28.707 15.293C29.0976 15.6835 29.0976 16.3165 28.707 16.707L23.707 21.707C23.3165 22.0976 22.6835 22.0976 22.293 21.707C21.9024 21.3165 21.9024 20.6835 22.293 20.293L25.5859 17H14C13.4477 17 13 16.5523 13 16C13 15.4477 13.4477 15 14 15H25.5859L22.293 11.707C21.9024 11.3165 21.9024 10.6835 22.293 10.293Z" fill="black"/>
</svg>
