<svg width="32" height="32" viewBox="0 0 32 32" fill="none" xmlns="http://www.w3.org/2000/svg">
<path d="M8.80523 13.2935C9.19536 12.9026 9.82936 12.9015 10.2203 13.2916C10.6112 13.6817 10.6114 14.3157 10.2212 14.7066L6.47516 18.4576L6.47613 18.4586C5.55112 19.3988 5.03521 20.6669 5.04059 21.9859C5.04604 23.3048 5.57281 24.5679 6.50543 25.5005C7.43808 26.4332 8.70115 26.96 10.0201 26.9654C11.3361 26.9707 12.601 26.4568 13.5406 25.5357L17.2925 21.7779C17.6828 21.3875 18.3159 21.3869 18.7066 21.7769C19.0973 22.167 19.0975 22.8001 18.7076 23.191L14.9498 26.9556L14.9488 26.9546C13.6325 28.2495 11.8587 28.9729 10.0123 28.9654C8.16564 28.9579 6.39616 28.2204 5.09039 26.9146C3.78487 25.6089 3.0481 23.8401 3.04059 21.9937C3.03307 20.1472 3.75545 18.3725 5.05035 17.0562L5.05523 17.0513L8.80523 13.2935ZM19.2925 11.2925C19.683 10.9021 20.3161 10.9022 20.7066 11.2925C21.0971 11.6831 21.0971 12.3161 20.7066 12.7066L12.7066 20.7066C12.3161 21.0971 11.6831 21.0971 11.2925 20.7066C10.9022 20.3161 10.9021 19.683 11.2925 19.2925L19.2925 11.2925ZM21.9937 3.04059C23.8401 3.0481 25.6089 3.78487 26.9146 5.09039C28.2204 6.39616 28.9579 8.16564 28.9654 10.0123C28.9729 11.8588 28.2497 13.6334 26.9546 14.9498L26.9488 14.9566L23.191 18.7076C22.8001 19.0975 22.167 19.0973 21.7769 18.7066C21.3869 18.3159 21.3875 17.6828 21.7779 17.2925L25.5357 13.5406C26.4568 12.601 26.9707 11.3361 26.9654 10.0201C26.96 8.70115 26.4332 7.43808 25.5005 6.50543C24.5679 5.57281 23.3048 5.04604 21.9859 5.04059C20.6669 5.03521 19.3988 5.55112 18.4586 6.47613L14.7066 10.2212C14.3157 10.6114 13.6817 10.6112 13.2916 10.2203C12.9015 9.82936 12.9026 9.19536 13.2935 8.80523L17.0513 5.05523L17.0562 5.05035C18.3725 3.75545 20.1472 3.03307 21.9937 3.04059Z" fill="black"/>
</svg>
