<svg width="32" height="32" viewBox="0 0 32 32" fill="none" xmlns="http://www.w3.org/2000/svg">
<path d="M27 16C27 9.92487 22.0752 5 16 5C9.92487 5 5 9.92487 5 16C5 22.0752 9.92487 27 16 27C22.0752 27 27 22.0752 27 16ZM29 16C29 23.1798 23.1798 29 16 29C8.8203 29 3 23.1798 3 16C3 8.8203 8.8203 3 16 3C23.1798 3 29 8.8203 29 16Z" fill="black"/>
<path d="M28.0364 16.3392C28.5853 16.3999 28.9818 16.8948 28.9212 17.4437C28.2546 23.4708 23.4707 28.2547 17.4436 28.9213C16.8947 28.982 16.3998 28.5854 16.3391 28.0365C16.2786 27.4878 16.6743 26.9939 17.2229 26.933C22.3198 26.3695 26.3694 22.3199 26.9329 17.223C26.9938 16.6744 27.4877 16.2787 28.0364 16.3392Z" fill="black"/>
</svg>
