<svg width="32" height="32" viewBox="0 0 32 32" fill="none" xmlns="http://www.w3.org/2000/svg">
<path d="M16.4297 29.6143C16.1715 29.7948 15.8285 29.7948 15.5703 29.6143L16 29L16.4297 29.6143ZM25.25 13C25.25 10.5467 24.2757 8.1937 22.541 6.45898C20.8063 4.72427 18.4533 3.75 16 3.75C13.5467 3.75 11.1937 4.72427 9.45898 6.45898C7.72427 8.1937 6.75 10.5467 6.75 13C6.75 17.23 9.10934 21.0572 11.5664 23.8828C12.7857 25.2849 14.0063 26.4153 14.9229 27.1943C15.3658 27.5709 15.737 27.8638 16 28.0654C16.263 27.8638 16.6342 27.5709 17.0771 27.1943C17.9937 26.4153 19.2143 25.2849 20.4336 23.8828C22.8907 21.0572 25.25 17.23 25.25 13ZM19.25 13C19.25 11.2051 17.7949 9.75 16 9.75C14.2051 9.75 12.75 11.2051 12.75 13C12.75 14.7949 14.2051 16.25 16 16.25C17.7949 16.25 19.25 14.7949 19.25 13ZM20.75 13C20.75 15.6234 18.6234 17.75 16 17.75C13.3766 17.75 11.25 15.6234 11.25 13C11.25 10.3766 13.3766 8.25 16 8.25C18.6234 8.25 20.75 10.3766 20.75 13ZM26.75 13C26.75 17.7699 24.1093 21.9428 21.5664 24.8672C20.2858 26.3399 19.0062 27.5223 18.0479 28.3369C17.5682 28.7446 17.1673 29.0614 16.8848 29.2773C16.7435 29.3853 16.6321 29.4689 16.5547 29.5254C16.5161 29.5536 16.4858 29.5749 16.4648 29.5898C16.4544 29.5973 16.4462 29.6033 16.4404 29.6074C16.4376 29.6094 16.4353 29.6111 16.4336 29.6123L16.4297 29.6143C16.4294 29.6144 16.4275 29.6107 16 29C15.5725 29.6107 15.5706 29.6144 15.5703 29.6143L15.5664 29.6123C15.5647 29.6111 15.5624 29.6094 15.5596 29.6074C15.5538 29.6033 15.5456 29.5973 15.5352 29.5898C15.5142 29.5749 15.4839 29.5536 15.4453 29.5254C15.3679 29.4689 15.2565 29.3853 15.1152 29.2773C14.8327 29.0614 14.4318 28.7446 13.9521 28.3369C12.9938 27.5223 11.7142 26.3399 10.4336 24.8672C7.89071 21.9428 5.25 17.7699 5.25 13C5.25 10.1489 6.38242 7.41445 8.39844 5.39844C10.4145 3.38242 13.1489 2.25 16 2.25C18.8511 2.25 21.5855 3.38242 23.6016 5.39844C25.6176 7.41445 26.75 10.1489 26.75 13Z" fill="black"/>
</svg>
