<svg width="32" height="32" viewBox="0 0 32 32" fill="none" xmlns="http://www.w3.org/2000/svg">
<path d="M6 12V26H26V12H6ZM28 26C28 27.1046 27.1046 28 26 28H6C4.89543 28 4 27.1046 4 26V12C4 10.8954 4.89543 10 6 10H26C27.1046 10 28 10.8954 28 12V26Z" fill="black"/>
<path d="M16 20.5C16.8284 20.5 17.5 19.8284 17.5 19C17.5 18.1716 16.8284 17.5 16 17.5C15.1716 17.5 14.5 18.1716 14.5 19C14.5 19.8284 15.1716 20.5 16 20.5Z" fill="black"/>
<path d="M20 11V7C20 5.93913 19.5783 4.92202 18.8281 4.17188C18.078 3.42173 17.0609 3 16 3C14.9391 3 13.922 3.42173 13.1719 4.17188C12.4217 4.92202 12 5.93913 12 7V11C12 11.5523 11.5523 12 11 12C10.4477 12 10 11.5523 10 11V7C10 5.4087 10.6326 3.88303 11.7578 2.75781C12.883 1.63259 14.4087 1 16 1C17.5913 1 19.117 1.63259 20.2422 2.75781C21.3674 3.88303 22 5.4087 22 7V11C22 11.5523 21.5523 12 21 12C20.4477 12 20 11.5523 20 11Z" fill="black"/>
</svg>
