<svg width="32" height="32" viewBox="0 0 32 32" fill="none" xmlns="http://www.w3.org/2000/svg">
<path d="M19.9999 15.9999C19.9999 13.7908 18.209 11.9999 15.9999 11.9999C13.7908 11.9999 11.9999 13.7908 11.9999 15.9999C11.9999 18.209 13.7908 19.9999 15.9999 19.9999C18.209 19.9999 19.9999 18.209 19.9999 15.9999ZM21.9999 15.9999C21.9999 17.2852 22.2371 18.3242 22.662 19.0077C23.0496 19.6311 23.6099 19.9999 24.4999 19.9999C25.3898 19.9999 25.9501 19.6311 26.3378 19.0077C26.7627 18.3242 26.9999 17.2852 26.9999 15.9999C26.9999 13.8243 26.355 11.6975 25.1464 9.88857C23.9377 8.07969 22.2197 6.66938 20.2099 5.83681C18.2 5.00431 15.988 4.78654 13.8544 5.21083C11.7206 5.63527 9.75995 6.6832 8.22157 8.22157C6.6832 9.75995 5.63527 11.7206 5.21083 13.8544C4.78654 15.988 5.00431 18.2 5.83681 20.2099C6.66938 22.2197 8.07969 23.9377 9.88857 25.1464C11.6975 26.355 13.8243 26.9999 15.9999 26.9999C18.2809 26.9999 20.728 26.3089 22.4462 25.1669C22.9061 24.8612 23.5272 24.9862 23.8329 25.4462C24.1386 25.9061 24.0135 26.5272 23.5536 26.8329C21.4693 28.2183 18.6264 28.9999 15.9999 28.9999C13.4288 28.9999 10.9151 28.2379 8.77724 26.8095C6.6394 25.381 4.97309 23.3499 3.98915 20.9745C3.00533 18.5992 2.74831 15.9854 3.24989 13.4638C3.7515 10.942 4.98943 8.62559 6.80751 6.80751C8.62559 4.98943 10.942 3.7515 13.4638 3.24989C15.9854 2.74831 18.5992 3.00533 20.9745 3.98915C23.3499 4.97309 25.381 6.6394 26.8095 8.77724C28.2379 10.9151 28.9999 13.4288 28.9999 15.9999C28.9999 17.4758 28.737 18.9372 28.037 20.0634C27.2997 21.2495 26.1098 21.9999 24.4999 21.9999C22.89 21.9999 21.7001 21.2495 20.9628 20.0634C20.8839 19.9364 20.8111 19.8048 20.7431 19.6698C19.6455 21.0862 17.9304 21.9999 15.9999 21.9999C12.6862 21.9999 9.99989 19.3136 9.99989 15.9999C9.9999 12.6862 12.6862 9.9999 15.9999 9.99989C17.5367 9.99989 18.9383 10.578 19.9999 11.5282V10.9999C19.9999 10.4476 20.4476 9.9999 20.9999 9.99989C21.5522 9.99989 21.9999 10.4476 21.9999 10.9999V15.9999Z" fill="black"/>
</svg>
