<svg width="32" height="32" viewBox="0 0 32 32" fill="none" xmlns="http://www.w3.org/2000/svg">
<path d="M6.03823 4.97232C7.96421 3.54312 10.3397 2.85386 12.7316 3.02993C15.1235 3.20606 17.3726 4.23542 19.0685 5.9313C19.9769 6.83971 20.6913 7.90822 21.1886 9.07095C22.6403 9.24415 24.0394 9.73363 25.2853 10.5085C26.7139 11.3969 27.8951 12.632 28.7199 14.0983C29.5445 15.5645 29.9857 17.215 30.0031 18.8971C30.019 20.439 29.6766 21.9611 29.008 23.3463L29.9171 26.4381C30.0183 26.7826 30.0244 27.1479 29.9357 27.4958C29.8469 27.8437 29.6662 28.1617 29.4123 28.4157C29.1583 28.6696 28.8403 28.8503 28.4923 28.9391C28.1444 29.0279 27.7792 29.0217 27.4347 28.9206H27.4328L24.3449 28.0075C23.1744 28.5714 21.9052 28.9056 20.6056 28.984C19.1658 29.0709 17.7236 28.8452 16.3791 28.3229C15.0344 27.8004 13.8182 26.993 12.8146 25.9567C11.9633 25.0776 11.2835 24.0502 10.8039 22.9284C9.71606 22.7976 8.65032 22.4904 7.65151 22.0084L4.56167 22.9167C4.21723 23.0178 3.8519 23.0249 3.50405 22.9362C3.15605 22.8474 2.8381 22.6657 2.58413 22.4118C2.33032 22.1579 2.14954 21.8406 2.06069 21.4928C1.97188 21.1448 1.97805 20.7788 2.07925 20.4342L2.99136 17.3473C2.01364 15.3208 1.74563 13.0196 2.2394 10.8161C2.76386 8.47568 4.11222 6.40163 6.03823 4.97232ZM21.8332 11.2126C21.8965 11.5605 21.9437 11.9126 21.9699 12.2682C22.146 14.6601 21.4567 17.0356 20.0275 18.9616C18.5982 20.8876 16.5241 22.2359 14.1837 22.7604C13.8052 22.8452 13.4236 22.9048 13.0412 22.945C13.3742 23.532 13.779 24.0775 14.2511 24.5651C15.0541 25.3943 16.0268 26.0406 17.1027 26.4586C18.1786 26.8767 19.3324 27.0564 20.4845 26.987C21.6367 26.9175 22.7606 26.5997 23.7785 26.0553L23.8673 26.0133C24.0778 25.9262 24.313 25.9131 24.5333 25.9782L27.9972 27.0006L26.9777 23.5319C26.9037 23.2801 26.932 23.0093 27.0558 22.778C27.6913 21.5916 28.017 20.2635 28.0031 18.9176C27.9892 17.572 27.6364 16.2517 26.9767 15.0788C26.3169 13.9057 25.3716 12.9175 24.2287 12.2067C23.487 11.7454 22.6774 11.4108 21.8332 11.2126ZM12.5841 5.02407C10.6707 4.88332 8.77033 5.4354 7.22964 6.57876C5.68897 7.72221 4.61012 9.38136 4.19058 11.2536C3.77112 13.1258 4.03905 15.0864 4.94448 16.778C5.06841 17.0096 5.09597 17.2809 5.02163 17.5329L3.99819 20.9967L7.46792 19.9782L7.56362 19.9547C7.78705 19.9124 8.01958 19.9471 8.22183 20.0553C9.25207 20.6068 10.3823 20.9199 11.5314 20.987C11.5609 20.9877 11.5902 20.9895 11.6193 20.9928C12.3281 21.0264 13.0434 20.9667 13.7462 20.8092C15.6184 20.3897 17.2776 19.3108 18.421 17.7702C19.5644 16.2295 20.1165 14.3291 19.9757 12.4157C19.8349 10.5021 19.0112 8.70212 17.6544 7.34536C16.2977 5.98862 14.4977 5.16494 12.5841 5.02407Z" fill="black"/>
</svg>
