<svg width="32" height="32" viewBox="0 0 32 32" fill="none" xmlns="http://www.w3.org/2000/svg">
<path d="M29 16C29.0005 18.2445 28.4199 20.4508 27.3147 22.4042C26.2095 24.3577 24.6174 25.9917 22.6934 27.1473C20.7693 28.3029 18.5788 28.9407 16.3352 28.9986C14.0915 29.0564 11.8711 28.5324 9.89 27.4775L5.63375 28.8963C5.28136 29.0138 4.9032 29.0309 4.54166 28.9455C4.18012 28.8602 3.84948 28.6759 3.58681 28.4132C3.32414 28.1506 3.13982 27.8199 3.0545 27.4584C2.96918 27.0968 2.98623 26.7187 3.10375 26.3663L4.5225 22.11C3.59519 20.3666 3.07725 18.4348 3.008 16.4613C2.93875 14.4877 3.32001 12.5244 4.12284 10.7202C4.92567 8.91604 6.12897 7.31847 7.6414 6.04878C9.15383 4.77909 10.9356 3.87063 12.8516 3.39238C14.7675 2.91413 16.7672 2.87865 18.699 3.28862C20.6307 3.6986 22.4436 4.54327 24.0001 5.7585C25.5566 6.97374 26.8158 8.52761 27.6822 10.3022C28.5485 12.0767 28.9992 14.0253 29 16Z" fill="black"/>
</svg>
