<svg width="32" height="32" viewBox="0 0 32 32" fill="none" xmlns="http://www.w3.org/2000/svg">
<path d="M16 18C17.1046 18 18 17.1046 18 16C18 14.8954 17.1046 14 16 14C14.8954 14 14 14.8954 14 16C14 17.1046 14.8954 18 16 18Z" fill="black"/>
<path d="M7.5 18C8.60457 18 9.5 17.1046 9.5 16C9.5 14.8954 8.60457 14 7.5 14C6.39543 14 5.5 14.8954 5.5 16C5.5 17.1046 6.39543 18 7.5 18Z" fill="black"/>
<path d="M24.5 18C25.6046 18 26.5 17.1046 26.5 16C26.5 14.8954 25.6046 14 24.5 14C23.3954 14 22.5 14.8954 22.5 16C22.5 17.1046 23.3954 18 24.5 18Z" fill="black"/>
</svg>
