<svg width="32" height="32" viewBox="0 0 32 32" fill="none" xmlns="http://www.w3.org/2000/svg">
<path d="M6.32715 4.25974C6.73581 3.88828 7.36874 3.91848 7.74023 4.32712L27.7402 26.3271C28.1117 26.7358 28.0815 27.3687 27.6729 27.7402C27.2642 28.1117 26.6313 28.0815 26.2598 27.6728L21 21.8867V28C21 28.3819 20.7825 28.7306 20.4395 28.8984C20.0964 29.0662 19.6872 29.0235 19.3857 28.789L10.6572 22H5C4.46957 22 3.96101 21.7891 3.58594 21.414C3.21087 21.039 3 20.5304 3 20V12C3 11.4695 3.21087 10.961 3.58594 10.5859C3.96101 10.2108 4.46957 9.99998 5 9.99998H10.1934L6.25977 5.67283C5.88831 5.26417 5.91851 4.63123 6.32715 4.25974ZM28 21V11C28 10.4477 28.4477 9.99998 29 9.99998C29.5523 9.99998 30 10.4477 30 11V21C30 21.5523 29.5523 22 29 22C28.4477 22 28 21.5523 28 21ZM24 19V13C24 12.4477 24.4477 12 25 12C25.5523 12 26 12.4477 26 13V19C26 19.5523 25.5523 20 25 20C24.4477 20 24 19.5523 24 19ZM19 13.3535V6.04392L15.6328 8.66306C15.1968 9.0021 14.5685 8.92325 14.2295 8.48728C13.8906 8.05132 13.9693 7.42296 14.4053 7.08396L19.3857 3.21091C19.6872 2.97646 20.0964 2.93373 20.4395 3.10154C20.7825 3.26935 21 3.61806 21 3.99998V13.3535C21 13.9058 20.5523 14.3535 20 14.3535C19.4477 14.3535 19 13.9058 19 13.3535ZM5 20H11C11.2224 20 11.4387 20.0744 11.6143 20.2109L19 25.9551V19.6865L12.0117 12H5V20Z" fill="black"/>
</svg>
