<svg width="32" height="32" viewBox="0 0 32 32" fill="none" xmlns="http://www.w3.org/2000/svg">
<path d="M4 26V7C4 6.46957 4.21087 5.96101 4.58594 5.58594C4.96101 5.21087 5.46957 5 6 5H16C16.5523 5 17 5.44772 17 6C17 6.55228 16.5523 7 16 7H6V26H25V16C25 15.4477 25.4477 15 26 15C26.5523 15 27 15.4477 27 16V26C27 26.5304 26.7891 27.039 26.4141 27.4141C26.039 27.7891 25.5304 28 25 28H6C5.46957 28 4.96101 27.7891 4.58594 27.4141C4.21087 27.039 4 26.5304 4 26ZM27 7.5C27 6.11929 25.8807 5 24.5 5C23.1193 5 22 6.11929 22 7.5C22 8.88071 23.1193 10 24.5 10C25.8807 10 27 8.88071 27 7.5ZM29 7.5C29 9.98528 26.9853 12 24.5 12C22.0147 12 20 9.98528 20 7.5C20 5.01472 22.0147 3 24.5 3C26.9853 3 29 5.01472 29 7.5Z" fill="black"/>
</svg>
