<svg width="32" height="32" viewBox="0 0 32 32" fill="none" xmlns="http://www.w3.org/2000/svg">
<path d="M20.418 3.99982L13.2569 11.1815C12.954 11.4849 12.4917 11.561 12.1074 11.3719C12.1074 11.3719 12.1013 11.369 12.0947 11.366C12.08 11.3593 12.0532 11.3481 12.0156 11.3328C11.9394 11.3018 11.8182 11.2559 11.6592 11.2078C11.3402 11.1114 10.8739 11.0067 10.3067 10.9813C9.18898 10.9311 7.64272 11.1863 6.00295 12.5096L6.00002 12.5115L19.4854 25.9959C20.5147 24.625 21.7982 22.2193 20.6504 19.9246C20.4583 19.5402 20.5335 19.0757 20.8369 18.7713L27.999 11.5867L28 11.5858L20.418 3.99982ZM30 11.5858C30 12.1155 29.7893 12.6229 29.4151 12.9979L22.7295 19.7039C23.8947 22.8881 22.0786 25.8759 21.0811 27.2029L21.0772 27.2088C20.9047 27.4352 20.6851 27.6216 20.4346 27.7567C20.1841 27.8917 19.9079 27.9723 19.624 27.992C19.34 28.0116 19.0549 27.9702 18.7881 27.8709C18.5214 27.7716 18.2792 27.6163 18.0772 27.4158L12.0371 21.3758L6.70705 26.7068C6.31652 27.0974 5.68351 27.0974 5.29299 26.7068C4.90259 26.3163 4.9025 25.6833 5.29299 25.2928L10.6221 19.9627L4.58693 13.9276L4.58791 13.9266C4.38904 13.7281 4.23349 13.4907 4.13283 13.2283C4.0321 12.9656 3.98764 12.6841 4.00295 12.4031C4.01829 12.1221 4.09294 11.8468 4.2217 11.5965C4.34996 11.3473 4.52958 11.1284 4.74806 10.9529C6.81308 9.2867 8.85372 8.91399 10.3965 8.98322C11.1591 9.01747 11.7912 9.1586 12.2383 9.29376C12.2576 9.2996 12.2763 9.3065 12.2949 9.31232L19.0029 2.58673L19.0049 2.58478C19.3798 2.21029 19.8881 1.99988 20.418 1.99982C20.9481 1.99982 21.457 2.21008 21.832 2.58478L29.4151 10.1717C29.7898 10.5467 30 11.0555 30 11.5858Z" fill="black"/>
</svg>
