<svg width="32" height="32" viewBox="0 0 32 32" fill="none" xmlns="http://www.w3.org/2000/svg">
<path d="M5 9V17H12.5V9H5ZM19.5 9V17H27V9H19.5ZM14.5 20C14.5 21.5913 13.8674 23.117 12.7422 24.2422C11.617 25.3674 10.0913 26 8.5 26C7.94772 26 7.5 25.5523 7.5 25C7.5 24.4477 7.94772 24 8.5 24C9.56087 24 10.578 23.5783 11.3281 22.8281C12.0783 22.078 12.5 21.0609 12.5 20V19H5C4.46957 19 3.96101 18.7891 3.58594 18.4141C3.21086 18.039 3 17.5304 3 17V9C3 8.46957 3.21087 7.96101 3.58594 7.58594C3.96101 7.21087 4.46957 7 5 7H12.5C13.0304 7 13.539 7.21087 13.9141 7.58594C14.2891 7.96101 14.5 8.46957 14.5 9V20ZM29 20C29 21.5913 28.3674 23.117 27.2422 24.2422C26.117 25.3674 24.5913 26 23 26C22.4477 26 22 25.5523 22 25C22 24.4477 22.4477 24 23 24C24.0609 24 25.078 23.5783 25.8281 22.8281C26.5783 22.078 27 21.0609 27 20V19H19.5C18.9696 19 18.461 18.7891 18.0859 18.4141C17.7109 18.039 17.5 17.5304 17.5 17V9C17.5 8.46957 17.7109 7.96101 18.0859 7.58594C18.461 7.21086 18.9696 7 19.5 7H27C27.5304 7 28.039 7.21087 28.4141 7.58594C28.7891 7.96101 29 8.46957 29 9V20Z" fill="black"/>
</svg>
