<svg width="32" height="32" viewBox="0 0 32 32" fill="none" xmlns="http://www.w3.org/2000/svg">
<path d="M4 26.0002V20.0002C4 19.4479 4.44772 19.0002 5 19.0002H11C11.5523 19.0002 12 19.4479 12 20.0002C11.9999 20.5524 11.5522 21.0002 11 21.0002H7.41406L9.24219 22.8283C11.1033 24.6892 13.6231 25.7417 16.2549 25.757C18.8867 25.7723 21.4182 24.7486 23.3008 22.9094C23.6957 22.5236 24.3289 22.5313 24.7148 22.926C25.1007 23.3209 25.0939 23.9541 24.6992 24.34C22.4401 26.5471 19.4014 27.7744 16.2432 27.7561C13.085 27.7377 10.0614 26.4755 7.82812 24.2424L6 22.4143V26.0002C5.99992 26.5524 5.55223 27.0002 5 27.0002C4.44777 27.0002 4.00008 26.5524 4 26.0002ZM15.7568 4.24337C18.9151 4.26175 21.9386 5.52483 24.1719 7.75802L26 9.58614V6.0002C26 5.44792 26.4477 5.0002 27 5.0002C27.5523 5.0002 28 5.44792 28 6.0002V12.0002C27.9999 12.5524 27.5522 13.0002 27 13.0002H21C20.4478 13.0002 20.0001 12.5524 20 12.0002C20 11.4479 20.4477 11.0002 21 11.0002H24.5859L22.7578 9.17208C20.8967 7.31111 18.377 6.25868 15.7451 6.24337C13.1134 6.22807 10.5818 7.25104 8.69922 9.09005C8.30417 9.47599 7.6711 9.46848 7.28516 9.07345C6.89922 8.6784 6.90576 8.04533 7.30078 7.65938C9.55994 5.45229 12.5986 4.22499 15.7568 4.24337Z" fill="black"/>
</svg>
