<svg width="32" height="32" viewBox="0 0 32 32" fill="none" xmlns="http://www.w3.org/2000/svg">
<path d="M14 24.5C14 25.8807 12.8807 27 11.5 27C10.1193 27 9 25.8807 9 24.5C9 23.1193 10.1193 22 11.5 22C12.8807 22 14 23.1193 14 24.5ZM23 24.5C23 25.8807 21.8807 27 20.5 27C19.1193 27 18 25.8807 18 24.5C18 23.1193 19.1193 22 20.5 22C21.8807 22 23 23.1193 23 24.5ZM14 16C14 17.3807 12.8807 18.5 11.5 18.5C10.1193 18.5 9 17.3807 9 16C9 14.6193 10.1193 13.5 11.5 13.5C12.8807 13.5 14 14.6193 14 16ZM23 16C23 17.3807 21.8807 18.5 20.5 18.5C19.1193 18.5 18 17.3807 18 16C18 14.6193 19.1193 13.5 20.5 13.5C21.8807 13.5 23 14.6193 23 16ZM14 7.5C14 8.88071 12.8807 10 11.5 10C10.1193 10 9 8.88071 9 7.5C9 6.11929 10.1193 5 11.5 5C12.8807 5 14 6.11929 14 7.5ZM23 7.5C23 8.88071 21.8807 10 20.5 10C19.1193 10 18 8.88071 18 7.5C18 6.11929 19.1193 5 20.5 5C21.8807 5 23 6.11929 23 7.5Z" fill="black"/>
</svg>
