<svg width="32" height="32" viewBox="0 0 32 32" fill="none" xmlns="http://www.w3.org/2000/svg">
<path d="M13.3788 3.07614C13.0051 2.92136 12.5749 3.00694 12.2889 3.29294L2.28891 13.2929C1.89849 13.6834 1.89849 14.3165 2.28891 14.707L12.2889 24.707C12.5749 24.993 13.0051 25.0786 13.3788 24.9238C13.7524 24.769 13.9959 24.4044 13.9959 24V19.0302C20.7238 19.407 25.4937 23.4955 27.3905 25.5117C27.6047 25.7474 27.888 25.9099 28.2 25.9736C28.512 26.0372 28.8365 25.9999 29.1258 25.8672C29.4152 25.7343 29.6543 25.5124 29.8094 25.2343C29.9646 24.9563 30.0271 24.6363 29.9881 24.3203C29.4808 19.9442 26.9642 16.1205 23.7655 13.4072C20.8671 10.9488 17.3138 9.32053 13.9959 9.04196V3.99997C13.9959 3.59551 13.7524 3.23093 13.3788 3.07614ZM11.9959 9.99997C11.9959 10.5522 12.4437 10.9999 12.9959 11C16.0046 11 19.5491 12.4529 22.4725 14.9326C24.9905 17.0685 26.9619 19.8932 27.7313 23.0449C25.0607 20.5888 19.9228 17 12.9959 17C12.4437 17.0001 11.9959 17.4477 11.9959 18V21.5859L4.41001 14L11.9959 6.41403V9.99997Z" fill="black"/>
</svg>
