<svg width="32" height="32" viewBox="0 0 32 32" fill="none" xmlns="http://www.w3.org/2000/svg">
<path d="M11.4891 4.88017C13.6745 3.9934 16.073 3.77008 18.3846 4.23857C20.6884 4.70554 22.8043 5.83865 24.4695 7.49736L27.9998 10.7278V6.99931C28.0001 6.44735 28.4478 5.99948 28.9998 5.99931C29.5519 5.99931 29.9995 6.44725 29.9998 6.99931V12.9993C29.9998 13.5516 29.5521 13.9993 28.9998 13.9993H22.9998C22.4477 13.9991 21.9998 13.5515 21.9998 12.9993C22.0001 12.4473 22.4478 11.9995 22.9998 11.9993H26.4256L23.1033 8.95829C23.0926 8.94849 23.0823 8.93828 23.0721 8.92802C21.6823 7.53825 19.9134 6.58894 17.9871 6.19853C16.0609 5.80814 14.0622 5.99379 12.241 6.73271C10.4198 7.47169 8.85651 8.73155 7.74686 10.3538C6.6373 11.976 6.03024 13.8896 6.00175 15.8548C5.97334 17.8199 6.52463 19.75 7.58671 21.4036C8.64878 23.0572 10.1746 24.3612 11.9734 25.1526C13.7724 25.9441 15.7652 26.1881 17.7019 25.8538C19.6387 25.5194 21.4345 24.6216 22.8641 23.2727C23.2657 22.8937 23.8981 22.9121 24.2771 23.3138C24.6562 23.7155 24.6378 24.3478 24.2361 24.7269C22.5208 26.3455 20.3668 27.4232 18.0428 27.8245C15.7187 28.2258 13.3275 27.9333 11.1687 26.9837C9.01 26.034 7.17867 24.469 5.90409 22.4847C4.62953 20.5002 3.96758 18.1837 4.00175 15.8255C4.03594 13.4673 4.76498 11.1716 6.09647 9.2249C7.42804 7.27821 9.30359 5.76695 11.4891 4.88017Z" fill="black"/>
</svg>
