<svg width="32" height="32" viewBox="0 0 32 32" fill="none" xmlns="http://www.w3.org/2000/svg">
<path d="M9 6V26.1953L15.4697 22.1523L15.5957 22.0859C15.8961 21.953 16.2466 21.975 16.5303 22.1523L23 26.1953V6H9ZM25 28C25 28.3635 24.8023 28.6988 24.4844 28.875C24.1665 29.051 23.7778 29.0402 23.4697 28.8477L16 24.1787L8.53027 28.8477C8.22215 29.0402 7.8335 29.051 7.51562 28.875C7.19767 28.6988 7 28.3635 7 28V6C7 5.46957 7.21087 4.96101 7.58594 4.58594C7.96101 4.21087 8.46957 4 9 4H23C23.5304 4 24.039 4.21087 24.4141 4.58594C24.7891 4.96101 25 5.46957 25 6V28Z" fill="black"/>
</svg>
