<svg width="32" height="32" viewBox="0 0 32 32" fill="none" xmlns="http://www.w3.org/2000/svg">
<path d="M23 14C23 9.02944 18.9706 5 14 5C9.02944 5 5 9.02944 5 14C5 18.9706 9.02944 23 14 23C18.9706 23 23 18.9706 23 14ZM25 14C25 16.6775 24.0422 19.1306 22.4521 21.0381L28.707 27.293C29.0976 27.6835 29.0976 28.3165 28.707 28.707C28.3165 29.0976 27.6835 29.0976 27.293 28.707L21.0381 22.4521C19.1306 24.0422 16.6775 25 14 25C7.92487 25 3 20.0751 3 14C3 7.92487 7.92487 3 14 3C20.0751 3 25 7.92487 25 14Z" fill="black"/>
</svg>
