<svg width="32" height="32" viewBox="0 0 32 32" fill="none" xmlns="http://www.w3.org/2000/svg">
<path d="M27.9956 15.9828L7.00337 4.00528C7.00523 4.01052 7.00745 4.01564 7.00923 4.0209L10.7182 15.0004H18.0004C18.5526 15.0006 19.0004 15.4482 19.0004 16.0004C19.0002 16.5524 18.5525 17.0002 18.0004 17.0004H10.7182L7.00923 27.9799C7.00659 27.9877 7.00327 27.9956 7.00044 28.0033L27.9946 15.9955C27.9987 15.9932 28.0031 15.991 28.0073 15.9887L27.9956 15.9828ZM30.0073 15.9887C30.0073 16.3459 29.9113 16.6966 29.7299 17.0043C29.5508 17.3081 29.2941 17.5581 28.9868 17.7309L28.9877 17.7318L7.98774 29.7426L7.98286 29.7465C7.62677 29.947 7.21683 30.0335 6.81001 29.9945C6.40288 29.9555 6.0172 29.7926 5.70552 29.5277C5.394 29.263 5.17114 28.9093 5.06684 28.5141C4.96473 28.1267 4.98185 27.7177 5.11469 27.3402L8.94477 15.9994L5.11372 4.66153L5.11469 4.66055C4.98326 4.28174 4.96734 3.87218 5.07173 3.48477C5.17763 3.09179 5.40152 2.74068 5.71235 2.47794C6.02318 2.21522 6.40684 2.05304 6.81196 2.01407C7.16648 1.98001 7.52269 2.04183 7.84419 2.19083L7.97993 2.26016L28.975 14.2387C29.2876 14.4116 29.5485 14.6653 29.7299 14.9731C29.9114 15.2808 30.0073 15.6314 30.0073 15.9887Z" fill="black"/>
</svg>
