<svg width="32" height="32" viewBox="0 0 32 32" fill="none" xmlns="http://www.w3.org/2000/svg">
<path d="M25 25C25 23.3431 23.6569 22 22 22C20.3431 22 19 23.3431 19 25C19 26.6569 20.3431 28 22 28C23.6569 28 25 26.6569 25 25ZM11 16C11 14.3431 9.65685 13 8 13C6.34315 13 5 14.3431 5 16C5 17.6569 6.34315 19 8 19C9.65685 19 11 17.6569 11 16ZM25 7C25 5.34315 23.6569 4 22 4C20.3431 4 19 5.34315 19 7C19 8.65685 20.3431 10 22 10C23.6569 10 25 8.65685 25 7ZM27 7C27 9.76142 24.7614 12 22 12C20.5964 12 19.329 11.4206 18.4209 10.4893L12.6611 14.1914C12.879 14.7524 13 15.362 13 16C13 16.6377 12.8788 17.2468 12.6611 17.8076L18.4209 21.5098C19.329 20.5787 20.5967 20 22 20C24.7614 20 27 22.2386 27 25C27 27.7614 24.7614 30 22 30C19.2386 30 17 27.7614 17 25C17 24.3621 17.1201 23.7524 17.3379 23.1914L11.5781 19.4893C10.67 20.4203 9.40332 21 8 21C5.23858 21 3 18.7614 3 16C3 13.2386 5.23858 11 8 11C9.40307 11 10.6701 11.579 11.5781 12.5098L17.3379 8.80762C17.1203 8.2469 17 7.63758 17 7C17 4.23858 19.2386 2 22 2C24.7614 2 27 4.23858 27 7Z" fill="black"/>
</svg>
