<svg width="32" height="32" viewBox="0 0 32 32" fill="none" xmlns="http://www.w3.org/2000/svg">
<path d="M16.5 3C13.1859 3.00364 10.0086 4.32177 7.66518 6.66518C5.32177 9.0086 4.00364 12.1859 4 15.5V26C4 26.5304 4.21071 27.0391 4.58579 27.4142C4.96086 27.7893 5.46957 28 6 28H16.5C19.8152 28 22.9946 26.683 25.3388 24.3388C27.683 21.9946 29 18.8152 29 15.5C29 12.1848 27.683 9.00537 25.3388 6.66117C22.9946 4.31696 19.8152 3 16.5 3ZM20.5 19H12C11.7348 19 11.4804 18.8946 11.2929 18.7071C11.1054 18.5196 11 18.2652 11 18C11 17.7348 11.1054 17.4804 11.2929 17.2929C11.4804 17.1054 11.7348 17 12 17H20.5C20.7652 17 21.0196 17.1054 21.2071 17.2929C21.3946 17.4804 21.5 17.7348 21.5 18C21.5 18.2652 21.3946 18.5196 21.2071 18.7071C21.0196 18.8946 20.7652 19 20.5 19ZM20.5 15H12C11.7348 15 11.4804 14.8946 11.2929 14.7071C11.1054 14.5196 11 14.2652 11 14C11 13.7348 11.1054 13.4804 11.2929 13.2929C11.4804 13.1054 11.7348 13 12 13H20.5C20.7652 13 21.0196 13.1054 21.2071 13.2929C21.3946 13.4804 21.5 13.7348 21.5 14C21.5 14.2652 21.3946 14.5196 21.2071 14.7071C21.0196 14.8946 20.7652 15 20.5 15Z" fill="black"/>
</svg>
