<svg width="32" height="32" viewBox="0 0 32 32" fill="none" xmlns="http://www.w3.org/2000/svg">
<path d="M16.849 3.03004C19.9974 3.23556 22.9637 4.57937 25.1947 6.81032C27.4257 9.0413 28.7694 12.0076 28.975 15.156C29.1805 18.3042 28.2337 21.4196 26.3119 23.9216C24.3899 26.4237 21.6235 28.1415 18.5287 28.7547C15.5844 29.3379 12.5349 28.8816 9.89392 27.4754L5.63415 28.8963C5.28185 29.0137 4.9038 29.0303 4.54236 28.9451C4.18082 28.8598 3.84995 28.6755 3.58728 28.4129C3.32461 28.1502 3.14037 27.8193 3.05505 27.4578C2.96981 27.0963 2.98639 26.7183 3.10388 26.366L3.10486 26.365L4.52868 22.1101C3.12296 19.4694 2.66723 16.4201 3.25036 13.4763C3.8635 10.3815 5.58137 7.61508 8.08337 5.69313C10.5853 3.7713 13.7008 2.8246 16.849 3.03004ZM16.7191 5.02614C14.0551 4.85223 11.4183 5.65275 9.30114 7.27907C7.18409 8.90533 5.73108 11.2463 5.21228 13.865C4.69354 16.4837 5.14465 19.2019 6.48181 21.5125C6.62545 21.7607 6.65576 22.0589 6.56482 22.3308L5.00134 26.9978L9.67517 25.4402L9.77771 25.4119C10.0202 25.3588 10.2755 25.3976 10.4926 25.5232C12.8031 26.8604 15.5213 27.3115 18.14 26.7927C20.7587 26.274 23.0997 24.821 24.7259 22.7039C26.3523 20.5867 27.1528 17.9499 26.9789 15.2859C26.8049 12.622 25.6683 10.1121 23.7806 8.22438C21.8929 6.3367 19.383 5.20007 16.7191 5.02614ZM20.0004 16.9998C20.5525 16.9999 21.0003 17.4476 21.0004 17.9998C21.0004 18.552 20.5526 18.9997 20.0004 18.9998H12.0004C11.4481 18.9998 11.0004 18.5521 11.0004 17.9998C11.0004 17.4476 11.4481 16.9998 12.0004 16.9998H20.0004ZM20.0004 12.9998C20.5525 12.9999 21.0003 13.4476 21.0004 13.9998C21.0004 14.552 20.5526 14.9997 20.0004 14.9998H12.0004C11.4481 14.9998 11.0004 14.5521 11.0004 13.9998C11.0004 13.4476 11.4481 12.9998 12.0004 12.9998H20.0004Z" fill="black"/>
</svg>
