<svg width="32" height="32" viewBox="0 0 32 32" fill="none" xmlns="http://www.w3.org/2000/svg">
<path d="M11 4C11 3.44772 11.4477 3 12 3C12.5523 3 13 3.44772 13 4V6H20C20.5523 6 21 6.44772 21 7C21 7.55228 20.5523 8 20 8H16.9609C16.7346 10.9356 15.5164 13.7135 13.499 15.873C13.5486 15.9093 13.5973 15.9469 13.6475 15.9824C15.339 17.1782 17.3305 17.8676 19.3906 17.9814L22.1055 12.5527C22.2749 12.214 22.6212 12 23 12C23.3788 12 23.7251 12.214 23.8945 12.5527L30.8945 26.5527C31.1415 27.0467 30.9412 27.6475 30.4473 27.8945C29.9533 28.1415 29.3525 27.9412 29.1055 27.4473L27.3818 24H18.6182L16.8945 27.4473C16.6475 27.9412 16.0467 28.1415 15.5527 27.8945C15.0588 27.6475 14.8585 27.0467 15.1055 26.5527L18.4297 19.9033C16.2999 19.6446 14.2584 18.8631 12.4932 17.6152C12.3252 17.4965 12.1616 17.3722 12 17.2461C9.72686 19.021 6.91409 20 4 20C3.44772 20 3 19.5523 3 19C3 18.4477 3.44772 18 4 18C6.35176 18 8.62499 17.2457 10.499 15.873C9.28375 14.5721 8.34091 13.0292 7.74121 11.333C7.55726 10.8124 7.82995 10.2417 8.35059 10.0576C8.87128 9.87353 9.44286 10.1463 9.62695 10.667C10.1405 12.1193 10.9509 13.4389 11.9971 14.5479C13.6918 12.7524 14.7299 10.4458 14.9531 8H4C3.44772 8 3 7.55228 3 7C3 6.44772 3.44772 6 4 6H11V4ZM19.6182 22H26.3818L23 15.2363L19.6182 22Z" fill="black"/>
</svg>
