<svg width="32" height="32" viewBox="0 0 32 32" fill="none" xmlns="http://www.w3.org/2000/svg">
<path d="M5.32717 4.25958C5.7358 3.88818 6.36876 3.91841 6.74025 4.32697L26.7403 26.327C27.1118 26.7356 27.0815 27.3685 26.6729 27.7401C26.2642 28.1115 25.6313 28.0813 25.2598 27.6727L22.5274 24.6668C22.1046 25.7268 21.5294 26.6065 21.0811 27.2029L21.0772 27.2088C20.9047 27.4352 20.6851 27.6216 20.4346 27.7567C20.1841 27.8917 19.9079 27.9723 19.624 27.992C19.3401 28.0116 19.0549 27.9702 18.7881 27.8709C18.5214 27.7716 18.2792 27.6163 18.0772 27.4158L12.0371 21.3758L6.70705 26.7068C6.31652 27.0974 5.68351 27.0974 5.29299 26.7068C4.90259 26.3163 4.9025 25.6833 5.29299 25.2928L10.6221 19.9627L4.58693 13.9276L4.58791 13.9266C4.38904 13.7281 4.23349 13.4907 4.13283 13.2283C4.0321 12.9656 3.98764 12.6841 4.00295 12.4031C4.01829 12.1221 4.09294 11.8468 4.2217 11.5965C4.34996 11.3473 4.52958 11.1284 4.74806 10.9529C6.01876 9.92785 7.27998 9.39393 8.42189 9.15118L5.25978 5.67267C4.88845 5.26401 4.91857 4.63103 5.32717 4.25958ZM10.086 10.9813C8.9895 10.9692 7.53705 11.2718 6.00295 12.5096L6.00002 12.5115L19.4854 25.9959C20.0302 25.2703 20.6975 24.1807 20.9736 22.9578L10.086 10.9813ZM20.418 3.99982L15.2617 9.16876C14.8717 9.55964 14.2387 9.56058 13.8477 9.17072C13.4568 8.78076 13.456 8.14767 13.8457 7.75665L19.0029 2.58575L19.0049 2.58478C19.3798 2.21029 19.8881 1.99988 20.418 1.99982C20.9481 1.99982 21.457 2.21008 21.832 2.58478L29.4141 10.1717C29.7888 10.5467 29.999 11.0556 29.999 11.5858C29.999 12.1155 29.7882 12.623 29.4141 12.9979L23.833 18.5984C23.4431 18.9894 22.8101 18.9902 22.419 18.6004C22.0281 18.2105 22.0272 17.5774 22.417 17.1863L27.9981 11.5867L27.999 11.5858L20.418 3.99982Z" fill="black"/>
</svg>
