<svg width="32" height="32" viewBox="0 0 32 32" fill="none" xmlns="http://www.w3.org/2000/svg">
<path d="M7.00041 10.3852C7.00041 9.83289 7.44813 9.38518 8.00041 9.38518C8.55252 9.38539 9.00041 9.83302 9.00041 10.3852V26.1947L15.4701 22.1518L15.5951 22.0854C15.8955 21.9523 16.246 21.9745 16.5297 22.1518L23.0004 26.1957V25.6C23.0004 25.0477 23.4481 24.6 24.0004 24.6C24.5525 24.6002 25.0004 25.0479 25.0004 25.6V27.9994C25.0004 28.363 24.8027 28.6982 24.4848 28.8744C24.1669 29.0506 23.7784 29.0406 23.4701 28.8481L15.9994 24.1791L8.52971 28.8481C8.22149 29.0405 7.8329 29.0506 7.51506 28.8744C7.1972 28.6982 7.00041 28.3629 7.00041 27.9994V10.3852ZM10.6137 5.99944L23.0004 18.3862V5.99944H10.6137ZM25.0004 20.3862L28.7074 24.0932C29.0976 24.4837 29.0978 25.1169 28.7074 25.5072C28.317 25.8976 27.6839 25.8974 27.2934 25.5072L4.89299 3.10686C4.50247 2.71633 4.50247 2.08332 4.89299 1.6928C5.28352 1.30227 5.91653 1.30227 6.30705 1.6928L8.61369 3.99944H23.0004C23.5307 3.99954 24.0395 4.21039 24.4145 4.58537C24.7895 4.96036 25.0003 5.46915 25.0004 5.99944V20.3862Z" fill="black"/>
</svg>
