<svg width="32" height="32" viewBox="0 0 32 32" fill="none" xmlns="http://www.w3.org/2000/svg">
<path d="M15 23V17.4141L13.707 18.707C13.3165 19.0976 12.6835 19.0976 12.293 18.707C11.9024 18.3165 11.9024 17.6835 12.293 17.293L15.293 14.293L15.3691 14.2246C15.7619 13.9043 16.3409 13.9269 16.707 14.293L19.707 17.293C20.0976 17.6835 20.0976 18.3165 19.707 18.707C19.3165 19.0976 18.6835 19.0976 18.293 18.707L17 17.4141V23C17 23.5523 16.5523 24 16 24C15.4477 24 15 23.5523 15 23ZM20 10H23.5859L20 6.41406V10ZM27 27C27 27.5304 26.7891 28.039 26.4141 28.4141C26.039 28.7891 25.5304 29 25 29H7C6.46957 29 5.96101 28.7891 5.58594 28.4141C5.21087 28.039 5 27.5304 5 27V5C5 4.46957 5.21087 3.96101 5.58594 3.58594C5.96101 3.21087 6.46957 3 7 3H19C19.2652 3 19.5195 3.10543 19.707 3.29297L26.707 10.293C26.8946 10.4805 27 10.7348 27 11V27ZM7 27H25V12H19C18.4477 12 18 11.5523 18 11V5H7V27Z" fill="black"/>
</svg>
