<svg width="32" height="32" viewBox="0 0 32 32" fill="none" xmlns="http://www.w3.org/2000/svg">
<g clip-path="url(#clip0_14236_425144)">
<path d="M20.0001 12.5C20.0001 8.91015 17.09 6 13.5001 6C9.91028 6 7.00013 8.91015 7.00013 12.5C7.00013 16.0899 9.91028 19 13.5001 19C17.09 19 20.0001 16.0899 20.0001 12.5ZM30.2931 15.293C30.6836 14.9024 31.3166 14.9024 31.7072 15.293C32.0977 15.6835 32.0977 16.3165 31.7072 16.707L27.7072 20.707C27.3166 21.0976 26.6836 21.0976 26.2931 20.707L24.2931 18.707C23.9026 18.3165 23.9026 17.6835 24.2931 17.293C24.6836 16.9024 25.3166 16.9024 25.7072 17.293L27.0001 18.5859L30.2931 15.293ZM22.0001 12.5C22.0001 15.5399 20.4027 18.2046 18.0031 19.707C20.6756 20.5814 22.9698 22.2196 24.7658 24.3564C25.1211 24.7792 25.0664 25.4103 24.6437 25.7656C24.2209 26.121 23.5899 26.0663 23.2345 25.6436C20.8355 22.7893 17.4797 21 13.5001 21C9.52054 21 6.16476 22.7893 3.76576 25.6436C3.4104 26.0663 2.77935 26.121 2.35658 25.7656C1.93382 25.4103 1.87917 24.7792 2.23451 24.3564C4.03031 22.2198 6.32404 20.5815 8.99622 19.707C6.59699 18.2045 5.00013 15.5396 5.00013 12.5C5.00013 7.80558 8.80571 4 13.5001 4C18.1946 4 22.0001 7.80558 22.0001 12.5Z" fill="black"/>
</g>
<defs>
<clipPath id="clip0_14236_425144">
<rect width="32" height="32" fill="white"/>
</clipPath>
</defs>
</svg>
