<svg width="32" height="32" viewBox="0 0 32 32" fill="none" xmlns="http://www.w3.org/2000/svg">
<path d="M16.0002 13.5001C16.0002 10.4626 13.5376 8.00029 10.5002 8.00006C7.46266 8.00006 5.00022 10.4625 5.00022 13.5001C5.00022 16.513 7.42246 18.9586 10.426 18.9981C10.4506 18.998 10.4756 18.9971 10.5002 18.9971C10.5246 18.9971 10.5491 18.998 10.5735 18.9981C13.5771 18.9587 16.0002 16.513 16.0002 13.5001ZM21.9475 6.01373C23.0499 6.08052 24.1241 6.39003 25.093 6.91998C26.062 7.45002 26.902 8.18786 27.553 9.08013C28.2039 9.97244 28.6498 10.9975 28.8586 12.0821C29.0674 13.1667 29.034 14.2843 28.761 15.3545C28.4879 16.4247 27.9824 17.4216 27.2795 18.2735C26.8105 18.842 26.2588 19.333 25.6487 19.7393C26.1877 19.9378 26.7137 20.1747 27.2219 20.4503C28.9789 21.4029 30.4704 22.7795 31.5598 24.4551C31.8606 24.9181 31.7288 25.537 31.2658 25.8379C30.8028 26.139 30.1841 26.008 29.883 25.545C28.9753 24.1489 27.7327 23.0018 26.2688 22.2081C24.8048 21.4143 23.1655 20.9991 21.5002 21.0001C20.9482 21.0003 20.5008 20.5531 20.5002 20.001C20.4998 19.4833 20.8925 19.0566 21.3967 19.0049L21.4992 19.0001L21.802 18.9913C22.5077 18.9517 23.2001 18.7762 23.841 18.4737C24.5736 18.128 25.2211 17.6248 25.7366 17.0001C26.2519 16.3753 26.6232 15.6442 26.8235 14.8594C27.0236 14.0747 27.0479 13.2552 26.8948 12.46C26.7416 11.6648 26.415 10.9131 25.9377 10.2588C25.4605 9.60458 24.8445 9.06356 24.134 8.67486C23.4234 8.28614 22.6349 8.05881 21.8264 8.00982C21.018 7.96089 20.2085 8.09163 19.4563 8.39166C18.9434 8.59604 18.3621 8.34587 18.1574 7.83306C17.9528 7.32008 18.2031 6.73786 18.716 6.53326C19.7418 6.12425 20.8452 5.94697 21.9475 6.01373ZM18.0002 13.5001C18.0002 16.1042 16.6714 18.3966 14.6565 19.7413C15.1927 19.9393 15.7162 20.175 16.2219 20.4493C17.9786 21.4023 19.4701 22.7797 20.5598 24.4551C20.8606 24.9181 20.7287 25.5369 20.2658 25.8379C19.8029 26.139 19.1841 26.0079 18.883 25.545C17.9751 24.149 16.7325 23.0022 15.2688 22.2081C13.8259 21.4253 12.2123 21.0099 10.5715 20.9981C10.5478 20.9983 10.524 21.0001 10.5002 21.0001C10.4762 21.0001 10.4519 20.9983 10.428 20.9981C8.78725 21.0099 7.17452 21.4253 5.73167 22.2081C4.26773 23.0023 3.02449 24.1488 2.11643 25.545C1.81532 26.008 1.1966 26.139 0.733622 25.8379C0.270652 25.5368 0.139557 24.9181 0.440653 24.4551C1.53032 22.7797 3.02084 21.4023 4.77757 20.4493C5.28296 20.1751 5.80608 19.9392 6.34202 19.7413C4.32752 18.3966 3.00022 16.1039 3.00022 13.5001C3.00022 9.35792 6.35809 6.00006 10.5002 6.00006C14.6422 6.00029 18.0002 9.35806 18.0002 13.5001Z" fill="black"/>
</svg>
