<svg width="32" height="32" viewBox="0 0 32 32" fill="none" xmlns="http://www.w3.org/2000/svg">
<path d="M22.9999 12C22.9999 8.13401 19.8659 5 15.9999 5C12.1339 5 8.99994 8.13401 8.99994 12C8.99994 15.866 12.1339 19 15.9999 19C19.8659 19 22.9999 15.866 22.9999 12ZM24.9999 12C24.9999 15.2868 23.2372 18.1606 20.6064 19.7314C24.1249 20.8855 27.0304 23.3287 28.8652 26.499C29.1418 26.977 28.9788 27.5885 28.5009 27.8652C28.023 28.1418 27.4114 27.9788 27.1347 27.501C24.8794 23.6041 20.7995 21 15.9999 21C11.2004 21 7.12043 23.6041 4.86517 27.501C4.58849 27.9788 3.97691 28.1418 3.49896 27.8652C3.02109 27.5885 2.8581 26.977 3.1347 26.499C4.96934 23.329 7.87438 20.8856 11.3925 19.7314C8.76209 18.1605 6.99994 15.2865 6.99994 12C6.99994 7.02944 11.0294 3 15.9999 3C20.9705 3 24.9999 7.02944 24.9999 12Z" fill="black"/>
</svg>
