<svg width="32" height="32" viewBox="0 0 32 32" fill="none" xmlns="http://www.w3.org/2000/svg">
<path d="M4 9V23H24V9H4ZM26 14.5352V17.4648L30 20.1309V11.8682L26 14.5352ZM26 12.1309L30.4453 9.16797C30.7521 8.96344 31.1466 8.94426 31.4717 9.11816C31.7968 9.29218 32 9.6312 32 10V22C32 22.3688 31.7968 22.7078 31.4717 22.8818C31.1466 23.0557 30.7521 23.0366 30.4453 22.832L26 19.8682V23C26 24.1046 25.1046 25 24 25H4C2.89543 25 2 24.1046 2 23V9C2 7.89543 2.89543 7 4 7H24C25.1046 7 26 7.89543 26 9V12.1309Z" fill="black"/>
</svg>
