<svg width="32" height="32" viewBox="0 0 32 32" fill="none" xmlns="http://www.w3.org/2000/svg">
<path d="M15 30V25.9492C12.7151 25.7196 10.5669 24.7094 8.92871 23.0713C7.05335 21.1959 6 18.6522 6 16C6 15.4477 6.44772 15 7 15C7.55228 15 8 15.4477 8 16C8 18.1217 8.84248 20.1569 10.3428 21.6572C11.8431 23.1575 13.8783 24 16 24C18.1217 24 20.1569 23.1575 21.6572 21.6572C23.1575 20.1569 24 18.1217 24 16C24 15.4477 24.4477 15 25 15C25.5523 15 26 15.4477 26 16C26 18.6522 24.9467 21.1959 23.0713 23.0713C21.4331 24.7094 19.2849 25.7196 17 25.9492V30C17 30.5523 16.5523 31 16 31C15.4477 31 15 30.5523 15 30ZM20 8C20 5.79086 18.2091 4 16 4C13.7909 4 12 5.79086 12 8V16C12 18.2091 13.7909 20 16 20C18.2091 20 20 18.2091 20 16V8ZM22 16C22 19.3137 19.3137 22 16 22C12.6863 22 10 19.3137 10 16V8C10 4.68629 12.6863 2 16 2C19.3137 2 22 4.68629 22 8V16Z" fill="black"/>
</svg>
