<svg width="32" height="32" viewBox="0 0 32 32" fill="none" xmlns="http://www.w3.org/2000/svg">
<path d="M27 16C27 9.92487 22.0751 5 16 5C9.92487 5 5 9.92487 5 16C5 22.0751 9.92487 27 16 27C22.0751 27 27 22.0751 27 16ZM19.293 11.293C19.6835 10.9024 20.3165 10.9024 20.707 11.293C21.0976 11.6835 21.0976 12.3165 20.707 12.707L17.4141 16L20.707 19.293C21.0976 19.6835 21.0976 20.3165 20.707 20.707C20.3165 21.0976 19.6835 21.0976 19.293 20.707L16 17.4141L12.707 20.707C12.3165 21.0976 11.6835 21.0976 11.293 20.707C10.9024 20.3165 10.9024 19.6835 11.293 19.293L14.5859 16L11.293 12.707C10.9024 12.3165 10.9024 11.6835 11.293 11.293C11.6835 10.9024 12.3165 10.9024 12.707 11.293L16 14.5859L19.293 11.293ZM29 16C29 23.1797 23.1797 29 16 29C8.8203 29 3 23.1797 3 16C3 8.8203 8.8203 3 16 3C23.1797 3 29 8.8203 29 16Z" fill="black"/>
</svg>
