<svg width="32" height="32" viewBox="0 0 32 32" fill="none" xmlns="http://www.w3.org/2000/svg">
<path d="M24.2929 6.29289C24.6834 5.90237 25.3164 5.90237 25.707 6.29289C26.0975 6.68342 26.0975 7.31643 25.707 7.70696L17.414 15.9999L25.707 24.2929C26.0975 24.6834 26.0975 25.3164 25.707 25.707C25.3164 26.0975 24.6834 26.0975 24.2929 25.707L15.9999 17.414L7.70696 25.707C7.31643 26.0975 6.68342 26.0975 6.29289 25.707C5.90237 25.3164 5.90237 24.6834 6.29289 24.2929L14.5859 15.9999L6.29289 7.70696C5.90237 7.31643 5.90237 6.68342 6.29289 6.29289C6.68342 5.90237 7.31643 5.90237 7.70696 6.29289L15.9999 14.5859L24.2929 6.29289Z" fill="black"/>
</svg>
