<svg width="20" height="20" viewBox="0 0 20 20" fill="none" xmlns="http://www.w3.org/2000/svg">
<path d="M12.375 9.375C12.375 8.06332 11.3117 7 10 7C8.68832 7 7.625 8.06332 7.625 9.375C7.625 10.6726 8.66572 11.7246 9.95801 11.7471H10.041C11.3338 11.7252 12.375 10.673 12.375 9.375ZM10 13.25C9.98337 13.25 9.96678 13.2483 9.9502 13.248C9.06726 13.2571 8.20327 13.5056 7.4502 13.9678C6.8523 14.3348 6.34378 14.8258 5.95508 15.4043C7.08235 16.2494 8.48271 16.75 10 16.75C11.517 16.75 12.9168 16.2491 14.0439 15.4043C13.6553 14.826 13.1475 14.3347 12.5498 13.9678C11.7965 13.5054 10.9321 13.2569 10.0488 13.248C10.0326 13.2482 10.0163 13.25 10 13.25ZM18.25 10C18.25 12.4487 17.1815 14.6463 15.4873 16.1572C15.4846 16.1594 15.4822 16.1619 15.4795 16.1641C14.0222 17.4605 12.1039 18.25 10 18.25C7.8958 18.25 5.97691 17.4608 4.51953 16.1641C4.51681 16.1619 4.5144 16.1594 4.51172 16.1572C2.81784 14.6463 1.75 12.4484 1.75 10C1.75 5.44365 5.44365 1.75 10 1.75C14.5563 1.75 18.25 5.44365 18.25 10ZM13.875 9.375C13.875 10.534 13.3651 11.5731 12.5586 12.2832C12.8254 12.4001 13.0849 12.536 13.335 12.6895C14.0454 13.1256 14.6597 13.6953 15.1475 14.3633C16.146 13.1865 16.75 11.6643 16.75 10C16.75 6.27208 13.7279 3.25 10 3.25C6.27208 3.25 3.25 6.27208 3.25 10C3.25 11.6641 3.85327 13.1865 4.85156 14.3633C5.33938 13.6951 5.95445 13.1257 6.66504 12.6895C6.91483 12.5361 7.17391 12.4 7.44043 12.2832C6.63423 11.5731 6.125 10.5338 6.125 9.375C6.125 7.2349 7.8599 5.5 10 5.5C12.1401 5.5 13.875 7.2349 13.875 9.375Z" fill="black"/>
</svg>
