<svg width="20" height="20" viewBox="0 0 20 20" fill="none" xmlns="http://www.w3.org/2000/svg">
<path d="M3.875 14.875H16.125V8.25H3.875V14.875ZM11.875 9.875C12.2892 9.875 12.625 10.2108 12.625 10.625C12.625 11.0392 12.2892 11.375 11.875 11.375H8.125C7.71079 11.375 7.375 11.0392 7.375 10.625C7.375 10.2108 7.71079 9.875 8.125 9.875H11.875ZM2.625 6.75H17.375V5.125H2.625V6.75ZM18.875 6.875C18.875 7.59222 18.3258 8.17996 17.625 8.24316V15C17.625 15.3647 17.4805 15.7148 17.2227 15.9727C16.9648 16.2305 16.6147 16.375 16.25 16.375H3.75C3.38533 16.375 3.03521 16.2305 2.77734 15.9727C2.51948 15.7148 2.375 15.3647 2.375 15V8.24316C1.67424 8.17996 1.125 7.59222 1.125 6.875V5C1.125 4.24061 1.74061 3.625 2.5 3.625H17.5C18.2594 3.625 18.875 4.24061 18.875 5V6.875Z" fill="black"/>
</svg>
