<svg width="20" height="20" viewBox="0 0 20 20" fill="none" xmlns="http://www.w3.org/2000/svg">
<path d="M16.75 10C16.75 6.27208 13.7279 3.25 10 3.25C6.27208 3.25 3.25 6.27208 3.25 10C3.25 13.7279 6.27208 16.75 10 16.75C13.7279 16.75 16.75 13.7279 16.75 10ZM9.25 6.875C9.25 6.46079 9.58579 6.125 10 6.125C10.4142 6.125 10.75 6.46079 10.75 6.875V11.3145L11.9697 10.0947C12.2626 9.80183 12.7374 9.80183 13.0303 10.0947C13.3232 10.3876 13.3232 10.8624 13.0303 11.1553L10.5303 13.6553C10.2374 13.9482 9.76262 13.9482 9.46973 13.6553L6.96973 11.1553C6.67683 10.8624 6.67683 10.3876 6.96973 10.0947C7.26262 9.80183 7.73738 9.80183 8.03027 10.0947L9.25 11.3145V6.875ZM18.25 10C18.25 14.5563 14.5563 18.25 10 18.25C5.44365 18.25 1.75 14.5563 1.75 10C1.75 5.44365 5.44365 1.75 10 1.75C14.5563 1.75 18.25 5.44365 18.25 10Z" fill="black"/>
</svg>
