<svg width="20" height="20" viewBox="0 0 20 20" fill="none" xmlns="http://www.w3.org/2000/svg">
<path d="M15.5 4.99969C15.5 4.53559 15.3155 4.09056 14.9873 3.76239C14.6591 3.43423 14.2142 3.24972 13.75 3.24969C13.2859 3.24969 12.841 3.43427 12.5127 3.76239L12.5118 3.76141L4.75687 11.6237L4.75785 11.6247C4.20294 12.1888 3.8933 12.9496 3.89652 13.7409C3.89982 14.5322 4.21594 15.2898 4.77543 15.8493C5.33493 16.4088 6.09259 16.7249 6.88383 16.7282C7.67513 16.7314 8.4359 16.4218 9.00004 15.8669L15.4073 9.46942C15.7004 9.17674 16.1751 9.17729 16.4678 9.4704C16.7604 9.76347 16.7608 10.2383 16.4678 10.5309L10.0528 16.9362C9.20654 17.7688 8.06508 18.233 6.87797 18.2282C5.69112 18.2233 4.55421 17.7499 3.71488 16.9108C2.87547 16.0714 2.40137 14.9339 2.39652 13.7468C2.39169 12.5596 2.85595 11.4182 3.68851 10.572L11.4483 2.70575L11.4512 2.70184C12.0608 2.0923 12.888 1.74969 13.75 1.74969C14.612 1.74972 15.4384 2.09238 16.0479 2.70184C16.6574 3.31132 17 4.13777 17 4.99969C17 5.86002 16.6581 6.68444 16.0508 7.29364L16.0518 7.29462L8.29301 15.1599C8.28932 15.1636 8.28603 15.1679 8.28226 15.1716C7.90546 15.5377 7.39942 15.7407 6.87406 15.737C6.34888 15.7333 5.84618 15.5232 5.47465 15.152C5.10307 14.7806 4.89266 14.277 4.88871 13.7516C4.88488 13.2266 5.08748 12.7212 5.45316 12.3444L5.45707 12.3405L11.9649 5.7243C12.2553 5.42906 12.7301 5.42517 13.0254 5.71552C13.3207 6.00599 13.3247 6.48077 13.0342 6.77606L6.5264 13.3923C6.43695 13.4861 6.38773 13.6111 6.38871 13.7409C6.38972 13.8722 6.44232 13.9977 6.53519 14.0905C6.62807 14.1833 6.75353 14.2361 6.8848 14.237C7.01609 14.2379 7.14219 14.1869 7.23637 14.0954L14.9844 6.24091L14.9873 6.23798C15.3156 5.90973 15.5 5.4639 15.5 4.99969Z" fill="black"/>
</svg>
