<svg width="20" height="20" viewBox="0 0 20 20" fill="none" xmlns="http://www.w3.org/2000/svg">
<path d="M12.0391 1.9082C12.2651 1.73242 12.5719 1.70052 12.8291 1.82616C13.0864 1.95202 13.25 2.21354 13.25 2.49999V17.5C13.25 17.7864 13.0864 18.048 12.8291 18.1738C12.5719 18.2995 12.2651 18.2676 12.0391 18.0918L6.61719 13.875H3.125C2.76033 13.875 2.41021 13.7305 2.15234 13.4726C1.89448 13.2148 1.75 12.8647 1.75 12.5V7.49999C1.75 7.13532 1.89448 6.7852 2.15234 6.52734L2.25391 6.43652C2.49856 6.23611 2.80597 6.12499 3.125 6.12499H6.61719L12.0391 1.9082ZM7.33594 7.46679C7.20429 7.56918 7.04178 7.62499 6.875 7.62499H3.25V12.375H6.875C7.04178 12.375 7.20429 12.4308 7.33594 12.5332L11.75 15.9658V4.0332L7.33594 7.46679ZM17.375 13.125V6.87499C17.375 6.46078 17.7108 6.12499 18.125 6.12499C18.5392 6.12499 18.875 6.46078 18.875 6.87499V13.125C18.875 13.5392 18.5392 13.875 18.125 13.875C17.7108 13.875 17.375 13.5392 17.375 13.125ZM14.875 11.875V8.12499C14.875 7.71078 15.2108 7.37499 15.625 7.37499C16.0392 7.37499 16.375 7.71078 16.375 8.12499V11.875C16.375 12.2892 16.0392 12.625 15.625 12.625C15.2108 12.625 14.875 12.2892 14.875 11.875Z" fill="black"/>
</svg>
