<svg width="20" height="20" viewBox="0 0 20 20" fill="none" xmlns="http://www.w3.org/2000/svg">
<path d="M3.2461 2.57042C3.55247 2.29197 4.02604 2.31411 4.30469 2.62022L16.8047 16.3702C17.0833 16.6766 17.0612 17.1511 16.7549 17.4298C16.4485 17.7083 15.974 17.6862 15.6953 17.38L14.2139 15.7501H13.1621C13.0242 16.3315 12.7272 16.8686 12.2979 17.298C11.6884 17.9074 10.8619 18.2501 10 18.2501C9.1381 18.2501 8.31161 17.9074 7.70215 17.298C7.27281 16.8686 6.97681 16.3314 6.83887 15.7501H3.7461C3.50544 15.7487 3.26843 15.6839 3.06055 15.5626C2.85286 15.4413 2.68115 15.2673 2.56152 15.0587C2.44186 14.85 2.37858 14.6137 2.37891 14.3732L2.39063 14.1935C2.4143 14.0157 2.47325 13.8439 2.56348 13.6876L2.64551 13.5323C3.03948 12.7379 3.55167 10.9339 3.61817 8.62706L3.625 8.12511C3.6234 7.02761 3.90726 5.95248 4.44238 5.00206L3.19531 3.62999C2.91668 3.3235 2.9396 2.84905 3.2461 2.57042ZM8.4209 15.7501C8.50589 15.9291 8.61994 16.0946 8.7627 16.2374C9.09085 16.5656 9.53593 16.7501 10 16.7501C10.4641 16.7501 10.9091 16.5655 11.2373 16.2374C11.38 16.0947 11.4941 15.929 11.5791 15.7501H8.4209ZM5.52539 6.19347C5.26319 6.80007 5.12391 7.45646 5.125 8.12413C5.12499 10.8425 4.53525 13.1269 3.96289 14.2501H12.8496L5.52539 6.19347ZM14.875 8.12511C14.8751 7.27247 14.6514 6.43469 14.2266 5.69542C13.8018 4.95621 13.1908 4.34141 12.4541 3.91222C11.7174 3.48301 10.8809 3.25408 10.0283 3.24913C9.17574 3.2442 8.33635 3.46328 7.59473 3.8839C7.23466 4.08781 6.77765 3.96145 6.57324 3.60167C6.3689 3.24137 6.49517 2.78355 6.85547 2.57921C7.82529 2.02919 8.9222 1.74267 10.0371 1.74913C11.1519 1.7556 12.2457 2.05422 13.209 2.61534C14.1724 3.17661 14.9718 3.98161 15.5273 4.94835C16.0828 5.91501 16.3752 7.01024 16.375 8.12511L16.3799 8.53136C16.4269 10.5387 16.8145 12.1947 17.1885 13.1476C17.3398 13.5331 17.1492 13.9689 16.7637 14.1202C16.3783 14.2712 15.9435 14.0816 15.792 13.6964C15.3175 12.4878 14.875 10.4823 14.875 8.12511Z" fill="black"/>
</svg>
