<svg width="20" height="20" viewBox="0 0 20 20" fill="none" xmlns="http://www.w3.org/2000/svg">
<path d="M14.875 8.125C14.875 6.83207 14.3615 5.59197 13.4473 4.67773C12.533 3.76354 11.2929 3.25 10 3.25C8.70712 3.25004 7.46694 3.76353 6.55274 4.67773C5.63854 5.59197 5.125 6.8321 5.125 8.125C5.125 10.8433 4.53524 13.1268 3.96289 14.25H16.0381C15.4649 13.1265 14.875 10.8436 14.875 8.125ZM8.4209 15.75C8.50589 15.929 8.61994 16.0945 8.7627 16.2373C9.09085 16.5655 9.53593 16.75 10 16.75C10.4641 16.75 10.9091 16.5654 11.2373 16.2373C11.3801 16.0945 11.4941 15.9289 11.5791 15.75H8.4209ZM16.375 8.125C16.375 10.6715 16.9328 12.6813 17.3555 13.5322L17.4385 13.6865C17.559 13.8952 17.6228 14.1331 17.623 14.374C17.6232 14.6149 17.5605 14.8518 17.4404 15.0605C17.3203 15.2694 17.1468 15.4434 16.9385 15.5645C16.7302 15.6853 16.4937 15.7491 16.2529 15.75H13.1621C13.0242 16.3314 12.7273 16.8684 12.2979 17.2979C11.6884 17.9073 10.8619 18.25 10 18.25C9.1381 18.25 8.31161 17.9073 7.70215 17.2979C7.27281 16.8685 6.9768 16.3313 6.83887 15.75H3.7461C3.50544 15.7486 3.26843 15.6838 3.06055 15.5625C2.85287 15.4412 2.68114 15.2672 2.56152 15.0586C2.44186 14.8499 2.37856 14.6137 2.37891 14.373L2.39063 14.1934C2.4143 14.0157 2.47326 13.8438 2.56348 13.6875L2.64551 13.5322C3.06763 12.681 3.625 10.6708 3.625 8.125C3.625 6.43428 4.29669 4.81272 5.49219 3.61719C6.6877 2.42168 8.3093 1.75004 10 1.75C11.6907 1.75 13.3123 2.42169 14.5078 3.61719C15.7034 4.81273 16.375 6.43424 16.375 8.125Z" fill="black"/>
</svg>
