<svg width="20" height="20" viewBox="0 0 20 20" fill="none" xmlns="http://www.w3.org/2000/svg">
<path d="M16.75 6.25C16.75 6.11739 16.6973 5.99025 16.6035 5.89648C16.5097 5.80272 16.3826 5.75 16.25 5.75H13.75C13.4992 5.75 13.2651 5.62466 13.126 5.41602L12.0986 3.875H7.90137L6.87402 5.41602C6.73492 5.62466 6.50076 5.75 6.25 5.75H3.75C3.61739 5.75 3.49025 5.80272 3.39648 5.89648C3.30272 5.99025 3.25 6.11739 3.25 6.25V15C3.25 15.1326 3.30272 15.2597 3.39648 15.3535C3.49025 15.4473 3.61739 15.5 3.75 15.5H16.25C16.3826 15.5 16.5097 15.4473 16.6035 15.3535C16.6973 15.2597 16.75 15.1326 16.75 15V6.25ZM12.0625 10.3125C12.0625 9.17341 11.1391 8.25 10 8.25C8.86091 8.25 7.9375 9.17341 7.9375 10.3125C7.9375 11.4516 8.86091 12.375 10 12.375C11.1391 12.375 12.0625 11.4516 12.0625 10.3125ZM13.5625 10.3125C13.5625 12.28 11.9675 13.875 10 13.875C8.03249 13.875 6.4375 12.28 6.4375 10.3125C6.4375 8.34499 8.03249 6.75 10 6.75C11.9675 6.75 13.5625 8.34499 13.5625 10.3125ZM18.25 15C18.25 15.5304 18.0391 16.039 17.6641 16.4141C17.289 16.7891 16.7804 17 16.25 17H3.75C3.21957 17 2.71101 16.7891 2.33594 16.4141C1.96086 16.039 1.75 15.5304 1.75 15V6.25C1.75 5.71957 1.96086 5.21101 2.33594 4.83594C2.71101 4.46087 3.21957 4.25 3.75 4.25H5.84863L6.87598 2.70898L6.93262 2.63477C7.07405 2.47104 7.28061 2.375 7.5 2.375H12.5C12.7508 2.375 12.9849 2.50034 13.124 2.70898L14.1514 4.25H16.25C16.7804 4.25 17.289 4.46087 17.6641 4.83594C18.0391 5.21101 18.25 5.71957 18.25 6.25V15Z" fill="black"/>
</svg>
