<svg width="20" height="20" viewBox="0 0 20 20" fill="none" xmlns="http://www.w3.org/2000/svg">
<path d="M12.5869 5.47458C12.8824 5.18433 13.3581 5.18882 13.6484 5.48434C13.9383 5.77985 13.934 6.25474 13.6386 6.54489L5.50972 14.5283C5.21797 14.8148 4.74973 14.8148 4.45796 14.5283L0.974564 11.1074C0.679036 10.8172 0.674597 10.3424 0.964798 10.0468C1.25498 9.75135 1.7298 9.74698 2.02534 10.0371L4.98335 12.9423L12.5869 5.47458ZM17.9746 5.47458C18.2701 5.18444 18.7449 5.18886 19.0351 5.48434C19.3252 5.77987 19.3208 6.25468 19.0253 6.54489L10.8964 14.5283C10.601 14.8185 10.1262 14.8148 9.83589 14.5195C9.54568 14.224 9.55022 13.7492 9.84566 13.459L17.9746 5.47458Z" fill="black"/>
</svg>
