<svg width="20" height="20" viewBox="0 0 20 20" fill="none" xmlns="http://www.w3.org/2000/svg">
<path d="M3.25 15.5H16.75V4.5H3.25V15.5ZM13.75 11.75C14.1642 11.75 14.5 12.0858 14.5 12.5C14.5 12.9142 14.1642 13.25 13.75 13.25H10.625C10.2108 13.25 9.875 12.9142 9.875 12.5C9.875 12.0858 10.2108 11.75 10.625 11.75H13.75ZM5.66406 7.03125C5.92282 6.7078 6.3953 6.65531 6.71875 6.91406L9.84375 9.41406C10.0217 9.55639 10.125 9.77216 10.125 10C10.125 10.2278 10.0217 10.4436 9.84375 10.5859L6.71875 13.0859C6.3953 13.3447 5.92282 13.2922 5.66406 12.9688C5.40531 12.6453 5.4578 12.1728 5.78125 11.9141L8.17383 10L5.78125 8.08594C5.4578 7.82718 5.40531 7.3547 5.66406 7.03125ZM18.25 15.625C18.25 16.3844 17.6344 17 16.875 17H3.125C2.36561 17 1.75 16.3844 1.75 15.625V4.375C1.75 3.61561 2.36561 3 3.125 3H16.875C17.6344 3 18.25 3.61561 18.25 4.375V15.625Z" fill="black"/>
</svg>
