<svg width="20" height="20" viewBox="0 0 20 20" fill="none" xmlns="http://www.w3.org/2000/svg">
<path d="M16.875 2.375C17.2892 2.375 17.625 2.71079 17.625 3.125V13.125C17.625 13.5392 17.2892 13.875 16.875 13.875H13.875V16.875C13.875 17.2892 13.5392 17.625 13.125 17.625H3.125C2.71079 17.625 2.375 17.2892 2.375 16.875V6.875C2.375 6.46079 2.71079 6.125 3.125 6.125H6.125V3.125C6.125 2.71079 6.46079 2.375 6.875 2.375H16.875ZM3.875 16.125H12.375V7.625H3.875V16.125ZM7.625 6.125H13.125C13.5392 6.125 13.875 6.46079 13.875 6.875V12.375H16.125V3.875H7.625V6.125Z" fill="black"/>
</svg>
