<svg width="20" height="20" viewBox="0 0 20 20" fill="none" xmlns="http://www.w3.org/2000/svg">
<path d="M5.125 16.125H14.875V5.125H5.125V16.125ZM7.375 13.125V8.125C7.375 7.71079 7.71079 7.375 8.125 7.375C8.53921 7.375 8.875 7.71079 8.875 8.125V13.125C8.875 13.5392 8.53921 13.875 8.125 13.875C7.71079 13.875 7.375 13.5392 7.375 13.125ZM11.125 13.125V8.125C11.125 7.71079 11.4608 7.375 11.875 7.375C12.2892 7.375 12.625 7.71079 12.625 8.125V13.125C12.625 13.5392 12.2892 13.875 11.875 13.875C11.4608 13.875 11.125 13.5392 11.125 13.125ZM12.375 3.125C12.375 2.99239 12.3223 2.86525 12.2285 2.77148C12.1347 2.67772 12.0076 2.625 11.875 2.625H8.125C7.99239 2.625 7.86525 2.67772 7.77148 2.77148C7.67772 2.86525 7.625 2.99239 7.625 3.125V3.625H12.375V3.125ZM13.875 3.625H16.875C17.2892 3.625 17.625 3.96079 17.625 4.375C17.625 4.78921 17.2892 5.125 16.875 5.125H16.375V16.25C16.375 16.6147 16.2305 16.9648 15.9727 17.2227C15.7148 17.4805 15.3647 17.625 15 17.625H5C4.63533 17.625 4.28521 17.4805 4.02734 17.2227C3.76948 16.9648 3.625 16.6147 3.625 16.25V5.125H3.125C2.71079 5.125 2.375 4.78921 2.375 4.375C2.375 3.96079 2.71079 3.625 3.125 3.625H6.125V3.125C6.125 2.59457 6.33587 2.08601 6.71094 1.71094C7.08601 1.33586 7.59457 1.125 8.125 1.125H11.875C12.4054 1.125 12.914 1.33586 13.2891 1.71094C13.6641 2.08601 13.875 2.59457 13.875 3.125V3.625Z" fill="black"/>
</svg>
