<svg width="20" height="20" viewBox="0 0 20 20" fill="none" xmlns="http://www.w3.org/2000/svg">
<path d="M3.875 12.8105V16.125H7.18945L13.9385 9.37402L10.625 6.06055L3.875 12.8105ZM11.6855 5L14.999 8.31348L16.6982 6.61328L13.3838 3.30078L11.6855 5ZM18.25 6.61426C18.2499 6.93326 18.139 7.24076 17.9385 7.48535L17.8477 7.58594L15.5459 9.8877C15.5405 9.89339 15.5358 9.89971 15.5303 9.90527C15.5247 9.91082 15.5184 9.91556 15.5127 9.9209L8.21289 17.2227C7.95533 17.4799 7.60622 17.6247 7.24219 17.625H3.75C3.38533 17.625 3.03521 17.4805 2.77734 17.2227C2.51951 16.9648 2.375 16.6146 2.375 16.25V12.7588L2.38184 12.623C2.41307 12.3085 2.55204 12.0127 2.77734 11.7871L12.4121 2.15234L12.5127 2.06152C12.7573 1.86109 13.0648 1.75005 13.3838 1.75C13.7028 1.75 14.0102 1.86117 14.2549 2.06152L14.3555 2.15234L17.8477 5.6416L17.9385 5.74219C18.1391 5.9869 18.25 6.29508 18.25 6.61426Z" fill="black"/>
</svg>
