<svg width="20" height="20" viewBox="0 0 20 20" fill="none" xmlns="http://www.w3.org/2000/svg">
<path d="M9.25 10.625V3.68554L7.40527 5.53027C7.11238 5.82316 6.63762 5.82316 6.34473 5.53027C6.05183 5.23737 6.05183 4.76261 6.34473 4.46972L9.46973 1.34472L9.52637 1.29296C9.82095 1.05265 10.2557 1.07012 10.5303 1.34472L13.6553 4.46972C13.9482 4.76261 13.9482 5.23737 13.6553 5.53027C13.3624 5.82316 12.8876 5.82316 12.5947 5.53027L10.75 3.68554V10.625C10.75 11.0392 10.4142 11.375 10 11.375C9.58579 11.375 9.25 11.0392 9.25 10.625ZM17 16.25C17 16.6147 16.8555 16.9648 16.5977 17.2227C16.3398 17.4805 15.9897 17.625 15.625 17.625H4.375C4.01033 17.625 3.66021 17.4805 3.40234 17.2227C3.14448 16.9648 3 16.6147 3 16.25V8.74999C3 8.38532 3.14448 8.0352 3.40234 7.77734L3.50391 7.68652C3.74856 7.48611 4.05597 7.37499 4.375 7.37499H6.25C6.66421 7.37499 7 7.71078 7 8.12499C7 8.53921 6.66421 8.87499 6.25 8.87499H4.5V16.125H15.5V8.87499H13.75C13.3358 8.87499 13 8.53921 13 8.12499C13 7.71078 13.3358 7.37499 13.75 7.37499H15.625C15.944 7.37499 16.2514 7.48611 16.4961 7.68652L16.5977 7.77734L16.6885 7.8789C16.8889 8.12356 17 8.43096 17 8.74999V16.25Z" fill="black"/>
</svg>
