<svg width="20" height="20" viewBox="0 0 20 20" fill="none" xmlns="http://www.w3.org/2000/svg">
<path d="M4.5 16.75H15.5V7.625H11.875C11.4608 7.625 11.125 7.28921 11.125 6.875V3.25H4.5V16.75ZM12.625 6.125H14.4395L12.625 4.31055V6.125ZM17 16.875C17 17.2397 16.8555 17.5898 16.5977 17.8477C16.3398 18.1055 15.9897 18.25 15.625 18.25H4.375C4.01033 18.25 3.66021 18.1055 3.40234 17.8477C3.14448 17.5898 3 17.2397 3 16.875V3.125C3 2.76033 3.14448 2.41021 3.40234 2.15234L3.50391 2.06152C3.74856 1.86111 4.05597 1.75 4.375 1.75H11.875C12.0739 1.75 12.2646 1.82907 12.4053 1.96973L16.7803 6.34473C16.9209 6.48538 17 6.67609 17 6.875V16.875Z" fill="black"/>
</svg>
