<svg width="20" height="20" viewBox="0 0 20 20" fill="none" xmlns="http://www.w3.org/2000/svg">
<path d="M3 17.5V4.375C3.00003 4.15758 3.09453 3.95102 3.25879 3.80859C4.66201 2.59327 6.04279 2.25078 7.39355 2.41211C8.678 2.56555 9.89092 3.17501 10.958 3.70312C12.0782 4.25754 13.0531 4.73142 14.0342 4.84863C14.9489 4.9579 15.9122 4.75822 17.0088 3.80859C17.2307 3.61638 17.5445 3.57136 17.8115 3.69336C18.0785 3.81535 18.25 4.08147 18.25 4.375V13.75C18.25 13.9676 18.1557 14.1749 17.9912 14.3174C16.588 15.5327 15.2072 15.8742 13.8564 15.7129C12.572 15.5594 11.3591 14.95 10.292 14.4219C9.17182 13.8675 8.19682 13.3946 7.21582 13.2773C6.37358 13.1767 5.49071 13.338 4.5 14.1055V17.5C4.5 17.9142 4.16421 18.25 3.75 18.25C3.33579 18.25 3 17.9142 3 17.5ZM7.21582 3.90234C6.37358 3.80173 5.49071 3.96299 4.5 4.73046V12.3242C5.47772 11.8102 6.44286 11.6736 7.39355 11.7871C8.678 11.9405 9.89092 12.55 10.958 13.0781C12.0782 13.6325 13.0531 14.1064 14.0342 14.2236C14.8766 14.3243 15.7591 14.1614 16.75 13.3936V5.7998C15.7721 6.31405 14.8073 6.45146 13.8564 6.33789C12.572 6.18445 11.3591 5.57499 10.292 5.04687C9.17182 4.49249 8.19682 4.01957 7.21582 3.90234Z" fill="black"/>
</svg>
