<svg width="20" height="20" viewBox="0 0 20 20" fill="none" xmlns="http://www.w3.org/2000/svg">
<path d="M3.25 15.5H16.75V7H10C9.83774 7 9.67962 6.94696 9.5498 6.84961L7.25098 5.125H3.25V15.5ZM18.25 15.6943C18.25 16.0406 18.112 16.3724 17.8672 16.6172C17.6224 16.862 17.2906 17 16.9443 17H3.125C2.76033 17 2.41021 16.8555 2.15234 16.5977C1.89448 16.3398 1.75 15.9897 1.75 15.625V5C1.75 4.63533 1.89448 4.28521 2.15234 4.02734L2.25391 3.93652C2.49856 3.73611 2.80597 3.625 3.125 3.625H7.29102C7.58852 3.625 7.8782 3.72189 8.11621 3.90039L10.25 5.5H16.875C17.194 5.5 17.5014 5.61111 17.7461 5.81152L17.8477 5.90234L17.9385 6.00391C18.1389 6.24856 18.25 6.55597 18.25 6.875V15.6943Z" fill="black"/>
</svg>
