<svg width="20" height="20" viewBox="0 0 20 20" fill="none" xmlns="http://www.w3.org/2000/svg">
<path d="M6.23926 16.125H16.125V11.6133L13.4365 8.92578L6.23926 16.125ZM3.875 16.125H4.11816L12.4648 7.77734L12.5645 7.68652C12.6688 7.60082 12.7859 7.53139 12.9111 7.47949L13.0381 7.43359C13.1673 7.39437 13.3019 7.37402 13.4375 7.37402C13.5731 7.37402 13.7077 7.39437 13.8369 7.43359L13.9639 7.47949L14.0859 7.53711C14.205 7.60077 14.3144 7.68152 14.4102 7.77734L16.125 9.49219V3.875H3.875V16.125ZM8 7.5C8 7.22386 7.77614 7 7.5 7C7.22386 7 7 7.22386 7 7.5C7 7.77614 7.22386 8 7.5 8C7.77614 8 8 7.77614 8 7.5ZM9.5 7.5C9.5 8.60457 8.60457 9.5 7.5 9.5C6.39543 9.5 5.5 8.60457 5.5 7.5C5.5 6.39543 6.39543 5.5 7.5 5.5C8.60457 5.5 9.5 6.39543 9.5 7.5ZM17.625 16.25C17.625 17.0094 17.0094 17.625 16.25 17.625H3.75C2.99061 17.625 2.375 17.0094 2.375 16.25V3.75C2.375 2.99061 2.99061 2.375 3.75 2.375H16.25C17.0094 2.375 17.625 2.99061 17.625 3.75V16.25Z" fill="black"/>
</svg>
