<svg width="20" height="20" viewBox="0 0 20 20" fill="none" xmlns="http://www.w3.org/2000/svg">
<path d="M5.41508 8.21976C5.70761 7.9268 6.18246 7.92647 6.47562 8.21879C6.76879 8.51137 6.76914 8.98614 6.4766 9.27933L4.13578 11.6231L4.13676 11.6241C3.58178 12.1882 3.27228 12.949 3.27543 13.7403C3.27865 14.5317 3.59472 15.29 4.15433 15.8496C4.71383 16.4091 5.47155 16.7252 6.26273 16.7286C7.05395 16.7318 7.81483 16.422 8.37894 15.8672L10.7188 13.5235C11.0114 13.2304 11.4862 13.23 11.7793 13.5225C12.0725 13.8151 12.073 14.2899 11.7803 14.583L9.43656 16.9317L9.43168 16.9366C8.58545 17.7691 7.44396 18.2334 6.25687 18.2286C5.06989 18.2237 3.93315 17.7495 3.09379 16.9102C2.25447 16.0709 1.78038 14.9341 1.77543 13.7471C1.77059 12.56 2.23491 11.4185 3.06742 10.5723L3.07133 10.5684L5.41508 8.21976ZM11.9698 6.96976C12.2627 6.67687 12.7374 6.67687 13.0303 6.96976C13.3231 7.26267 13.3232 7.73745 13.0303 8.03031L8.03031 13.0303C7.73745 13.3232 7.26267 13.3231 6.96976 13.0303C6.67687 12.7374 6.67687 12.2627 6.96976 11.9698L11.9698 6.96976ZM13.7471 1.77543C14.9341 1.78038 16.0709 2.25447 16.9102 3.09379C17.7495 3.93315 18.2237 5.06989 18.2286 6.25687C18.2334 7.44396 17.7691 8.58545 16.9366 9.43168L16.9317 9.43656L14.583 11.7803C14.2899 12.073 13.8151 12.0725 13.5225 11.7793C13.23 11.4862 13.2304 11.0114 13.5235 10.7188L15.8711 8.37504C16.4235 7.81133 16.7318 7.05211 16.7286 6.26273C16.7252 5.47155 16.4091 4.71383 15.8496 4.15433C15.29 3.59472 14.5317 3.27865 13.7403 3.27543C12.949 3.27228 12.1882 3.58178 11.6241 4.13676L9.27933 6.4766C8.98614 6.76914 8.51137 6.76879 8.21879 6.47562C7.92647 6.18246 7.9268 5.70761 8.21976 5.41508L10.5684 3.07133L10.5723 3.06742C11.4185 2.23491 12.56 1.77059 13.7471 1.77543Z" fill="black"/>
</svg>
