<svg width="20" height="20" viewBox="0 0 20 20" fill="none" xmlns="http://www.w3.org/2000/svg">
<path d="M16.5 10C16.5 6.41015 13.5899 3.5 10 3.5C6.41015 3.5 3.5 6.41015 3.5 10C3.5 13.5899 6.41015 16.5 10 16.5C13.5899 16.5 16.5 13.5899 16.5 10ZM18.5 10C18.5 14.6945 14.6945 18.5 10 18.5C5.30558 18.5 1.5 14.6945 1.5 10C1.5 5.30558 5.30558 1.5 10 1.5C14.6945 1.5 18.5 5.30558 18.5 10Z" fill="black"/>
<path d="M17.5637 9.83923C18.1127 9.89992 18.5092 10.3948 18.4485 10.9437C18.0126 14.885 14.8849 18.0127 10.9436 18.4486C10.3947 18.5093 9.8998 18.1128 9.83911 17.5638C9.77865 17.0152 10.1743 16.5212 10.7229 16.4603C13.7339 16.1274 16.1273 13.7341 16.4602 10.723C16.5211 10.1744 17.0151 9.77877 17.5637 9.83923Z" fill="black"/>
</svg>
