<svg width="20" height="20" viewBox="0 0 20 20" fill="none" xmlns="http://www.w3.org/2000/svg">
<path d="M10.4297 18.7393C10.1715 18.9198 9.82846 18.9198 9.57031 18.7393L10 18.125L10.4297 18.7393ZM15.5 8.125C15.5 6.66631 14.9201 5.26778 13.8887 4.23633C12.8572 3.20488 11.4587 2.625 10 2.625C8.54131 2.625 7.14278 3.20488 6.11133 4.23633C5.07988 5.26778 4.5 6.66631 4.5 8.125C4.5 10.6675 5.92184 12.9947 7.44141 14.7422C8.19191 15.6052 8.9438 16.302 9.50879 16.7822C9.69542 16.9409 9.86246 17.0739 10 17.1826C10.1375 17.0739 10.3046 16.9409 10.4912 16.7822C11.0562 16.302 11.8081 15.6052 12.5586 14.7422C14.0782 12.9947 15.5 10.6675 15.5 8.125ZM11.75 8.125C11.75 7.1585 10.9665 6.375 10 6.375C9.0335 6.375 8.25 7.1585 8.25 8.125C8.25 9.0915 9.0335 9.875 10 9.875C10.9665 9.875 11.75 9.0915 11.75 8.125ZM13.25 8.125C13.25 9.91993 11.7949 11.375 10 11.375C8.20507 11.375 6.75 9.91993 6.75 8.125C6.75 6.33007 8.20507 4.875 10 4.875C11.7949 4.875 13.25 6.33007 13.25 8.125ZM17 8.125C17 11.2074 15.2968 13.8803 13.6914 15.7266C12.8795 16.6602 12.0687 17.409 11.4619 17.9248C11.158 18.1831 10.9036 18.3839 10.7236 18.5215C10.6336 18.5903 10.5627 18.6442 10.5127 18.6807C10.4877 18.6989 10.4679 18.7128 10.4541 18.7227C10.4472 18.7276 10.4415 18.7316 10.4375 18.7344C10.4356 18.7357 10.4338 18.7365 10.4326 18.7373L10.4307 18.7383C10.4304 18.7384 10.4301 18.7394 10 18.125C9.5699 18.7394 9.57054 18.7394 9.57031 18.7393L9.56934 18.7383L9.56738 18.7373C9.56618 18.7365 9.56439 18.7357 9.5625 18.7344C9.55851 18.7316 9.55282 18.7276 9.5459 18.7227C9.53206 18.7128 9.51228 18.6989 9.4873 18.6807C9.43732 18.6442 9.36641 18.5903 9.27637 18.5215C9.09637 18.3839 8.84196 18.1831 8.53809 17.9248C7.93126 17.409 7.12047 16.6602 6.30859 15.7266C4.70321 13.8803 3 11.2074 3 8.125C3 6.26848 3.73705 4.48756 5.0498 3.1748C6.36256 1.86205 8.14348 1.125 10 1.125C11.8565 1.125 13.6374 1.86205 14.9502 3.1748C16.2629 4.48756 17 6.26848 17 8.125Z" fill="black"/>
</svg>
