<svg width="20" height="20" viewBox="0 0 20 20" fill="none" xmlns="http://www.w3.org/2000/svg">
<path d="M3.875 16.125H16.125V7.625H3.875V16.125ZM17.625 16.25C17.625 17.0094 17.0094 17.625 16.25 17.625H3.75C2.99061 17.625 2.375 17.0094 2.375 16.25V7.5C2.375 6.74061 2.99061 6.125 3.75 6.125H16.25C17.0094 6.125 17.625 6.74061 17.625 7.5V16.25Z" fill="black"/>
<path d="M10 12.8125C10.5178 12.8125 10.9375 12.3928 10.9375 11.875C10.9375 11.3572 10.5178 10.9375 10 10.9375C9.48223 10.9375 9.0625 11.3572 9.0625 11.875C9.0625 12.3928 9.48223 12.8125 10 12.8125Z" fill="black"/>
<path d="M12.375 6.875V4.375C12.375 3.74511 12.1251 3.14071 11.6797 2.69531C11.2343 2.24991 10.6299 2 10 2C9.37011 2 8.76571 2.24991 8.32031 2.69531C7.87491 3.14071 7.625 3.74511 7.625 4.375V6.875C7.625 7.28921 7.28921 7.625 6.875 7.625C6.46079 7.625 6.125 7.28921 6.125 6.875V4.375C6.125 3.34729 6.53306 2.36147 7.25977 1.63477C7.98647 0.908062 8.97229 0.5 10 0.5C11.0277 0.5 12.0135 0.908062 12.7402 1.63477C13.4669 2.36147 13.875 3.34729 13.875 4.375V6.875C13.875 7.28921 13.5392 7.625 13.125 7.625C12.7108 7.625 12.375 7.28921 12.375 6.875Z" fill="black"/>
</svg>
