<svg width="20" height="20" viewBox="0 0 20 20" fill="none" xmlns="http://www.w3.org/2000/svg">
<path d="M12.3752 10.0002C12.3752 8.68856 11.3119 7.62523 10.0002 7.62523C8.68856 7.62523 7.62523 8.68856 7.62523 10.0002C7.62523 11.3119 8.68856 12.3752 10.0002 12.3752C11.3119 12.3752 12.3752 11.3119 12.3752 10.0002ZM13.8752 10.0002C13.8752 10.7914 14.0215 11.4141 14.2698 11.8137C14.4902 12.1683 14.8014 12.3752 15.3127 12.3752C15.8241 12.3752 16.1353 12.1683 16.3557 11.8137C16.604 11.4141 16.7502 10.7914 16.7502 10.0002C16.7502 8.66521 16.3542 7.36026 15.6125 6.25023C14.8708 5.1402 13.8166 4.27479 12.5832 3.7639C11.35 3.25311 9.99302 3.11978 8.68382 3.38011C7.37445 3.64056 6.1708 4.28279 5.22679 5.22679C4.28279 6.1708 3.64056 7.37445 3.38011 8.68382C3.11978 9.99302 3.25311 11.35 3.7639 12.5832C4.27479 13.8166 5.1402 14.8708 6.25023 15.6125C7.36026 16.3542 8.66521 16.7502 10.0002 16.7502C11.4042 16.7502 12.9092 16.3238 13.9602 15.6252C14.3051 15.3962 14.771 15.4903 15.0002 15.8352C15.2293 16.1801 15.1351 16.646 14.7903 16.8752C13.4647 17.7562 11.6633 18.2502 10.0002 18.2502C8.36861 18.2502 6.77389 17.766 5.41722 16.8596C4.06053 15.9531 3.00259 14.6649 2.37816 13.1575C1.75376 11.65 1.59015 9.99115 1.90843 8.39086C2.22676 6.79051 3.01246 5.32003 4.16625 4.16625C5.32003 3.01246 6.79051 2.22676 8.39086 1.90843C9.99115 1.59015 11.65 1.75376 13.1575 2.37816C14.6649 3.00259 15.9531 4.06053 16.8596 5.41722C17.766 6.77389 18.2502 8.36861 18.2502 10.0002C18.2502 10.9346 18.0839 11.8742 17.6291 12.6057C17.1464 13.3822 16.3639 13.8752 15.3127 13.8752C14.2616 13.8752 13.479 13.3822 12.9963 12.6057C12.9782 12.5766 12.9617 12.5466 12.9446 12.5168C12.2339 13.3476 11.1792 13.8752 10.0002 13.8752C7.86013 13.8752 6.12523 12.1403 6.12523 10.0002C6.12523 7.86013 7.86013 6.12523 10.0002 6.12523C10.8953 6.12523 11.7192 6.42905 12.3752 6.93871V6.87523C12.3752 6.46102 12.711 6.12523 13.1252 6.12523C13.5394 6.12523 13.8752 6.46102 13.8752 6.87523V10.0002Z" fill="black"/>
</svg>
