<svg width="20" height="20" viewBox="0 0 20 20" fill="none" xmlns="http://www.w3.org/2000/svg">
<path d="M3.69927 3.00743C4.92703 2.09634 6.44112 1.65696 7.96587 1.76915C9.49074 1.88141 10.9247 2.5376 12.0059 3.61876C12.5682 4.181 13.0144 4.83912 13.3301 5.55529C14.2295 5.6731 15.0958 5.98054 15.8692 6.46153C16.7798 7.02789 17.5329 7.81496 18.0586 8.74962C18.5844 9.68433 18.8659 10.7368 18.877 11.8092C18.887 12.7755 18.6748 13.7292 18.2627 14.6002L18.8174 16.4879C18.887 16.7248 18.8922 16.9772 18.8311 17.2164C18.77 17.4555 18.6453 17.6737 18.4708 17.8483C18.2962 18.0228 18.0781 18.1475 17.8389 18.2086C17.5997 18.2697 17.3483 18.2645 17.1114 18.1949L15.2256 17.6383C14.4917 17.9851 13.698 18.1908 12.8858 18.2399C11.9679 18.2952 11.0486 18.151 10.1915 17.818C9.33431 17.4849 8.55875 16.9707 7.919 16.3102C7.39327 15.7673 6.97102 15.135 6.66705 14.4459C6.01376 14.36 5.37405 14.1734 4.77154 13.8883L2.88677 14.443C2.64995 14.5125 2.3974 14.5167 2.15826 14.4557C1.91927 14.3946 1.70088 14.2707 1.52642 14.0963C1.35182 13.9217 1.22713 13.7027 1.16607 13.4635C1.10507 13.2243 1.11019 12.9728 1.17974 12.7359L1.73638 10.8512C1.13065 9.57031 0.96635 8.1215 1.2774 6.73302C1.61174 5.24102 2.47144 3.91862 3.69927 3.00743ZM13.7999 7.17833C13.8238 7.33729 13.8436 7.49749 13.8555 7.6588C13.9677 9.18356 13.5283 10.6976 12.6172 11.9254C11.7061 13.1532 10.3837 14.0129 8.89166 14.3473C8.71385 14.3871 8.53485 14.4177 8.35552 14.442C8.53892 14.7379 8.75356 15.0147 8.99712 15.2662C9.48639 15.7714 10.0789 16.1648 10.7344 16.4195C11.39 16.6743 12.0929 16.7841 12.795 16.7418C13.4971 16.6995 14.1825 16.5062 14.8028 16.1744L14.9376 16.1188C15.0769 16.0763 15.2265 16.075 15.3682 16.1168L17.3135 16.691L16.7413 14.7428C16.6858 14.5539 16.707 14.3509 16.7999 14.1774C17.1871 13.4544 17.3855 12.6449 17.377 11.8248C17.3685 11.0047 17.1531 10.1998 16.751 9.48497C16.349 8.7703 15.7735 8.16804 15.0772 7.73497C14.6792 7.48745 14.2482 7.30219 13.7999 7.17833ZM7.8565 3.26427C6.69045 3.17843 5.53175 3.51478 4.59283 4.21154C3.65401 4.90824 2.99701 5.9194 2.74127 7.06017C2.48559 8.20111 2.64847 9.39651 3.20025 10.4274C3.29321 10.6011 3.31369 10.8047 3.25787 10.9938L2.68267 12.9381L4.63189 12.3658C4.82065 12.3103 5.02384 12.3316 5.19732 12.4244C5.82766 12.7618 6.51956 12.953 7.22271 12.9928C7.23418 12.9933 7.2455 12.9947 7.25689 12.9957C7.69247 13.0173 8.13255 12.9802 8.56451 12.8834C9.70528 12.6277 10.7164 11.9707 11.4131 11.0318C12.1098 10.0931 12.4461 8.93503 12.3604 7.76915C12.2746 6.60307 11.7721 5.50608 10.9454 4.67931C10.1187 3.85265 9.02241 3.35021 7.8565 3.26427Z" fill="black"/>
</svg>
