<svg width="20" height="20" viewBox="0 0 20 20" fill="none" xmlns="http://www.w3.org/2000/svg">
<path d="M3.87012 2.57037C4.1765 2.29184 4.65102 2.31401 4.92969 2.62018L17.4297 16.3702C17.7082 16.6766 17.6861 17.1511 17.3799 17.4297C17.0735 17.7083 16.599 17.6861 16.3203 17.3799L13.25 14.002V17.5001C13.25 17.7865 13.0864 18.048 12.8291 18.1739C12.5719 18.2995 12.2651 18.2676 12.0391 18.0919L6.61719 13.8751H3.125C2.76033 13.8751 2.41021 13.7306 2.15234 13.4727C1.89448 13.2149 1.75 12.8647 1.75 12.5001V7.50006C1.75 7.13539 1.89448 6.78526 2.15234 6.5274L2.25391 6.43658C2.49856 6.23617 2.80597 6.12506 3.125 6.12506H6.08887L3.82031 3.62994C3.54179 3.32356 3.56395 2.84904 3.87012 2.57037ZM3.25 12.3751H6.875C7.04178 12.3751 7.20429 12.4309 7.33594 12.5333L11.75 15.9659V12.3526L7.45215 7.62506H3.25V12.3751ZM17.375 13.1251V6.87506C17.375 6.46084 17.7108 6.12506 18.125 6.12506C18.5392 6.12506 18.875 6.46084 18.875 6.87506V13.1251C18.875 13.5393 18.5392 13.8751 18.125 13.8751C17.7108 13.8751 17.375 13.5393 17.375 13.1251ZM14.875 11.8751V8.12506C14.875 7.71084 15.2108 7.37506 15.625 7.37506C16.0392 7.37506 16.375 7.71084 16.375 8.12506V11.8751C16.375 12.2893 16.0392 12.6251 15.625 12.6251C15.2108 12.6251 14.875 12.2893 14.875 11.8751ZM11.75 8.34576V4.03228L9.84668 5.51275C9.51981 5.76689 9.04924 5.70856 8.79492 5.38189C8.54064 5.05492 8.59978 4.58344 8.92676 4.32916L12.04 1.90826C12.266 1.73262 12.5719 1.70063 12.8291 1.82623C13.0864 1.95209 13.25 2.21362 13.25 2.50006V8.34576C13.25 8.75997 12.9142 9.09576 12.5 9.09576C12.0858 9.09576 11.75 8.75997 11.75 8.34576Z" fill="black"/>
</svg>
