<svg width="20" height="20" viewBox="0 0 20 20" fill="none" xmlns="http://www.w3.org/2000/svg">
<path d="M16.75 10C16.75 6.27208 13.7279 3.25 10 3.25C8.40624 3.25 6.94186 3.80284 5.78711 4.72656L15.2725 14.2119C16.1961 13.0572 16.75 11.5937 16.75 10ZM3.25 10C3.25 13.7279 6.27208 16.75 10 16.75C11.5937 16.75 13.0572 16.1961 14.2119 15.2725L4.72656 5.78711C3.80284 6.94186 3.25 8.40624 3.25 10ZM18.25 10C18.25 14.5563 14.5563 18.25 10 18.25C5.44365 18.25 1.75 14.5563 1.75 10C1.75 5.44365 5.44365 1.75 10 1.75C14.5563 1.75 18.25 5.44365 18.25 10Z" fill="black"/>
</svg>
