<svg width="20" height="20" viewBox="0 0 20 20" fill="none" xmlns="http://www.w3.org/2000/svg">
<path d="M16.75 4.6875C16.75 3.89359 16.1064 3.25 15.3125 3.25C14.5186 3.25 13.875 3.89359 13.875 4.6875C13.875 5.48141 14.5186 6.125 15.3125 6.125C16.1064 6.125 16.75 5.48141 16.75 4.6875ZM17 16.25C17 16.6147 16.8555 16.9648 16.5977 17.2227C16.3398 17.4805 15.9897 17.625 15.625 17.625H3.75C3.38533 17.625 3.03521 17.4805 2.77734 17.2227C2.51948 16.9648 2.375 16.6147 2.375 16.25V4.375C2.375 4.01033 2.51948 3.66021 2.77734 3.40234L2.87891 3.31152C3.12356 3.11111 3.43097 3 3.75 3H10C10.4142 3 10.75 3.33579 10.75 3.75C10.75 4.16421 10.4142 4.5 10 4.5H3.875V16.125H15.5V10C15.5 9.58579 15.8358 9.25 16.25 9.25C16.6642 9.25 17 9.58579 17 10V16.25ZM18.25 4.6875C18.25 6.30984 16.9348 7.625 15.3125 7.625C13.6902 7.625 12.375 6.30984 12.375 4.6875C12.375 3.06516 13.6902 1.75 15.3125 1.75C16.9348 1.75 18.25 3.06516 18.25 4.6875Z" fill="black"/>
</svg>
