<svg width="20" height="20" viewBox="0 0 20 20" fill="none" xmlns="http://www.w3.org/2000/svg">
<path d="M8.37412 7.07605C8.14666 7.30415 7.79937 7.36135 7.51084 7.21863L7.50889 7.21765C7.50118 7.21414 7.48504 7.2071 7.46299 7.19812C7.41861 7.18005 7.3464 7.1537 7.25108 7.12488C7.05968 7.06701 6.77814 7.00353 6.43565 6.98816C5.78789 6.95917 4.8961 7.10017 3.93858 7.83191L12.1612 16.0536C12.7807 15.1889 13.4469 13.8118 12.795 12.5087C12.6509 12.2203 12.7071 11.8717 12.9347 11.6434L17.3233 7.24011L12.7618 2.67664L8.37412 7.07605ZM18.8751 7.24109C18.8751 7.60532 18.7301 7.95403 18.4728 8.21179L14.3497 12.3485C15.0462 14.3744 13.8934 16.255 13.2755 17.077L13.2726 17.0809C13.154 17.2366 13.0034 17.365 12.8312 17.4579C12.6589 17.5508 12.4688 17.6065 12.2735 17.62C12.0784 17.6335 11.8827 17.6043 11.6993 17.536C11.5159 17.4677 11.349 17.3614 11.2101 17.2235L7.52256 13.537L4.28037 16.7802C3.98748 17.073 3.51272 17.073 3.21983 16.7802C2.92701 16.4873 2.92696 16.0125 3.21983 15.7196L6.46201 12.4764L2.77842 8.79285L2.7794 8.79187C2.64274 8.65538 2.53508 8.49272 2.46592 8.31238C2.39665 8.1317 2.36651 7.93821 2.37705 7.745L2.39268 7.60144C2.41565 7.45875 2.46108 7.32035 2.52744 7.19128L2.60069 7.06628C2.67964 6.94588 2.777 6.83841 2.88975 6.74792C4.20685 5.68515 5.51224 5.44474 6.50303 5.48914C6.97197 5.51018 7.36461 5.59409 7.64951 5.67761L11.7882 1.5282L11.7892 1.52722C12.047 1.26955 12.3973 1.12488 12.7618 1.12488L12.8976 1.13171C13.1673 1.15854 13.4232 1.26457 13.6329 1.4364L13.7335 1.52722L18.4728 6.26941C18.7303 6.52723 18.8751 6.87664 18.8751 7.24109Z" fill="black"/>
</svg>
