<svg width="20" height="20" viewBox="0 0 20 20" fill="none" xmlns="http://www.w3.org/2000/svg">
<path d="M16.25 2.375C16.6642 2.375 17 2.71079 17 3.125V15.5H17.5C17.9142 15.5 18.25 15.8358 18.25 16.25C18.25 16.6642 17.9142 17 17.5 17H2.5C2.08579 17 1.75 16.6642 1.75 16.25C1.75 15.8358 2.08579 15.5 2.5 15.5H3V10.625C3 10.2108 3.33579 9.875 3.75 9.875H6.75V6.875C6.75 6.46079 7.08579 6.125 7.5 6.125H11.125V3.125C11.125 2.71079 11.4608 2.375 11.875 2.375H16.25ZM12.625 15.5H15.5V3.875H12.625V15.5ZM8.25 15.5H11.125V7.625H8.25V15.5ZM4.5 15.5H6.75V11.375H4.5V15.5Z" fill="black"/>
</svg>
