<svg width="20" height="20" viewBox="0 0 20 20" fill="none" xmlns="http://www.w3.org/2000/svg">
<path d="M12.3125 10.5H16.75V5.75H12.3125V10.5ZM3.25 10.5H7.6875V5.75H3.25V10.5ZM9.1875 12.5C9.1875 13.5277 8.77944 14.5135 8.05273 15.2402C7.32603 15.9669 6.34021 16.375 5.3125 16.375C4.89829 16.375 4.5625 16.0392 4.5625 15.625C4.5625 15.2108 4.89829 14.875 5.3125 14.875C5.94239 14.875 6.54679 14.6251 6.99219 14.1797C7.43759 13.7343 7.6875 13.1299 7.6875 12.5V12H3.125C2.76033 12 2.41021 11.8555 2.15234 11.5977C1.89448 11.3398 1.75 10.9897 1.75 10.625V5.625C1.75 5.26033 1.89448 4.91021 2.15234 4.65234L2.25391 4.56152C2.49856 4.36111 2.80597 4.25 3.125 4.25H7.8125C8.13153 4.25 8.43894 4.36111 8.68359 4.56152L8.78516 4.65234L8.87598 4.75391C9.07639 4.99856 9.1875 5.30597 9.1875 5.625V12.5ZM18.25 12.5C18.25 13.5277 17.8419 14.5135 17.1152 15.2402C16.3885 15.9669 15.4027 16.375 14.375 16.375C13.9608 16.375 13.625 16.0392 13.625 15.625C13.625 15.2108 13.9608 14.875 14.375 14.875C15.0049 14.875 15.6093 14.6251 16.0547 14.1797C16.5001 13.7343 16.75 13.1299 16.75 12.5V12H12.1875C11.8228 12 11.4727 11.8555 11.2148 11.5977C10.957 11.3398 10.8125 10.9897 10.8125 10.625V5.625C10.8125 5.26033 10.957 4.91021 11.2148 4.65234L11.3164 4.56152C11.5611 4.36111 11.8685 4.25 12.1875 4.25H16.875C17.194 4.25 17.5014 4.36111 17.7461 4.56152L17.8477 4.65234L17.9385 4.75391C18.1389 4.99856 18.25 5.30597 18.25 5.625V12.5Z" fill="black"/>
</svg>
