<svg width="20" height="20" viewBox="0 0 20 20" fill="none" xmlns="http://www.w3.org/2000/svg">
<path d="M2.375 16.2496V12.4996C2.37515 12.0856 2.71088 11.7496 3.125 11.7496H6.875C7.28912 11.7496 7.62485 12.0856 7.625 12.4996C7.625 12.9139 7.28921 13.2496 6.875 13.2496H4.93457L5.86426 14.1793C7.00418 15.3192 8.54812 15.9629 10.1602 15.9723C11.772 15.9816 13.3225 15.3555 14.4756 14.2291C14.7719 13.9397 15.2467 13.9455 15.5361 14.2418C15.8256 14.5381 15.8207 15.0129 15.5244 15.3024C14.0889 16.7048 12.1581 17.484 10.1514 17.4723C8.14455 17.4606 6.2228 16.6589 4.80371 15.2399L3.875 14.3102V16.2496C3.875 16.6639 3.53921 16.9996 3.125 16.9996C2.71079 16.9996 2.375 16.6639 2.375 16.2496ZM9.84863 2.52698C11.8555 2.53866 13.7772 3.34135 15.1963 4.76038L16.125 5.68909V3.74964C16.1251 3.33555 16.4609 2.99964 16.875 2.99964C17.2891 2.99964 17.6249 3.33555 17.625 3.74964V7.49964C17.625 7.91385 17.2892 8.24964 16.875 8.24964H13.125C12.7108 8.24964 12.375 7.91385 12.375 7.49964C12.3751 7.08555 12.7109 6.74964 13.125 6.74964H15.0645L14.1357 5.82093C12.9958 4.68105 11.4519 4.03637 9.83984 4.02698C8.22786 4.01764 6.67749 4.64463 5.52441 5.77112C5.22819 6.0605 4.75333 6.05452 4.46387 5.75843C4.17447 5.46221 4.17949 4.98736 4.47559 4.69788C5.91107 3.29548 7.84185 2.51533 9.84863 2.52698Z" fill="black"/>
</svg>
