<svg width="20" height="20" viewBox="0 0 20 20" fill="none" xmlns="http://www.w3.org/2000/svg">
<path d="M8.40912 1.80676C8.12909 1.69103 7.80707 1.75565 7.59272 1.96984L1.34272 8.21984C1.04982 8.51274 1.04982 8.9875 1.34272 9.28039L7.59272 15.5304C7.80707 15.7446 8.12909 15.8092 8.40912 15.6935C8.68938 15.5774 8.87299 15.3035 8.87299 15.0001V12.0265C12.9695 12.3055 15.8747 14.8036 17.0341 16.0382L17.0351 16.0372C17.1858 16.1994 17.3825 16.3112 17.5996 16.3556C17.8206 16.4007 18.0508 16.3745 18.2558 16.2804C18.4607 16.1863 18.6303 16.0291 18.7402 15.8321C18.849 15.6369 18.8933 15.4125 18.8671 15.1905C18.5468 12.4147 16.9527 9.9962 14.9345 8.2843C13.1413 6.76326 10.9445 5.74413 8.87299 5.54015V2.50012C8.87299 2.19677 8.68938 1.92284 8.40912 1.80676ZM7.37299 6.25012C7.37299 6.66433 7.70878 7.00012 8.12299 7.00012C9.96686 7.00024 12.1546 7.89338 13.9648 9.42883C15.413 10.6573 16.5632 12.2502 17.0986 14.0255C15.3427 12.5002 12.2329 10.5002 8.12299 10.5001C7.70878 10.5001 7.37299 10.8359 7.37299 11.2501V13.1896L2.93354 8.75012L7.37299 4.31066V6.25012Z" fill="black"/>
</svg>
