<svg width="20" height="20" viewBox="0 0 20 20" fill="none" xmlns="http://www.w3.org/2000/svg">
<path d="M7.13312 2.93425C8.52182 2.37078 10.0462 2.22934 11.515 2.52702C12.9727 2.82249 14.3115 3.53794 15.3675 4.58464L17.3753 6.42156V4.37468C17.3755 3.96061 17.7112 3.62468 18.1253 3.62468C18.5392 3.62491 18.8751 3.96075 18.8753 4.37468V8.12468C18.8753 8.53875 18.5393 8.87445 18.1253 8.87468H14.3753C13.9611 8.87468 13.6253 8.53889 13.6253 8.12468C13.6255 7.71061 13.9612 7.37468 14.3753 7.37468H16.1937L14.3548 5.69109C14.3468 5.68377 14.339 5.67628 14.3314 5.66863C13.4801 4.81743 12.3969 4.2359 11.2171 3.99675C10.0373 3.75764 8.81304 3.87134 7.69758 4.3239C6.58206 4.77652 5.62431 5.54804 4.94465 6.54167C4.26505 7.53526 3.89376 8.70717 3.87629 9.91081C3.85884 11.1145 4.1965 12.2964 4.84699 13.3093C5.4975 14.3221 6.43172 15.1213 7.53351 15.6061C8.63538 16.0909 9.85607 16.2406 11.0423 16.0358C12.2284 15.831 13.3279 15.2808 14.2034 14.4548C14.5046 14.1705 14.9797 14.184 15.264 14.485C15.5482 14.7863 15.5349 15.2613 15.2337 15.5456C14.1437 16.5741 12.774 17.2584 11.2972 17.5134C9.82056 17.7682 8.30162 17.5826 6.93 16.9792C5.55828 16.3757 4.39418 15.3817 3.5843 14.1208C2.77443 12.8598 2.3546 11.3878 2.37629 9.88933C2.39801 8.39095 2.8604 6.93189 3.70637 5.69499C4.55241 4.45812 5.74456 3.49774 7.13312 2.93425Z" fill="black"/>
</svg>
