<svg width="20" height="20" viewBox="0 0 20 20" fill="none" xmlns="http://www.w3.org/2000/svg">
<path d="M5.75 16.1465L9.60254 13.7393L9.69629 13.6895C9.92168 13.5896 10.1846 13.6062 10.3975 13.7393L14.25 16.1465V3.875H5.75V16.1465ZM15.75 17.5C15.75 17.7726 15.6017 18.0241 15.3633 18.1562C15.1249 18.2882 14.8336 18.2802 14.6025 18.1357L10 15.2588L5.39746 18.1357C5.16637 18.2802 4.87512 18.2882 4.63672 18.1562C4.39825 18.0241 4.25 17.7726 4.25 17.5V3.75C4.25 3.38533 4.39448 3.03521 4.65234 2.77734L4.75391 2.68652C4.99856 2.48611 5.30597 2.375 5.625 2.375H14.375C14.694 2.375 15.0014 2.48611 15.2461 2.68652L15.3477 2.77734L15.4385 2.87891C15.6389 3.12356 15.75 3.43097 15.75 3.75V17.5Z" fill="black"/>
</svg>
