<svg width="20" height="20" viewBox="0 0 20 20" fill="none" xmlns="http://www.w3.org/2000/svg">
<path d="M14.25 8.75C14.25 5.71243 11.7876 3.25 8.75 3.25C5.71243 3.25 3.25 5.71243 3.25 8.75C3.25 11.7876 5.71243 14.25 8.75 14.25C11.7876 14.25 14.25 11.7876 14.25 8.75ZM15.75 8.75C15.75 10.4128 15.1686 11.9388 14.2002 13.1396L18.0303 16.9697C18.3232 17.2626 18.3232 17.7374 18.0303 18.0303C17.7374 18.3232 17.2626 18.3232 16.9697 18.0303L13.1396 14.2002C11.9388 15.1686 10.4128 15.75 8.75 15.75C4.88401 15.75 1.75 12.616 1.75 8.75C1.75 4.88401 4.88401 1.75 8.75 1.75C12.616 1.75 15.75 4.88401 15.75 8.75Z" fill="black"/>
</svg>
