<svg width="20" height="20" viewBox="0 0 20 20" fill="none" xmlns="http://www.w3.org/2000/svg">
<path d="M6.78822 9.25036H11.2501C11.6643 9.25046 12.0001 9.58621 12.0001 10.0004C11.9999 10.4143 11.6641 10.7503 11.2501 10.7504H6.78724L4.59876 17.2299L17.2531 9.99255L4.60072 2.7738L6.78822 9.25036ZM18.879 9.99255C18.879 10.2382 18.8133 10.4802 18.6886 10.6918C18.5658 10.8999 18.3893 11.0702 18.1788 11.1888L18.1798 11.1908L5.05482 18.6976L5.04994 18.7006C4.80516 18.8384 4.52393 18.8982 4.24427 18.8715C3.96437 18.8446 3.69879 18.7322 3.48451 18.5502C3.27037 18.3681 3.1177 18.1246 3.04603 17.8529C2.9759 17.5869 2.98815 17.3065 3.07923 17.0472H3.07728L5.45814 9.99938L3.07728 2.95349L3.07923 2.95251C2.98921 2.69246 2.97738 2.41179 3.04896 2.14587L3.08021 2.04528C3.16129 1.81573 3.30251 1.61147 3.48939 1.45349C3.70309 1.27285 3.96671 1.16094 4.24525 1.13415L4.34974 1.12829C4.55851 1.12416 4.76575 1.16745 4.95521 1.25524L5.04798 1.3031L5.05384 1.30603L18.1788 8.79431C18.3901 8.91303 18.5654 9.08546 18.6886 9.29431C18.8133 9.50577 18.879 9.74708 18.879 9.99255Z" fill="black"/>
</svg>
