<svg width="20" height="20" viewBox="0 0 20 20" fill="none" xmlns="http://www.w3.org/2000/svg">
<path d="M15.5 15.625C15.5 14.6585 14.7165 13.875 13.75 13.875C12.7835 13.875 12 14.6585 12 15.625C12 16.5915 12.7835 17.375 13.75 17.375C14.7165 17.375 15.5 16.5915 15.5 15.625ZM6.75 10C6.75 9.0335 5.9665 8.25 5 8.25C4.0335 8.25 3.25 9.0335 3.25 10C3.25 10.9665 4.0335 11.75 5 11.75C5.9665 11.75 6.75 10.9665 6.75 10ZM15.5 4.375C15.5 3.4085 14.7165 2.625 13.75 2.625C12.7835 2.625 12 3.4085 12 4.375C12 5.3415 12.7835 6.125 13.75 6.125C14.7165 6.125 15.5 5.3415 15.5 4.375ZM17 4.375C17 6.16993 15.5449 7.625 13.75 7.625C12.8744 7.625 12.0815 7.27692 11.4971 6.71387L8.06543 8.91992C8.18452 9.25792 8.25 9.62127 8.25 10C8.25 10.3784 8.18432 10.7414 8.06543 11.0791L11.4971 13.2852C12.0814 12.7224 12.8747 12.375 13.75 12.375C15.5449 12.375 17 13.8301 17 15.625C17 17.4199 15.5449 18.875 13.75 18.875C11.9551 18.875 10.5 17.4199 10.5 15.625C10.5 15.2464 10.5646 14.8828 10.6836 14.5449L7.25195 12.3389C6.66761 12.9016 5.87534 13.25 5 13.25C3.20507 13.25 1.75 11.7949 1.75 10C1.75 8.20507 3.20507 6.75 5 6.75C5.87509 6.75 6.66766 7.09767 7.25195 7.66016L10.6836 5.4541C10.5648 5.11644 10.5 4.75329 10.5 4.375C10.5 2.58007 11.9551 1.125 13.75 1.125C15.5449 1.125 17 2.58007 17 4.375Z" fill="black"/>
</svg>
