<svg width="20" height="20" viewBox="0 0 20 20" fill="none" xmlns="http://www.w3.org/2000/svg">
<path d="M10.539 1.7695C12.5368 1.89992 14.4191 2.75232 15.8349 4.16793C17.2507 5.58375 18.1038 7.46679 18.2343 9.46481C18.3646 11.4627 17.7635 13.4395 16.5438 15.0273C15.3241 16.6152 13.5685 17.7056 11.6044 18.0947C9.75338 18.4613 7.8369 18.1805 6.17177 17.3076L3.56044 18.1787C3.31839 18.2593 3.05876 18.2714 2.81044 18.2129C2.56189 18.1542 2.33381 18.0272 2.15322 17.8466C1.9728 17.6661 1.84663 17.4388 1.78798 17.1904C1.72933 16.9418 1.7404 16.6817 1.82119 16.4394L1.82216 16.4384L2.69423 13.831C1.82175 12.1661 1.54249 10.249 1.90908 8.3984C2.29823 6.43449 3.38775 4.67859 4.97548 3.45895C6.56334 2.23922 8.54095 1.63907 10.539 1.7695ZM10.4413 3.26657C8.80656 3.15985 7.1887 3.65141 5.88954 4.64938C4.59051 5.64734 3.69809 7.08349 3.37978 8.69039C3.06153 10.2972 3.33868 11.965 4.15908 13.3828C4.26687 13.569 4.28992 13.793 4.22158 13.997L3.32314 16.6757L6.00771 15.7812L6.08486 15.7607C6.26647 15.7211 6.45743 15.7498 6.62001 15.8437C8.03789 16.6643 9.70638 16.9413 11.3134 16.623C12.9202 16.3047 14.3565 15.4132 15.3544 14.1142C16.3523 12.8151 16.8439 11.1971 16.7372 9.56247C16.6305 7.92773 15.9327 6.38688 14.7743 5.22848C13.616 4.07031 12.0759 3.37329 10.4413 3.26657ZM12.4999 10.5C12.914 10.5 13.2498 10.8359 13.2499 11.25C13.2499 11.6642 12.9141 12 12.4999 12H7.4999C7.0858 11.9998 6.7499 11.6641 6.7499 11.25C6.75002 10.8359 7.08588 10.5001 7.4999 10.5H12.4999ZM12.4999 7.99997C12.914 7.99997 13.2498 8.33585 13.2499 8.74997C13.2499 9.16418 12.9141 9.49997 12.4999 9.49997H7.4999C7.0858 9.49982 6.7499 9.16409 6.7499 8.74997C6.75002 8.33594 7.08588 8.00011 7.4999 7.99997H12.4999Z" fill="black"/>
</svg>
