<svg width="20" height="20" viewBox="0 0 20 20" fill="none" xmlns="http://www.w3.org/2000/svg">
<path d="M6.75 2.5C6.75 2.08579 7.08579 1.75 7.5 1.75C7.91421 1.75 8.25 2.08579 8.25 2.5V3.625H12.5C12.9142 3.625 13.25 3.96079 13.25 4.375C13.25 4.78921 12.9142 5.125 12.5 5.125H10.7148C10.553 6.89838 9.82098 8.57507 8.62402 9.90137C9.63477 10.61 10.8178 11.0257 12.0439 11.1084L13.7041 7.79004L13.7578 7.69922C13.8965 7.49812 14.1263 7.375 14.375 7.375C14.6591 7.375 14.9189 7.53595 15.0459 7.79004L19.4209 16.54C19.6058 16.9104 19.4553 17.3607 19.085 17.5459C18.7145 17.7308 18.2643 17.5803 18.0791 17.21L17.0361 15.125H11.7139L10.6709 17.21C10.4857 17.5803 10.0354 17.7308 9.66504 17.5459C9.29469 17.3607 9.14416 16.9104 9.3291 16.54L11.3281 12.54C10.04 12.3554 8.80798 11.8689 7.73633 11.1113C7.65543 11.0541 7.57565 10.9954 7.49707 10.9355C6.06844 12.0237 4.31603 12.625 2.5 12.625C2.08579 12.625 1.75 12.2892 1.75 11.875C1.75 11.4608 2.08579 11.125 2.5 11.125C3.8957 11.125 5.24546 10.6908 6.37305 9.90039C5.64874 9.09742 5.08514 8.15572 4.7207 7.125C4.58263 6.73448 4.78721 6.30604 5.17773 6.16797C5.56817 6.03013 5.99673 6.23458 6.13477 6.625C6.43505 7.4743 6.9013 8.24917 7.5 8.90918C8.455 7.85615 9.04887 6.5308 9.20605 5.125H2.5C2.08579 5.125 1.75 4.78921 1.75 4.375C1.75 3.96079 2.08579 3.625 2.5 3.625H6.75V2.5ZM12.4639 13.625H16.2861L14.375 9.80176L12.4639 13.625Z" fill="black"/>
</svg>
