<svg width="20" height="20" viewBox="0 0 20 20" fill="none" xmlns="http://www.w3.org/2000/svg">
<path d="M3.24522 2.57019C3.55157 2.29169 4.02611 2.3139 4.30479 2.62L16.8048 16.37C17.0833 16.6764 17.0611 17.1509 16.755 17.4296C16.4486 17.7081 15.9741 17.686 15.6954 17.3798L14.1173 15.6444C13.857 16.2398 13.5331 16.7344 13.2755 17.077L13.2726 17.0809C13.154 17.2366 13.0034 17.365 12.8312 17.4579C12.6589 17.5508 12.4688 17.6065 12.2735 17.62C12.0784 17.6335 11.8827 17.6043 11.6993 17.536C11.5159 17.4677 11.349 17.3614 11.2101 17.2235L7.52256 13.537L4.28037 16.7802C3.98748 17.073 3.51272 17.073 3.21983 16.7802C2.92701 16.4873 2.92696 16.0125 3.21983 15.7196L6.46201 12.4764L2.77842 8.79285L2.7794 8.79187C2.64274 8.65538 2.53508 8.49272 2.46592 8.31238C2.39665 8.1317 2.36651 7.93821 2.37705 7.745L2.39268 7.60144C2.41565 7.45875 2.46108 7.32035 2.52744 7.19128L2.60069 7.06628C2.67964 6.94588 2.777 6.83841 2.88975 6.74792C3.62396 6.15562 4.35378 5.81916 5.02842 5.64539L3.19541 3.62976C2.91688 3.32337 2.93903 2.84886 3.24522 2.57019ZM6.24815 6.98718C5.6207 6.99026 4.80656 7.16878 3.93858 7.83191L12.1622 16.0546C12.4691 15.6257 12.8117 15.0364 12.9718 14.3837L6.24815 6.98718ZM18.8741 7.24109C18.8741 7.60514 18.7288 7.95309 18.4718 8.21082L18.4728 8.21179L14.9845 11.7118C14.6921 12.0052 14.2173 12.0061 13.9239 11.7137C13.6306 11.4213 13.6296 10.9466 13.922 10.6532L17.3224 7.24011L12.7618 2.67664L9.62705 5.81921C9.33451 6.11211 8.85965 6.11256 8.56651 5.82019C8.27327 5.52766 8.27301 5.05289 8.56553 4.75964L11.7892 1.5282C12.047 1.27053 12.3973 1.12488 12.7618 1.12488L12.8976 1.13171C13.1673 1.15854 13.4232 1.26457 13.6329 1.4364L13.7335 1.52722L18.4718 6.26941C18.7294 6.52724 18.8741 6.87659 18.8741 7.24109Z" fill="black"/>
</svg>
