<svg width="20" height="20" viewBox="0 0 20 20" fill="none" xmlns="http://www.w3.org/2000/svg">
<path d="M4.24994 6.49115C4.24994 6.07694 4.58573 5.74115 4.99994 5.74115C5.41416 5.74115 5.74994 6.07694 5.74994 6.49115V16.1464L9.60248 13.7392L9.69623 13.6894C9.92162 13.5895 10.1845 13.6061 10.3974 13.7392L14.2499 16.1464V15.9999C14.2499 15.5857 14.5857 15.2499 14.9999 15.2499C15.4142 15.2499 15.7499 15.5857 15.7499 15.9999V17.4999C15.7499 17.7726 15.6017 18.024 15.3632 18.1562C15.1248 18.2882 14.8336 18.2801 14.6025 18.1357L9.99994 15.2587L5.3974 18.1357C5.16631 18.2801 4.87507 18.2882 4.63666 18.1562C4.3982 18.024 4.24994 17.7726 4.24994 17.4999V6.49115ZM14.2499 11.1894V3.87494H6.93549L14.2499 11.1894ZM15.7499 12.6894L18.0302 14.9697C18.3231 15.2626 18.3231 15.7373 18.0302 16.0302C17.7373 16.3231 17.2626 16.3231 16.9697 16.0302L2.96967 2.03022C2.67678 1.73732 2.67678 1.26256 2.96967 0.96967C3.26256 0.676777 3.73732 0.676777 4.03022 0.96967L5.43549 2.37494H14.3749C14.694 2.37494 15.0014 2.48606 15.246 2.68647L15.3476 2.77729L15.4384 2.87885C15.6388 3.12351 15.7499 3.43091 15.7499 3.74994V12.6894Z" fill="black"/>
</svg>
