<svg width="20" height="20" viewBox="0 0 20 20" fill="none" xmlns="http://www.w3.org/2000/svg">
<path d="M4.5 16.75H15.5V7.625H11.875C11.4608 7.625 11.125 7.28921 11.125 6.875V3.25H4.5V16.75ZM9.25 14.375V11.1855L8.65527 11.7803C8.36238 12.0732 7.88762 12.0732 7.59473 11.7803C7.30183 11.4874 7.30183 11.0126 7.59473 10.7197L9.46973 8.84473L9.52637 8.79297C9.82095 8.55266 10.2557 8.57012 10.5303 8.84473L12.4053 10.7197C12.6982 11.0126 12.6982 11.4874 12.4053 11.7803C12.1124 12.0732 11.6376 12.0732 11.3447 11.7803L10.75 11.1855V14.375C10.75 14.7892 10.4142 15.125 10 15.125C9.58579 15.125 9.25 14.7892 9.25 14.375ZM12.625 6.125H14.4395L12.625 4.31055V6.125ZM17 16.875C17 17.2397 16.8555 17.5898 16.5977 17.8477C16.3398 18.1055 15.9897 18.25 15.625 18.25H4.375C4.01033 18.25 3.66021 18.1055 3.40234 17.8477C3.14448 17.5898 3 17.2397 3 16.875V3.125C3 2.76033 3.14448 2.41021 3.40234 2.15234L3.50391 2.06152C3.74856 1.86111 4.05597 1.75 4.375 1.75H11.875C12.0739 1.75 12.2646 1.82907 12.4053 1.96973L16.7803 6.34473C16.9209 6.48538 17 6.67609 17 6.875V16.875Z" fill="black"/>
</svg>
