<svg width="20" height="20" viewBox="0 0 20 20" fill="none" xmlns="http://www.w3.org/2000/svg">
<g clip-path="url(#clip0_14246_498374)">
<path d="M12.3749 7.8125C12.3749 5.63788 10.6121 3.875 8.43745 3.875C6.26283 3.875 4.49995 5.63788 4.49995 7.8125C4.49995 9.98712 6.26283 11.75 8.43745 11.75C10.6121 11.75 12.3749 9.98712 12.3749 7.8125ZM16.7499 12.5V11.375H15.6249C15.2107 11.375 14.8749 11.0392 14.8749 10.625C14.8749 10.2108 15.2107 9.875 15.6249 9.875H16.7499V8.75C16.7499 8.33579 17.0857 8 17.4999 8C17.9142 8 18.2499 8.33579 18.2499 8.75V9.875H19.3749C19.7892 9.875 20.1249 10.2108 20.1249 10.625C20.1249 11.0392 19.7892 11.375 19.3749 11.375H18.2499V12.5C18.2499 12.9142 17.9142 13.25 17.4999 13.25C17.0857 13.25 16.7499 12.9142 16.7499 12.5ZM13.8749 7.8125C13.8749 9.66513 12.9471 11.2995 11.5322 12.2812C13.1227 12.8526 14.4921 13.8551 15.5742 15.1426C15.8406 15.4597 15.7994 15.9327 15.4824 16.1992C15.1653 16.4656 14.6922 16.4245 14.4257 16.1074C12.9476 14.3488 10.884 13.25 8.43745 13.25C5.99094 13.25 3.92732 14.3488 2.44917 16.1074C2.18269 16.4245 1.70961 16.4656 1.39253 16.1992C1.07548 15.9327 1.03433 15.4597 1.30073 15.1426C2.38263 13.8553 3.75161 12.8526 5.34174 12.2812C3.92716 11.2995 2.99995 9.66485 2.99995 7.8125C2.99995 4.80945 5.4344 2.375 8.43745 2.375C11.4405 2.375 13.8749 4.80945 13.8749 7.8125Z" fill="black"/>
</g>
<defs>
<clipPath id="clip0_14246_498374">
<rect width="20" height="20" fill="white"/>
</clipPath>
</defs>
</svg>
