<svg width="20" height="20" viewBox="0 0 20 20" fill="none" xmlns="http://www.w3.org/2000/svg">
<path d="M9.87527 8.4375C9.87527 6.60819 8.39203 5.12521 6.56277 5.125C4.73332 5.125 3.25027 6.60806 3.25027 8.4375C3.25027 10.2547 4.71313 11.7293 6.52566 11.749C6.5379 11.749 6.55052 11.748 6.56277 11.748C6.57481 11.7481 6.58686 11.749 6.5989 11.749C8.41151 11.7294 9.87527 10.2548 9.87527 8.4375ZM13.7249 3.63379C14.4323 3.67666 15.1216 3.8757 15.7434 4.21582C16.3651 4.55594 16.9039 5.02905 17.3216 5.60157C17.7392 6.17405 18.0254 6.83152 18.1594 7.52735C18.2934 8.22317 18.2721 8.94034 18.0969 9.62696C17.9217 10.3136 17.5968 10.9534 17.1458 11.5C16.8952 11.8037 16.6079 12.073 16.2932 12.3057C16.559 12.413 16.8201 12.5335 17.0735 12.6709C18.1898 13.2762 19.1371 14.1512 19.8294 15.2158C20.0551 15.5631 19.9569 16.0281 19.6096 16.2539C19.2624 16.4797 18.7974 16.3814 18.5716 16.0342C18.0157 15.1792 17.2551 14.4764 16.3587 13.9902C15.462 13.5041 14.4577 13.2494 13.4378 13.25C13.0238 13.2502 12.6883 12.9149 12.6878 12.501C12.6875 12.1128 12.9817 11.7928 13.3596 11.7539L13.4368 11.75L13.6194 11.7451C14.0444 11.7213 14.4619 11.6157 14.8479 11.4336C15.2889 11.2255 15.6782 10.922 15.9885 10.5459C16.299 10.1697 16.5232 9.72944 16.6438 9.25684C16.7644 8.78425 16.779 8.29047 16.6868 7.81153C16.5946 7.33249 16.3971 6.87947 16.1096 6.48535C15.8222 6.09134 15.4516 5.76533 15.0237 5.53125C14.5957 5.29714 14.121 5.16037 13.6341 5.13086C13.1471 5.10137 12.6594 5.17964 12.2063 5.36035C11.8217 5.51366 11.3852 5.3269 11.2317 4.94239C11.0783 4.55776 11.2662 4.12136 11.6507 3.96778C12.309 3.70521 13.0174 3.59093 13.7249 3.63379ZM11.3753 8.4375C11.3753 10.024 10.6063 11.43 9.42214 12.3066C9.68664 12.4137 9.94634 12.5341 10.1985 12.6709C11.3147 13.2764 12.262 14.1513 12.9544 15.2158C13.1802 15.5631 13.0819 16.0281 12.7346 16.2539C12.3874 16.4797 11.9224 16.3814 11.6966 16.0342C11.1404 15.179 10.3794 14.4757 9.48269 13.9893C8.59628 13.5085 7.60498 13.2547 6.59695 13.249C6.58556 13.2491 6.57417 13.25 6.56277 13.25C6.55117 13.25 6.53919 13.2491 6.52761 13.249C5.51958 13.2547 4.52826 13.5085 3.64187 13.9893C2.7452 14.4757 1.98418 15.179 1.428 16.0342C1.20214 16.3813 0.737113 16.4797 0.389915 16.2539C0.0427651 16.028 -0.0556256 15.563 0.170188 15.2158C0.862547 14.1513 1.80989 13.2765 2.92605 12.6709C3.1779 12.5343 3.43728 12.4136 3.70144 12.3066C2.51772 11.4299 1.75027 10.0237 1.75027 8.4375C1.75027 5.77963 3.9049 3.625 6.56277 3.625C9.22046 3.62521 11.3753 5.77976 11.3753 8.4375Z" fill="black"/>
</svg>
