<svg width="20" height="20" viewBox="0 0 20 20" fill="none" xmlns="http://www.w3.org/2000/svg">
<path d="M14.2499 7.5C14.2499 5.15279 12.3471 3.25 9.9999 3.25C7.65269 3.25 5.7499 5.15279 5.7499 7.5C5.7499 9.84721 7.65269 11.75 9.9999 11.75C12.3471 11.75 14.2499 9.84721 14.2499 7.5ZM15.7499 7.5C15.7499 9.50499 14.7227 11.2688 13.1669 12.2979C15.2841 13.0601 17.0313 14.5672 18.1493 16.499C18.3568 16.8575 18.2343 17.3169 17.8759 17.5244C17.5174 17.7319 17.058 17.6094 16.8505 17.251C15.4617 14.8513 12.9519 13.25 9.9999 13.25C7.04788 13.25 4.5381 14.8513 3.14931 17.251C2.94181 17.6094 2.48239 17.7319 2.12392 17.5244C1.7655 17.3169 1.64303 16.8575 1.85048 16.499C2.96838 14.5674 4.71506 13.0602 6.83193 12.2979C5.27649 11.2687 4.2499 9.5047 4.2499 7.5C4.2499 4.32436 6.82426 1.75 9.9999 1.75C13.1755 1.75 15.7499 4.32436 15.7499 7.5Z" fill="black"/>
</svg>
