<svg width="20" height="20" viewBox="0 0 20 20" fill="none" xmlns="http://www.w3.org/2000/svg">
<g clip-path="url(#clip0_14111_491491)">
<path d="M2.625 14.25H14.875V5.75H2.625V14.25ZM16.375 9.15137V10.8486L18.625 12.3486V7.65137L16.375 9.15137ZM16.375 7.34863L18.959 5.62598C19.1891 5.4726 19.4847 5.45849 19.7285 5.58887C19.9724 5.71938 20.125 5.9734 20.125 6.25V13.75C20.125 14.0266 19.9724 14.2806 19.7285 14.4111C19.4847 14.5415 19.1891 14.5274 18.959 14.374L16.375 12.6514V14.375C16.375 15.1344 15.7594 15.75 15 15.75H2.5C1.74061 15.75 1.125 15.1344 1.125 14.375V5.625C1.125 4.86561 1.74061 4.25 2.5 4.25H15C15.7594 4.25 16.375 4.86561 16.375 5.625V7.34863Z" fill="black"/>
</g>
<defs>
<clipPath id="clip0_14111_491491">
<rect width="20" height="20" fill="white"/>
</clipPath>
</defs>
</svg>
