<svg width="20" height="20" viewBox="0 0 20 20" fill="none" xmlns="http://www.w3.org/2000/svg">
<path d="M9.25 18.75V16.3281C7.83559 16.1605 6.50952 15.5251 5.49219 14.5078C4.29664 13.3123 3.625 11.6908 3.625 10C3.625 9.58579 3.96079 9.25 4.375 9.25C4.78921 9.25 5.125 9.58579 5.125 10C5.125 11.2929 5.63849 12.533 6.55273 13.4473C7.46697 14.3615 8.70707 14.875 10 14.875C11.2929 14.875 12.533 14.3615 13.4473 13.4473C14.3615 12.533 14.875 11.2929 14.875 10C14.875 9.58579 15.2108 9.25 15.625 9.25C16.0392 9.25 16.375 9.58579 16.375 10C16.375 11.6908 15.7034 13.3123 14.5078 14.5078C13.4905 15.5251 12.1644 16.1605 10.75 16.3281V18.75C10.75 19.1642 10.4142 19.5 10 19.5C9.58579 19.5 9.25 19.1642 9.25 18.75ZM12.375 5C12.375 3.68832 11.3117 2.625 10 2.625C8.68832 2.625 7.625 3.68832 7.625 5V10C7.625 11.3117 8.68832 12.375 10 12.375C11.3117 12.375 12.375 11.3117 12.375 10V5ZM13.875 10C13.875 12.1401 12.1401 13.875 10 13.875C7.8599 13.875 6.125 12.1401 6.125 10V5C6.125 2.8599 7.8599 1.125 10 1.125C12.1401 1.125 13.875 2.8599 13.875 5V10Z" fill="black"/>
</svg>
