<svg width="20" height="20" viewBox="0 0 20 20" fill="none" xmlns="http://www.w3.org/2000/svg">
<path d="M15.0947 3.84467C15.3876 3.55178 15.8623 3.55178 16.1552 3.84467C16.4481 4.13756 16.4481 4.61232 16.1552 4.90522L11.0605 9.99994L16.1552 15.0947C16.4481 15.3876 16.4481 15.8623 16.1552 16.1552C15.8623 16.4481 15.3876 16.4481 15.0947 16.1552L9.99994 11.0605L4.90522 16.1552C4.61232 16.4481 4.13756 16.4481 3.84467 16.1552C3.55178 15.8623 3.55178 15.3876 3.84467 15.0947L8.9394 9.99994L3.84467 4.90522C3.55178 4.61232 3.55178 4.13756 3.84467 3.84467C4.13756 3.55178 4.61232 3.55178 4.90522 3.84467L9.99994 8.9394L15.0947 3.84467Z" fill="black"/>
</svg>
