<?xml version="1.0" encoding="UTF-8"?>
<svg width="78px" height="78px" viewBox="0 0 78 78" version="1.1" xmlns="http://www.w3.org/2000/svg" xmlns:xlink="http://www.w3.org/1999/xlink">
    <!-- Generator: Sketch 52.6 (67491) - http://www.bohemiancoding.com/sketch -->
    <title>Combined Shape</title>
    <desc>Created with Sketch.</desc>
    <g id="Interactions" stroke="none" stroke-width="1" fill="none" fill-rule="evenodd">
        <g id="Connection-Error-_-Connectivity" transform="translate(-270.000000, -30.000000)" fill="#CF1F25">
            <g id="109-network-connection" transform="translate(270.000000, 30.000000)">
                <path d="M66.4609744,11.414231 C81.6225232,26.5757798 81.6225232,51.157545 66.4609744,66.3188467 C51.2994256,81.4803954 26.7176604,81.4803954 11.5563587,66.3188467 C-3.60519004,51.1572979 -3.60519004,26.5755327 11.5563587,11.414231 C26.7179075,-3.74731776 51.2996727,-3.74731776 66.4609744,11.414231 Z M54.7853215,45.8823776 L54.7853215,40.5882574 C54.7853215,39.613638 53.9952341,38.8235506 53.0206147,38.8235506 L44.9576695,38.8235506 L41.428256,42.3529641 L51.255555,42.3529641 L51.255555,45.8823776 L54.7853215,45.8823776 Z M40.6659027,43.1153174 L37.8988425,45.8823776 L40.6659027,45.8823776 L40.6659027,43.1153174 Z M51.1764962,56.4702653 L58.2353232,56.4702653 C59.2099355,56.4702653 60.00003,55.6801708 60.00003,54.7055585 L60.00003,51.176145 C60.00003,50.2015327 59.2099355,49.4114382 58.2353232,49.4114382 L51.1764962,49.4114382 C50.2018839,49.4114382 49.4117894,50.2015327 49.4117894,51.176145 L49.4117894,54.7055585 C49.4117894,55.6801708 50.2018839,56.4702653 51.1764962,56.4702653 Z M35.2941353,56.4702653 L42.3529624,56.4702653 C43.3275746,56.4702653 44.1176691,55.6801708 44.1176691,54.7055585 L44.1176691,51.176145 C44.1176691,50.2015327 43.3275746,49.4114382 42.3529624,49.4114382 L35.2941353,49.4114382 C34.319523,49.4114382 33.5294285,50.2015327 33.5294285,51.176145 L33.5294285,54.7055585 C33.5294285,55.6801708 34.319523,56.4702653 35.2941353,56.4702653 Z M56.6964989,19.0874231 C56.007381,18.3985134 54.8903216,18.3985134 54.2012036,19.087423 L45.882376,27.4062507 L45.882376,19.4117761 C45.882376,18.4371568 45.0922885,17.6470693 44.1176692,17.6470693 L33.5294286,17.6470693 C32.5548092,17.6470694 31.7647218,18.4371568 31.7647218,19.4117761 L31.7647218,30.0000167 C31.7647219,30.9746363 32.5548092,31.7647237 33.5294285,31.7647237 L41.5239031,31.7647237 L34.4650761,38.8235508 L24.7058947,38.8235508 C23.7312753,38.8235508 22.9411879,39.6136382 22.9411879,40.5882575 L22.9411879,45.8823778 L26.4706014,45.8823778 L26.4706014,42.3529643 L30.9356624,42.3529643 L23.8768354,49.4117914 L19.4117743,49.4117914 C18.4371549,49.4117914 17.6470675,50.2018788 17.6470675,51.1764981 L17.6470675,54.7059117 C17.6504049,54.9674302 17.7129076,55.2248042 17.8298886,55.4587302 L16.4456526,56.8429662 C15.7446193,57.5200453 15.7252005,58.6372282 16.4022825,59.3382615 C17.0793616,60.0392948 18.1965445,60.0587136 18.8975778,59.3816316 C18.9122847,59.3674273 18.9267436,59.3529684 18.940948,59.3382615 L56.6964963,21.5830662 C57.3856425,20.8939094 57.3856425,19.7765747 56.6964963,19.0874179 Z" id="Combined-Shape"></path>
            </g>
        </g>
    </g>
</svg>